<svg width="64" height="64" viewBox="0 0 64 64" fill="none" xmlns="http://www.w3.org/2000/svg">
<path d="M53.4317 21.0482C52.8947 21.0482 52.3798 21.2616 52.0001 21.6415C51.6204 22.0215 51.407 22.5367 51.407 23.074V48.5688L11.9257 9.06555C11.5425 8.71416 11.0388 8.52373 10.5191 8.5337C9.99935 8.54366 9.50336 8.75326 9.13384 9.11909C8.76432 9.48491 8.54958 9.97892 8.5341 10.4988C8.51862 11.0187 8.70359 11.5246 9.05069 11.9118L48.532 51.415H23.0716C22.5346 51.415 22.0196 51.6285 21.6399 52.0084C21.2602 52.3883 21.0469 52.9036 21.0469 53.4409C21.0469 53.9781 21.2602 54.4934 21.6399 54.8733C22.0196 55.2532 22.5346 55.4667 23.0716 55.4667H53.4419C53.9788 55.4667 54.4938 55.2532 54.8735 54.8733C55.2532 54.4934 55.4665 53.9781 55.4665 53.4409V23.0537C55.4612 22.5182 55.2441 22.0066 54.8628 21.6308C54.4815 21.255 53.967 21.0455 53.4317 21.0482Z" fill="#484848"/>
</svg>
