<svg width="64" height="65" viewBox="0 0 64 65" fill="none" xmlns="http://www.w3.org/2000/svg">
<path d="M61.6399 43.8751C61.1688 43.6371 60.6227 43.5951 60.1207 43.758C59.6187 43.921 59.2014 44.2758 58.9599 44.7451C57.6162 47.3777 55.8683 49.7835 53.7799 51.8751C51.1798 54.4754 48.093 56.5382 44.6957 57.9455C41.2984 59.3528 37.6572 60.0771 33.9799 60.0771C30.3027 60.0771 26.6614 59.3528 23.2641 57.9455C19.8668 56.5382 16.78 54.4754 14.1799 51.8751C11.5796 49.275 9.51685 46.1882 8.10954 42.7909C6.70223 39.3936 5.97789 35.7524 5.97789 32.0751C5.97789 28.3979 6.70223 24.7566 8.10954 21.3593C9.51685 17.962 11.5796 14.8752 14.1799 12.2751C19.2995 7.10181 26.2402 4.13736 33.5175 4.01589C40.7947 3.89442 47.8305 6.62556 53.1199 11.6251L55.4699 13.9951H47.3599C46.8295 13.9951 46.3208 14.2058 45.9457 14.5809C45.5706 14.956 45.3599 15.4647 45.3599 15.9951C45.3599 16.5255 45.5706 17.0342 45.9457 17.4093C46.3208 17.7844 46.8295 17.9951 47.3599 17.9951H60.3599C60.6334 17.9955 60.9041 17.9398 61.1552 17.8314C61.4063 17.7231 61.6326 17.5644 61.8199 17.3651C62.0062 17.1646 62.1493 16.9281 62.2405 16.6701C62.3316 16.4121 62.3689 16.1381 62.3499 15.8651L61.4599 2.5151C61.4264 1.98976 61.1871 1.49882 60.794 1.14875C60.4009 0.798678 59.8856 0.617715 59.3599 0.645102C58.8308 0.681019 58.3377 0.925577 57.9889 1.325C57.6401 1.72443 57.4642 2.24602 57.4999 2.7751L58.0099 10.8451L55.9299 8.7551C49.8873 3.01658 41.8364 -0.125173 33.5041 0.00382071C25.1718 0.132815 17.222 3.52227 11.3599 9.4451C5.36023 15.4461 1.98975 23.5844 1.98975 32.0701C1.98975 40.5558 5.36023 48.6941 11.3599 54.6951C14.3298 57.6686 17.8577 60.0262 21.7413 61.6324C25.6248 63.2387 29.7873 64.062 33.9899 64.0551C38.1909 64.0612 42.3517 63.2375 46.2335 61.6313C50.1153 60.025 53.6416 57.6679 56.6099 54.6951C59.0005 52.3135 60.9956 49.5656 62.5199 46.5551C62.7571 46.0828 62.7977 45.5357 62.6328 45.0335C62.4679 44.5314 62.111 44.1149 61.6399 43.8751Z" fill="#484848"/>
<path d="M23.6789 42.7126C23.3823 42.9571 23.1684 43.2872 23.0666 43.6578C22.9647 44.0284 22.9799 44.4215 23.1099 44.7831C23.2434 45.1528 23.4902 45.4709 23.8151 45.692C24.14 45.913 24.5265 46.0259 24.9193 46.0143H41.8009C42.2956 46.0143 42.7701 45.8178 43.1199 45.4679C43.4697 45.1181 43.6663 44.6437 43.6663 44.1489C43.6663 43.6542 43.4697 43.1797 43.1199 42.8299C42.7701 42.4801 42.2956 42.2836 41.8009 42.2836H29.1724C30.4785 40.5557 31.3343 38.53 31.6626 36.389H38.4526C38.9473 36.389 39.4218 36.1925 39.7716 35.8426C40.1214 35.4928 40.3179 35.0183 40.3179 34.5236C40.3179 34.0289 40.1214 33.5544 39.7716 33.2046C39.4218 32.8548 38.9473 32.6583 38.4526 32.6583H31.6347C31.5414 31.9028 31.4201 31.1566 31.2896 30.4291C31.159 29.7016 31.0098 28.8716 30.9258 28.1254L30.8792 27.6684C30.6655 26.6357 30.6846 25.5683 30.9351 24.5439C31.2346 23.729 31.7753 23.0247 32.4851 22.5248C33.1949 22.0249 34.0402 21.7532 34.9084 21.7458C36.0208 21.7483 37.0869 22.1913 37.8734 22.9779C38.66 23.7644 39.103 24.8306 39.1055 25.9429C39.1055 26.4377 39.302 26.9121 39.6518 27.2619C40.0016 27.6118 40.4761 27.8083 40.9708 27.8083C41.4656 27.8083 41.94 27.6118 42.2898 27.2619C42.6397 26.9121 42.8362 26.4377 42.8362 25.9429C42.835 24.9006 42.6285 23.8687 42.2284 22.9062C41.8284 21.9437 41.2428 21.0694 40.5049 20.3332C39.767 19.5971 38.8913 19.0135 37.9278 18.6157C36.9644 18.218 35.932 18.0139 34.8897 18.0151C33.2555 18.016 31.6615 18.5218 30.3258 19.4635C28.9901 20.4051 27.9781 21.7365 27.4282 23.2754C26.9582 24.8326 26.8686 26.4798 27.1671 28.0788L27.2231 28.5171C27.3163 29.3845 27.4656 30.2333 27.6148 31.0634C27.7081 31.595 27.8013 32.1266 27.8759 32.6396H25.7494C25.2547 32.6396 24.7802 32.8361 24.4304 33.186C24.0806 33.5358 23.884 34.0102 23.884 34.505C23.884 34.9997 24.0806 35.4742 24.4304 35.824C24.7802 36.1738 25.2547 36.3703 25.7494 36.3703H27.8853C27.4048 38.3144 26.3942 40.087 24.966 41.4908C24.5601 41.9218 24.1304 42.3297 23.6789 42.7126Z" fill="#484848"/>
</svg>
