<svg width="64" height="64" viewBox="0 0 64 64" fill="none" xmlns="http://www.w3.org/2000/svg">
<path fill-rule="evenodd" clip-rule="evenodd" d="M32 60C16.561 60 4 47.439 4 32C4 16.561 16.561 4 32 4C47.439 4 60 16.561 60 32C60 47.439 47.439 60 32 60ZM32 0C14.355 0 0 14.355 0 32C0 49.645 14.355 64 32 64C49.645 64 64 49.645 64 32C64 14.355 49.645 0 32 0ZM32 41.0854C33.104 41.0854 34 40.1894 34 39.0854V16.9144C34 15.8104 33.104 14.9144 32 14.9144C30.896 14.9144 30 15.8104 30 16.9144V39.0854C30 40.1894 30.896 41.0854 32 41.0854ZM32.01 44.8813H32.02C33.124 44.8813 34.02 45.7773 34.02 46.8813C34.02 47.9853 33.124 48.8813 32.02 48.8813C30.916 48.8813 30.015 47.9853 30.015 46.8813C30.015 45.7773 30.905 44.8813 32.01 44.8813Z" fill="#484848"/>
</svg>
