<svg width="64" height="64" viewBox="0 0 64 64" fill="none" xmlns="http://www.w3.org/2000/svg">
<path d="M60.8974 43.9091C59.9088 43.4093 58.7225 43.8091 58.2281 44.8087C56.9429 47.4075 55.1634 49.8064 53.0873 51.9055C42.3113 62.8005 24.7137 62.8005 13.9377 51.9055C3.16164 41.0104 3.16164 23.2184 13.9377 12.3233C24.7137 1.52818 41.6192 1.22832 52.4941 11.6236L54.8668 14.0225H46.7601C45.6726 14.0225 44.7828 14.9221 44.7828 16.0216C44.7828 17.1211 45.6726 18.0207 46.7601 18.0207H59.6122C60.2054 18.0207 60.6997 17.8208 61.0952 17.421C61.4906 17.0212 61.6883 16.5214 61.5895 15.9217L60.7986 2.52773C60.6997 1.42823 59.8099 0.62859 58.7225 0.62859C57.635 0.728545 56.8441 1.62814 56.8441 2.72764L57.3384 10.824L55.2623 8.72494C42.7067 -3.1697 23.4285 -2.86983 11.2684 9.42462C-1.08946 21.919 -1.08946 42.2098 11.2684 54.7042C17.3979 60.9014 25.5046 64 33.6113 64C41.7181 64 49.8248 60.9014 55.9543 54.6042C58.327 52.2053 60.3043 49.5065 61.7872 46.5079C62.2815 45.6083 61.8861 44.4088 60.8974 43.9091Z" fill="#484848"/>
<path d="M38.851 26.9167C38.851 28.0162 39.7408 28.9158 40.8283 28.9158C41.9158 28.9158 42.8055 28.0162 42.8055 26.9167C42.8055 23.5183 39.8397 20.6196 35.984 19.9199V19.1202C35.984 18.0207 35.0943 17.1212 34.0068 17.1212C32.9193 17.1212 32.0295 18.0207 32.0295 19.1202V19.9199C29.8545 20.3197 28.075 21.3193 26.7898 22.8186C24.7137 25.3175 24.8125 28.9158 27.0864 31.3147C28.1739 32.4142 29.5579 33.2139 31.1397 33.7137C31.4363 33.8136 31.7329 33.8136 32.0295 33.9136V40.2107C30.3488 39.711 29.1625 38.6115 29.1625 37.312C29.1625 36.2125 28.2727 35.3129 27.1852 35.3129C26.0977 35.3129 25.208 36.2125 25.208 37.312C25.208 40.7105 28.1739 43.6092 32.0295 44.3089V45.1085C32.0295 46.208 32.9193 47.1076 34.0068 47.1076C35.0943 47.1076 35.984 46.208 35.984 45.1085V44.3089C37.9613 43.9091 39.7408 43.0095 40.9272 41.7101C43.3987 39.2112 43.2999 35.213 40.7294 32.7141C39.6419 31.6146 38.159 30.815 36.4783 30.4152C36.2806 30.3152 36.0829 30.3152 35.8852 30.3152V24.018C37.6647 24.5178 38.851 25.6173 38.851 26.9167ZM29.8545 28.516C28.9648 27.6164 28.9648 26.317 29.7557 25.3175C30.25 24.7177 31.0409 24.2179 32.0295 23.9181V29.7155C31.1397 29.5156 30.3488 29.1157 29.8545 28.516ZM37.9613 35.5128C38.9499 36.5124 38.9499 37.9118 38.0601 38.9113C37.5658 39.511 36.7749 39.9109 35.8852 40.1108V34.3134C36.7749 34.6133 37.467 35.0131 37.9613 35.5128Z" fill="#484848"/>
</svg>
