<svg width="64" height="64" viewBox="0 0 64 64" fill="none" xmlns="http://www.w3.org/2000/svg">
<g clip-path="url(#clip0_285:5)">
<path fill-rule="evenodd" clip-rule="evenodd" d="M54.1501 4.10218C56.8501 4.10218 59.25 5.10032 61.15 6.99677C64.95 10.7897 64.95 16.9781 61.15 20.771C60.75 21.1703 60.25 21.3699 59.75 21.3699C59.25 21.3699 58.75 21.1703 58.35 20.771L54.2501 16.6787L51.9501 18.9744C55.8501 23.5658 58.25 29.5546 58.25 36.0424C58.25 42.5303 55.8501 48.5191 51.9501 53.1105L57.7501 58.8997C58.55 59.6982 58.55 60.8959 57.7501 61.6945C57.3501 62.0937 56.8501 62.2933 56.3501 62.2933C55.8501 62.2933 55.3501 62.0937 54.9501 61.6945L49.1501 55.9053C44.5502 59.798 38.5502 62.1935 32.0502 62.1935C25.5503 62.1935 19.5503 59.798 14.9504 55.9053L9.15042 61.6945C8.75043 62.0937 8.25043 62.2933 7.75043 62.2933C7.25044 62.2933 6.75044 62.0937 6.35044 61.6945C5.55045 60.8959 5.55045 59.6982 6.35044 58.8997L12.1504 53.1105C8.25043 48.5191 5.85045 42.5303 5.85045 36.0424C5.85045 29.5546 8.15043 23.5658 12.1504 19.0742L9.85042 16.7785L5.75045 20.8708C5.35045 21.2701 4.85046 21.4697 4.35046 21.4697C3.85046 21.4697 3.35047 21.2701 2.95047 20.8708C-0.949499 16.9781 -0.949499 10.7897 2.75047 6.99677C4.65046 5.10032 7.15044 4.10218 9.75042 4.10218C12.4504 4.10218 14.8504 5.10032 16.7504 6.99677C17.5504 7.79528 17.5504 8.99303 16.7504 9.79154L12.6504 13.8839L14.9504 16.1796C19.0503 12.5863 24.3503 10.2906 30.0503 9.89135V5.6992H25.8503C24.7503 5.6992 23.8503 4.80088 23.8503 3.70293C23.8503 2.60498 24.7503 1.70667 25.8503 1.70667H31.4503H32.5502H38.1502C39.2502 1.70667 40.1502 2.60498 40.1502 3.70293C40.1502 4.80088 39.2502 5.6992 38.1502 5.6992H33.8502V9.89135C39.6502 10.3904 44.8502 12.6861 48.9501 16.1796L51.2501 13.8839L47.1501 9.79154C46.3501 8.99303 46.3501 7.79528 47.1501 6.99677C49.0501 5.10032 51.5501 4.10218 54.1501 4.10218ZM5.75045 9.79154C3.95046 11.5882 3.55047 14.1833 4.55046 16.3792L8.45043 12.4865L12.3504 8.59378C11.5504 8.29434 10.6504 8.09471 9.85042 8.09471C8.35043 8.09471 6.85044 8.69359 5.75045 9.79154ZM9.85042 36.0424C9.85042 48.2197 19.7503 58.201 32.0502 58.201C44.3502 58.201 54.2501 48.3195 54.2501 36.0424C54.2501 23.8652 44.2502 13.8839 32.0502 13.8839C19.8503 13.8839 9.85042 23.7654 9.85042 36.0424ZM55.6501 12.4865L59.55 16.3792C60.55 14.1833 60.15 11.5882 58.35 9.79154C56.5501 7.9949 53.9501 7.59565 51.7501 8.59378L55.6501 12.4865ZM35.9499 36.0424C35.9499 36.3419 35.9499 36.7411 35.8499 37.0406L41.0499 42.3307C41.4499 42.7299 41.6499 43.229 41.6499 43.7281C41.6499 44.2271 41.4499 44.7262 41.0499 45.1254C40.6499 45.5247 40.1499 45.7243 39.6499 45.7243C39.1499 45.7243 38.6499 45.5247 38.2499 45.1254L32.95 39.8353C32.8107 39.8353 32.6715 39.8568 32.5223 39.8799C32.35 39.9065 32.1643 39.9352 31.95 39.9352C29.75 39.9352 27.95 38.1385 27.95 35.9426C27.95 34.5452 28.75 33.2477 29.95 32.549V19.4734C29.95 18.3755 30.85 17.4772 31.95 17.4772C33.05 17.4772 33.95 18.3755 33.95 19.4734V32.6488C35.15 33.2477 35.9499 34.5452 35.9499 36.0424Z" fill="#484848"/>
</g>
<defs>
<clipPath id="clip0_285:5">
<rect width="64" height="64" fill="white"/>
</clipPath>
</defs>
</svg>
