<svg width="64" height="64" viewBox="0 0 64 64" fill="none" xmlns="http://www.w3.org/2000/svg">
<g clip-path="url(#clip0_247:193)">
<path d="M54.9848 21.7944L33.7352 0.581662C33.3598 0.209111 32.8519 0 32.3226 0C31.7932 0 31.2854 0.209111 30.91 0.581662L9.66035 21.7944C9.4506 21.9738 9.28024 22.1944 9.15997 22.4426C9.0397 22.6908 8.97211 22.9611 8.96145 23.2365C8.9508 23.512 8.99729 23.7867 9.09803 24.0434C9.19877 24.3001 9.35157 24.5332 9.54684 24.7281C9.74211 24.9231 9.97564 25.0756 10.2328 25.1762C10.4899 25.2767 10.7651 25.3231 11.041 25.3125C11.317 25.3019 11.5878 25.2344 11.8363 25.1143C12.0849 24.9943 12.306 24.8242 12.4856 24.6148L30.3189 6.82248V61.9997C30.3189 62.5302 30.53 63.039 30.9057 63.4141C31.2815 63.7893 31.7912 64 32.3226 64C32.854 64 33.3637 63.7893 33.7394 63.4141C34.1152 63.039 34.3263 62.5302 34.3263 61.9997V6.82248L52.1596 24.6148C52.5429 24.9425 53.0359 25.1138 53.5402 25.0943C54.0445 25.0749 54.5229 24.8662 54.8797 24.5099C55.2366 24.1537 55.4457 23.6762 55.4651 23.1727C55.4846 22.6693 55.3131 22.1771 54.9848 21.7944Z" fill="#484848"/>
</g>
<defs>
<clipPath id="clip0_247:193">
<rect width="64" height="64" fill="white"/>
</clipPath>
</defs>
</svg>
