<svg width="64" height="64" viewBox="0 0 64 64" fill="none" xmlns="http://www.w3.org/2000/svg">
<g clip-path="url(#clip0_247:191)">
<path d="M63.4183 30.2647L42.2056 9.01514C41.8229 8.68687 41.3307 8.51534 40.8273 8.53482C40.3238 8.5543 39.8463 8.76335 39.4901 9.12021C39.1338 9.47706 38.9251 9.95543 38.9057 10.4597C38.8862 10.964 39.0575 11.4571 39.3852 11.8404L57.1775 29.6736H2.00026C1.46976 29.6736 0.960986 29.8847 0.585863 30.2605C0.210741 30.6363 0 31.1459 0 31.6774C0 32.2088 0.210741 32.7185 0.585863 33.0942C0.960986 33.47 1.46976 33.6811 2.00026 33.6811H57.1775L39.3852 51.5143C39.1758 51.694 39.0057 51.915 38.8857 52.1636C38.7656 52.4122 38.6981 52.683 38.6875 52.9589C38.6768 53.2349 38.7233 53.5101 38.8238 53.7672C38.9244 54.0243 39.0769 54.2578 39.2719 54.4531C39.4668 54.6484 39.6999 54.8012 39.9566 54.9019C40.2133 55.0027 40.488 55.0492 40.7635 55.0385C41.0389 55.0278 41.3092 54.9603 41.5574 54.84C41.8056 54.7197 42.0262 54.5494 42.2056 54.3396L63.4183 33.09C63.7909 32.7146 64 32.2067 64 31.6774C64 31.148 63.7909 30.6402 63.4183 30.2647Z" fill="#484848"/>
</g>
<defs>
<clipPath id="clip0_247:191">
<rect width="64" height="64" fill="white"/>
</clipPath>
</defs>
</svg>
