<svg width="64" height="64" viewBox="0 0 64 64" fill="none" xmlns="http://www.w3.org/2000/svg">
<g clip-path="url(#clip0_247:192)">
<path d="M61.9997 29.8922H6.82248L24.6148 12.059C24.8242 11.8794 24.9943 11.6583 25.1143 11.4097C25.2344 11.1611 25.3019 10.8903 25.3125 10.6144C25.3231 10.3384 25.2767 10.0633 25.1762 9.80614C25.0756 9.54901 24.9231 9.31548 24.7281 9.12021C24.5332 8.92493 24.3001 8.77213 24.0434 8.67139C23.7867 8.57066 23.512 8.52416 23.2365 8.53482C22.9611 8.54548 22.6908 8.61306 22.4426 8.73333C22.1944 8.8536 21.9738 9.02396 21.7944 9.23372L0.581662 30.4833C0.209111 30.8587 0 31.3666 0 31.8959C0 32.4253 0.209111 32.9332 0.581662 33.3086L21.7944 54.5582C22.1771 54.8864 22.6693 55.058 23.1727 55.0385C23.6762 55.019 24.1537 54.81 24.5099 54.4531C24.8662 54.0963 25.0749 53.6179 25.0943 53.1136C25.1138 52.6093 24.9425 52.1162 24.6148 51.7329L6.82248 33.8997H61.9997C62.5302 33.8997 63.039 33.6886 63.4141 33.3128C63.7893 32.937 64 32.4274 64 31.8959C64 31.3645 63.7893 30.8549 63.4141 30.4791C63.039 30.1033 62.5302 29.8922 61.9997 29.8922Z" fill="#484848"/>
</g>
<defs>
<clipPath id="clip0_247:192">
<rect width="64" height="64" fill="white"/>
</clipPath>
</defs>
</svg>
