<svg width="64" height="64" viewBox="0 0 64 64" fill="none" xmlns="http://www.w3.org/2000/svg">
<g clip-path="url(#clip0_247:194)">
<path d="M54.8827 39.3852C54.5063 39.0126 53.9972 38.8035 53.4665 38.8035C52.9358 38.8035 52.4267 39.0126 52.0503 39.3852L34.1718 57.1775V2.00026C34.1718 1.46976 33.9602 0.960986 33.5834 0.585863C33.2067 0.210741 32.6958 0 32.163 0C31.6302 0 31.1193 0.210741 30.7425 0.585863C30.3658 0.960986 30.1542 1.46976 30.1542 2.00026V57.1775L12.2757 39.3852C11.8914 39.0575 11.3971 38.8862 10.8915 38.9057C10.3859 38.9251 9.90634 39.1338 9.54858 39.4901C9.19082 39.8463 8.98123 40.3238 8.9617 40.8273C8.94218 41.3307 9.11414 41.8229 9.44324 42.2056L30.7468 63.4183C31.1231 63.7909 31.6323 64 32.163 64C32.6937 64 33.2028 63.7909 33.5792 63.4183L54.8827 42.2056C55.2569 41.8308 55.4669 41.3238 55.4669 40.7954C55.4669 40.2669 55.2569 39.76 54.8827 39.3852Z" fill="#484848"/>
</g>
<defs>
<clipPath id="clip0_247:194">
<rect width="64" height="64" fill="white"/>
</clipPath>
</defs>
</svg>
