<svg width="64" height="64" viewBox="0 0 64 64" fill="none" xmlns="http://www.w3.org/2000/svg">
<path d="M53.4339 8.53335H23.0967C22.5603 8.53335 22.0459 8.74644 21.6666 9.12574C21.2873 9.50504 21.0742 10.0195 21.0742 10.5559C21.0742 11.0923 21.2873 11.6068 21.6666 11.9861C22.0459 12.3654 22.5603 12.5785 23.0967 12.5785H48.5598L9.12133 52.0182C8.83959 52.3016 8.64813 52.6622 8.57111 53.0543C8.4941 53.4465 8.53499 53.8527 8.68862 54.2216C8.84225 54.5906 9.10173 54.9057 9.43431 55.1273C9.76689 55.3489 10.1577 55.467 10.5573 55.4667C11.0914 55.4671 11.6039 55.2562 11.9831 54.8801L51.4216 15.4404V40.8841C51.4216 41.4205 51.6347 41.9349 52.0139 42.3142C52.3932 42.6935 52.9077 42.9066 53.4441 42.9066C53.9805 42.9066 54.4949 42.6935 54.8742 42.3142C55.2535 41.9349 55.4665 41.4205 55.4665 40.8841V10.5458C55.4652 10.2802 55.4116 10.0174 55.3087 9.77256C55.2059 9.52768 55.0558 9.30546 54.867 9.11858C54.6783 8.93171 54.4546 8.78385 54.2087 8.68343C53.9628 8.58302 53.6995 8.53202 53.4339 8.53335Z" fill="#484848"/>
</svg>
