<svg width="64" height="64" viewBox="0 0 64 64" fill="none" xmlns="http://www.w3.org/2000/svg">
<path fill-rule="evenodd" clip-rule="evenodd" d="M50 0H19.3H19.1H18.9H10C8.9 0 8 0.9 8 2V62C8 63.1 8.9 64 10 64H50C53.3 64 56 61.3 56 58V6C56 2.7 53.3 0 50 0ZM12 4H17.1V60H12V4ZM52 58C52 59.1 51.1 60 50 60H21.1V4H50C51.1 4 52 4.9 52 6V58ZM31.8 31.7323C33.5 30.2323 35.8 29.7323 38.1 30.1323C41 30.6323 43.4 33.0323 43.9 36.1323C44.6 39.7323 42.7 43.3323 39.3 44.6323C38.9 44.8323 38.5 45.1323 38.5 45.6323V47.0323C38.5 48.1323 37.6 49.0323 36.5 49.0323C35.4 49.0323 34.5 48.1323 34.5 47.0323V45.6323C34.5 43.5323 35.8 41.7323 37.8 40.9323C39.4 40.3323 40.3 38.6323 40 36.9323C39.8 35.5323 38.7 34.4323 37.3 34.1323C36.2 33.9323 35.1 34.1323 34.3 34.8323C33.5 35.4323 33 36.4323 33 37.5323C33 38.6323 32.1 39.5323 31 39.5323C29.9 39.5323 29 38.6323 29 37.5323C29 35.2323 30 33.1323 31.8 31.7323ZM38.5 52.9323C38.5 54.0368 37.6046 54.9323 36.5 54.9323C35.3954 54.9323 34.5 54.0368 34.5 52.9323C34.5 51.8277 35.3954 50.9323 36.5 50.9323C37.6046 50.9323 38.5 51.8277 38.5 52.9323ZM27.5 8.89999H45.5C46.6 8.89999 47.5 9.79999 47.5 10.9V21.4C47.5 22.5 46.6 23.4 45.5 23.4H27.5C26.4 23.4 25.5 22.5 25.5 21.4V10.9C25.5 9.79999 26.4 8.89999 27.5 8.89999ZM29.5 19.4H43.5V12.9H29.5V19.4Z" fill="#484848"/>
</svg>
