<svg width="64" height="64" viewBox="0 0 64 64" fill="none" xmlns="http://www.w3.org/2000/svg">
<g clip-path="url(#clip0_247:291)">
<path d="M32.1932 64C31.7512 63.9991 31.3218 63.8526 30.9719 63.5831C30.6219 63.3137 30.3711 62.9364 30.2584 62.5101L19.9925 23.3928H10.9698C10.5647 23.3937 10.1688 23.2723 9.83425 23.0444C9.4997 22.8165 9.24221 22.4929 9.09569 22.1162C8.94917 21.7395 8.9205 21.3273 9.01345 20.934C9.1064 20.5408 9.31662 20.1848 9.61641 19.913L30.8398 0.524329C31.2095 0.187051 31.6923 0 32.1932 0C32.6942 0 33.177 0.187051 33.5466 0.524329L54.8102 19.913C55.11 20.1848 55.3202 20.5408 55.4131 20.934C55.5061 21.3273 55.4774 21.7395 55.3309 22.1162C55.1844 22.4929 54.9269 22.8165 54.5923 23.0444C54.2578 23.2723 53.8619 23.3937 53.4568 23.3928H44.4341L34.1381 62.5101C34.025 62.9381 33.7726 63.3166 33.4207 63.5862C33.0687 63.8558 32.637 64.0013 32.1932 64ZM16.0927 19.393H21.5364C21.9802 19.3917 22.4119 19.5372 22.7639 19.8068C23.1158 20.0765 23.3681 20.4549 23.4813 20.8829L32.1932 54.1007L40.9152 20.8829C41.0279 20.4566 41.2788 20.0793 41.6287 19.8099C41.9786 19.5404 42.408 19.3939 42.8501 19.393H48.2938L32.1932 4.71404L16.0927 19.393Z" fill="#484848"/>
</g>
<defs>
<clipPath id="clip0_247:291">
<rect width="64" height="64" fill="white"/>
</clipPath>
</defs>
</svg>
