<svg width="64" height="64" viewBox="0 0 64 64" fill="none" xmlns="http://www.w3.org/2000/svg">
<path d="M50 0H43.7H43.6H29.4H29.3H19.3C19.2 0 19.2 0 19.1 0C19 0 19 0 18.9 0H10C8.9 0 8 0.9 8 2V62C8 63.1 8.9 64 10 64H50C53.3 64 56 61.3 56 58V6C56 2.7 53.3 0 50 0ZM31.4 4H41.6V21.1L37.7 18.2C37.3 17.9 36.9 17.8 36.5 17.8C36.1 17.8 35.7 17.9 35.3 18.2L31.4 21.1V4ZM12 4H17.1V60H12V4ZM52 58C52 59.1 51.1 60 50 60H21.1V4H27.5V25.1C27.5 25.9 27.9 26.6 28.6 26.9C29.3 27.2 30.1 27.2 30.7 26.7L36.6 22.3L42.5 26.7C42.9 27 43.3 27.1 43.7 27.1C44 27.1 44.3 27 44.6 26.9C45.3 26.6 45.7 25.9 45.7 25.1V4H50C51.1 4 52 4.9 52 6V58Z" fill="#484848"/>
</svg>
