<svg width="64" height="64" viewBox="0 0 64 64" fill="none" xmlns="http://www.w3.org/2000/svg">
<path fill-rule="evenodd" clip-rule="evenodd" d="M34.2171 6.26798C34.2171 7.37197 33.3208 8.26797 32.2142 8.26797C31.1086 8.26797 30.2113 7.37197 30.2113 6.26798V1.99999C30.2113 0.895997 31.1086 0 32.2142 0C33.3208 0 34.2171 0.895997 34.2171 1.99999V6.26798ZM38.5714 50.1728C38.8789 47.6108 40.1798 45.2158 42.2508 43.4748C45.7678 40.5118 47.7858 36.1798 47.7858 31.5919C47.7858 27.2739 46.0553 23.2599 42.9127 20.2909C39.9915 17.5319 36.223 16.0389 32.2212 16.0389C31.9228 16.0389 31.6234 16.0479 31.3219 16.0649C23.3734 16.5029 16.9281 23.0789 16.6487 31.0339C16.4864 35.8318 18.4963 40.3668 22.1646 43.4708C24.2286 45.2038 25.5265 47.6018 25.828 50.1728H30.2113V39.0988C27.214 38.2298 25.0148 35.4678 25.0148 32.1989C25.0148 31.0939 25.9121 30.1989 27.0177 30.1989C28.1243 30.1989 29.0206 31.0939 29.0206 32.1989C29.0206 33.9569 30.4537 35.3878 32.2142 35.3878C33.9748 35.3878 35.4078 33.9569 35.4078 32.1989C35.4078 31.0939 36.3041 30.1989 37.4107 30.1989C38.5163 30.1989 39.4136 31.0939 39.4136 32.1989C39.4136 35.4678 37.2145 38.2298 34.2171 39.0988V50.1728H38.5714ZM27.2087 59.9998H37.1851C37.9092 59.9998 38.497 59.4128 38.497 58.6898V54.1729H25.8968V58.6898C25.8968 59.4128 26.4856 59.9998 27.2087 59.9998ZM12.6448 30.8959C12.9963 20.8909 21.103 12.623 31.1005 12.071C36.5414 11.774 41.7179 13.656 45.6656 17.3849C49.6163 21.1179 51.7915 26.1629 51.7915 31.5919C51.7915 37.3619 49.2558 42.8078 44.8324 46.5328C43.3523 47.7788 42.503 49.5348 42.503 51.3508V58.6898C42.503 61.6188 40.1176 63.9998 37.1853 63.9998H27.2089C24.2776 63.9998 21.8912 61.6188 21.8912 58.6898V51.3268C21.8912 49.5098 21.05 47.7598 19.5808 46.5268C14.9671 42.6218 12.4405 36.9269 12.6448 30.8959ZM13.9878 13.6195C14.3844 14.0915 14.9512 14.3345 15.523 14.3345C15.9777 14.3345 16.4343 14.1815 16.8099 13.8665C17.6571 13.1565 17.7673 11.8945 17.0562 11.0495L14.3092 7.77949C13.5972 6.93249 12.3334 6.82249 11.4872 7.53249C10.6399 8.24249 10.5288 9.50448 11.2398 10.3495L13.9878 13.6195ZM8.61164 28.0426C8.4404 29.0116 7.59517 29.6946 6.64179 29.6946C6.52662 29.6946 6.40945 29.6846 6.29128 29.6646L2.08218 28.9236C0.992606 28.7306 0.265552 27.6936 0.457831 26.6056C0.650109 25.5176 1.69362 24.7916 2.77819 24.9836L6.98729 25.7246C8.07687 25.9176 8.80392 26.9546 8.61164 28.0426ZM8.72194 43.4309L5.02057 45.5649C4.06219 46.1179 3.73471 47.3399 4.28751 48.2969C4.65805 48.9389 5.33102 49.2969 6.02403 49.2969C6.36352 49.2969 6.70802 49.2109 7.02348 49.0299L10.7248 46.8959C11.6832 46.3429 12.0107 45.1199 11.4579 44.1629C10.9051 43.2069 9.68033 42.8789 8.72194 43.4309ZM55.7037 43.4326L59.405 45.5666C60.3634 46.1196 60.6909 47.3416 60.1381 48.2986C59.7675 48.9406 59.0936 49.2986 58.4016 49.2986C58.0621 49.2986 57.7176 49.2126 57.4021 49.0316L53.7008 46.8976C52.7434 46.3446 52.4149 45.1226 52.9677 44.1656C53.5205 43.2096 54.7453 42.8816 55.7037 43.4326ZM63.9695 26.6096C63.7772 25.5216 62.7387 24.7976 61.6501 24.9866L57.44 25.7266C56.3514 25.9186 55.6234 26.9556 55.8147 28.0436C55.9859 29.0136 56.8311 29.6966 57.7855 29.6966C57.9007 29.6966 58.0179 29.6866 58.135 29.6666L62.3441 28.9256C63.4337 28.7346 64.1608 27.6976 63.9695 26.6096ZM50.4417 13.6204C50.0461 14.0924 49.4783 14.3354 48.9065 14.3354C48.4518 14.3354 47.9951 14.1824 47.6196 13.8674C46.7724 13.1574 46.6622 11.8964 47.3732 11.0504L50.1202 7.78038C50.8312 6.93439 52.0951 6.82339 52.9423 7.53338C53.7895 8.24338 53.8997 9.50538 53.1887 10.3514L50.4417 13.6204Z" fill="#484848"/>
</svg>
