<svg width="64" height="64" viewBox="0 0 64 64" fill="none" xmlns="http://www.w3.org/2000/svg">
<path fill-rule="evenodd" clip-rule="evenodd" d="M59.9995 46.9996C59.9995 45.8956 60.8955 44.9997 61.9995 44.9997C63.1035 44.9997 63.9995 45.8956 63.9995 46.9996V61.9995C63.9995 63.1035 63.1035 63.9995 61.9995 63.9995H1.99998C0.895993 63.9995 0 63.1035 0 61.9995V1.99998C0 0.895993 0.895993 0 1.99998 0H16.9999C18.1039 0 18.9999 0.895993 18.9999 1.99998C18.9999 3.10398 18.1039 3.99997 16.9999 3.99997H3.99997V59.9995H59.9995V46.9996ZM63.9274 1.49371C63.9397 1.53128 63.952 1.56873 63.96 1.60837C63.986 1.73736 64 1.86936 64 2.00036V21.3002C64 22.4052 63.104 23.3002 62 23.3002C60.895 23.3002 60 22.4052 60 21.3002V6.82833L33.4142 33.4141C33.0232 33.8041 32.5112 34.0001 32.0002 34.0001C31.4882 34.0001 30.9762 33.8041 30.5852 33.4141C29.8042 32.6321 29.8042 31.3671 30.5852 30.5861L57.171 4.00035H42.6991C41.5941 4.00035 40.6991 3.10435 40.6991 2.00036C40.6991 0.895371 41.5941 0.000377601 42.6991 0.000377601H62C62.131 0.000377601 62.262 0.0133775 62.392 0.0393773C62.4262 0.0459774 62.4593 0.0568976 62.4924 0.0678177C62.5145 0.0750974 62.5366 0.0823771 62.559 0.0883769C62.5791 0.0944957 62.5993 0.10019 62.6194 0.10588C62.6685 0.119719 62.7175 0.133535 62.765 0.153376C62.8158 0.174506 62.8636 0.20176 62.9113 0.228907C62.9245 0.236449 62.9377 0.243983 62.951 0.251376C62.969 0.261249 62.9873 0.27031 63.0055 0.279349C63.0408 0.296862 63.076 0.314291 63.109 0.337375C63.328 0.483374 63.517 0.671372 63.663 0.891371C63.6831 0.920884 63.6988 0.952369 63.7147 0.984092C63.7241 1.00289 63.7335 1.02177 63.744 1.04037C63.7531 1.05717 63.7626 1.0739 63.7721 1.09068C63.7987 1.13779 63.8256 1.18522 63.847 1.23537C63.8661 1.28143 63.8792 1.329 63.8923 1.37666C63.8977 1.39625 63.9031 1.41585 63.909 1.43537C63.9147 1.45506 63.9211 1.4744 63.9274 1.49371Z" fill="#484848"/>
</svg>
