<svg width="64" height="64" viewBox="0 0 64 64" fill="none" xmlns="http://www.w3.org/2000/svg">
<path fill-rule="evenodd" clip-rule="evenodd" d="M49.3172 60H15.1094C13.9282 60 12.9675 59.041 12.9675 57.862V6.138C12.9675 4.959 13.9282 4 15.1094 4H38.3177V15.484C38.3177 16.589 39.2144 17.484 40.3214 17.484H51.4592V57.862C51.4592 59.041 50.4984 60 49.3172 60ZM50.832 13.466C50.838 13.472 50.841 13.479 50.847 13.484H42.3251V4.975L50.832 13.466ZM53.6653 10.638L44.8098 1.799C43.6496 0.639 42.1047 0 40.4607 0H15.1094C11.7191 0 8.95996 2.753 8.95996 6.138V57.862C8.95996 61.247 11.7191 64 15.1094 64H49.3172C52.7085 64 55.4666 61.247 55.4666 57.862V14.978C55.4666 13.338 54.8264 11.797 53.6653 10.638Z" fill="#484848"/>
</svg>
