<svg width="64" height="64" viewBox="0 0 64 64" fill="none" xmlns="http://www.w3.org/2000/svg">
<g clip-path="url(#clip0_602:2)">
<path d="M49 22.107C49 20.5073 48.4 19.0076 47.2 17.8078C46.4 17.0079 45.4 16.508 44.4 16.208C43.8 12.8086 41.5 9.90909 38 8.30935V6.10972C38 4.50999 37.4 3.01025 36.2 1.81045C35.1 0.710632 33.7 0.110732 32.2 0.0107492C30.6 -0.089234 29 0.510665 27.8 1.71046C26.5 2.91026 25.8 4.60998 25.8 6.30969V8.40934C22.4 10.1091 20 13.0086 19.4 16.308C17 17.0079 15 19.3075 15 22.107C15 23.6068 15.5 25.0066 16.5 26.1064C15.5 27.2062 15 28.6059 15 30.1057V58.001C15 61.3005 17.7 64 21 64H43C46.3 64 49 61.3005 49 58.001V30.1057C49 28.6059 48.4 27.2062 47.5 26.1064C48.4 25.1065 49 23.7068 49 22.107ZM28.1 11.8088C29.2 11.3089 30 10.209 30 9.00924V6.30969C30 5.70979 30.3 5.00991 30.7 4.60998C30.9 4.31003 31.4 4.01008 32.1 4.01008C32.6 4.01008 33.1 4.21004 33.5 4.60998C33.9 5.00991 34.1 5.50983 34.1 6.10972V9.10922C34.1 10.309 34.8 11.4088 36 11.9087C38.2 12.8086 39.7 14.4083 40.3 16.308H23.7C24.4 14.3083 25.9 12.7086 28.1 11.8088ZM21 20.1074H21.4H42.6H43C43.5 20.1074 44 20.3073 44.4 20.7073C44.8 21.1072 45 21.6071 45 22.107C45 23.2069 44.1 24.1067 43 24.1067H21C20.5 24.1067 20 23.9067 19.6 23.5068C19.2 23.2069 19 22.7069 19 22.107C19 21.0072 19.9 20.1074 21 20.1074ZM45 58.001C45 59.1008 44.1 60.0007 43 60.0007H21C19.9 60.0007 19 59.1008 19 58.001V54.1017H25.8C26.9 54.1017 27.8 53.2018 27.8 52.102C27.8 51.0022 26.9 50.1023 25.8 50.1023H19V46.103H29.5C30.6 46.103 31.5 45.2032 31.5 44.1033C31.5 43.0035 30.6 42.1037 29.5 42.1037H19V38.1043H25.8C26.9 38.1043 27.8 37.2045 27.8 36.1047C27.8 35.0049 26.9 34.105 25.8 34.105H19V30.2057C19 29.1059 19.9 28.206 21 28.206H43C44.1 28.206 45 29.1059 45 30.2057V58.001Z" fill="#484848"/>
</g>
<defs>
<clipPath id="clip0_602:2">
<rect width="64" height="64" fill="white"/>
</clipPath>
</defs>
</svg>
