<svg width="64" height="64" viewBox="0 0 64 64" fill="none" xmlns="http://www.w3.org/2000/svg">
<path fill-rule="evenodd" clip-rule="evenodd" d="M4 32C4 16.561 16.561 4 32 4C47.439 4 60 16.561 60 32C60 47.439 47.439 60 32 60C16.561 60 4 47.439 4 32ZM0 32C0 49.645 14.355 64 32 64C49.645 64 64 49.645 64 32C64 14.355 49.645 0 32 0C14.355 0 0 14.355 0 32ZM20 28C21.657 28 23 26.657 23 25C23 24.2319 22.7111 23.5309 22.2359 23H24.9081C26.0121 23 26.9081 22.104 26.9081 21C26.9081 19.896 26.0121 19 24.9081 19H15.0921C13.9871 19 13.0921 19.896 13.0921 21C13.0921 22.104 13.9871 23 15.0921 23H17.7641C17.2889 23.5309 17 24.2319 17 25C17 26.657 18.343 28 20 28ZM47 25C47 26.657 45.657 28 44 28C42.343 28 41 26.657 41 25C41 24.2319 41.2889 23.5309 41.7641 23H39.0921C37.9871 23 37.0921 22.104 37.0921 21C37.0921 19.896 37.9871 19 39.0921 19H48.9081C50.0121 19 50.9081 19.896 50.9081 21C50.9081 22.104 50.0121 23 48.9081 23H46.2359C46.7111 23.5309 47 24.2319 47 25ZM15.5409 42.0801C19.8519 46.6781 25.6969 49.2111 31.9999 49.2111C38.3029 49.2111 44.1479 46.6781 48.4589 42.0801C49.2149 41.2741 49.1739 40.0081 48.3679 39.2531C47.5629 38.4951 46.2959 38.5371 45.5409 39.3441C41.9939 43.1271 37.1859 45.2111 31.9999 45.2111C26.8139 45.2111 22.0059 43.1271 18.4589 39.3441C17.7039 38.5381 16.4369 38.4981 15.6319 39.2531C14.8259 40.0081 14.7849 41.2741 15.5409 42.0801Z" fill="#484848"/>
</svg>
