<svg width="64" height="64" viewBox="0 0 64 64" fill="none" xmlns="http://www.w3.org/2000/svg">
<path fill-rule="evenodd" clip-rule="evenodd" d="M55.5204 2V20C57.1244 23.4 58.0266 27.2 58.0266 31.1V58C58.0266 61.3 55.3199 64 52.0118 64H12.4147C9.10654 64 6.3999 61.3 6.3999 58V31.1C6.3999 27.2 7.30212 23.4 8.90605 20V2C8.90605 0.9 9.80826 0 10.911 0H21.537C22.6397 0 23.542 0.9 23.542 2V6.9C26.2486 5.9 29.256 5.4 32.2634 5.4C35.2707 5.4 38.2781 5.9 40.9848 6.9V2C40.9848 0.9 41.887 0 42.9897 0H53.5155C54.6182 0 55.5204 0.9 55.5204 2ZM51.5106 4H44.9946V8.8C47.5007 10.2 49.6059 11.9 51.5106 14V4ZM19.4319 4H12.9159V14C14.8206 12 17.026 10.2 19.4319 8.8V4ZM18.0284 39.1V59.9H46.4983V39.1C46.4983 31.3 40.0825 24.9 32.2634 24.9C24.4442 24.9 18.0284 31.3 18.0284 39.1ZM52.0118 60C53.1145 60 54.0167 59.1 54.0167 58H53.9165V31.1C53.9165 19.2 44.0924 9.4 32.1631 9.4C20.2338 9.4 10.4097 19.1 10.4097 31.1V58C10.4097 59.1 11.312 60 12.4147 60H14.0186V39.1C14.0186 29.1 22.2388 20.9 32.2634 20.9C42.288 20.9 50.5081 29.1 50.5081 39.1V60H52.0118ZM24.1436 39.1H40.183C41.2857 39.1 42.1879 40 42.1879 41.1C42.1879 42.2 41.2857 43.1 40.183 43.1H24.1436C23.0409 43.1 22.1387 42.2 22.1387 41.1C22.1387 40 23.0409 39.1 24.1436 39.1Z" fill="#484848"/>
</svg>
