<svg width="64" height="64" viewBox="0 0 64 64" fill="none" xmlns="http://www.w3.org/2000/svg">
<path d="M51.1 26.249C48.8 26.249 46.7 26.8491 44.9 27.8493L42.3 19.748L44.4 14.7471C44.7 14.147 44.6 13.4469 44.2 12.8468C43.8 12.2467 43.2 11.9467 42.5 11.9467H36.1C35 11.9467 34.1 12.8468 34.1 13.947C34.1 15.0472 35 15.9473 36.1 15.9473H39.5L38.3 18.8478C38.1 19.2479 38.1 19.748 38.2 20.248L38.6 21.4482H25.1L24.2 19.6479H25.2C26.3 19.6479 27.2 18.7478 27.2 17.6476C27.2 16.5474 26.3 15.6473 25.2 15.6473H17.9C16.8 15.6473 15.9 16.5474 15.9 17.6476C15.9 18.7478 16.8 19.6479 17.9 19.6479H19.8L21.5 23.3486L18.5 27.5492C16.8 26.7491 14.9 26.249 12.9 26.249C5.8 26.249 0 32.05 0 39.1512C0 46.2524 5.8 52.0533 12.9 52.0533C19.3 52.0533 24.7 47.3525 25.7 41.1515H31.2C31.4 41.1515 31.5 41.1515 31.7 41.0515C31.8 41.0515 31.8 41.0515 31.9 40.9515C32 40.9515 32.1 40.9515 32.1 40.8515C32.1 40.8515 32.1 40.8515 32.2 40.8515L32.3 40.7514C32.4 40.6514 32.5 40.6514 32.6 40.5514L32.7 40.4514C32.8 40.3514 32.9 40.2514 32.9 40.1513C32.9 40.1513 32.9 40.1513 33 40.0513L40.8 27.9493L41.6 30.3497C39.5 32.6501 38.2 35.6506 38.2 39.0512C38.2 46.1523 44 51.9533 51.1 51.9533C58.2 51.9533 64 46.3524 64 39.1512C64 31.95 58.2 26.249 51.1 26.249ZM23.5 27.5492L28.1 37.2509H25.7C25.3 34.3504 23.9 31.85 21.9 29.9496L23.5 27.5492ZM19.5 33.2502C20.5 34.3504 21.2 35.7506 21.6 37.2509H16.7L19.5 33.2502ZM12.9 48.1527C8 48.1527 4 44.152 4 39.2512C4 34.3504 8 30.3497 12.9 30.3497C14.1 30.3497 15.2 30.5497 16.2 30.9498L11.2 38.051C10.8 38.6511 10.7 39.4512 11.1 40.1513C11.5 40.8515 12.1 41.2515 12.9 41.2515H21.6C20.7 45.1522 17.2 48.1527 12.9 48.1527ZM31.5 35.0505L27 25.4489H37.7L31.5 35.0505ZM51.1 48.1527C46.2 48.1527 42.2 44.152 42.2 39.2512C42.2 37.3509 42.8 35.5506 43.8 34.1503L49.6 40.6514C50 41.0515 50.5 41.3515 51.1 41.3515C51.6 41.3515 52.1 41.1515 52.4 40.8515C53.2 40.1513 53.3 38.8511 52.5 38.051L46.7 31.5499C48 30.8498 49.5 30.4497 51 30.4497C55.9 30.4497 59.9 34.4504 59.9 39.3512C59.9 44.252 56 48.1527 51.1 48.1527Z" fill="#484848"/>
</svg>
