<svg width="64" height="64" viewBox="0 0 64 64" fill="none" xmlns="http://www.w3.org/2000/svg">
<path d="M58 9.81335H10.2C7.4 9.81335 5 11.8089 4.4 14.5029L0.1 30.0681C0 30.4673 0 30.7666 0 31.1657V41.8419C0 45.1345 2.7 47.8285 6 47.8285H8.4C9.3 51.7198 12.8 54.6134 17 54.6134C21.2 54.6134 24.7 51.7198 25.6 47.8285H38.5C39.4 51.7198 42.9 54.6134 47.1 54.6134C51.3 54.6134 54.8 51.7198 55.7 47.8285H58C61.3 47.8285 64 45.1345 64 41.8419V15.8C64 12.5073 61.3 9.81335 58 9.81335ZM60 15.8V24.0815H53V13.8044H58C59.1 13.8044 60 14.7024 60 15.8ZM42 24.0815V13.8044H49V24.0815H42ZM31 24.0815V13.8044H38V24.0815H31ZM20 24.0815V13.8044H27V24.0815H20ZM8.3 15.5007V15.4009C8.5 14.5029 9.3 13.8044 10.3 13.8044H16V24.3808C15.9 24.3808 15.8 24.4806 15.8 24.4806L10.1 28.8708H4.6L8.3 15.5007ZM17 50.6223C14.3 50.6223 12.2 48.4272 12.2 45.833C12.2 43.2387 14.4 41.0436 17 41.0436C19.6 41.0436 21.8 43.2387 21.8 45.833C21.8 48.4272 19.7 50.6223 17 50.6223ZM47 50.6223C44.3 50.6223 42.2 48.4272 42.2 45.833C42.2 43.2387 44.4 41.0436 47 41.0436C49.6 41.0436 51.8 43.2387 51.8 45.833C51.8 48.4272 49.7 50.6223 47 50.6223ZM58 43.8374H55.6C54.7 39.9461 51.2 37.0526 47 37.0526C42.8 37.0526 39.3 39.9461 38.4 43.8374H25.6C24.7 39.9461 21.2 37.0526 17 37.0526C12.8 37.0526 9.3 39.9461 8.4 43.8374H6C4.9 43.8374 4 42.9394 4 41.8419V39.0481H4.9C6 39.0481 6.9 38.1501 6.9 37.0526C6.9 35.955 6 35.057 4.9 35.057H4V32.8619H10.8C11.2 32.8619 11.7 32.7621 12 32.4628L17.7 28.0726H60V41.8419C60 42.9394 59.1 43.8374 58 43.8374Z" fill="#484848"/>
</svg>
