<svg width="64" height="64" viewBox="0 0 64 64" fill="none" xmlns="http://www.w3.org/2000/svg">
<g clip-path="url(#clip0_1500:60)">
<path d="M58.9073 37.4879H49.3409V33.3018L57.5122 29.8133C58.2098 29.5143 58.708 28.8166 58.708 28.0193V17.0556C58.708 15.9593 57.8112 15.0622 56.715 15.0622C55.6189 15.0622 54.722 15.9593 54.722 17.0556V26.6239L49.4406 29.016V21.4411C49.4406 20.3447 48.5437 19.4477 47.4476 19.4477H44.8566C44.1591 15.0622 41.2692 11.4741 37.2832 9.77974L41.4685 3.10187C42.0664 2.20485 41.7675 0.909142 40.8706 0.311124C39.9738 -0.286894 38.6783 0.0121154 38.0804 0.909142L33.1976 8.78304C32.9983 8.78304 32.799 8.78304 32.5997 8.78304H32.4003C32.201 8.78304 32.0017 8.78304 31.8024 8.78304L26.9196 0.909142C26.3217 0.0121154 25.1259 -0.286894 24.1294 0.311124C23.2325 0.909142 22.9336 2.10518 23.5315 3.10187L27.7168 9.77974C23.7308 11.3745 20.8409 15.0622 20.1434 19.4477H17.6521C16.5559 19.4477 15.6591 20.3447 15.6591 21.4411V29.016L10.1783 26.7236V17.0556C10.1783 15.9593 9.28147 15.0622 8.18531 15.0622C7.08916 15.0622 6.19231 15.9593 6.19231 17.0556V28.0193C6.19231 28.8166 6.69056 29.5143 7.38811 29.8133L15.5594 33.3018V37.4879H5.99301C4.89685 37.4879 4 38.3849 4 39.4813C4 40.5776 4.89685 41.4747 5.99301 41.4747H15.5594V45.6608L7.38811 49.1492C6.69056 49.4482 6.19231 50.1459 6.19231 50.9433V61.9069C6.19231 63.0033 7.08916 63.9003 8.18531 63.9003C9.28147 63.9003 10.1783 63.0033 10.1783 61.9069V52.3387L15.8584 49.9466C17.2535 57.9202 24.229 64 32.5 64C40.771 64 47.7465 57.9202 49.1416 49.9466L54.8217 52.3387V61.9069C54.8217 63.0033 55.7185 63.9003 56.8147 63.9003C57.9108 63.9003 58.8077 63.0033 58.8077 61.9069V50.9433C58.8077 50.1459 58.3094 49.4482 57.6119 49.1492L49.4406 45.6608V41.4747H59.007C60.1031 41.4747 61 40.5776 61 39.4813C61 38.3849 60.0035 37.4879 58.9073 37.4879ZM32.3007 12.8695H32.5C36.486 12.8695 39.8741 15.6602 40.771 19.4477H24.1294C24.9266 15.6602 28.3147 12.8695 32.3007 12.8695ZM19.5455 46.9565V32.0061V23.4345H30.507V59.7142C24.229 58.8172 19.5455 53.435 19.5455 46.9565ZM34.493 59.7142V23.4345H45.4545V32.0061V46.9565C45.4545 53.435 40.6713 58.8172 34.493 59.7142Z" fill="#484848"/>
</g>
<defs>
<clipPath id="clip0_1500:60">
<rect width="64" height="64" fill="white"/>
</clipPath>
</defs>
</svg>
