<svg width="64" height="64" viewBox="0 0 64 64" fill="none" xmlns="http://www.w3.org/2000/svg">
<g clip-path="url(#clip0_247:292)">
<path d="M40.8601 56.32C40.5963 56.3195 40.3349 56.2685 40.0902 56.1697C39.7253 56.0173 39.4137 55.7599 39.1947 55.4301C38.9758 55.1004 38.8594 54.713 38.8603 54.317V47.0061C18.5317 41.6882 6.5425 30.181 0.0929435 9.86075C-0.0407279 9.43678 -0.0297581 8.98032 0.124125 8.56328C0.278007 8.14624 0.566055 7.79233 0.942885 7.55732C1.31754 7.32301 1.75911 7.21952 2.19868 7.263C2.63824 7.30648 3.05106 7.49449 3.37272 7.79768C14.372 18.1631 25.9712 22.6398 38.8603 21.418V12.2543C38.8599 11.8585 38.9767 11.4715 39.1958 11.1422C39.4149 10.8128 39.7265 10.5558 40.0913 10.4037C40.4561 10.2515 40.8578 10.211 41.2455 10.2873C41.6333 10.3636 41.9898 10.5532 42.27 10.8322L63.4086 31.8635C63.596 32.0497 63.7448 32.2713 63.8463 32.5153C63.9478 32.7594 64.0001 33.0212 64.0001 33.2856C64.0001 33.5501 63.9478 33.8119 63.8463 34.0559C63.7448 34.3 63.596 34.5216 63.4086 34.7078L42.27 55.7391C41.8951 56.1116 41.3882 56.3204 40.8601 56.32ZM6.57249 15.7395C13.172 30.6718 24.1513 39.3447 41.3301 43.5009C41.7655 43.6063 42.153 43.8551 42.4304 44.2074C42.7078 44.5597 42.8591 44.9951 42.86 45.4438V49.4497L59.1589 33.2856L42.86 17.0715V23.2106C42.8641 23.6997 42.6895 24.1733 42.369 24.5423C42.0485 24.9113 41.6043 25.1501 41.1201 25.2136C28.621 26.8561 17.2518 23.7514 6.57249 15.7395Z" fill="#484848"/>
</g>
<defs>
<clipPath id="clip0_247:292">
<rect width="64" height="64" fill="white"/>
</clipPath>
</defs>
</svg>
