<svg width="64" height="64" viewBox="0 0 64 64" fill="none" xmlns="http://www.w3.org/2000/svg">
<path d="M55.5728 34H61.9696C62.6693 34 63.269 33.7 63.6688 33.1C64.0686 32.5 64.0686 31.9 63.8687 31.2C62.9691 29 62.5693 26.7 62.5693 24.4C62.5693 22.1 62.9691 19.8 63.8687 17.6C64.0686 17 64.0686 16.3 63.6688 15.7C63.269 15.1 62.6693 15 61.9696 15H56.5723C55.273 11 55.4729 6.7 56.9721 2.7C57.172 2.1 57.172 1.4 56.7722 0.8C56.3724 0.2 55.8727 0 55.173 0H7.99652C4.69816 0 1.9995 2.7 1.9995 6V13C1.9995 16.3 4.69816 19 7.99652 19H9.09597C8.89607 19.6 8.69617 20.3 8.69617 21V28C8.69617 28.7 8.79612 29.4 8.99602 30H6.99701C3.69866 30 1 32.7 1 36V43C1 46.3 3.69866 49 6.99701 49H9.09597C8.89607 49.6 8.69617 50.3 8.69617 51V58C8.69617 61.3 11.3948 64 14.6932 64H61.9696C62.6693 64 63.269 63.7 63.6688 63.1C64.0686 62.5 64.0686 61.9 63.8687 61.2C62.1695 56.8 62.1695 52 63.8687 47.7C64.0686 47.1 64.0686 46.4 63.6688 45.8C63.269 45.2 62.6693 45 61.9696 45H55.5728C54.9731 43.2 54.6733 41.4 54.6733 39.5C54.7732 37.6 55.0731 35.8 55.5728 34ZM5.99751 13V6C5.99751 4.9 6.89706 4 7.99652 4H52.4744C51.5748 7.6 51.5748 11.4 52.4744 15H7.99652C6.89706 15 5.99751 14.1 5.99751 13ZM12.7941 28V21C12.7941 19.9 13.6937 19 14.7931 19H59.271C58.7712 20.8 58.5713 22.6 58.5713 24.5C58.5713 26.4 58.7712 28.2 59.271 30H54.2735H32.7842V24.5C32.7842 23.4 31.8846 22.5 30.7852 22.5H19.2909C18.1914 22.5 17.2919 23.4 17.2919 24.5V30H14.7931C13.6937 30 12.7941 29.1 12.7941 28ZM21.2899 32.1C21.2899 32 21.2899 32 21.2899 32.1C21.2899 32 21.2899 32 21.2899 32.1C21.2899 32 21.2899 32 21.2899 32.1C21.2899 32 21.2899 32 21.2899 32.1V26.5H28.7862V37.5L26.1875 35.7C25.8876 35.5 25.4878 35.4 25.088 35.4C24.6882 35.4 24.2884 35.5 23.9886 35.7L21.3898 37.5V32.1H21.2899ZM59.171 60H14.7931C13.6937 60 12.7941 59.1 12.7941 58V51C12.7941 49.9 13.6937 49 14.7931 49H54.1735H59.171C58.2715 52.6 58.2715 56.4 59.171 60ZM14.7931 45H6.99701C5.89756 45 4.99801 44.1 4.99801 43V36C4.99801 34.9 5.89756 34 6.99701 34H14.6932C14.6932 34 14.6932 34 14.7931 34H17.2919V41.2C17.2919 41.9 17.6917 42.6 18.3913 43C18.991 43.3 19.7906 43.3 20.4903 42.9L25.088 39.8L29.6857 42.9C29.9856 43.1 30.3854 43.2 30.7852 43.2C31.085 43.2 31.3849 43.1 31.6847 43C32.3844 42.7 32.7842 42 32.7842 41.2V34H51.3749C50.8752 35.8 50.6753 37.6 50.6753 39.5C50.6753 41.4 50.8752 43.2 51.3749 45H14.7931Z" fill="#484848"/>
</svg>
