<svg width="64" height="64" viewBox="0 0 64 64" fill="none" xmlns="http://www.w3.org/2000/svg">
<path fill-rule="evenodd" clip-rule="evenodd" d="M58 13.1589H57.1V5.98131C57.1 2.69159 54.4 0 51.1 0H12.9C9.6 0 6.9 2.69159 6.9 5.98131V13.1589H6C2.7 13.1589 0 15.8505 0 19.1402V27.7134C0 28.81 0.9 29.7072 2 29.7072H6.9V55.7259C6.9 56.8224 7.8 57.7196 8.9 57.7196H10.9V62.0062C10.9 63.1028 11.8 64 12.9 64H23.2C24.3 64 25.2 63.1028 25.2 62.0062V57.7196H38.8V62.0062C38.8 63.1028 39.7 64 40.8 64H51.1C52.2 64 53.1 63.1028 53.1 62.0062V57.7196H55.1C56.2 57.7196 57.1 56.8224 57.1 55.7259V29.7072H62C63.1 29.7072 64 28.81 64 27.7134V19.1402C64 15.8505 61.3 13.1589 58 13.1589ZM10.9 38.2804V27.7134V15.1526V11.9626H30V40.5732C23.6 40.4735 17.2 39.676 10.9 38.2804ZM34 11.9626H53.1V15.1526V27.7134V38.2804C46.7 39.676 40.4 40.4735 34 40.5732V11.9626ZM12.9 3.98754H51.2C52.3 3.98754 53.2 4.88474 53.2 5.98131V7.97508H10.9V5.98131C10.9 4.88474 11.8 3.98754 12.9 3.98754ZM4 25.7196V19.1402C4 18.0436 4.9 17.1464 6 17.1464H6.9V25.7196H4ZM21.2 60.0125H14.9V57.7196H21.2V60.0125ZM49.1 60.0125H42.8V57.7196H49.1V60.0125ZM51.1 53.7321H40.8H23.2H12.9H10.9V42.3676C17.9 43.8629 24.9 44.5607 31.9 44.6604H32H32.1C39.1 44.6604 46.1 43.8629 53.1 42.3676V53.7321H51.1ZM60 25.7196H57.1V17.1464H58C59.1 17.1464 60 18.0436 60 19.1402V25.7196ZM47.0998 51.2398C48.2043 51.2398 49.0998 50.3471 49.0998 49.246C49.0998 48.1449 48.2043 47.2522 47.0998 47.2522C45.9952 47.2522 45.0998 48.1449 45.0998 49.246C45.0998 50.3471 45.9952 51.2398 47.0998 51.2398ZM18.9005 49.246C18.9005 50.3471 18.0051 51.2398 16.9005 51.2398C15.796 51.2398 14.9005 50.3471 14.9005 49.246C14.9005 48.1449 15.796 47.2522 16.9005 47.2522C18.0051 47.2522 18.9005 48.1449 18.9005 49.246Z" fill="#484848"/>
</svg>
