<svg width="64" height="64" viewBox="0 0 64 64" fill="none" xmlns="http://www.w3.org/2000/svg">
<path d="M62 20.5H56.4V15.9V15.8C56.4 15.7 56.4 15.7 56.4 15.6C56.4 15.5 56.4 15.5 56.4 15.4C56.4 15.3 56.4 15.3 56.3 15.2C56.3 15.2 56.3 15.1 56.2 15.1C56.2 15 56.1 15 56.1 14.9C56.1 14.9 56.1 14.8 56 14.8C56 14.7 55.9 14.7 55.8 14.6L55.7 14.5C55.6 14.4 55.6 14.4 55.5 14.3C55.5 14.3 55.4 14.3 55.4 14.2C55.3 14.2 55.2 14.1 55.2 14.1H55.1C55 14.1 54.9 14 54.8 14H54.7H54.6C52.1 13.8 49.8 13.7 47.7 13.9C46.2 10.7 43.4 8.9 39.7 8.9C37.9 8.9 36.3 9.2 35 9.7C36.5 7 39.7 6.7 40.5 6.7C41.6 6.7 42.5 5.8 42.5 4.7C42.5 3.6 41.6 2.8 40.5 2.7C38.6 2.7 35.7 3.4 33.5 5.3C33.2 4.7 32.9 4.1 32.4 3.6C29.5 0.2 24.4 0 24.2 0C23.2 0 22.3 0.7 22.2 1.6C22.2 1.8 21.5 5.7 23.2 8.9C20.1 9.2 17.7 10.9 16.4 13.8C14.3 13.7 12.1 13.7 9.6 13.9H9.5H9.4C9.3 13.9 9.2 13.9 9.2 14C9.2 14 9.1 14 9.1 14.1C9 14.1 9 14.2 8.9 14.2L8.8 14.3C8.7 14.3 8.7 14.4 8.6 14.4L8.5 14.5C8.5 14.6 8.4 14.6 8.4 14.7C8.4 14.8 8.3 14.8 8.3 14.9C8.1 15 8 15 8 15.1C8 15.2 7.9 15.2 7.9 15.3C7.9 15.4 7.9 15.4 7.8 15.5C7.8 15.6 7.8 15.6 7.8 15.7C7.8 15.8 7.8 15.8 7.8 15.9V16V20.6H2C0.9 20.6 0 21.5 0 22.6V62C0 63.1 0.9 64 2 64H32H62C63.1 64 64 63.1 64 62V22.5C64 21.4 63.1 20.5 62 20.5ZM52.4 17.8V53.1C45 52.7 39.2 54.2 34.1 57.8V36.8C34.9 37 35.6 37.1 36.2 37.2C36.3 37.2 36.5 37.2 36.7 37.2C39.4 37.2 44.3 35.7 47 30C48.3 27.3 49.4 22.2 48.8 17.7C49.9 17.7 51.1 17.7 52.4 17.8ZM29.2 6.1C30 7 30.3 8.4 30.3 9.5C29.2 9.2 27.9 8.6 27.2 7.7C26.4 6.8 26.1 5.4 26.1 4.3C27.2 4.6 28.4 5.2 29.2 6.1ZM24.4 12.8C27 12.8 28.8 13.7 29.8 14.4C31.1 15.3 32.8 15.3 34.1 14.4C35.1 13.7 36.9 12.8 39.5 12.8C41.7 12.8 43.2 13.7 44 15.7C44.1 15.9 44.2 16.2 44.3 16.4V16.5C45.4 20.2 44.4 25.6 43.2 28.2C40.8 33.3 36.4 33.1 36.4 33.1C35.7 33.1 34.5 32.8 33.1 32.3C32.7 32.2 32.3 32.1 31.9 32.1C31.5 32.1 31.1 32.2 30.8 32.3C29.4 32.8 28.2 33 27.5 33.1C27.5 33.1 23.1 33.3 20.7 28.2C19.5 25.6 18.5 20.2 19.6 16.5V16.4C19.7 16.1 19.8 15.9 19.9 15.7C20.7 13.8 22.2 12.8 24.4 12.8ZM15.3 17.7C14.7 22.2 15.9 27.3 17.1 30C20 36 25.2 37.3 27.8 37.2C28.4 37.2 29.2 37 30 36.8V57.8C25 54.2 19.1 52.7 11.7 53.1V17.8C13 17.7 14.2 17.7 15.3 17.7ZM4 24.5H7.8V55.2V55.3V55.4V55.5C7.8 55.6 7.8 55.6 7.8 55.7C7.8 55.8 7.8 55.8 7.9 55.9C7.9 56 8 56 8 56.1C8 56.2 8.1 56.2 8.1 56.3C8.1 56.3 8.1 56.4 8.2 56.4C8.3 56.5 8.3 56.6 8.4 56.6C8.5 56.7 8.6 56.7 8.7 56.8C8.8 57 8.9 57 9 57.1C9 57.1 9 57.1 9.1 57.1C9.2 57.1 9.3 57.2 9.4 57.2H9.5C9.6 57.2 9.7 57.2 9.8 57.2H9.9H10H10.1C16.8 56.5 21.9 57.4 26.3 60H4V24.5ZM60 60H37.9C42.3 57.4 47.4 56.5 54.1 57.2H54.2H54.3H54.4C54.5 57.2 54.6 57.2 54.7 57.2H54.8C54.9 57.2 55 57.1 55.1 57.1C55.1 57.1 55.1 57.1 55.2 57.1C55.3 57.1 55.4 57 55.5 57C55.5 57 55.5 57 55.6 57C55.7 56.9 55.8 56.9 55.8 56.8C55.8 56.8 55.8 56.8 55.9 56.7C56 56.6 56 56.6 56.1 56.5C56.1 56.5 56.1 56.4 56.2 56.4C56.2 56.3 56.3 56.3 56.3 56.2C56.3 56.1 56.3 56.1 56.4 56C56.4 55.9 56.4 55.9 56.5 55.8C56.5 55.7 56.5 55.7 56.5 55.6V55.5V55.4V55.3V24.5H60V60Z" fill="#484848"/>
</svg>
