<svg width="64" height="64" viewBox="0 0 64 64" fill="none" xmlns="http://www.w3.org/2000/svg">
<g clip-path="url(#clip0_1655:100)">
<path d="M48.4866 6.55608C46.1174 4.30811 43.3103 2.56983 40.2395 1.44914C37.1687 0.328443 33.8997 -0.150754 30.6355 0.0412994C24.6751 0.414269 19.0646 2.9767 14.8873 7.23385C10.7099 11.491 8.26199 17.1409 8.0161 23.0928C7.88282 26.7162 8.57848 30.3223 10.0503 33.6377C11.5222 36.953 13.7315 39.8905 16.5109 42.2275C17.4596 43.0033 18.2266 43.977 18.7579 45.08C19.2892 46.183 19.5719 47.3887 19.5862 48.6123V57.8649C19.5889 59.4912 20.2378 61.0502 21.3907 62.2002C22.5436 63.3501 24.1065 63.9974 25.737 64H38.2187C39.8491 63.9974 41.4121 63.3501 42.565 62.2002C43.7179 61.0502 44.3667 59.4912 44.3694 57.8649V48.6823C44.3873 47.4544 44.6736 46.2452 45.2082 45.139C45.7428 44.0328 46.5129 43.0562 47.4648 42.2774C50.1381 40.0347 52.2873 37.2359 53.7617 34.0772C55.236 30.9185 55.9999 27.4764 55.9996 23.9921C56.0175 20.7266 55.3594 17.4925 54.0666 14.4923C52.7738 11.4921 50.8742 8.79037 48.4866 6.55608ZM38.2187 59.9632H25.737C25.1753 59.9633 24.636 59.7435 24.2351 59.3511C23.8342 58.9587 23.6037 58.4251 23.5932 57.8649V51.6699H40.3624V57.8649C40.3519 58.4251 40.1214 58.9587 39.7205 59.3511C39.3196 59.7435 38.7804 59.9633 38.2187 59.9632ZM44.9103 39.1799C43.644 40.2337 42.5984 41.5263 41.8335 42.9837C41.0685 44.4411 40.5993 46.0346 40.4526 47.6731H23.5431C23.4026 46.0342 22.937 44.4394 22.1735 42.9814C21.4099 41.5234 20.3637 40.2313 19.0954 39.1799C16.7738 37.2283 14.9299 34.7734 13.7042 32.0028C12.4785 29.2321 11.9035 26.2188 12.0231 23.1927C12.2346 18.2381 14.28 13.5375 17.764 9.99959C21.248 6.46169 25.9232 4.33768 30.8859 4.03809C31.2666 4.03809 31.6573 4.03809 32.0379 4.03809C37.1454 4.02022 42.0623 5.97125 45.7618 9.48373C47.7482 11.3416 49.3293 13.5878 50.4065 16.0823C51.4837 18.5768 52.0339 21.266 52.0227 23.9821C52.0188 26.8792 51.3802 29.7404 50.1516 32.3656C48.9231 34.9908 47.1343 37.3165 44.9103 39.1799Z" fill="#484848"/>
<path d="M38.2788 30.5069H30.0645C30.6448 29.5329 31.0578 28.4691 31.2866 27.3594H35.8245C36.3559 27.3594 36.8655 27.1489 37.2412 26.7741C37.6169 26.3993 37.828 25.891 37.828 25.361C37.828 24.831 37.6169 24.3227 37.2412 23.9479C36.8655 23.5731 36.3559 23.3626 35.8245 23.3626H31.2866C31.2265 22.9729 31.1664 22.5832 31.0963 22.2135C30.9961 21.664 30.8959 21.1044 30.8358 20.5549V20.2051C30.6978 19.5461 30.6978 18.8657 30.8358 18.2067C31.0169 17.724 31.341 17.3076 31.7651 17.0131C32.1892 16.7186 32.6932 16.5599 33.21 16.5581C33.8733 16.5607 34.5088 16.8247 34.9779 17.2926C35.447 17.7605 35.7117 18.3944 35.7143 19.0561C35.7143 19.5861 35.9254 20.0944 36.3011 20.4691C36.6769 20.8439 37.1865 21.0545 37.7178 21.0545C38.2492 21.0545 38.7588 20.8439 39.1345 20.4691C39.5102 20.0944 39.7213 19.5861 39.7213 19.0561C39.72 18.2018 39.55 17.3562 39.2211 16.5675C38.8921 15.7788 38.4107 15.0625 37.8042 14.4594C37.1977 13.8563 36.478 13.3783 35.6863 13.0526C34.8946 12.7269 34.0463 12.56 33.1899 12.5613C31.848 12.5627 30.5392 12.977 29.442 13.7478C28.3448 14.5185 27.5128 15.608 27.0593 16.8678C26.6792 18.1108 26.6036 19.4266 26.8389 20.7047V21.0345C26.909 21.674 27.0192 22.3134 27.1394 22.9629C27.1394 23.1128 27.1394 23.2527 27.2095 23.4026H26.358C25.8267 23.4026 25.3171 23.6131 24.9414 23.9879C24.5656 24.3627 24.3545 24.871 24.3545 25.401C24.3545 25.931 24.5656 26.4393 24.9414 26.814C25.3171 27.1888 25.8267 27.3994 26.358 27.3994H27.1093C26.7126 28.4317 26.1054 29.3708 25.3262 30.1571C25.0432 30.455 24.7421 30.7353 24.4247 30.9965C24.1061 31.2584 23.8764 31.612 23.7671 32.0091C23.6577 32.4061 23.6739 32.8272 23.8136 33.2147C23.9519 33.6028 24.2071 33.9388 24.5442 34.1767C24.8814 34.4146 25.2839 34.5427 25.6969 34.5436H38.2588C38.7901 34.5436 39.2997 34.3331 39.6754 33.9583C40.0512 33.5835 40.2622 33.0752 40.2622 32.5452C40.2676 32.2811 40.2203 32.0186 40.1233 31.7728C40.0262 31.527 39.8813 31.3029 39.6968 31.1133C39.5124 30.9238 39.2921 30.7726 39.0487 30.6685C38.8053 30.5644 38.5436 30.5095 38.2788 30.5069Z" fill="#484848"/>
</g>
<defs>
<clipPath id="clip0_1655:100">
<rect width="64" height="64" fill="white"/>
</clipPath>
</defs>
</svg>
