<svg width="64" height="64" viewBox="0 0 64 64" fill="none" xmlns="http://www.w3.org/2000/svg">
<g clip-path="url(#clip0_764:23)">
<path d="M62 23.2318C63.1 23.2318 64 22.3326 64 21.2334V14.2389C64 13.4395 63.5 12.74 62.8 12.3404L32.8 0.149883C32.3 -0.049961 31.8 -0.049961 31.3 0.149883L1.3 12.3404C0.5 12.6401 0.1 13.3396 0.1 14.2389V21.2334C0.1 22.3326 1 23.2318 2.1 23.2318H6.2V52.0094H2C0.9 52.0094 0 52.9087 0 54.0078V62.0016C0 63.1007 0.9 64 2 64H62C63.1 64 64 63.1007 64 62.0016V54.0078C64 52.9087 63.1 52.0094 62 52.0094H57.9V23.2318H62ZM4 15.6378L32 4.24668L60 15.6378V19.3349H4V15.6378ZM34 52.0094V23.2318H41.9V52.0094H34ZM22.1 52.0094V23.2318H30V52.0094H22.1ZM10.1 23.2318H18V52.0094H10.1V23.2318ZM60 60.0031H4V56.0062H60V60.0031ZM53.9 52.0094H46V23.2318H53.9V52.0094Z" fill="#484848"/>
</g>
<defs>
<clipPath id="clip0_764:23">
<rect width="64" height="64" fill="white"/>
</clipPath>
</defs>
</svg>
