<svg width="64" height="64" viewBox="0 0 64 64" fill="none" xmlns="http://www.w3.org/2000/svg">
<path d="M63.4 41.2779V41.1776L63.3 40.977L54.3 10.9869C53.3 6.97486 49.7 4.26672 45.7 4.26672C40.9 4.26672 36.9 8.07818 36.6 12.8926L36.4 16.7041H27.6L27.4 12.8926C27.1 8.07818 23.2 4.26672 18.3 4.26672C14.3 4.26672 10.7 6.97486 9.6 10.8866L0.6 40.8767C0.2 42.1806 0 43.6852 0 45.1897C0 53.2138 6.5 59.7334 14.5 59.7334C22.5 59.7334 29 53.2138 29 45.1897V45.0894L28.5 35.3602H35.4L35 45.0894V45.1897C35 53.2138 41.5 59.7334 49.5 59.7334C57.5 59.7334 64 53.2138 64 45.1897C64 43.7855 63.8 42.4816 63.4 41.2779ZM45.7 8.27878C48 8.27878 50 9.7833 50.6 11.9899L56.7 32.5517C54.6 31.3481 52.1 30.646 49.5 30.646C45.6 30.646 42.1 32.1505 39.5 34.658L40.6 13.0932C40.7 10.3851 43 8.27878 45.7 8.27878ZM13.5 11.9899C14.1 9.7833 16.1 8.27878 18.3 8.27878C21 8.27878 23.2 10.3851 23.4 13.0932L24.5 34.658C21.9 32.1505 18.4 30.646 14.5 30.646C11.9 30.646 9.4 31.3481 7.3 32.5517L13.5 11.9899ZM14.5 55.7213C8.7 55.7213 4 51.0072 4 45.1897C4 39.3722 8.7 34.658 14.5 34.658C19.9 34.658 24.4 38.7704 25 44.0864L25.1 45.1897C25 51.0072 20.3 55.7213 14.5 55.7213ZM28.3 31.3481L27.8 20.7162H36.2L35.7 31.3481H28.3ZM49.5 55.7213C43.7 55.7213 39 51.0072 39 45.1897L39.1 44.0864C39.7 38.7704 44.1 34.658 49.6 34.658C54.3 34.658 58.3 37.7674 59.6 42.0803C59.9 43.0834 60.1 44.0864 60.1 45.1897C60 51.0072 55.3 55.7213 49.5 55.7213Z" fill="#484848"/>
</svg>
