<svg width="64" height="64" viewBox="0 0 64 64" fill="none" xmlns="http://www.w3.org/2000/svg">
<g clip-path="url(#clip0_1655:90)">
<path d="M48.4838 6.55608C46.1109 4.30811 43.2995 2.56983 40.224 1.44914C37.1484 0.328443 33.8744 -0.150754 30.6052 0.0412994C25.8143 0.333869 21.2206 2.04574 17.4137 4.95716C13.6068 7.86858 10.7604 11.8467 9.23998 16.3808C7.71955 20.9149 7.59444 25.7981 8.88072 30.4035C10.167 35.009 12.806 39.1265 16.4588 42.2275C17.409 43.0033 18.1772 43.977 18.7093 45.08C19.2414 46.183 19.5246 47.3887 19.5389 48.6123V57.8649C19.5416 59.4912 20.1915 61.0502 21.3461 62.2002C22.5008 63.3501 24.0661 63.9974 25.6991 64H38.2001C39.833 63.9974 41.3984 63.3501 42.5531 62.2002C43.7077 61.0502 44.3576 59.4912 44.3603 57.8649V48.6823C44.3782 47.4544 44.6649 46.2452 45.2004 45.139C45.7358 44.0328 46.5071 43.0562 47.4604 42.2774C50.0487 40.1057 52.1467 37.4134 53.6168 34.3774C55.0869 31.3413 55.8959 28.03 55.9906 24.6606C56.0853 21.2913 55.4637 17.9401 54.1665 14.8268C52.8694 11.7136 50.9259 8.90866 48.4637 6.59605L48.4838 6.55608ZM38.2001 59.9632H25.6991C25.1366 59.9633 24.5965 59.7435 24.1949 59.3511C23.7934 58.9587 23.5626 58.4251 23.5521 57.8649V51.6699H40.3471V57.8649C40.3366 58.4251 40.1058 58.9587 39.7042 59.3511C39.3027 59.7435 38.7626 59.9633 38.2001 59.9632ZM44.8719 39.1799C43.6019 40.2322 42.5536 41.5245 41.7874 42.9821C41.0211 44.4398 40.5521 46.0341 40.4073 47.6731H23.4919C23.3551 46.0343 22.8916 44.439 22.1284 42.9807C21.3653 41.5224 20.3178 40.2303 19.0473 39.1799C16.0084 36.5953 13.8135 33.1659 12.7441 29.3311C11.6746 25.4963 11.7793 21.4308 13.0446 17.6556C14.31 13.8804 16.6784 10.5674 19.8463 8.14132C23.0143 5.71522 26.8374 4.28644 30.8259 4.03809C31.2072 4.03809 31.5984 4.03809 31.9797 4.03809C36.0845 4.03501 40.091 5.28955 43.4555 7.63152C46.82 9.97349 49.3797 13.2895 50.7873 17.1297C52.1949 20.97 52.3824 25.1485 51.3242 29.0984C50.266 33.0483 48.0133 36.5785 44.8719 39.2099V39.1799Z" fill="#484848"/>
<path d="M35.8223 20.1052C35.8223 20.6352 36.0337 21.1435 36.41 21.5183C36.7863 21.8931 37.2967 22.1036 37.8289 22.1036C38.361 22.1036 38.8714 21.8931 39.2477 21.5183C39.624 21.1435 39.8354 20.6352 39.8354 20.1052C39.8354 17.1076 37.3473 14.6496 33.9762 13.9202V13.5205C33.9762 12.9905 33.7648 12.4822 33.3885 12.1074C33.0122 11.7326 32.5018 11.5221 31.9697 11.5221C31.4375 11.5221 30.9271 11.7326 30.5508 12.1074C30.1745 12.4822 29.9631 12.9905 29.9631 13.5205V13.9002C28.2377 14.2273 26.6706 15.1167 25.5085 16.4282C24.5788 17.4924 24.0871 18.8672 24.1317 20.2771C24.1764 21.6871 24.7541 23.0282 25.7493 24.0321C26.7551 25.0551 28.0207 25.7872 29.4113 26.1504L29.9631 26.2803V30.8866C28.8294 30.4269 28.117 29.6276 28.117 28.8882C28.117 28.3582 27.9056 27.8499 27.5293 27.4751C27.153 27.1003 26.6426 26.8898 26.1105 26.8898C25.5783 26.8898 25.0679 27.1003 24.6916 27.4751C24.3153 27.8499 24.1039 28.3582 24.1039 28.8882C24.1039 31.8858 26.592 34.3438 29.9631 35.0732V35.4829C29.9631 36.0129 30.1745 36.5212 30.5508 36.896C30.9271 37.2707 31.4375 37.4813 31.9697 37.4813C32.5018 37.4813 33.0122 37.2707 33.3885 36.896C33.7648 36.5212 33.9762 36.0129 33.9762 35.4829V35.0732C35.5603 34.7634 37.0204 34.0034 38.18 32.885C38.7045 32.3474 39.1171 31.7119 39.394 31.015C39.671 30.3181 39.8069 29.5735 39.7938 28.8241C39.7808 28.0747 39.619 27.3353 39.318 26.6483C39.0169 25.9614 38.5824 25.3405 38.0395 24.8214C36.9865 23.8281 35.6828 23.1375 34.2672 22.823C34.1703 22.8182 34.0732 22.8182 33.9762 22.823V18.0868C35.12 18.5465 35.8223 19.3458 35.8223 20.1052ZM28.6588 21.2943C28.3512 21.0023 28.169 20.6031 28.1503 20.1803C28.1316 19.7575 28.2779 19.3439 28.5585 19.0261C28.9438 18.6024 29.4255 18.2769 29.9631 18.0768V22.1336C29.475 21.9461 29.031 21.6604 28.6588 21.2943ZM35.2203 27.6591C35.3916 27.8121 35.5298 27.9982 35.6266 28.206C35.7234 28.4139 35.7766 28.6391 35.7832 28.8682C35.7898 29.0972 35.7495 29.3251 35.6648 29.5381C35.5801 29.7511 35.4528 29.9447 35.2905 30.1072C34.9122 30.456 34.4644 30.7215 33.9762 30.8866V26.8898C34.4363 27.0651 34.8585 27.3262 35.2203 27.6591Z" fill="#484848"/>
</g>
<defs>
<clipPath id="clip0_1655:90">
<rect width="64" height="64" fill="white"/>
</clipPath>
</defs>
</svg>
