<svg width="64" height="64" viewBox="0 0 64 64" fill="none" xmlns="http://www.w3.org/2000/svg">
<path d="M58 10.8H44V6C44 2.7 41.3 0 38 0H26C22.7 0 20 2.7 20 6V10.8H6C2.7 10.8 0 13.5 0 16.8V58C0 61.3 2.7 64 6 64H58C61.3 64 64 61.3 64 58V16.8C64 13.5 61.3 10.8 58 10.8ZM33.1 14.8C34.2 14.9 36 15.2 37.1 16.5C38.2 17.9 38.5 20.2 38 23.2C37.7 23.2 37.4 23.2 37.1 23.3L33.6 24.1C32.6 24.3 31.8 24.9 31.2 25.6L26.9 31.5C25.6 33.3 26 35.8 27.8 37.1L31.7 39.9C32.4 40.4 33.2 40.7 34.1 40.7C34.3 40.7 34.5 40.7 34.7 40.7C35.8 40.5 36.7 40 37.3 39.1L41.6 33.2C42.2 32.4 42.4 31.4 42.4 30.5L42.1 26.9C42.1 26.4 41.9 26 41.7 25.6C42.8 21 42.6 17.4 40.9 14.8H45V60H19V14.8H33.1ZM38.3 30.9L34 36.7L30.1 33.9L34.4 28L37.9 27.2L38.3 30.9ZM24 6C24 4.9 24.9 4 26 4H38C39.1 4 40 4.9 40 6V10.8H33.3C32.7 10.8 32.2 10.8 32 10.8H24V6ZM4 58V16.8C4 15.7 4.9 14.8 6 14.8H15V60H6C4.9 60 4 59.1 4 58ZM60 58C60 59.1 59.1 60 58 60H49V14.8H58C59.1 14.8 60 15.7 60 16.8V58Z" fill="#484848"/>
</svg>
