<svg width="64" height="64" viewBox="0 0 64 64" fill="none" xmlns="http://www.w3.org/2000/svg">
<path d="M28.3 13C22.3 13 17.4 17.9 17.4 23.9C17.4 29.9 22.3 34.8 28.3 34.8C34.3 34.8 39.2 29.9 39.2 23.9C39.2 17.9 34.4 13 28.3 13ZM28.3 30.8C24.5 30.8 21.4 27.7 21.4 23.9C21.4 20.1 24.5 17 28.3 17C32.1 17 35.2 20.1 35.2 23.9C35.2 27.7 32.1 30.8 28.3 30.8Z" fill="#484848"/>
<path d="M64 36.5C64 31.7 61.1 27.4 56.7 25.6V8C56.7 6.9 55.8 6 54.7 6H2C0.9 6 0 6.9 0 8V39.7C0 40.8 0.9 41.7 2 41.7H30.1C29.5 43.1 29.2 44.6 29.2 46.2C29.2 52.7 34.5 58 41 58C46.8 58 51.7 53.8 52.6 48.2C59 48 64 42.8 64 36.5ZM40.5 34.4C37.5 34.5 34.8 35.8 32.8 37.7H13.6C12.8 32.8 8.9 29 4 28.1V19.6C8.9 18.8 12.8 14.9 13.6 10H43.1C43.9 14.9 47.8 18.8 52.7 19.6V24.7C52.5 24.7 52.4 24.7 52.2 24.7C46.4 24.6 41.5 28.9 40.5 34.4ZM52.7 15.5C50 14.8 47.9 12.7 47.2 10H52.7V15.5ZM9.5 10C8.8 12.7 6.7 14.8 4 15.5V10H9.5ZM4 32.2C6.7 32.9 8.8 35 9.5 37.7H4V32.2ZM41.1 54.1C36.8 54.1 33.3 50.6 33.3 46.3C33.3 42 36.8 38.5 41.1 38.5C45.4 38.5 48.9 42 48.9 46.3C48.9 50.6 45.4 54.1 41.1 54.1ZM52.7 44.3C52 39.8 48.7 36.2 44.5 34.9C45.2 31.3 48.4 28.6 52.2 28.6C52.9 28.6 53.5 28.7 54.2 28.9C57.6 29.8 60 32.9 60 36.5C60 40.6 56.8 44 52.7 44.3Z" fill="#484848"/>
</svg>
