<svg width="64" height="64" viewBox="0 0 64 64" fill="none" xmlns="http://www.w3.org/2000/svg">
<path fill-rule="evenodd" clip-rule="evenodd" d="M4 32C4 16.561 16.561 4 32 4C47.439 4 60 16.561 60 32C60 47.439 47.439 60 32 60C16.561 60 4 47.439 4 32ZM0 32C0 49.645 14.355 64 32 64C49.645 64 64 49.645 64 32C64 14.355 49.645 0 32 0C14.355 0 0 14.355 0 32ZM22 28C23.656 28 25 26.656 25 25C25 23.343 23.656 22 22 22C20.343 22 19 23.343 19 25C19 26.656 20.343 28 22 28ZM45 25C45 26.656 43.656 28 42 28C40.343 28 39 26.656 39 25C39 23.343 40.343 22 42 22C43.656 22 45 23.343 45 25ZM25.718 48.761C25.998 48.895 26.293 48.958 26.584 48.958C27.328 48.958 28.043 48.541 28.388 47.825C30.914 42.572 37.798 40.625 43.301 41.414C44.39 41.565 45.407 40.812 45.564 39.719C45.722 38.626 44.963 37.612 43.869 37.455C35.645 36.263 27.797 39.824 24.782 46.091C24.304 47.086 24.723 48.281 25.718 48.761Z" fill="#484848"/>
</svg>
