<svg width="64" height="64" viewBox="0 0 64 64" fill="none" xmlns="http://www.w3.org/2000/svg">
<path fill-rule="evenodd" clip-rule="evenodd" d="M19.3 0H50C53.3 0 56 2.7 56 6V58C56 61.3 53.3 64 50 64H10C8.9 64 8 63.1 8 62V2C8 0.9 8.9 0 10 0H18.9H19.1H19.3ZM17.1 4H12V60H17.1V4ZM50 60C51.1 60 52 59.1 52 58V6C52 4.9 51.1 4 50 4H21.1V60H50ZM27.5 8.89999H45.5C46.6 8.89999 47.5 9.79999 47.5 10.9V21.4C47.5 22.5 46.6 23.4 45.5 23.4H27.5C26.4 23.4 25.5 22.5 25.5 21.4V10.9C25.5 9.79999 26.4 8.89999 27.5 8.89999ZM29.5 19.4H43.5V12.9H29.5V19.4Z" fill="#484848"/>
</svg>
