<svg width="64" height="64" viewBox="0 0 64 64" fill="none" xmlns="http://www.w3.org/2000/svg">
<path d="M7.97811 58.0266C7.71465 58.0282 7.45348 57.9777 7.20958 57.878C6.96567 57.7784 6.74383 57.6316 6.55677 57.4461C6.24507 57.1331 6.04562 56.7259 5.98949 56.2877C5.93337 55.8496 6.02373 55.4052 6.24648 55.0238L28.7777 16.5276L21.641 9.39084C21.3568 9.10486 21.1655 8.73972 21.0923 8.34324C21.0191 7.94675 21.0673 7.53738 21.2306 7.16875C21.3865 6.79441 21.6556 6.47826 22.0003 6.26464C22.3449 6.05102 22.7478 5.95066 23.1524 5.97763L54.6921 7.38896C55.192 7.41099 55.6656 7.61949 56.0195 7.97336C56.3734 8.32722 56.5819 8.8008 56.6039 9.30076L58.0252 40.8605C58.042 41.2629 57.937 41.661 57.724 42.0028C57.511 42.3445 57.1998 42.6141 56.8311 42.7763C56.4625 42.9385 56.0535 42.9857 55.6576 42.9117C55.2617 42.8378 54.8973 42.6462 54.612 42.3619L47.4753 35.2252L8.97905 57.7564C8.6737 57.9298 8.32927 58.0228 7.97811 58.0266ZM28.1171 10.2016L32.7014 14.7859C33.0138 15.1008 33.2129 15.5105 33.2672 15.9507C33.3216 16.391 33.2282 16.8368 33.0017 17.2182L13.5634 50.4395L46.7846 31.0012C47.1671 30.7759 47.6136 30.6842 48.0539 30.7404C48.4941 30.7965 48.9033 30.9974 49.2169 31.3115L53.8012 35.8958L52.6902 11.3026L28.1171 10.2016Z" fill="#484848"/>
</svg>
