<svg width="64" height="64" viewBox="0 0 64 64" fill="none" xmlns="http://www.w3.org/2000/svg">
<g clip-path="url(#clip0_286:8)">
<path fill-rule="evenodd" clip-rule="evenodd" d="M58.9082 35.6014C59.6948 36.7847 60.678 38.5596 60.5797 40.8276C60.4814 43.3913 59.2032 45.8565 56.8434 48.1244C57.1384 51.6742 55.9585 57.0976 49.5675 59.0697C48.191 61.239 45.2413 64 41.0134 64C39.9319 64 38.9486 63.9014 37.7688 63.507C35.2124 62.7181 33.5409 61.4362 32.361 60.0558C31.1811 61.4362 29.5096 62.7181 26.9532 63.507C25.7734 63.8028 24.6918 64 23.7086 64C19.4807 64 16.531 61.239 15.1545 59.0697C8.76349 57.0976 7.58362 51.6742 7.87859 48.1244C5.32219 45.8565 3.94567 43.4899 3.84735 40.9262C3.74902 38.6582 4.63393 36.8833 5.51884 35.7C5.22387 35.207 4.9289 34.714 4.73225 34.1223C3.25741 29.9809 5.22387 25.7408 6.10877 24.1631C5.91213 22.4868 5.8138 18.7398 7.97691 15.9788C9.05846 14.5983 10.5333 13.7109 12.4014 13.2178C12.0081 10.8513 12.4998 7.89312 15.2528 5.62518C16.3344 4.83633 17.4159 4.3433 18.5958 4.24469C22.0371 1.38512 25.2817 -0.0939749 28.1331 0.00463123C29.7063 0.00463123 31.0828 0.694874 32.1643 1.68094C33.2459 0.694874 34.6224 0.00463123 36.1956 0.00463123C39.047 -0.0939749 42.2916 1.38512 45.7329 4.14609C46.9128 4.24469 48.0927 4.73772 49.0759 5.52657C51.9273 7.79451 52.4189 10.8513 52.0256 13.1192C53.8937 13.5137 55.3686 14.4997 56.4501 15.8802C58.6132 18.6412 58.5149 22.4868 58.3182 24.0645C59.2032 25.7408 61.1696 29.9809 59.6948 34.0237C59.4981 34.6154 59.2032 35.1084 58.9082 35.6014ZM18.1042 56.4073C18.3008 56.9004 20.7589 61.1404 25.5767 59.6613C29.313 58.4781 30.0996 56.2101 30.2962 55.0268V54.1394V54.0408V49.0119C28.5096 47.0315 26.4532 47.1255 26.1911 47.1374L26.1907 47.1375C26.1789 47.138 26.1709 47.1384 26.1666 47.1384C25.0851 47.237 24.1019 46.4481 24.0035 45.3634C23.8069 44.2788 24.5935 43.2927 25.675 43.1941C25.6823 43.1941 25.7002 43.1925 25.7281 43.19C26.079 43.1586 28.0119 42.9854 30.1979 44.0816V21.1063C29.8046 20.7119 29.018 20.2189 28.0348 20.7119C27.0516 21.2049 25.8717 20.8105 25.3801 19.8245C24.8885 18.8384 25.2817 17.6551 26.265 17.1621C27.7398 16.3732 29.1163 16.3732 30.1979 16.6691V6.31542C30.1979 5.03354 29.2147 3.94888 28.0348 3.94888C27.0516 3.94888 25.5767 4.24469 23.4136 5.62518C25.3801 6.90706 26.6583 8.58336 26.8549 8.97779C27.5432 9.86524 27.3465 11.1471 26.4616 11.7388C25.5767 12.429 24.2985 12.2318 23.7086 11.3443C23.217 10.6541 21.3488 8.48476 19.579 8.28754C18.9891 8.18894 18.3991 8.28754 17.8092 8.78057C16.0394 10.1611 16.1377 11.8374 16.3344 12.922C18.3991 13.0206 20.169 13.8095 21.5455 15.0914C24.0035 17.4579 24.3968 20.9091 24.3968 22.7826C24.3968 23.8673 23.5119 24.7548 22.4304 24.7548C21.3488 24.7548 20.4639 23.8673 20.4639 22.7826C20.4639 21.5994 20.169 19.2328 18.7924 17.9509C17.9075 17.0635 16.6293 16.6691 14.9578 16.7677C13.0897 16.8663 11.8115 17.4579 11.0249 18.444C9.6484 20.1203 9.84504 23.1771 10.0417 24.1631C10.14 24.6562 10.0417 25.2478 9.74672 25.6422C9.74672 25.6422 7.28865 29.5865 8.56685 32.9391C9.15678 34.6154 10.9266 35.9959 13.6796 36.8833C14.6629 37.1791 15.2528 38.2638 14.9578 39.3485C14.6629 40.2359 13.8763 40.729 13.0897 40.729C12.8931 40.729 12.6964 40.729 12.4998 40.6303C10.9266 40.1373 9.55008 39.4471 8.3702 38.6582C7.97691 39.2499 7.78026 39.9401 7.78026 40.8276C7.78026 42.4053 8.96014 43.983 11.1232 45.6593C11.7132 46.0537 12.0081 46.8425 11.8115 47.6314C11.6149 48.3216 10.6316 53.8436 16.826 55.4213C17.4159 55.5199 17.8092 55.9143 18.1042 56.4073ZM52.5172 47.6314C52.4189 46.9411 52.7138 46.1523 53.3038 45.6593C55.4669 43.983 56.6468 42.3066 56.6468 40.5317C56.6468 39.7429 56.3518 38.954 56.0568 38.3624C54.8769 39.1513 53.5004 39.8415 51.9273 40.3345C51.7306 40.4331 51.534 40.4331 51.3373 40.4331C50.5507 40.4331 49.7642 39.9401 49.4692 39.0526C49.1742 38.0666 49.6658 36.8833 50.7474 36.5875C53.5004 35.7986 55.2702 34.4182 55.8602 32.6432C57.0401 29.4879 54.4837 25.5436 54.4837 25.5436C54.1887 25.1492 54.0904 24.5576 54.1887 24.0645C54.3853 23.0785 54.582 20.1203 53.2055 18.3454C52.4189 17.2607 51.1407 16.7677 49.2725 16.6691L49.2261 16.669L49.1443 16.6687C47.7561 16.6623 44.1474 16.6458 43.7665 21.9938C43.7665 23.0785 42.7832 23.8673 41.7017 23.7687C40.6201 23.7687 39.8335 22.7826 39.9319 21.698C40.3251 16.4719 43.2748 13.2178 47.9943 12.8234C48.191 11.7388 48.191 10.0625 46.5195 8.68197C45.9296 8.28755 45.4379 8.09033 44.7497 8.18894C43.0782 8.48476 41.1117 10.5555 40.6201 11.2457C39.9319 12.1332 38.752 12.3304 37.8671 11.6402C36.9822 10.9499 36.8839 9.76664 37.4738 8.87918C37.5059 8.847 37.5668 8.7728 37.6548 8.66559L37.6548 8.66553L37.6548 8.66549C38.1061 8.11564 39.2696 6.69781 40.9151 5.62518C38.752 4.24469 37.2771 3.94888 36.2939 3.94888C35.114 4.04748 34.1308 5.03354 34.1308 6.31542V13.7109C35.3107 13.4151 36.5889 13.5137 38.0637 14.2039C39.047 14.6969 39.4402 15.8802 38.9486 16.8663C38.457 17.8523 37.2771 18.2468 36.2939 17.7537C35.3107 17.2607 34.5241 17.6551 34.1308 18.1482V53.9422V54.0408V54.9282C34.2291 56.2101 35.0157 58.4781 38.752 59.6613C43.45 61.1036 45.8107 57.1077 46.1987 56.4509L46.2245 56.4073C46.5195 55.9143 46.9128 55.5199 47.5027 55.4213C53.555 53.8549 52.6293 48.3035 52.5194 47.6449L52.5172 47.6314ZM18.9894 32.8405C19.0877 32.8898 19.186 32.9144 19.2844 32.9391C19.3827 32.9637 19.481 32.9884 19.5793 33.0377C19.3827 33.3335 19.0877 33.6293 18.7927 33.8265C17.9078 34.4182 17.5145 35.6014 18.1045 36.4889C18.4978 37.0805 19.0877 37.475 19.776 37.475C20.0709 37.475 20.4642 37.3764 20.7592 37.1791C21.7424 36.5875 23.2173 35.3056 23.7089 32.9391C24.9871 32.6433 26.4619 31.953 27.8385 31.0656C28.7234 30.4739 29.0183 29.2906 28.4284 28.3046C27.8385 27.4171 26.6586 27.1213 25.6753 27.7129C23.4139 29.0934 21.6441 29.5865 20.2676 28.9948C18.2028 28.206 17.2196 25.3464 16.8263 24.1631C16.728 23.2757 15.5481 22.684 14.5649 22.9799C13.4833 23.2757 12.8934 24.3603 13.1883 25.445C13.8766 27.6143 15.4498 31.46 18.9894 32.8405ZM19.9723 47.3356C20.0706 45.6593 20.6605 42.6025 23.8069 41.715C24.8884 41.4192 25.38 40.3345 25.0851 39.2499C24.7901 38.1652 23.7086 37.6722 22.627 37.968C18.0058 39.3485 16.4327 43.3913 16.1377 46.5467H16.0394C14.9578 46.5467 14.0729 47.3356 13.9746 48.4202C13.9746 49.5049 14.7612 50.3924 15.8427 50.491C19.0874 50.5896 20.9555 52.2659 21.2505 55.3227C21.3488 56.3087 22.2337 57.0976 23.2169 57.0976H23.4136C24.4951 56.999 25.2817 56.0129 25.1834 54.9282C24.7901 51.1812 22.922 48.6174 19.9723 47.3356ZM47.4047 46.4481C47.0114 46.4481 46.7164 46.4481 46.3232 46.5467C45.9299 43.4899 44.3567 39.7429 39.6372 38.461C38.5556 38.1652 37.4741 38.7568 37.1791 39.8415C36.8842 40.9262 37.4741 42.0108 38.5556 42.3067C41.9969 43.1941 42.4886 46.3495 42.4886 47.8286C40.1288 49.2091 38.5556 51.6742 38.2607 54.8296C38.1624 55.9143 38.9489 56.9004 40.0305 56.999H40.2271C41.2104 56.999 42.0953 56.2101 42.1936 55.2241C42.4886 52.1673 44.3567 50.5896 47.6014 50.3924C48.6829 50.3924 49.5678 49.4063 49.4695 48.3216C49.3712 47.237 48.3879 46.4481 47.4047 46.4481ZM44.5534 37.5736C44.2584 37.5736 43.8652 37.475 43.5702 37.2777C41.997 36.2917 41.0138 34.8126 40.4238 33.2349C39.1456 32.8405 37.7691 32.2488 36.2943 31.3614C35.4094 30.7697 35.1144 29.4879 35.7043 28.6004C36.2943 27.713 37.5725 27.4171 38.4574 28.0088C40.6205 29.3893 42.4886 29.7837 43.8651 29.2907C45.7333 28.6004 46.8148 26.2339 47.2081 24.8534C47.5031 23.7687 48.5847 23.2757 49.6662 23.5715C50.7478 23.8673 51.2394 24.952 50.9444 26.0367C50.1578 28.5018 48.4863 31.7558 45.2417 32.9391C45.2009 32.9391 45.1433 32.956 45.0759 32.9758C44.9804 33.0039 44.8652 33.0377 44.7501 33.0377C44.9467 33.4321 45.1433 33.7279 45.5366 33.9251C46.5199 34.4182 46.8148 35.6014 46.2249 36.5875C45.8316 37.2777 45.2417 37.5736 44.5534 37.5736Z" fill="#484848"/>
</g>
<defs>
<clipPath id="clip0_286:8">
<rect width="64" height="64" fill="white"/>
</clipPath>
</defs>
</svg>
