<svg width="64" height="64" viewBox="0 0 64 64" fill="none" xmlns="http://www.w3.org/2000/svg">
<path d="M58.8923 14.4274C58.7921 13.4259 58.7921 11.0224 58.7921 9.52023C58.7921 8.31847 58.7921 7.317 58.7921 6.61597C58.692 5.51436 58.5918 4.11231 57.6905 2.8104C56.3885 1.00776 54.085 -0.0938508 51.3809 0.00629587C47.7755 0.106443 45.1715 2.40982 44.9712 5.8148C44.8711 6.91641 45.0714 8.01803 45.1715 9.11964C45.2717 9.82067 45.3718 10.5217 45.3718 11.2227C45.3718 13.1255 45.2717 14.9281 44.8711 16.7308C44.6708 17.9325 44.3703 19.2344 43.9697 20.3361C42.2672 21.3375 40.5646 22.1387 38.7619 22.7396C34.9561 23.9413 30.6496 24.2418 26.5434 23.6409C22.6375 23.04 18.9319 21.7381 15.8272 19.8353C13.724 18.5334 11.721 16.8309 10.0184 15.0283C8.41598 13.3258 6.01235 12.7249 3.70887 13.5261C1.50554 14.3273 0.0032689 16.3302 0.0032689 18.7337C-0.0968825 26.3449 2.10645 33.255 6.31281 38.6629C4.71038 38.763 3.10796 39.6644 2.10645 40.9663C0.604177 42.9692 0.504026 45.573 1.70584 47.6761C7.91523 57.9912 18.0305 64 29.4478 64C48.1761 64 64 48.6776 64 30.4509C64 23.2403 60.3945 16.8309 58.8923 14.4274ZM5.11099 17.2315C5.41144 17.1314 6.31281 16.8309 7.01386 17.7323C8.91674 19.8353 11.2202 21.7381 13.6239 23.2403C17.2293 25.5437 21.4357 27.0459 25.9425 27.6468C30.7497 28.3478 35.557 27.9472 39.9637 26.5452C40.4644 26.445 40.865 26.2447 41.3658 26.0444C40.6647 27.2462 39.7634 28.4479 38.862 29.5496C36.0578 32.8544 32.4523 35.5584 28.3461 37.361C24.4402 39.0635 20.334 39.9648 16.4281 39.9648C15.2263 39.9648 13.9243 39.8647 12.7225 39.7645C6.91371 34.657 3.80902 27.2462 4.00932 18.8339C4.00932 17.7323 4.91069 17.3317 5.11099 17.2315ZM29.4478 59.9941C19.3325 59.9941 10.7195 54.8867 5.11099 45.6732C4.51008 44.5715 5.01084 43.6702 5.21114 43.4699C5.41144 43.2696 5.9122 42.6688 6.71341 42.6688C8.01553 42.5686 10.6577 43.4401 11.5207 43.6702C13.0231 44.0708 14.7255 44.0708 16.3279 44.0708C20.8348 44.0708 25.5419 43.0694 29.8484 41.0664C34.5555 38.9633 38.6617 35.9589 41.8665 32.1534C44.2702 29.3493 46.0729 26.1446 47.3749 22.6394C47.8268 21.4228 48.5309 18.8442 48.777 17.532C49.1776 15.529 49.2777 13.4259 49.2777 11.3229C49.2777 10.4215 49.1776 9.62037 49.0774 8.71905C48.9773 7.69978 48.8771 6.81627 48.9773 6.01509C49.0774 4.3126 50.5797 4.01216 51.4811 4.01216C51.9818 4.01216 53.5843 4.01216 54.3855 5.11377C54.6859 5.51436 54.7861 5.96518 54.7861 6.91641C54.7861 7.41715 54.7861 8.41861 54.7861 9.52023C54.7861 12.4245 54.7861 14.5276 55.0865 15.6292C55.1318 15.7952 55.1912 15.9786 55.2868 16.1299C56.4886 18.0327 59.9939 23.9413 59.9939 30.3507C59.9939 46.4743 45.9727 59.9941 29.4478 59.9941Z" fill="#484848"/>
</svg>
