<svg width="64" height="64" viewBox="0 0 64 64" fill="none" xmlns="http://www.w3.org/2000/svg">
<path fill-rule="evenodd" clip-rule="evenodd" d="M44.8297 39.2083C42.2286 41.4043 40.6517 44.4602 40.3854 47.7072H33.9963V32.9613C37.7045 32.0593 40.4702 28.7104 40.4702 24.7184C40.4702 23.6134 39.5766 22.7184 38.4755 22.7184C37.3734 22.7184 36.4808 23.6134 36.4808 24.7184C36.4808 27.1944 34.4711 29.2094 32.0016 29.2094C29.5312 29.2094 27.5215 27.1944 27.5215 24.7184C27.5215 23.6134 26.6288 22.7184 25.5267 22.7184C24.4257 22.7184 23.532 23.6134 23.532 24.7184C23.532 28.7104 26.2977 32.0593 30.0069 32.9613V47.7072H23.5779C23.3206 44.4502 21.7497 41.3902 19.1576 39.2013C14.47 35.2193 11.8998 29.4014 12.1072 23.2424C12.4643 13.0345 20.7025 4.59663 30.8626 4.03164C31.2466 4.01064 31.6276 3.99964 32.0086 3.99964C37.1241 3.99964 41.9413 5.91462 45.6764 9.45758C49.6918 13.2685 51.904 18.4175 51.904 23.9594C51.904 29.8474 49.3248 35.4053 44.8297 39.2083ZM38.1962 60.0001H25.7661C24.5892 60.0001 23.6307 59.0401 23.6307 57.8591V51.7071H40.3306V57.8591C40.3306 59.0401 39.3731 60.0001 38.1962 60.0001ZM48.4181 6.5526C43.5999 1.98264 37.2906 -0.328332 30.6412 0.0376639C18.4414 0.716657 8.54959 10.8476 8.12072 23.1044C7.87138 30.4953 10.9542 37.4763 16.5833 42.2582C18.5262 43.8972 19.6413 46.2272 19.6413 48.6462V57.8591C19.6413 61.245 22.389 64 25.7661 64H38.1962C41.5722 64 44.32 61.245 44.32 57.8591V48.6782C44.32 46.2572 45.442 43.9202 47.4008 42.2672C52.7975 37.7013 55.8934 31.0283 55.8934 23.9594C55.8934 17.3075 53.2384 11.1255 48.4181 6.5526Z" fill="#484848"/>
</svg>
