<svg width="64" height="64" viewBox="0 0 64 64" fill="none" xmlns="http://www.w3.org/2000/svg">
<g clip-path="url(#clip0_285:47)">
<path d="M32.0012 60.16C31.5009 60.16 31.0005 59.9603 30.6002 59.5609L7.78411 36.7956C0.679088 29.7065 -3.32374 18.6234 3.58114 9.83676C9.08503 2.74758 19.0921 1.44956 27.7983 6.64163C28.4988 7.04103 28.899 7.93965 28.6989 8.83828L25.5967 22.6173L34.8032 31.1043C35.4036 31.7034 35.6038 32.602 35.2035 33.4008L29.7997 44.6836L33.6024 48.9771L33.4022 43.785C33.4022 43.2857 33.5023 42.7865 33.9026 42.487L41.8082 32.9016L35.5037 21.4191C35.2035 20.9199 35.2035 20.2209 35.4036 19.6218L41.8082 5.44346C42.2084 4.54483 43.1091 3.8459 44.1098 3.6462C51.6151 2.44803 58.7201 5.9427 62.1225 12.5326C66.7258 21.5189 62.1225 30.9046 56.3184 36.6958L37.1048 55.8665L33.5023 59.4611C33.102 59.9603 32.6017 60.16 32.0012 60.16ZM16.9906 7.44042C12.5875 7.44042 8.88489 9.43737 6.68333 12.333C3.08079 16.9259 1.98001 25.3132 10.5861 33.9001L32.0012 55.3673L33.0019 54.3688L25.8969 46.2812C25.3966 45.6821 25.2965 44.7835 25.5967 44.0845L31.0005 32.9016L21.9942 24.7141C21.4938 24.2148 21.1936 23.5159 21.3937 22.817L24.4959 9.33752C21.794 7.93965 19.2922 7.44042 16.9906 7.44042ZM37.4051 44.3841L37.6052 49.7758L53.5164 33.9001C59.8209 27.6096 61.7222 20.3208 58.62 14.3299C56.1183 9.43737 50.9146 6.84133 45.2106 7.54026L39.5065 20.3208L45.9111 32.2026C46.3114 32.9016 46.2113 33.8002 45.7109 34.3993L37.4051 44.3841Z" fill="#484848"/>
</g>
<defs>
<clipPath id="clip0_285:47">
<rect width="64" height="64" fill="white"/>
</clipPath>
</defs>
</svg>
