<svg width="64" height="64" viewBox="0 0 64 64" fill="none" xmlns="http://www.w3.org/2000/svg">
<path d="M64 34.3661C64 33.8654 63.7997 33.3648 63.3991 32.9643C62.9984 32.5638 62.4977 32.3635 61.9969 32.3635C58.5916 32.3635 55.2864 33.565 52.8826 35.7678C51.8811 36.669 51.0798 37.5701 50.4789 38.5714L42.5665 32.3635C42.1659 32.0631 41.7653 31.963 41.3646 31.963H36.7574L30.3474 12.5384H33.252C34.3537 12.5384 35.2551 11.6373 35.2551 10.5359C35.2551 9.43447 34.3537 8.53333 33.252 8.53333H10.7167C9.61502 8.53333 8.71362 9.43447 8.71362 10.5359C8.71362 11.6373 9.61502 12.5384 10.7167 12.5384H12.9202V25.3546H9.01408V20.9491C9.01408 19.8477 8.11268 18.9465 7.01095 18.9465C5.90923 18.9465 5.00782 19.8477 5.00782 20.9491V25.3546H2.00313C0.901408 25.3546 0 26.2558 0 27.3572V47.2824C0 48.3838 0.901408 49.285 2.00313 49.285H5.80908C6.71049 52.9896 10.0156 55.7932 14.0219 55.7932C18.0282 55.7932 21.3333 52.9896 22.2347 49.285H26.5415C27.4429 52.9896 30.748 55.7932 34.7543 55.7932C38.7606 55.7932 42.0657 52.9896 42.9671 49.285H50.0782C52.1815 53.1899 56.6886 55.8933 61.7966 55.8933C61.7966 55.8933 61.7966 55.8933 61.8967 55.8933C62.9984 55.8933 63.8998 54.9922 63.8998 53.8908L64 34.3661ZM26.1408 12.5384L32.4507 32.0631H16.9264V12.5384H26.1408ZM4.00626 29.3597H12.9202V38.8718C9.51487 39.3724 6.71049 41.9757 5.90923 45.2799H4.00626V29.3597ZM14.1221 51.7881C11.6182 51.7881 9.61502 49.7856 9.61502 47.2824C9.61502 44.7792 11.6182 42.7767 14.1221 42.7767C16.626 42.7767 18.6291 44.7792 18.6291 47.2824C18.6291 49.7856 16.626 51.7881 14.1221 51.7881ZM34.9546 51.7881C32.4507 51.7881 30.4476 49.7856 30.4476 47.2824C30.4476 44.7792 32.4507 42.7767 34.9546 42.7767C37.4585 42.7767 39.4617 44.7792 39.4617 47.2824C39.4617 49.7856 37.3584 51.7881 34.9546 51.7881ZM43.1674 45.2799C42.266 41.5752 38.9609 38.7716 34.9546 38.7716C30.9484 38.7716 27.6432 41.5752 26.7418 45.2799H22.4351C21.734 42.4763 19.6307 40.1734 16.9264 39.2723V35.9681H40.6635L49.0767 42.5765C48.9765 43.0771 48.9765 43.6778 48.9765 44.1785C48.9765 44.579 48.9765 44.8794 49.0767 45.2799H43.1674ZM52.9828 44.1785C52.9828 42.1759 53.8842 40.1734 55.4867 38.7716C56.6886 37.6702 58.2911 36.8692 59.9937 36.5688L60.0939 51.7881C55.9875 50.9871 52.9828 47.8832 52.9828 44.1785Z" fill="#484848"/>
</svg>
