<svg width="64" height="64" viewBox="0 0 64 64" fill="none" xmlns="http://www.w3.org/2000/svg">
<path fill-rule="evenodd" clip-rule="evenodd" d="M4 32C4 16.561 16.561 4 32 4C47.439 4 60 16.561 60 32C60 47.439 47.439 60 32 60C16.561 60 4 47.439 4 32ZM0 32C0 49.645 14.355 64 32 64C49.645 64 64 49.645 64 32C64 14.355 49.645 0 32 0C14.355 0 0 14.355 0 32ZM20 28C21.656 28 23 26.657 23 25C23 23.344 21.656 22 20 22C18.343 22 17 23.344 17 25C17 26.657 18.343 28 20 28ZM47 25C47 26.657 45.656 28 44 28C42.343 28 41 26.657 41 25C41 23.344 42.343 22 44 22C45.656 22 47 23.344 47 25ZM15.2109 38.69C16.5309 46.981 23.5919 53 31.9999 53C40.4079 53 47.4679 46.981 48.7879 38.69C48.9609 37.6 48.2179 36.574 47.1269 36.4C46.0399 36.229 45.0119 36.971 44.8369 38.062C43.8289 44.399 38.4299 49 31.9999 49C25.5689 49 20.1699 44.399 19.1619 38.062C18.9879 36.971 17.9629 36.229 16.8719 36.4C15.7809 36.574 15.0379 37.6 15.2109 38.69Z" fill="#484848"/>
</svg>
