<svg width="64" height="64" viewBox="0 0 64 64" fill="none" xmlns="http://www.w3.org/2000/svg">
<path fill-rule="evenodd" clip-rule="evenodd" d="M62 0.426636H2C0.9 0.426636 0 1.32588 0 2.42495V44.7892C0 45.8882 0.9 46.7875 2 46.7875H20.2L15.4 54.7807C15 55.3802 15 56.1795 15.4 56.779C15.7 57.3785 16.4 57.7782 17.1 57.7782L22.1 57.978L24.5 62.4742C24.8 63.0737 25.5 63.4734 26.2 63.5733H26.3C27 63.5733 27.6 63.1736 28 62.5741L32.1 55.7799L36.2 62.5741C36.6 63.1736 37.2 63.5733 37.9 63.5733H38C38.7 63.5733 39.4 63.1736 39.7 62.4742L42.1 57.978L47.1 57.7782C47.8 57.7782 48.5 57.3785 48.8 56.779C49.1 56.1795 49.1 55.3802 48.8 54.7807L44 46.7875H62C63.1 46.7875 64 45.8882 64 44.7892V2.42495C64 1.32588 63.1 0.426636 62 0.426636ZM32 50.1846C27.9 50.1846 24.6 46.8874 24.6 42.7909C24.6 38.6943 27.9 35.3971 32 35.3971C36.1 35.3971 39.4 38.6943 39.4 42.7909C39.4 46.8874 36.1 50.1846 32 50.1846ZM26.3 57.4784L25 55.0805C24.7 54.481 24 54.0813 23.3 53.9814L20.6 53.8815L23.1 49.785C24.5 51.5834 26.4 52.9822 28.7 53.5817L26.3 57.4784ZM40.7 54.0813C40 54.0813 39.3 54.481 39 55.1804L37.7 57.5784L35.4 53.7816C37.6 53.0822 39.5 51.6833 41 49.9848L43.5 54.0813H40.7ZM60 42.7909H43.4C43.4 36.4962 38.3 31.4005 32 31.4005C25.7 31.4005 20.6 36.4962 20.6 42.7909H4V4.42326H60V42.7909ZM19.7 15.2142H44.4C45.5 15.2142 46.4 14.3149 46.4 13.2159C46.4 12.1168 45.5 11.2176 44.4 11.2176H19.7C18.6 11.2176 17.7 12.1168 17.7 13.2159C17.7 14.3149 18.6 15.2142 19.7 15.2142ZM49.9 25.2058H14.2C13.1 25.2058 12.2 24.3065 12.2 23.2075C12.2 22.1084 13.1 21.2092 14.2 21.2092H49.9C51 21.2092 51.9 22.1084 51.9 23.2075C51.9 24.3065 51 25.2058 49.9 25.2058Z" fill="#484848"/>
</svg>
