<svg width="64" height="64" viewBox="0 0 64 64" fill="none" xmlns="http://www.w3.org/2000/svg">
<path fill-rule="evenodd" clip-rule="evenodd" d="M15.1093 60H49.3163C50.4985 60 51.4592 59.041 51.4592 57.862V17.484H40.3207C39.2137 17.484 38.317 16.589 38.317 15.484V4H15.1093C13.9281 4 12.9673 4.959 12.9673 6.138V57.862C12.9673 59.041 13.9281 60 15.1093 60ZM50.838 13.4745C50.836 13.4717 50.8339 13.4687 50.8311 13.466L42.3244 4.975V13.484H50.8461C50.8429 13.4813 50.8405 13.478 50.838 13.4745ZM44.809 1.799L53.6643 10.638C54.8264 11.798 55.4666 13.339 55.4666 14.978V57.862C55.4666 61.247 52.7075 64 49.3163 64H15.1093C11.719 64 8.95996 61.247 8.95996 57.862V6.138C8.95996 2.753 11.719 0 15.1093 0H40.46C42.104 0 43.6489 0.639 44.809 1.799ZM28.0618 41.2427L40.8143 28.5137C41.5968 27.7327 42.8651 27.7327 43.6475 28.5137C44.43 29.2947 44.43 30.5607 43.6475 31.3417L29.4795 45.4857C29.1038 45.8607 28.5938 46.0717 28.0618 46.0717C27.5309 46.0717 27.0209 45.8607 26.6452 45.4857L20.7774 39.6267C19.995 38.8457 19.995 37.5787 20.7774 36.7987C21.5599 36.0177 22.8282 36.0177 23.6106 36.7987L28.0618 41.2427Z" fill="#484848"/>
</svg>
