<svg width="64" height="64" viewBox="0 0 64 64" fill="none" xmlns="http://www.w3.org/2000/svg">
<path d="M62.183 13.2106L51.4627 2.51245C48.1059 -0.837484 42.5833 -0.837484 39.2264 2.51245L2.51764 39.1456C-0.839213 42.4956 -0.839213 48.0068 2.51764 51.3567L13.2379 62.0549C14.5373 63.3516 16.1616 64 17.7859 64C19.4102 64 21.1428 63.3516 22.3339 62.0549L25.3659 59.0291C26.2322 58.1646 26.2322 56.8679 25.3659 56.0034L14.6456 45.3052L17.2445 42.7117L27.6399 53.0857C28.073 53.5179 28.6145 53.7341 29.1559 53.7341C29.6973 53.7341 30.2387 53.5179 30.6719 53.0857C31.5382 52.2212 31.5382 50.9244 30.6719 50.0599L20.2765 39.6859L22.767 37.2005L33.1625 47.5745C33.5956 48.0068 34.137 48.2229 34.6784 48.2229C35.2199 48.2229 35.7613 48.0068 36.1944 47.5745C37.0607 46.71 37.0607 45.4133 36.1944 44.5488L25.799 34.1748L28.2896 31.6893L38.685 42.0633C39.1181 42.4956 39.6596 42.7117 40.201 42.7117C40.7424 42.7117 41.2839 42.4956 41.717 42.0633C42.5833 41.1988 42.5833 39.9021 41.717 39.0376L31.3216 28.6636L33.8121 26.1781L44.2076 36.5521C44.6407 36.9844 45.1821 37.2005 45.7236 37.2005C46.265 37.2005 46.8064 36.9844 47.2396 36.5521C48.1059 35.6876 48.1059 34.3909 47.2396 33.5264L36.8442 23.1524L39.3347 20.667L49.7301 31.0409C50.1633 31.4732 50.7047 31.6893 51.2461 31.6893C51.7875 31.6893 52.329 31.4732 52.7621 31.0409C53.6284 30.1764 53.6284 28.8797 52.7621 28.0152L42.3667 17.6412L44.9656 15.0477L55.6858 25.7459C56.5521 26.6104 57.8515 26.6104 58.7178 25.7459L61.7498 22.7201C64.6735 19.8025 64.6735 15.6961 62.183 13.2106ZM59.151 19.2621L57.635 20.775L46.9147 10.0768C46.0484 9.21233 44.749 9.21233 43.8827 10.0768L10.0976 43.6843C9.23134 44.5488 9.23134 45.8455 10.0976 46.71L20.8179 57.4082L19.3019 58.9211C18.4356 59.7856 17.1362 59.7856 16.2699 58.9211L5.54965 48.2229C3.81708 46.4939 3.81708 43.7923 5.54965 42.0633L42.2584 5.43014C43.1247 4.56564 44.2076 4.13339 45.2904 4.13339C46.3733 4.13339 47.4561 4.56564 48.3224 5.43014L59.0427 16.1283C60.0173 17.1009 60.0173 18.3976 59.151 19.2621Z" fill="#484848"/>
</svg>
