<svg width="64" height="64" viewBox="0 0 64 64" fill="none" xmlns="http://www.w3.org/2000/svg">
<path d="M64 24.0877C64 20.6719 61.2129 17.8771 57.8064 17.8771C54.4 17.8771 51.6129 20.6719 51.6129 24.0877C51.6129 24.5018 51.7161 25.0193 51.7161 25.4334L45.729 30.4019L36.4387 17.6701C37.7806 16.4279 38.7097 14.6682 38.7097 12.7015C38.7097 8.97514 35.7161 5.97333 32 5.97333C28.2839 5.97333 25.2903 8.97514 25.2903 12.7015C25.2903 14.6682 26.1161 16.4279 27.5613 17.6701L18.271 30.4019L12.2839 25.4334C12.3871 25.0193 12.3871 24.5018 12.3871 24.0877C12.3871 20.6719 9.6 17.8771 6.19355 17.8771C2.7871 17.8771 0 20.6719 0 24.0877C0 27.2966 2.37421 29.8843 5.36775 30.1949L8.3613 50.1725L9.18709 56.5901C9.29032 57.6252 10.2193 58.4533 11.2516 58.4533H52.7484C53.7807 58.4533 54.6065 57.7288 54.8129 56.6936L58.6322 30.1949C61.6258 29.7808 64 27.1931 64 24.0877ZM32 10.1138C33.4452 10.1138 34.5806 11.2524 34.5806 12.7015C34.5806 14.1507 33.4452 15.2893 32 15.2893C30.5548 15.2893 29.4194 14.1507 29.4194 12.7015C29.4194 11.2524 30.5548 10.1138 32 10.1138ZM18.5806 35.4739C18.6839 35.4739 18.7871 35.4739 18.7871 35.4739C19.3032 35.3704 19.8194 35.0599 20.2323 34.6458L31.3806 19.4297C31.5871 19.4297 31.7935 19.4297 32 19.4297C32.2065 19.4297 32.4129 19.4297 32.6194 19.4297L43.7677 34.6458C44.0774 35.0599 44.5935 35.3704 45.2129 35.4739C45.3161 35.4739 45.4194 35.4739 45.4194 35.4739C45.9355 35.4739 46.3484 35.2669 46.7613 34.9564L53.9871 28.9527C54.1935 29.0562 54.4 29.2633 54.6064 29.3668L52.129 46.8601H12.1806L9.59999 29.3668C9.80644 29.2633 10.0129 29.1598 10.1161 28.9527L17.3419 34.9564C17.6516 35.2669 18.0645 35.4739 18.5806 35.4739ZM4.12903 24.0877C4.12903 22.9491 5.05806 22.0175 6.19355 22.0175C7.32903 22.0175 8.25806 22.9491 8.25806 24.0877C8.25806 25.2263 7.32903 26.1579 6.19355 26.1579C5.05806 26.1579 4.12903 25.2263 4.12903 24.0877ZM13.1097 54.3129L12.6968 51.0005H51.5097L50.9935 54.3129H13.1097ZM57.8064 26.1579C56.671 26.1579 55.7419 25.2263 55.7419 24.0877C55.7419 22.9491 56.671 22.0175 57.8064 22.0175C58.9419 22.0175 59.871 22.9491 59.871 24.0877C59.871 25.2263 58.9419 26.1579 57.8064 26.1579Z" fill="#484848"/>
</svg>
