<svg width="64" height="64" viewBox="0 0 64 64" fill="none" xmlns="http://www.w3.org/2000/svg">
<path fill-rule="evenodd" clip-rule="evenodd" d="M34.8279 31.9999L63.414 3.41376C64.195 2.63276 64.195 1.36676 63.414 0.585752C62.634 -0.195251 61.366 -0.195251 60.586 0.585752L31.9999 29.1719L3.41376 0.585752C2.63376 -0.195251 1.36576 -0.195251 0.585752 0.585752C-0.195251 1.36676 -0.195251 2.63276 0.585752 3.41376L29.1719 31.9999L0.585752 60.586C-0.195251 61.367 -0.195251 62.633 0.585752 63.414C0.975754 63.805 1.48776 64 1.99976 64C2.51176 64 3.02376 63.805 3.41376 63.414L31.9999 34.8279L60.586 63.414C60.976 63.805 61.488 64 62 64C62.512 64 63.024 63.805 63.414 63.414C64.195 62.633 64.195 61.367 63.414 60.586L34.8279 31.9999Z" fill="#484848"/>
</svg>
