<svg width="64" height="64" viewBox="0 0 64 64" fill="none" xmlns="http://www.w3.org/2000/svg">
<path fill-rule="evenodd" clip-rule="evenodd" d="M4 32C4 47.439 16.561 60 32 60C47.439 60 60 47.439 60 32C60 16.561 47.439 4 32 4C16.561 4 4 16.561 4 32ZM0 32C0 14.355 14.355 0 32 0C49.645 0 64 14.355 64 32C64 49.645 49.645 64 32 64C14.355 64 0 49.645 0 32ZM26.856 37.9501L43 21.8071C43.78 21.0261 45.048 21.0261 45.828 21.8071C46.609 22.5881 46.609 23.8541 45.828 24.6351L28.271 42.1931C27.896 42.5681 27.387 42.7791 26.856 42.7791C26.326 42.7791 25.817 42.5681 25.442 42.1931L18.172 34.9201C17.391 34.1391 17.391 32.8731 18.172 32.0921C18.954 31.3111 20.22 31.3111 21.001 32.0921L26.856 37.9501Z" fill="#484848"/>
</svg>
