<svg width="64" height="64" viewBox="0 0 64 64" fill="none" xmlns="http://www.w3.org/2000/svg">
<path d="M32 0C14.4 0 0 14.4 0 32C0 49.6 14.4 64 32 64C49.6 64 64 49.6 64 32C64 14.4 49.6 0 32 0ZM32 60C16.6 60 4 47.4 4 32C4 16.6 16.6 4 32 4C47.4 4 60 16.6 60 32C60 47.4 47.4 60 32 60Z" fill="#484848"/>
<path d="M38 26C38 27.1 38.9 28 40 28C41.1 28 42 27.1 42 26C42 22.1 38.6 18.9 34 18.2V17C34 15.9 33.1 15 32 15C30.9 15 30 15.9 30 17V18.2C27.5 18.6 25.2 19.8 23.8 21.5C21.4 24.3 21.6 28.2 24.1 30.9C25.3 32.1 26.9 33.1 28.7 33.6C29.1 33.7 29.6 33.8 30 33.9V41.9C27.7 41.3 26 39.8 26 38.1C26 37 25.1 36.1 24 36.1C22.9 36.1 22 37 22 38.1C22 42 25.4 45.2 30 45.9V47C30 48.1 30.9 49 32 49C33.1 49 34 48.1 34 47V45.8C36.3 45.4 38.5 44.4 39.9 42.9C42.6 40.1 42.5 35.7 39.7 32.9C38.5 31.7 36.8 30.8 34.9 30.3C34.6 30.2 34.3 30.2 34 30.1V22.2C36.3 22.8 38 24.3 38 26ZM29.8 29.7C28.6 29.4 27.7 28.8 27 28.1C25.9 26.9 25.8 25.2 26.8 24C27.5 23.1 28.7 22.5 30 22.2V29.7C29.9 29.7 29.8 29.7 29.8 29.7ZM36.9 35.8C38.2 37 38.2 38.9 37 40.2C36.3 41 35.2 41.5 34 41.8V34.3C35.2 34.5 36.2 35.1 36.9 35.8Z" fill="#484848"/>
</svg>
