<svg width="64" height="64" viewBox="0 0 64 64" fill="none" xmlns="http://www.w3.org/2000/svg">
<path fill-rule="evenodd" clip-rule="evenodd" d="M51.4598 57.862C51.4598 59.041 50.6143 60 49.5755 60H14.851C13.8123 60 12.9668 59.041 12.9668 57.862V13.565C12.9668 12.386 13.8123 11.427 14.851 11.427H18.7117V19.217C18.7117 20.322 19.6082 21.217 20.7151 21.217H43.7045C44.8104 21.217 45.7079 20.322 45.7079 19.217V11.427H49.5755C50.6143 11.427 51.4598 12.386 51.4598 13.565V57.862ZM27.9825 11.427V8.631C27.9825 7.373 28.4393 6.194 29.2677 5.312C30.0631 4.466 31.1109 4 32.2178 4C34.5488 4 36.445 6.077 36.445 8.631V11.427H41.701V17.217H22.7185V11.427H27.9825ZM49.5755 7.427H40.3728C39.8118 3.236 36.3689 0 32.2178 0C29.991 0 27.9054 0.915 26.3447 2.576C25.0896 3.912 24.2972 5.602 24.0548 7.427H14.8511C11.6025 7.427 8.95996 10.18 8.95996 13.565V57.862C8.95996 61.247 11.6025 64 14.8511 64H49.5755C52.8241 64 55.4666 61.247 55.4666 57.862V13.565C55.4666 10.18 52.8241 7.427 49.5755 7.427Z" fill="#484848"/>
</svg>
