<svg width="64" height="64" viewBox="0 0 64 64" fill="none" xmlns="http://www.w3.org/2000/svg">
<path fill-rule="evenodd" clip-rule="evenodd" d="M57.9997 55.7457H5.99977C4.89677 55.7457 3.99977 54.8514 3.99977 53.7518V19.6472H59.9997V53.7518C59.9997 54.8514 59.1027 55.7457 57.9997 55.7457ZM5.99977 8.68101H57.9997C59.1027 8.68101 59.9997 9.57525 59.9997 10.6749V15.6595H3.99977V10.6749C3.99977 9.57525 4.89677 8.68101 5.99977 8.68101ZM58 4.69336H6C2.691 4.69336 0 7.37607 0 10.6749V53.7518C0 57.0506 2.691 59.7334 6 59.7334H58C61.309 59.7334 64 57.0506 64 53.7518V10.6749C64 7.37607 61.309 4.69336 58 4.69336ZM39.562 27.6079C38.781 26.8293 37.515 26.8293 36.734 27.6079C35.953 28.3865 35.953 29.6486 36.734 30.4272L44.026 37.6967L36.734 44.9663C35.953 45.7449 35.953 47.007 36.734 47.7856C37.124 48.1754 37.636 48.3698 38.148 48.3698C38.66 48.3698 39.171 48.1754 39.562 47.7856L48.268 39.1064C49.049 38.3278 49.049 37.0657 48.268 36.2871L39.562 27.6079ZM24.4404 27.6079C25.2214 26.8293 26.4874 26.8293 27.2684 27.6079C28.0494 28.3865 28.0494 29.6486 27.2684 30.4272L19.9764 37.6967L27.2684 44.9663C28.0494 45.7449 28.0494 47.007 27.2684 47.7856C26.8774 48.1754 26.3664 48.3698 25.8544 48.3698C25.3424 48.3698 24.8304 48.1754 24.4404 47.7856L15.7344 39.1064C14.9534 38.3278 14.9534 37.0657 15.7344 36.2871L24.4404 27.6079Z" fill="#484848"/>
</svg>
