<svg width="64" height="64" viewBox="0 0 64 64" fill="none" xmlns="http://www.w3.org/2000/svg">
<path fill-rule="evenodd" clip-rule="evenodd" d="M32 0C14.4 0 0 14.4 0 32C0 49.6 14.4 64 32 64C49.6 64 64 49.6 64 32C64 14.4 49.6 0 32 0ZM32 60C16.6 60 4 47.4 4 32C4 16.6 16.6 4 32 4C47.4 4 60 16.6 60 32C60 47.4 47.4 60 32 60ZM32 36C34.2 36 36 34.2 36 32C36 30.5 35.2 29.2 34 28.6V10.8C34 9.7 33.1 8.8 32 8.8C30.9 8.8 30 9.7 30 10.8V28.6C29.4 28.9 28.9 29.4 28.6 30H17C15.9 30 15 30.9 15 32C15 33.1 15.9 34 17 34H28.6C29.2 35.2 30.5 36 32 36ZM26 43.8V47.3C26.8 47.4 27.4 47.9 27.4 48.7C27.4 49.5 26.8 50.1 26 50.1V50.4C26 51.3 25.3 52 24.4 52C23.5 52 22.8 51.3 22.8 50.4V50.1H19.2C18.3 50.1 17.5 49.4 17.5 48.4C17.5 48.1 17.5 47.8 17.7 47.5L20.8 42.4C21.3 41.6 22.2 41 23.2 41C24.8 41 26 42.3 26 43.8ZM20.8 47.3H22.8V43.9L20.8 47.3ZM32.8 41C29.6 41 28.1 43.6 28.1 46.5C28.1 49.4 29.7 52 32.8 52C35.9 52 37.5 49.4 37.5 46.5C37.5 43.6 36 41 32.8 41ZM32.8 49.2C31.8 49.2 31.3 48.3 31.3 46.5C31.3 44.7 31.8 43.8 32.8 43.8C33.8 43.8 34.3 44.6 34.3 46.5C34.3 48.4 33.9 49.2 32.8 49.2ZM43.2 45.6H45.2C45.7 45.6 46.1 46 46 46.4C46 46.8 45.7 47.2 45.2 47.2H43.2V49.5C43.2 50 42.8 50.4 42.3 50.4C41.8 50.4 41.4 50 41.4 49.5V47.2H39.4C39 47.2 38.6 46.9 38.6 46.4C38.6 46 38.9 45.6 39.4 45.6H41.4V43.4C41.4 42.9 41.8 42.5 42.3 42.5C42.8 42.5 43.2 42.9 43.2 43.4V45.6Z" fill="#484848"/>
</svg>
