<svg width="64" height="64" viewBox="0 0 64 64" fill="none" xmlns="http://www.w3.org/2000/svg">
<path fill-rule="evenodd" clip-rule="evenodd" d="M54.2273 32.9786L49.1874 26.7527L54.9423 22.0947L59.9753 28.3257L54.2273 32.9786ZM42.4265 57.8614C42.4265 59.0404 41.5825 59.9993 40.5455 59.9993H5.88093C4.84394 59.9993 3.99995 59.0404 3.99995 57.8614V13.5649C3.99995 12.3859 4.84394 11.4269 5.88093 11.4269H9.73589V19.2168C9.73589 20.3218 10.6309 21.2168 11.7359 21.2168H34.6846C35.7896 21.2168 36.6846 20.3218 36.6846 19.2168V11.4269H40.5455C41.5825 11.4269 42.4265 12.3859 42.4265 13.5649V27.0797L25.7787 40.5556C25.4947 40.7866 25.2787 41.0896 25.1547 41.4346L21.2548 52.3264C21.0208 52.9834 21.1458 53.7154 21.5848 54.2584C21.9677 54.7304 22.5407 54.9994 23.1387 54.9994C23.2277 54.9994 23.3177 54.9934 23.4077 54.9804L34.8626 53.4264C35.2256 53.3774 35.5676 53.2304 35.8526 52.9994L42.4265 47.6775V57.8614ZM18.9897 11.4269V8.6299C18.9897 7.37392 19.4457 6.19493 20.2717 5.31294C21.0667 4.46595 22.1137 3.99995 23.2177 3.99995C25.5447 3.99995 27.4376 6.07693 27.4376 8.6299V11.4269H32.6846V17.2168H13.7358V11.4269H18.9897ZM35.7646 47.9245L30.7237 41.6985L46.0775 29.2707L51.1175 35.4966L35.7646 47.9245ZM28.1636 44.8945L32.1066 49.7644L26.1277 50.5754L28.1636 44.8945ZM63.0903 25.8027L58.0503 19.5788C57.3663 18.7328 56.4014 18.2048 55.3324 18.0918C54.3024 17.9858 53.2974 18.2798 52.5024 18.9228L46.4265 23.8407V13.5648C46.4265 10.1799 43.7895 7.42692 40.5455 7.42692H31.3586C30.7986 3.23596 27.3617 0 23.2177 0C20.9978 0 18.9148 0.91499 17.3548 2.57597C16.1008 3.91396 15.3108 5.60294 15.0688 7.42692H5.88093C2.63797 7.42692 0 10.1799 0 13.5648V57.8613C0 61.2463 2.63797 63.9993 5.88093 63.9993H40.5455C43.7895 63.9993 46.4265 61.2463 46.4265 57.8613V44.4405L55.1884 37.3466H55.1894H55.1904L62.5773 31.3666C63.4013 30.6986 63.9023 29.7407 63.9873 28.6687C64.0693 27.6357 63.7503 26.6187 63.0903 25.8027Z" fill="#484848"/>
</svg>
