<svg width="64" height="64" viewBox="0 0 64 64" fill="none" xmlns="http://www.w3.org/2000/svg">
<path fill-rule="evenodd" clip-rule="evenodd" d="M57.9118 24.3V39.7C59.7126 40.8 61.0132 42.7 61.0132 45C61.0132 48.3 58.312 51 55.0105 51C54.01 51 53.0096 50.7 52.1091 50.2L38.0027 58.4C37.8026 61.5 35.2014 64 31.9999 64C28.7984 64 26.1972 61.5 25.9971 58.4L11.8907 50.4C10.9902 50.8 9.98979 51.1 8.98933 51.1C5.68781 51.1 2.98657 48.4 2.98657 45.1C2.98657 42.8 4.18712 40.8 6.088 39.8V24.3C4.28717 23.2 2.98657 21.3 2.98657 19C2.98657 15.7 5.68781 13 8.98933 13C9.98979 13 10.9902 13.3 11.8907 13.7L25.9971 5.6C26.1972 2.5 28.7984 0 31.9999 0C35.2014 0 37.8026 2.5 38.0027 5.6L52.1091 13.7C53.0096 13.3 54.01 13 55.0105 13C58.312 13 61.0132 15.7 61.0132 19C61.0132 21.3 59.8127 23.3 57.9118 24.3ZM49.4079 47.2C49.2078 46.5 49.0077 45.8 49.0077 45C49.0077 42.1 51.1087 39.6 53.91 39.1V24.9C51.1087 24.4 49.0077 21.9 49.0077 19C49.0077 18.2 49.2078 17.5 49.4079 16.8L36.8021 9.5C35.7016 11 34.0008 12 31.9999 12C29.999 12 28.2982 11 27.1977 9.5L14.5919 16.8C14.792 17.5 14.9921 18.2 14.9921 19C14.9921 21.9 12.8911 24.4 10.0898 24.9V39.1C12.8911 39.6 14.9921 42.1 14.9921 45C14.9921 45.8 14.892 46.5 14.5919 47.2L27.1977 54.5C28.2982 53 29.999 52 31.9999 52C34.0008 52 35.7016 53 36.8021 54.5L49.4079 47.2ZM55.0105 21C56.111 21 57.0114 20.1 57.0114 19C57.0114 17.9 56.111 17 55.0105 17C53.91 17 53.0096 17.9 53.0096 19C53.0096 20.1 53.91 21 55.0105 21ZM34.0008 6C34.0008 4.9 33.1004 4 31.9999 4C30.8994 4 29.999 4.9 29.999 6C29.999 7.1 30.8994 8 31.9999 8C33.1004 8 34.0008 7.1 34.0008 6ZM10.9903 19C10.9903 17.9 10.0898 17 8.98933 17C7.88883 17 6.98841 17.9 6.98841 19C6.98841 20.1 7.88883 21 8.98933 21C10.0898 21 10.9903 20.1 10.9903 19ZM8.98933 43C7.88883 43 6.98841 43.9 6.98841 45C6.98841 46.1 7.88883 47 8.98933 47C10.0898 47 10.9903 46.1 10.9903 45C10.9903 43.9 10.0898 43 8.98933 43ZM29.999 58C29.999 59.1 30.8994 60 31.9999 60C33.1004 60 34.0008 59.1 34.0008 58C34.0008 56.9 33.1004 56 31.9999 56C30.8994 56 29.999 56.9 29.999 58ZM53.0096 45C53.0096 46.1 53.91 47 55.0105 47C56.111 47 57.0114 46.1 57.0114 45C57.0114 43.9 56.111 43 55.0105 43C53.91 43 53.0096 43.9 53.0096 45ZM32.6006 19.5L47.6074 24.5C48.4078 24.8 49.0081 25.5 48.908 26.4C48.908 27.1 48.5079 27.7 47.9076 28.1V35C47.9076 36.1 47.0072 37 45.9067 37C44.8062 37 43.9058 36.1 43.9058 35V29.7L43.0053 30V39C43.0053 39.9 42.5051 40.6 41.7047 40.9L32.6006 44.5C32.4005 44.6 32.1003 44.6 31.9002 44.6C31.7001 44.6 31.4 44.6 31.1999 44.5L22.0957 40.9C21.2954 40.6 20.7951 39.8 20.7951 39V30L16.193 28.3C15.3926 28 14.8924 27.3 14.8924 26.4C14.8924 25.5 15.4927 24.8 16.2931 24.5L31.3 19.5C31.7001 19.4 32.2004 19.4 32.6006 19.5ZM40.9044 26.5L32.0003 23.5L23.0962 26.5L32.0003 29.7L40.9044 26.5ZM32.0003 40.4L39.1035 37.7V31.4L32.7006 33.7C32.5005 33.8 32.2004 33.8 32.0003 33.8C31.8002 33.8 31.5 33.8 31.3 33.7L24.897 31.4V37.6L32.0003 40.4Z" fill="#484848"/>
</svg>
