<svg width="64" height="64" viewBox="0 0 64 64" fill="none" xmlns="http://www.w3.org/2000/svg">
<path fill-rule="evenodd" clip-rule="evenodd" d="M33.449 7.50351L37.5459 3.40203C37.9189 3.02726 38.1283 2.52029 38.1283 1.99185C38.1283 1.4634 37.9189 0.956435 37.5459 0.581661C37.1706 0.209111 36.663 0 36.1338 0C35.6047 0 35.0971 0.209111 34.7218 0.581661L26.8504 8.43268C26.6642 8.61845 26.5164 8.83906 26.4156 9.08189C26.3148 9.32472 26.263 9.585 26.263 9.84787C26.263 10.1107 26.3148 10.371 26.4156 10.6139C26.5164 10.8567 26.6642 11.0773 26.8504 11.2631L34.7218 19.1241C34.9043 19.3245 35.1257 19.4859 35.3726 19.5983C35.6195 19.7107 35.8866 19.7719 36.1579 19.7781C36.4291 19.7843 36.6988 19.7353 36.9506 19.6343C37.2023 19.5332 37.4309 19.3822 37.6224 19.1902C37.8139 18.9983 37.9644 18.7695 38.0647 18.5177C38.165 18.266 38.213 17.9965 38.2058 17.7256C38.1987 17.4547 38.1365 17.1881 38.023 16.942C37.9096 16.6959 37.7473 16.4753 37.5459 16.2937L32.769 11.5231C37.142 11.6382 41.3635 13.1474 44.8163 15.8301C48.2691 18.5127 50.772 22.228 51.9591 26.4329C53.1463 30.6377 52.9554 35.1116 51.4144 39.2004C49.8734 43.2892 47.0631 46.7784 43.3944 49.158C43.1732 49.3009 42.9824 49.486 42.8329 49.7027C42.6834 49.9194 42.5782 50.1634 42.5234 50.4207C42.4685 50.6781 42.465 50.9437 42.513 51.2024C42.5611 51.4611 42.6598 51.7078 42.8035 51.9284C42.9868 52.2063 43.2367 52.4342 43.5305 52.5914C43.8243 52.7486 44.1527 52.8301 44.486 52.8285C44.8731 52.8294 45.2523 52.7182 45.5775 52.5084C49.9269 49.688 53.2691 45.5634 55.124 40.7271C56.9789 35.8907 57.2511 30.5917 55.9014 25.5912C54.5517 20.5908 51.6497 16.1462 47.6121 12.8962C43.5795 9.65012 38.6216 7.76246 33.449 7.50351ZM29.0346 44.4336C29.2777 44.5342 29.4986 44.6816 29.6847 44.8675L37.5461 52.7285C37.7323 52.9142 37.8801 53.1349 37.9809 53.3777C38.0817 53.6205 38.1335 53.8808 38.1335 54.1437C38.1335 54.4065 38.0817 54.6668 37.9809 54.9096C37.8801 55.1525 37.7323 55.3731 37.5461 55.5588L29.6847 63.4099C29.4984 63.5971 29.2768 63.7456 29.0327 63.8469C28.7887 63.9481 28.527 64.0002 28.2627 63.9999C27.866 64.0023 27.4777 63.8869 27.1468 63.6685C26.8159 63.4501 26.5573 63.1386 26.404 62.7733C26.2506 62.408 26.2092 62.0055 26.2852 61.6167C26.3611 61.2279 26.551 60.8704 26.8306 60.5895L30.9766 56.439C25.7878 56.179 20.8158 54.2802 16.7772 51.0163C12.7387 47.7524 9.84229 43.2921 8.5056 38.2784C7.16891 33.2646 7.461 27.9565 9.33974 23.1192C11.2185 18.2819 14.5868 14.1654 18.9592 11.3631C19.4067 11.0766 19.9499 10.9794 20.4692 11.0929C20.9885 11.2064 21.4413 11.5212 21.7282 11.9682C22.015 12.4151 22.1124 12.9575 21.9987 13.4762C21.8851 13.9948 21.5698 14.447 21.1223 14.7335C17.4318 17.0938 14.5958 20.5731 13.0304 24.6609C11.4649 28.7488 11.2525 33.2301 12.4241 37.4474C13.5958 41.6647 16.0899 45.3961 19.5406 48.094C22.9912 50.792 27.2168 52.3146 31.5975 52.4384L26.8506 47.6978C26.6645 47.512 26.5169 47.2913 26.4162 47.0485C26.3155 46.8057 26.2637 46.5455 26.2637 46.2826C26.2637 46.0198 26.3155 45.7596 26.4162 45.5167C26.5169 45.2739 26.6645 45.0533 26.8506 44.8675C27.0367 44.6816 27.2576 44.5342 27.5008 44.4336C27.7439 44.333 28.0045 44.2813 28.2677 44.2813C28.5308 44.2813 28.7914 44.333 29.0346 44.4336Z" fill="#484848"/>
</svg>
