<svg width="64" height="64" viewBox="0 0 64 64" fill="none" xmlns="http://www.w3.org/2000/svg">
<path fill-rule="evenodd" clip-rule="evenodd" d="M0 32C0 14.4 14.4 0 32 0C49.6 0 64 14.4 64 32C64 49.6 49.6 64 32 64C14.4 64 0 49.6 0 32ZM4 32C4 47.4 16.6 60 32 60C47.4 60 60 47.4 60 32C60 16.6 47.4 4 32 4C16.6 4 4 16.6 4 32ZM34 28.6C35.2 29.2 36 30.5 36 32C36 34.2 34.2 36 32 36C30.6 36 29.3 35.2 28.6 34H17C15.9 34 15 33.1 15 32C15 30.9 15.9 30 17 30H28.6C28.9 29.4 29.4 28.9 30 28.6V10.8C30 9.7 30.9 8.8 32 8.8C33.1 8.8 34 9.7 34 10.8V28.6ZM30.2002 47.3V43.8C30.2002 42.3 29.0002 41 27.4002 41C26.4002 41 25.5002 41.6 25.0002 42.4L21.9002 47.5C21.7002 47.8 21.7002 48.1 21.7002 48.4C21.7002 49.4 22.5002 50.1 23.4002 50.1H27.0002V50.4C27.0002 51.3 27.7002 52 28.6002 52C29.5002 52 30.2002 51.3 30.2002 50.4V50.1C31.0002 50.1 31.6002 49.5 31.6002 48.7C31.6002 47.9 31.0002 47.4 30.2002 47.3ZM27.0002 47.3H25.0002L27.0002 43.9V47.3ZM32.4 46.5C32.4 43.6 33.9 41 37.1 41C40.3 41 41.8 43.6 41.8 46.5C41.8 49.4 40.2 52 37.1 52C34 52 32.4 49.4 32.4 46.5ZM35.6 46.5C35.6 48.3 36.1 49.2 37.1 49.2C38.1 49.2 38.6 48.4 38.6 46.5C38.6 44.6 38.1 43.8 37.1 43.8C36.1 43.8 35.6 44.7 35.6 46.5Z" fill="#484848"/>
</svg>
