<svg width="64" height="64" viewBox="0 0 64 64" fill="none" xmlns="http://www.w3.org/2000/svg">
<path fill-rule="evenodd" clip-rule="evenodd" d="M32 0C14.355 0 0 14.355 0 32C0 49.645 14.355 64 32 64C49.645 64 64 49.645 64 32C64 14.355 49.645 0 32 0Z" fill="#484848"/>
<path fill-rule="evenodd" clip-rule="evenodd" d="M25.9996 44.2421C25.4686 44.2421 24.9596 44.0311 24.5846 43.6561L16.1036 35.1711C15.3226 34.3891 15.3226 33.1231 16.1036 32.3431C16.8846 31.5611 18.1506 31.5611 18.9326 32.3431L25.9996 39.4131L45.0686 20.3441C45.8496 19.5621 47.1156 19.5621 47.8966 20.3441C48.6786 21.1251 48.6786 22.3901 47.8966 23.1721L27.4136 43.6561C27.0386 44.0311 26.5296 44.2421 25.9996 44.2421Z" fill="white"/>
</svg>
