<svg width="64" height="64" viewBox="0 0 64 64" fill="none" xmlns="http://www.w3.org/2000/svg">
<path fill-rule="evenodd" clip-rule="evenodd" d="M4 32C4 16.561 16.561 4 32 4C47.439 4 60 16.561 60 32C60 47.439 47.439 60 32 60C16.561 60 4 47.439 4 32ZM0 32C0 49.645 14.355 64 32 64C49.645 64 64 49.645 64 32C64 14.355 49.645 0 32 0C14.355 0 0 14.355 0 32ZM21 25C22.656 25 24 23.657 24 22C24 20.344 22.656 19 21 19C19.343 19 18 20.344 18 22C18 23.657 19.343 25 21 25ZM46 22C46 23.657 44.656 25 43 25C41.343 25 40 23.657 40 22C40 20.344 41.343 19 43 19C44.656 19 46 20.344 46 22ZM32.0002 46.8504C25.5412 46.8504 20.1712 42.0954 19.2062 35.9024H44.7932C43.8282 42.0954 38.4592 46.8504 32.0002 46.8504ZM15.0521 33.9024C15.0521 43.2484 22.6541 50.8504 32.0001 50.8504C41.3451 50.8504 48.9471 43.2484 48.9471 33.9024C48.9471 32.7984 48.0521 31.9024 46.9471 31.9024H17.0521C15.9471 31.9024 15.0521 32.7984 15.0521 33.9024Z" fill="#484848"/>
</svg>
