<svg width="64" height="64" viewBox="0 0 64 64" fill="none" xmlns="http://www.w3.org/2000/svg">
<path fill-rule="evenodd" clip-rule="evenodd" d="M2 8.95996H62C63.1 8.95996 64 9.86203 64 10.9646V47.2478V53.462C64 54.5646 63.1 55.4666 62 55.4666H2C0.9 55.4666 0 54.5646 0 53.462V47.2478V10.9646C0 9.86203 0.9 8.95996 2 8.95996ZM60 45.2432V12.9692H4V45.2432H35.8V40.7328C35.8 39.6303 36.7 38.7282 37.8 38.7282H53.2C54.3 38.7282 55.2 39.6303 55.2 40.7328V45.2432H60ZM39.8 42.8377V45.2432H51.3V42.8377H39.8ZM4 51.4574H60V49.2524H4V51.4574ZM12.0414 36.7484C11.8595 37.5691 11.3136 38.2074 10.4948 38.2986C9.494 38.481 8.58421 37.7515 8.49323 36.7484C8.40226 36.566 8.40226 36.2925 8.49323 36.1101L10.6767 25.6235C10.9497 24.438 11.9504 23.3438 13.3151 23.1614C14.5888 22.8878 15.8625 23.6173 16.4994 24.7116L21.6852 33.9216C21.7762 34.104 21.8672 34.3775 21.8672 34.5599C21.9581 35.563 21.3213 36.4748 20.3205 36.6572C19.5017 36.7484 18.6829 36.3837 18.4099 35.6542L17.8641 34.5599L12.2234 35.4718L12.0414 36.7484ZM16.4084 31.8242L13.77 26.6265L12.7692 32.3714L16.4084 31.8242ZM24.9042 32.8558C25.1771 34.0412 25.9959 34.5883 27.1786 34.3148L33.2742 32.8558C35.9126 32.2174 36.9134 30.2113 36.3675 28.2052C36.0036 26.4726 34.5479 25.3783 33.0013 25.4695C34.184 24.9224 35.0028 23.4634 34.6389 21.822C34.184 20.1806 32.5464 18.7216 29.817 19.2687L23.9944 20.6365C22.8116 20.9101 22.2658 21.7308 22.5387 22.9163L24.9042 32.8558ZM32.7283 28.5699C32.9103 29.2994 32.5464 29.9377 31.6366 30.1201L28.0884 30.9408L27.5425 28.3875L31.0907 27.5668C31.9095 27.4757 32.5464 27.9316 32.7283 28.5699ZM29.726 22.3691C30.4539 22.1867 30.9997 22.5515 31.1817 23.281C31.3637 24.0105 30.9997 24.5576 30.2719 24.74L26.9057 25.5607L26.3598 23.1898L29.726 22.3691ZM51.7765 27.4755C50.9577 28.9345 49.593 30.12 47.3185 30.6671C43.2244 31.6702 39.4033 29.5729 38.4935 25.287C37.4928 21.0924 40.0402 17.4448 44.1342 16.533C46.4087 16.077 48.1373 16.533 49.502 17.4448C49.7749 17.7184 50.0479 18.0832 50.1388 18.4479C50.3208 19.2686 49.7749 20.2717 48.8651 20.454C48.4102 20.5452 47.8644 20.454 47.5005 20.1805C46.7726 19.6333 45.7718 19.3598 44.7711 19.6333C42.6786 20.1805 41.4958 22.1866 42.0417 24.4663C42.5876 26.746 44.5891 28.0227 46.6816 27.5667C47.6824 27.2932 48.4102 26.6548 48.8651 25.8341C49.0471 25.4694 49.502 25.1046 49.9569 25.0135C50.7757 24.8311 51.7765 25.3782 51.9584 26.2901C52.0494 26.6548 51.9584 27.1108 51.7765 27.4755Z" fill="#484848"/>
</svg>
