<svg width="64" height="64" viewBox="0 0 64 64" fill="none" xmlns="http://www.w3.org/2000/svg">
<path fill-rule="evenodd" clip-rule="evenodd" d="M49.5755 60C50.6143 60 51.4598 59.041 51.4598 57.862V13.565C51.4598 12.386 50.6143 11.427 49.5755 11.427H45.7079V19.217C45.7079 20.322 44.8104 21.217 43.7045 21.217H20.7151C19.6082 21.217 18.7117 20.322 18.7117 19.217V11.427H14.851C13.8123 11.427 12.9668 12.386 12.9668 13.565V57.862C12.9668 59.041 13.8123 60 14.851 60H49.5755ZM27.9826 8.631V11.427H22.7186V17.217H41.7011V11.427H36.4451V8.631C36.4451 6.077 34.5488 4 32.2178 4C31.1119 4 30.0631 4.466 29.2668 5.313C28.4394 6.195 27.9826 7.374 27.9826 8.631ZM40.3728 7.427H49.5755C52.8241 7.427 55.4666 10.18 55.4666 13.565V57.862C55.4666 61.247 52.8241 64 49.5755 64H14.8511C11.6025 64 8.95996 61.247 8.95996 57.862V13.565C8.95996 10.18 11.6025 7.427 14.8511 7.427H24.0548C24.2972 5.603 25.0886 3.914 26.3447 2.576C27.9074 0.915 29.993 0 32.2178 0C36.3689 0 39.8118 3.236 40.3728 7.427ZM28.0597 43.2424L40.8105 30.5134C41.5929 29.7324 42.8611 29.7324 43.6434 30.5134C44.4257 31.2944 44.4257 32.5604 43.6434 33.3414L29.4761 47.4854C29.1005 47.8604 28.5906 48.0714 28.0597 48.0714C27.5278 48.0714 27.0179 47.8604 26.6423 47.4854L20.7762 41.6264C19.9939 40.8454 19.9939 39.5784 20.7762 38.7984C21.5586 38.0174 22.8267 38.0174 23.6091 38.7984L28.0597 43.2424Z" fill="#484848"/>
</svg>
