<svg width="64" height="64" viewBox="0 0 64 64" fill="none" xmlns="http://www.w3.org/2000/svg">
<path fill-rule="evenodd" clip-rule="evenodd" d="M48.6185 0.511996C49.4401 -0.225988 50.6986 -0.15799 51.4355 0.662993C54.8609 4.48691 56.7466 9.42581 56.7466 14.5687C56.7466 19.8506 54.7711 24.8885 51.1832 28.7524C50.7903 29.1754 50.2568 29.3894 49.7234 29.3894C49.2367 29.3894 48.7491 29.2114 48.3642 28.8524C47.5584 28.0994 47.5126 26.8344 48.2635 26.0255C51.1623 22.9045 52.7578 18.8366 52.7578 14.5687C52.7578 10.4138 51.2341 6.42487 48.4669 3.33694C47.732 2.51495 47.7998 1.24998 48.6185 0.511996ZM15.736 26.0257C12.8382 22.9048 11.2417 18.8369 11.2417 14.569C11.2417 10.4141 12.7654 6.42414 15.5326 3.3372C16.2675 2.51422 16.2007 1.25024 15.382 0.511259C14.5603 -0.225726 13.3019 -0.157727 12.564 0.663256C9.13961 4.48718 7.25293 9.42507 7.25293 14.569C7.25293 19.8509 9.22936 24.8878 12.8163 28.7527C13.2101 29.1747 13.7426 29.3887 14.2761 29.3887C14.7628 29.3887 15.2514 29.2117 15.6353 28.8527C16.441 28.0997 16.4869 26.8347 15.736 26.0257ZM41.2614 20.5628C42.6425 18.8809 43.4034 16.7529 43.4034 14.569C43.4034 12.382 42.6405 10.252 41.2554 8.56808C40.5544 7.7161 40.6751 6.45612 41.5247 5.75314C42.3733 5.04915 43.6317 5.17215 44.3328 6.02313C46.3052 8.42108 47.3921 11.456 47.3921 14.569C47.3921 17.6769 46.3082 20.7098 44.3398 23.1058C43.9459 23.5868 43.3755 23.8348 42.8001 23.8348C42.3534 23.8348 41.9036 23.6848 41.5327 23.3788C40.6821 22.6758 40.5604 21.4158 41.2614 20.5628ZM21.2064 23.8432C21.6531 23.8432 22.1028 23.6942 22.4738 23.3862C23.3244 22.6832 23.4451 21.4222 22.744 20.5712C21.3579 18.8873 20.5961 16.7553 20.5961 14.5694C20.5961 12.3874 21.3549 10.2595 22.7341 8.57849C23.4341 7.72651 23.3124 6.46553 22.4618 5.76455C21.6112 5.06256 20.3548 5.18556 19.6547 6.03754C17.6893 8.43249 16.6073 11.4624 16.6073 14.5694C16.6073 17.6823 17.6943 20.7182 19.6667 23.1152C20.0616 23.5952 20.632 23.8432 21.2064 23.8432ZM23.3729 51.0867L26.1132 42.9449H37.885L40.6253 51.0867H23.3729ZM36.5383 38.945H27.4589L31.9981 25.4562L36.5383 38.945ZM31.9991 11.9375C33.447 11.9375 34.6237 13.1175 34.6237 14.5684C34.6237 16.0214 33.447 17.2014 31.9991 17.2014C30.5512 17.2014 29.3745 16.0214 29.3745 14.5684C29.3745 13.1175 30.5512 11.9375 31.9991 11.9375ZM34.5975 20.6673C36.9558 19.6523 38.6122 17.3014 38.6122 14.5684C38.6122 10.9115 35.6465 7.93758 31.9988 7.93758C28.3521 7.93758 25.3854 10.9115 25.3854 14.5684C25.3854 17.3024 27.0428 19.6523 29.4011 20.6673L15.7077 61.3585C15.3547 62.4054 15.9151 63.5404 16.9582 63.8934C18.0012 64.2494 19.133 63.6834 19.4861 62.6384L22.0269 55.0866H41.9707L44.5125 62.6384C44.7927 63.4724 45.5696 63.9994 46.4022 63.9994C46.6136 63.9994 46.828 63.9654 47.0394 63.8934C48.0835 63.5404 48.6439 62.4054 48.2909 61.3585L34.5975 20.6673Z" fill="#484848"/>
</svg>
