<svg width="64" height="64" viewBox="0 0 64 64" fill="none" xmlns="http://www.w3.org/2000/svg">
<path fill-rule="evenodd" clip-rule="evenodd" d="M59.5 23.2746L54.8 10.7381C54 8.43133 51.7 6.82666 49.2 6.82666H14.8C12.3 6.82666 10 8.43133 9.2 10.7381L4.5 23.2746C1.9 23.9766 0 26.2833 0 29.0915V43.6339C0 46.6426 2.2 49.0497 5 49.5511V55.1675C5 56.2707 5.9 57.1733 7 57.1733H17.3C18.4 57.1733 19.3 56.2707 19.3 55.1675V49.6514H44.7V55.1675C44.7 56.2707 45.6 57.1733 46.7 57.1733H57C58.1 57.1733 59 56.2707 59 55.1675V49.5511C61.8 49.0497 64 46.6426 64 43.6339V29.0915C64 26.2833 62.1 23.9766 59.5 23.2746ZM12.9 12.1421C13.2 11.3398 14 10.8383 14.8 10.8383H49.2C50 10.8383 50.8 11.3398 51.1 12.1421L55.1 23.074H52.2C51.4 18.8617 47.5 15.5521 43 15.5521C38.5 15.5521 34.6 18.7614 33.7 23.074H8.9L12.9 12.1421ZM37.9 23.074C38.7 21.0681 40.7 19.5638 43 19.5638C45.3 19.5638 47.3 21.0681 48.1 23.074H37.9ZM15.3 53.2619H9V49.7517H15.3V53.2619ZM55 53.2619H48.7V49.7517H55V53.2619ZM60 43.6339C60 44.7371 59.1 45.6397 58 45.6397H57H46.7H17.3H7H6C4.9 45.6397 4 44.7371 4 43.6339V29.0915C4 27.9883 4.9 27.0857 6 27.0857H58C59.1 27.0857 60 27.9883 60 29.0915V43.6339ZM13 39.4216C14.6569 39.4216 16 38.0745 16 36.4128C16 34.7511 14.6569 33.404 13 33.404C11.3431 33.404 10 34.7511 10 36.4128C10 38.0745 11.3431 39.4216 13 39.4216ZM54 36.4128C54 38.0745 52.6569 39.4216 51 39.4216C49.3431 39.4216 48 38.0745 48 36.4128C48 34.7511 49.3431 33.404 51 33.404C52.6569 33.404 54 34.7511 54 36.4128ZM38 31.3983H25.5C24.4 31.3983 23.5 32.3009 23.5 33.4041C23.5 34.5073 24.4 35.41 25.5 35.41H38C39.1 35.41 40 34.5073 40 33.4041C40 32.3009 39.1 31.3983 38 31.3983ZM25.5 37.4158H38C39.1 37.4158 40 38.3184 40 39.4216C40 40.5248 39.1 41.4274 38 41.4274H25.5C24.4 41.4274 23.5 40.5248 23.5 39.4216C23.5 38.3184 24.4 37.4158 25.5 37.4158Z" fill="#484848"/>
</svg>
