<svg width="64" height="64" viewBox="0 0 64 64" fill="none" xmlns="http://www.w3.org/2000/svg">
<path fill-rule="evenodd" clip-rule="evenodd" d="M0 32C0 14.4 14.4 0 32 0C49.6 0 64 14.4 64 32C64 49.6 49.6 64 32 64C14.4 64 0 49.6 0 32ZM4 32C4 47.4 16.6 60 32 60C47.4 60 60 47.4 60 32C60 16.6 47.4 4 32 4C16.6 4 4 16.6 4 32ZM33 28.1L41.2 20C42 19.2 43.3 19.2 44.1 20C44.9 20.8 44.9 22 44.1 22.8L35.9 31C35.9 31.1392 35.9215 31.2785 35.9446 31.4277C35.9713 31.6 36 31.7856 36 32C36 34.2 34.2 36 32 36C29.8 36 28 34.2 28 32C28 31.7 28 31.3 28.1 31L15.6 18.4C14.8 17.6 14.8 16.4 15.6 15.6C16.4 14.8 17.6 14.8 18.4 15.6L31 28.1C31.1392 28.1 31.2785 28.0785 31.4277 28.0554C31.6 28.0287 31.7856 28 32 28C32.3 28 32.7 28 33 28.1Z" fill="#484848"/>
</svg>
