<svg width="64" height="64" viewBox="0 0 64 64" fill="none" xmlns="http://www.w3.org/2000/svg">
<g clip-path="url(#clip0_1655:78)">
<path d="M32 -0.0400009C23.5131 -0.0400009 15.3737 3.33142 9.37258 9.33258C3.37142 15.3337 0 23.4731 0 31.96C0 40.4469 3.37142 48.5863 9.37258 54.5874C15.3737 60.5886 23.5131 63.96 32 63.96C40.4869 63.96 48.6263 60.5886 54.6274 54.5874C60.6286 48.5863 64 40.4469 64 31.96C64 23.4731 60.6286 15.3337 54.6274 9.33258C48.6263 3.33142 40.4869 -0.0400009 32 -0.0400009ZM32 59.96C24.5739 59.96 17.452 57.01 12.201 51.759C6.94999 46.508 4 39.3861 4 31.96C4 24.5339 6.94999 17.412 12.201 12.161C17.452 6.90999 24.5739 3.96 32 3.96C39.4261 3.96 46.548 6.90999 51.799 12.161C57.05 17.412 60 24.5339 60 31.96C60 39.3861 57.05 46.508 51.799 51.759C46.548 57.01 39.4261 59.96 32 59.96Z" fill="#484848"/>
<path d="M41.4751 43H26.6351C28.264 40.9531 29.3292 38.5158 29.7251 35.93H37.7251C38.2555 35.93 38.7642 35.7193 39.1393 35.3442C39.5144 34.9691 39.7251 34.4604 39.7251 33.93C39.7251 33.3996 39.5144 32.8909 39.1393 32.5158C38.7642 32.1407 38.2555 31.93 37.7251 31.93H29.7251C29.6051 31.01 29.4551 30.11 29.2951 29.22C29.1351 28.33 28.9751 27.42 28.8751 26.56L28.7251 26C28.4766 24.7895 28.504 23.5385 28.8051 22.34C29.1613 21.363 29.8087 20.5189 30.6599 19.9216C31.5112 19.3243 32.5252 19.0026 33.5651 19C34.8912 19 36.1629 19.5268 37.1006 20.4645C38.0383 21.4021 38.5651 22.6739 38.5651 24C38.5651 24.5304 38.7758 25.0391 39.1509 25.4142C39.526 25.7893 40.0347 26 40.5651 26C41.0955 26 41.6042 25.7893 41.9793 25.4142C42.3544 25.0391 42.5651 24.5304 42.5651 24C42.5651 21.6131 41.6169 19.3239 39.9291 17.636C38.2412 15.9482 35.952 15 33.5651 15C31.7066 15.0032 29.8946 15.5816 28.378 16.6559C26.8614 17.7303 25.7146 19.2477 25.0951 21C24.5631 22.774 24.4637 24.6497 24.8051 26.47L24.8651 26.99C24.9751 27.99 25.1451 28.99 25.3151 29.91C25.4351 30.6 25.5451 31.26 25.6451 31.91H22.9951C22.4647 31.91 21.956 32.1207 21.5809 32.4958C21.2058 32.8709 20.9951 33.3796 20.9951 33.91C20.9951 34.4404 21.2058 34.9491 21.5809 35.3242C21.956 35.6993 22.4647 35.91 22.9951 35.91H25.6451C25.1122 38.2556 23.9143 40.3978 22.1951 42.08C21.7352 42.5835 21.2442 43.0578 20.7251 43.5C20.4091 43.7614 20.1811 44.1136 20.072 44.5089C19.9629 44.9042 19.9779 45.3235 20.1151 45.71C20.2585 46.0877 20.513 46.4132 20.845 46.6435C21.1771 46.8737 21.571 46.998 21.9751 47H41.4751C42.0055 47 42.5142 46.7893 42.8893 46.4142C43.2644 46.0391 43.4751 45.5304 43.4751 45C43.4751 44.4696 43.2644 43.9609 42.8893 43.5858C42.5142 43.2107 42.0055 43 41.4751 43Z" fill="#484848"/>
</g>
<defs>
<clipPath id="clip0_1655:78">
<rect width="64" height="64" fill="white"/>
</clipPath>
</defs>
</svg>
