<svg width="64" height="64" viewBox="0 0 64 64" fill="none" xmlns="http://www.w3.org/2000/svg">
<g clip-path="url(#clip0_593:29)">
<path fill-rule="evenodd" clip-rule="evenodd" d="M13.7857 15.9049L5.69036 12.3535C4.88083 12.0491 4.27368 11.2374 4.37487 10.4257C4.47606 9.61395 4.98202 8.90369 5.79155 8.59929L31.2919 0.0760999C31.6966 -0.0253666 32.2026 -0.0253666 32.6074 0.0760999L58.1077 8.70075C58.9172 9.00515 59.5244 9.71542 59.5244 10.5272C59.5244 11.3389 59.1196 12.1506 58.3101 12.455L56.5898 13.1653V27.5735C56.5898 28.6897 55.6791 29.6029 54.566 29.6029C53.4529 29.6029 52.5421 28.6897 52.5421 27.5735V14.8902L50.2147 15.9049V16.0063V32.7483C50.2147 33.6615 49.7088 34.3718 48.8992 34.6762L32.7086 41.0686C32.5062 41.17 32.2026 41.17 32.0002 41.17C31.7978 41.17 31.4943 41.17 31.2919 41.0686L15.1012 34.6762C14.2917 34.3718 13.7857 33.56 13.7857 32.7483V16.0063V15.9049ZM32.0002 36.9084L46.167 31.3278V17.6298L32.8097 23.4134C32.7464 23.4346 32.6874 23.4558 32.6311 23.476C32.4173 23.5528 32.2404 23.6163 32.0002 23.6163C31.76 23.6163 31.5831 23.5528 31.3694 23.476C31.313 23.4558 31.254 23.4346 31.1907 23.4134L17.8334 17.6298V31.3278L32.0002 36.9084ZM51.8338 10.7301L32.0002 4.13476L12.0654 10.8316L32.0002 19.3547L51.8338 10.7301ZM57.3991 42.2862C58.411 42.1847 59.2206 42.7935 59.5241 43.7067C60.9408 48.4756 60.9408 53.6504 59.5241 58.5208C59.2206 59.434 58.3098 60.0428 57.3991 59.9414L36.6548 58.3179L38.5775 60.6516C39.387 61.4634 39.1846 62.7824 38.3751 63.4927C37.9703 63.7971 37.5655 64 37.0596 64C36.5536 64 35.9465 63.7971 35.5417 63.2898L32 59.0282L28.4583 63.2898C28.0535 63.7971 27.5476 64 26.9404 64C26.4344 64 26.0297 63.7971 25.6249 63.4927C24.8154 62.7824 24.7142 61.4634 25.4225 60.6516L27.3452 58.3179L6.60087 59.9414H6.39849C5.48776 59.9414 4.77942 59.434 4.47584 58.5208C3.05916 53.6504 3.05916 48.5771 4.47584 43.7067C4.77942 42.7935 5.69014 42.1847 6.60087 42.2862L32 44.3155L57.3991 42.2862ZM29.9762 48.1712L7.91636 46.4463C7.20802 49.4903 7.20802 52.6358 7.91636 55.7812L29.9762 54.0563V48.1712ZM34.0238 54.0563L56.0836 55.7812C56.6908 52.6358 56.6908 49.4903 56.0836 46.5478L34.0238 48.2727V54.0563Z" fill="#484848"/>
</g>
<defs>
<clipPath id="clip0_593:29">
<rect width="64" height="64" fill="white"/>
</clipPath>
</defs>
</svg>
