<svg width="64" height="64" viewBox="0 0 64 64" fill="none" xmlns="http://www.w3.org/2000/svg">
<path fill-rule="evenodd" clip-rule="evenodd" d="M4 32C4 16.561 16.561 4 32 4C47.439 4 60 16.561 60 32C60 47.439 47.439 60 32 60C16.561 60 4 47.439 4 32ZM0 32C0 49.645 14.355 64 32 64C49.645 64 64 49.645 64 32C64 14.355 49.645 0 32 0C14.355 0 0 14.355 0 32ZM46.5 25.75C46.5 26.854 47.396 27.75 48.5 27.75C49.604 27.75 50.5 26.854 50.5 25.75C50.5 21.614 47.136 18.25 43 18.25C38.864 18.25 35.5 21.614 35.5 25.75C35.5 26.854 36.396 27.75 37.5 27.75C38.604 27.75 39.5 26.854 39.5 25.75C39.5 23.82 41.07 22.25 43 22.25C44.93 22.25 46.5 23.82 46.5 25.75ZM26.5 27.75C25.396 27.75 24.5 26.854 24.5 25.75C24.5 23.82 22.93 22.25 21 22.25C19.07 22.25 17.5 23.82 17.5 25.75C17.5 26.854 16.604 27.75 15.5 27.75C14.396 27.75 13.5 26.854 13.5 25.75C13.5 21.614 16.864 18.25 21 18.25C25.136 18.25 28.5 21.614 28.5 25.75C28.5 26.854 27.604 27.75 26.5 27.75ZM15.5409 42.0789C19.8519 46.6769 25.6969 49.2099 31.9999 49.2099C38.3029 49.2099 44.1479 46.6769 48.4589 42.0789C49.2149 41.2729 49.1739 40.0069 48.3679 39.2519C47.5629 38.4949 46.2959 38.5359 45.5409 39.3429C41.9939 43.1259 37.1859 45.2099 31.9999 45.2099C26.8139 45.2099 22.0059 43.1259 18.4589 39.3429C17.7039 38.5379 16.4369 38.4959 15.6319 39.2519C14.8259 40.0069 14.7849 41.2729 15.5409 42.0789Z" fill="#484848"/>
</svg>
