<svg width="64" height="64" viewBox="0 0 64 64" fill="none" xmlns="http://www.w3.org/2000/svg">
<path fill-rule="evenodd" clip-rule="evenodd" d="M4.01693 50.1723H17.3813V29.5121H4.01693V50.1723ZM4.01693 17.7445H17.3813V13.828H4.01693V17.7445ZM4.01693 25.4992H17.3813V21.7583H4.01693V25.4992ZM19.3894 9.81316H2.00832C0.898725 9.81316 0 10.7123 0 11.8201V52.1792C0 53.2881 0.898725 54.1862 2.00832 54.1862H19.3894C20.498 54.1862 21.3977 53.2881 21.3977 52.1792V11.8201C21.3977 10.7123 20.498 9.81316 19.3894 9.81316ZM10.6983 38.6923C9.58866 38.6923 8.68994 39.5914 8.68994 40.6992C8.68994 41.808 9.58866 42.7061 10.6983 42.7061C11.8069 42.7061 12.7066 41.808 12.7066 40.6992C12.7066 39.5914 11.8069 38.6923 10.6983 38.6923ZM57.9753 38.4003C59.0829 38.4003 59.9836 37.5002 59.9836 36.3934V19.4028C59.9836 18.297 59.0829 17.3959 57.9753 17.3959H30.4632C29.3556 17.3959 28.4549 18.297 28.4549 19.4028V36.3934C28.4549 37.5002 29.3556 38.4003 30.4632 38.4003H57.9753ZM30.463 13.3821H57.975C61.2978 13.3821 64 16.0834 64 19.4029V36.3934C64 39.7139 61.2978 42.4142 57.975 42.4142H46.2273V46.6026H49.6806C50.7892 46.6026 51.6889 47.5007 51.6889 48.6096C51.6889 49.7174 50.7892 50.6165 49.6806 50.6165H38.7573C37.6477 50.6165 36.749 49.7174 36.749 48.6096C36.749 47.5007 37.6477 46.6026 38.7573 46.6026H42.2106V42.4142H30.463C27.1402 42.4142 24.438 39.7139 24.438 36.3934V19.4029C24.438 16.0834 27.1402 13.3821 30.463 13.3821Z" fill="#484848"/>
</svg>
