<svg width="64" height="64" viewBox="0 0 64 64" fill="none" xmlns="http://www.w3.org/2000/svg">
<path d="M62.097 13.0203H14.4225L11.9186 1.6025C11.7183 0.701096 10.9171 0 9.91549 0H2.00313C0.901408 0 0 0.901408 0 2.00313C0 3.10485 0.901408 4.00626 2.00313 4.00626H8.41315L10.9171 15.4241L11.9186 19.9311C11.9186 20.0313 12.0188 20.1315 12.0188 20.3318L13.9218 28.5446L16.7261 41.1643C14.1221 42.266 12.9202 44.8701 13.0203 47.374C13.1205 50.4789 15.4241 53.5837 19.5305 53.5837H21.8341C21.3333 54.5853 21.0329 55.687 21.0329 56.7887C21.0329 60.795 24.2379 64 28.2441 64C32.2504 64 35.4554 60.795 35.4554 56.7887C35.4554 55.5869 35.1549 54.4851 34.6541 53.5837H46.7731C46.2723 54.5853 45.9718 55.687 45.9718 56.7887C45.9718 60.795 49.1768 64 53.1831 64C57.1894 64 60.3944 60.795 60.3944 56.7887C60.3944 52.7825 57.1894 49.5775 53.1831 49.5775H19.4304C17.2269 49.5775 17.0266 47.5743 16.9264 47.1737C16.9264 46.7731 16.9264 44.8701 19.1299 44.5696L62.1972 40.5634C63.1987 40.4632 64 39.5618 64 38.5603V15.0235C64 13.942 63.1987 13.0203 62.097 13.0203ZM31.5493 56.8889C31.5493 58.6917 30.0469 60.0939 28.3443 60.0939C26.5415 60.0939 25.1393 58.5915 25.1393 56.8889C25.1393 55.0861 26.6416 53.6839 28.3443 53.6839C30.0469 53.5837 31.5493 55.0861 31.5493 56.8889ZM56.5884 56.8889C56.5884 58.6917 55.0861 60.0939 53.3834 60.0939C51.5806 60.0939 50.1784 58.5915 50.1784 56.8889C50.1784 55.0861 51.6808 53.6839 53.3834 53.6839C55.0861 53.5837 56.5884 55.0861 56.5884 56.8889ZM60.0939 26.241H48.5759V17.0266H60.0939V26.241ZM20.6322 40.4632L18.3286 30.1471H29.446V39.662L20.6322 40.4632ZM33.4523 39.3615V30.2473H44.5696V38.2598L33.4523 39.3615ZM33.4523 26.241V17.0266H44.5696V26.241H33.4523ZM29.446 17.0266V26.241H17.4272L15.3239 17.0266H29.446ZM55.1862 37.2582L48.5759 37.8592V30.1471H60.0939V36.7574L55.1862 37.2582Z" fill="#484848"/>
</svg>
