<svg width="64" height="64" viewBox="0 0 64 64" fill="none" xmlns="http://www.w3.org/2000/svg">
<path fill-rule="evenodd" clip-rule="evenodd" d="M0 32C0 14.4 14.4 0 32 0C49.6 0 64 14.4 64 32C64 49.6 49.6 64 32 64C14.4 64 0 49.6 0 32ZM4 32C4 47.4 16.6 60 32 60C47.4 60 60 47.4 60 32C60 16.6 47.4 4 32 4C16.6 4 4 16.6 4 32ZM36 32C36 34.2 34.2 36 32 36C30.5 36 29.2 35.2 28.6 34H17C15.9 34 15 33.1 15 32C15 30.9 15.9 30 17 30H28.6C28.9 29.4 29.4 28.9 30 28.6V10.8C30 9.7 30.9 8.8 32 8.8C33.1 8.8 34 9.7 34 10.8V28.6C35.2 29.2 36 30.5 36 32ZM32.8 51.3C31.8 51.3 30.9 52.2 30.9 53.2C30.9 54.2 31.8 55.1 32.8 55.1C33.8 55.1 34.7 54.2 34.7 53.2C34.7 52.2 33.8 51.3 32.8 51.3ZM29.4998 42.2C30.4998 41.6 31.5998 41.3 32.6998 41.3C35.3998 41.3 36.9998 42.6 36.9998 44.5C36.9998 46.1289 36.0817 46.8397 35.2131 47.5121C35.1752 47.5415 35.1374 47.5707 35.0998 47.6C34.4998 48 33.8998 48.4 33.8998 49V49.2V49.4C33.7998 50.1 33.0998 50.6 32.3998 50.6C31.6998 50.6 31.0998 50.1 30.9998 49.4C30.8998 49.2 30.8998 49 30.8998 48.8C30.8998 47.4139 31.88 46.714 32.5788 46.215L32.5998 46.2C33.0998 45.9 33.4998 45.6 33.4998 45.2C33.4998 44.7 33.1998 44.4 32.2998 44.4C31.8998 44.4 31.3998 44.5 30.9998 44.8C30.7998 44.9 30.5998 45 30.2998 45C29.4998 45 28.7998 44.3 28.7998 43.5C28.7998 42.9 29.0998 42.4 29.4998 42.2Z" fill="#484848"/>
</svg>
