<svg width="64" height="64" viewBox="0 0 64 64" fill="none" xmlns="http://www.w3.org/2000/svg">
<path fill-rule="evenodd" clip-rule="evenodd" d="M60 49.9225C60 51.0202 59.103 51.9128 58 51.9128H6C4.897 51.9128 4 51.0202 4 49.9225V20.1977C4 19.1 4.897 18.2074 6 18.2074H20.41C21.276 18.2074 22.044 17.6521 22.312 16.8331L23.684 12.6376C23.771 12.3709 24.142 12.0873 24.66 12.0873H39.33C39.849 12.0873 40.22 12.3709 40.309 12.6436L41.679 16.8331C41.946 17.6521 42.714 18.2074 43.58 18.2074H58C59.103 18.2074 60 19.1 60 20.1977V49.9225ZM58 14.2268H45.032L44.113 11.4175C43.473 9.43719 41.551 8.10669 39.33 8.10669H24.66C22.439 8.10669 20.518 9.43719 19.879 11.4116L18.958 14.2268H6C2.691 14.2268 0 16.9047 0 20.1977V49.9225C0 53.2154 2.691 55.8934 6 55.8934H58C61.309 55.8934 64 53.2154 64 49.9225V20.1977C64 16.9047 61.309 14.2268 58 14.2268ZM31.9951 43.6309C26.9321 43.6309 22.8121 39.5319 22.8121 34.4925C22.8121 29.4541 26.9321 25.3541 31.9951 25.3541C37.0581 25.3541 41.1791 29.4541 41.1791 34.4925C41.1791 39.5319 37.0581 43.6309 31.9951 43.6309ZM31.9951 21.3736C24.7261 21.3736 18.8121 27.2588 18.8121 34.4925C18.8121 41.7262 24.7261 47.6115 31.9951 47.6115C39.2651 47.6115 45.1791 41.7262 45.1791 34.4925C45.1791 27.2588 39.2651 21.3736 31.9951 21.3736ZM51.2666 24.5278C51.2666 23.4292 52.1626 22.5375 53.2666 22.5375C54.3706 22.5375 55.2666 23.4292 55.2666 24.5278C55.2666 25.6274 54.3706 26.5181 53.2666 26.5181C52.1626 26.5181 51.2666 25.6274 51.2666 24.5278Z" fill="#484848"/>
</svg>
