<svg width="64" height="64" viewBox="0 0 64 64" fill="none" xmlns="http://www.w3.org/2000/svg">
<path fill-rule="evenodd" clip-rule="evenodd" d="M49.0464 4.40625H58.0184C61.3081 4.40625 63.9997 7.09245 63.9997 10.3756V13.1613C63.9997 14.2556 63.1025 15.151 62.0059 15.151H2.19293C1.09636 15.151 0.199167 14.2556 0.199167 13.1613V10.3756C0.199167 7.09245 2.89075 4.40625 6.18046 4.40625H15.1524V2.41647C15.1524 1.3221 16.0496 0.426697 17.1462 0.426697C18.2428 0.426697 19.1399 1.3221 19.1399 2.41647V4.40625H45.0589V2.41647C45.0589 1.3221 45.9561 0.426697 47.0527 0.426697C48.1492 0.426697 49.0464 1.3221 49.0464 2.41647V4.40625ZM4.1867 11.1715H60.0121V10.3756C60.0121 9.2812 59.115 8.3858 58.0184 8.3858H6.18046C5.08389 8.3858 4.1867 9.2812 4.1867 10.3756V11.1715ZM47.9501 39.1278L59.5139 42.212C62.2055 42.9084 63.9999 45.2961 63.9999 47.9823V55.8419C63.9999 56.9363 63.1027 57.8317 62.0061 57.8317H54.7289C53.8317 61.3138 50.6417 64 46.7538 64C42.866 64 39.6759 61.4133 38.7788 57.8317H24.8224C23.9252 61.3138 20.7352 64 16.8473 64C12.9595 64 9.76945 61.4133 8.87226 57.8317H1.99377C0.897195 57.8317 0 56.9363 0 55.8419V43.9033C0 43.0079 0.59813 42.3115 1.39564 42.013L8.97195 39.4263C9.3707 39.3268 9.76945 39.0283 9.96883 38.7299L14.0561 33.1585C15.2523 31.5667 17.0467 30.6713 18.9408 30.6713H35.6884C37.084 30.6713 38.38 31.1687 39.4766 32.0641L47.9501 39.1278ZM12.8598 55.9414C12.8598 58.2297 14.7539 60.12 17.0467 60.12C19.3395 60.12 21.2336 58.2297 21.2336 55.9414C21.2336 53.6532 19.3395 51.7629 17.0467 51.7629C14.7539 51.7629 12.8598 53.6532 12.8598 55.9414ZM42.7663 55.9414C42.7663 58.2297 44.6604 60.12 46.9532 60.12C49.246 60.12 51.1401 58.2297 51.1401 55.9414C51.1401 53.6532 49.246 51.7629 46.9532 51.7629C44.6604 51.7629 42.7663 53.6532 42.7663 55.9414ZM54.9283 53.9516H60.0124V48.0818C60.0124 47.1864 59.4142 46.3905 58.517 46.1915L46.5544 43.0079C46.2554 42.9084 45.9563 42.8089 45.7569 42.6099L36.8847 35.2477C36.4859 34.9493 36.0872 34.7503 35.5887 34.7503H18.9408C18.3426 34.7503 17.7445 35.0488 17.3458 35.5462L13.2585 41.1176C12.5607 42.1125 11.5638 42.9084 10.3676 43.3063L4.18691 45.3956V53.9516H9.07164C9.96883 50.4695 13.1589 47.7833 17.0467 47.7833C20.9345 47.7833 24.1246 50.37 25.0218 53.9516H38.9781C39.8753 50.4695 43.0653 47.7833 46.9532 47.7833C50.841 47.7833 54.0311 50.37 54.9283 53.9516ZM3.19002 28.2835C4.28659 28.2835 5.18378 27.3881 5.18378 26.2938V19.3295C5.18378 18.2352 4.28659 17.3398 3.19002 17.3398C2.09344 17.3398 1.19625 18.2352 1.19625 19.3295V26.2938C1.19625 27.3881 2.09344 28.2835 3.19002 28.2835ZM3.19002 36.2427C2.09344 36.2427 1.19625 35.3473 1.19625 34.2529V32.5616C1.19625 31.4672 2.09344 30.5718 3.19002 30.5718C4.28659 30.5718 5.18378 31.4672 5.18378 32.5616V34.2529C5.18378 35.3473 4.28659 36.2427 3.19002 36.2427ZM12.86 21.3193C13.9566 21.3193 14.8538 20.4239 14.8538 19.3295C14.8538 18.2352 13.9566 17.3398 12.86 17.3398C11.7634 17.3398 10.8663 18.2352 10.8663 19.3295C10.8663 20.4239 11.7634 21.3193 12.86 21.3193ZM24.4234 19.3295V23.3091C24.4234 24.4035 23.5262 25.2989 22.4296 25.2989C21.333 25.2989 20.4358 24.4035 20.4358 23.3091V19.3295C20.4358 18.2352 21.333 17.3398 22.4296 17.3398C23.5262 17.3398 24.4234 18.2352 24.4234 19.3295ZM34.0934 25.2989V19.3295C34.0934 18.2352 33.1962 17.3398 32.0996 17.3398C31.003 17.3398 30.1058 18.2352 30.1058 19.3295V25.2989C30.1058 26.3933 31.003 27.2887 32.0996 27.2887C33.1962 27.2887 34.0934 26.3933 34.0934 25.2989ZM40.374 17.9367C41.0718 17.2403 42.4674 17.2403 43.1652 17.9367C43.564 18.3347 43.7634 18.8321 43.6637 19.2301C43.6637 19.5286 43.564 19.827 43.4643 20.026C43.3646 20.225 43.2649 20.424 43.0655 20.6229C42.6668 21.0209 42.1684 21.2199 41.6699 21.2199C41.3708 21.2199 41.0718 21.2199 40.8724 21.1204C40.673 21.0209 40.4737 20.9214 40.2743 20.7224C40.1133 20.6421 40.0173 20.432 39.9338 20.2494L39.9338 20.2492L39.9337 20.249C39.9138 20.2056 39.8947 20.1637 39.8755 20.1255C39.8755 19.9762 39.8506 19.8519 39.8257 19.7275C39.8008 19.6032 39.7758 19.4788 39.7758 19.3296C39.7758 18.8321 39.9752 18.3347 40.374 17.9367ZM51.3392 29.0794C52.4358 29.0794 53.333 28.184 53.333 27.0897V19.3295C53.333 18.2352 52.4358 17.3398 51.3392 17.3398C50.2426 17.3398 49.3454 18.2352 49.3454 19.3295V27.0897C49.3454 28.184 50.2426 29.0794 51.3392 29.0794ZM63.0029 23.3091C63.0029 24.4035 62.1058 25.2989 61.0092 25.2989C59.9126 25.2989 59.0154 24.4035 59.0154 23.3091V19.3295C59.0154 18.2352 59.9126 17.3398 61.0092 17.3398C62.1058 17.3398 63.0029 18.2352 63.0029 19.3295V23.3091ZM59.0154 37.2376C59.0154 38.3319 59.9126 39.2273 61.0092 39.2273C62.1058 39.2273 63.0029 38.3319 63.0029 37.2376V29.2785C63.0029 28.1841 62.1058 27.2887 61.0092 27.2887C59.9126 27.2887 59.0154 28.1841 59.0154 29.2785V37.2376ZM12.86 29.776C11.7634 29.776 10.8663 28.8806 10.8663 27.7862V24.8015C10.8663 23.7071 11.7634 22.8117 12.86 22.8117C13.9566 22.8117 14.8538 23.7071 14.8538 24.8015V27.7862C14.8538 28.8806 13.9566 29.776 12.86 29.776ZM41.7696 23.1102C40.673 23.1102 39.7758 24.0056 39.7758 25.0999V28.0846C39.7758 29.179 40.673 30.0744 41.7696 30.0744C42.8662 30.0744 43.7634 29.179 43.7634 28.0846V25.0999C43.7634 24.0056 42.8662 23.1102 41.7696 23.1102ZM50.2427 34.3524C50.143 34.3524 50.0433 34.2529 49.9436 34.1535C49.5449 33.7555 49.3455 33.2581 49.5449 32.6611V32.2632C49.5449 32.1466 49.5791 32.0642 49.6074 31.9959C49.6275 31.9476 49.6446 31.9064 49.6446 31.8652C49.6944 31.8155 49.7193 31.7657 49.7443 31.716C49.7692 31.6662 49.7941 31.6165 49.8439 31.5667C49.8439 31.4673 49.9436 31.3678 50.0433 31.2683C50.7411 30.5719 52.0371 30.5719 52.8346 31.2683C52.8346 31.3678 52.9343 31.4673 53.034 31.5667C53.1337 31.6662 53.2334 31.7657 53.2334 31.8652C53.2334 31.915 53.2583 31.9896 53.2832 32.0642C53.3081 32.1388 53.333 32.2134 53.333 32.2632V32.6611C53.333 32.9596 53.2333 33.2581 53.1337 33.457C53.034 33.656 52.9343 33.855 52.7349 34.054C52.3362 34.4519 51.8377 34.6509 51.3393 34.6509H50.9405C50.8237 34.6509 50.7411 34.6168 50.6727 34.5885C50.6244 34.5685 50.5831 34.5514 50.5418 34.5514C50.4919 34.5017 50.4421 34.4768 50.3922 34.4519C50.3424 34.427 50.2925 34.4022 50.2427 34.3524Z" fill="#484848"/>
</svg>
