<svg width="64" height="64" viewBox="0 0 64 64" fill="none" xmlns="http://www.w3.org/2000/svg">
<path fill-rule="evenodd" clip-rule="evenodd" d="M7.30987 18.8027C5.19841 22.737 4 27.2312 4 32C4 47.439 16.561 60 32 60C47.439 60 60 47.439 60 32C60 27.2312 58.8016 22.737 56.6901 18.8027H54.943V23.9637C54.943 27.2727 52.252 29.9637 48.943 29.9637H38.5C35.191 29.9637 32.5 27.2727 32.5 23.9637V18.8027H30.943V23.9637C30.943 27.2727 28.252 29.9637 24.943 29.9637H14.5C11.191 29.9637 8.5 27.2727 8.5 23.9637V18.8027H7.30987ZM34.5 14.8027H52.943H54.0821C48.9536 8.23213 40.9616 4 32 4C23.0384 4 15.0464 8.23213 9.91786 14.8027H10.5H28.943H34.5ZM36.5 18.8027V23.9637C36.5 25.0667 37.397 25.9637 38.5 25.9637H48.943C50.046 25.9637 50.943 25.0667 50.943 23.9637V18.8027H36.5ZM12.5 18.8027H26.943V23.9637C26.943 25.0667 26.046 25.9637 24.943 25.9637H14.5C13.397 25.9637 12.5 25.0667 12.5 23.9637V18.8027ZM4.31373 15.9667C1.57151 20.6838 0 26.1618 0 32C0 49.645 14.355 64 32 64C49.645 64 64 49.645 64 32C64 26.1587 62.4268 20.6779 59.6818 15.9591C59.6272 15.8419 59.5616 15.7309 59.4862 15.6274C53.8943 6.27515 43.6663 0 32 0C20.3369 0 10.1113 6.2717 4.51841 15.6197C4.4391 15.7276 4.37037 15.8438 4.31373 15.9667ZM19.2062 38.9023C20.1712 45.0943 25.5412 49.8493 32.0002 49.8493C38.4592 49.8493 43.8282 45.0943 44.7932 38.9023H19.2062ZM32.0001 53.8493C22.6541 53.8493 15.0521 46.2473 15.0521 36.9023C15.0521 35.7983 15.9471 34.9023 17.0521 34.9023H46.9471C48.0521 34.9023 48.9471 35.7983 48.9471 36.9023C48.9471 46.2473 41.3451 53.8493 32.0001 53.8493Z" fill="#484848"/>
</svg>
