<svg width="64" height="64" viewBox="0 0 64 64" fill="none" xmlns="http://www.w3.org/2000/svg">
<g clip-path="url(#clip0_260:2)">
<path d="M60.9053 42.9841V22.9724L62.802 22.1799C63.6006 21.8827 63.9999 21.0902 63.9999 20.2976C63.9999 19.5051 63.4009 18.8116 62.6023 18.5144L32.6551 8.60763C32.2558 8.50856 31.7566 8.50856 31.3573 8.60763L1.41007 18.5144C0.61148 18.8116 0.112359 19.5051 0.0125349 20.2976C-0.0872893 21.0902 0.411832 21.8827 1.21043 22.1799L10.9932 26.3407C10.9932 26.4398 10.9932 26.5389 10.9932 26.638V46.0552C10.9932 46.8478 11.4923 47.6403 12.2909 47.9375L31.3573 55.3676C31.557 55.4667 31.8565 55.4667 32.0561 55.4667C32.2558 55.4667 32.5552 55.4667 32.7549 55.3676L51.8213 48.0366C52.6199 47.7394 53.119 47.0459 53.119 46.1543V26.638C53.119 26.5389 53.119 26.4398 53.119 26.3407L57.0122 24.6566V42.9841C55.2153 43.7767 53.9176 45.5599 53.9176 47.6403V52.99C53.9176 54.0797 54.816 54.9713 55.9141 54.9713H62.0034C63.1015 54.9713 63.9999 54.0797 63.9999 52.99V47.6403C63.9999 45.4608 62.7022 43.6776 60.9053 42.9841ZM49.1261 44.7673L32.0561 51.3058L14.9862 44.6683V28.0249L31.2575 35.0587C31.557 35.1578 31.7566 35.2568 32.0561 35.2568C32.3556 35.2568 32.5552 35.1578 32.8547 35.0587L49.1261 28.0249V44.7673ZM32.0561 30.9969L7.699 20.4958L32.0561 12.4713L56.4132 20.4958L32.0561 30.9969ZM60.0069 50.9095H57.8108V47.5412C57.8108 46.9468 58.3099 46.4515 58.9088 46.4515C59.5078 46.4515 60.0069 46.9468 60.0069 47.5412V50.9095Z" fill="#484848"/>
</g>
<defs>
<clipPath id="clip0_260:2">
<rect width="64" height="64" fill="white"/>
</clipPath>
</defs>
</svg>
