<svg width="64" height="64" viewBox="0 0 64 64" fill="none" xmlns="http://www.w3.org/2000/svg">
<path fill-rule="evenodd" clip-rule="evenodd" d="M9.5 0C4.3 0 0 5.2 0 11.7C0 17.3 3.2 22 7.5 23.1V38H5.5C4.4 38 3.5 38.9 3.5 40V58C3.5 61.3 6.2 64 9.5 64C12.8 64 15.5 61.3 15.5 58V40C15.5 38.9 14.6 38 13.5 38H11.5V23.1C15.8 22 19 17.3 19 11.7C19 5.2 14.7 0 9.5 0ZM11.5 58C11.5 59.1 10.6 60 9.5 60C8.4 60 7.5 59.1 7.5 58V42H11.5V58ZM9.5 19.3C6.5 19.3 4 15.8 4 11.6C4 7.5 6.5 4 9.5 4C12.5 4 15 7.5 15 11.7C15 15.8 12.5 19.3 9.5 19.3ZM61.9998 0C54.6998 0 48.7998 5.9 48.7998 13.2V40C48.7998 41.1 49.6998 42 50.7998 42H51.9998V58C51.9998 61.3 54.6998 64 57.9998 64C61.2998 64 63.9998 61.3 63.9998 58V40V2C63.9998 0.9 63.0998 0 61.9998 0ZM52.7998 13.2C52.7998 8.8 55.8998 5.1 59.9998 4.2V38H53.9998H52.7998V13.2ZM59.9998 58C59.9998 59.1 59.0998 60 57.9998 60C56.8998 60 55.9998 59.1 55.9998 58V42H59.9998V58ZM39 2C39 0.9 39.9 0 41 0C42.1 0 43 0.9 43 2V13.9C43 18.4 39.8 22.1 35.6 23.1V38H37.6C38.7 38 39.6 38.9 39.6 40V58C39.6 61.3 36.9 64 33.6 64C30.3 64 27.6 61.3 27.6 58V40C27.6 38.9 28.5 38 29.6 38H31.6V23.1C27.3 22.3 24 18.4 24 13.8V2C24 0.9 24.9 0 26 0C27.1 0 28 0.9 28 2V11.8H31.6V2C31.6 0.9 32.5 0 33.6 0C34.7 0 35.6 0.9 35.6 2V11.8H39V2ZM33.6 60C34.7 60 35.6 59.1 35.6 58V42H31.6V58C31.6 59.1 32.5 60 33.6 60ZM28.4 15.8C29.2 17.8 31.2 19.3 33.5 19.3C35.8 19.3 37.8 17.9 38.6 15.8H28.4Z" fill="#484848"/>
</svg>
