<svg width="64" height="64" viewBox="0 0 64 64" fill="none" xmlns="http://www.w3.org/2000/svg">
<path d="M57.9906 5H50.9797V2C50.9797 0.9 50.0783 0 48.9765 0C47.8748 0 46.9734 0.9 46.9734 2V5H34.0532V2C34.0532 0.9 33.1518 0 32.0501 0C30.9484 0 30.0469 0.9 30.0469 2V5H17.0266V2C17.0266 0.9 16.1252 0 15.0235 0C13.9218 0 13.0203 0.9 13.0203 2V5H6.00939C2.70423 5 0 7.7 0 11V58C0 61.3 2.70423 64 6.00939 64H57.9906C61.2958 64 64 61.3 64 58V11C64 7.7 61.3959 5 57.9906 5ZM24.0376 41V26H40.0626V41H24.0376ZM40.0626 45V60H24.0376V45H40.0626ZM4.00626 26H20.0313V41H4.00626V26ZM44.0689 26H60.0939V41H44.0689V26ZM6.00939 9H13.0203V12C13.0203 13.1 13.9218 14 15.0235 14C16.1252 14 17.0266 13.1 17.0266 12V9H30.0469V12C30.0469 13.1 30.9484 14 32.0501 14C33.1518 14 34.0532 13.1 34.0532 12V9H47.0736V12C47.0736 13.1 47.975 14 49.0767 14C50.1784 14 51.0798 13.1 51.0798 12V9H58.0908C59.1925 9 60.0939 9.9 60.0939 11V22H4.00626V11C4.00626 9.9 4.90767 9 6.00939 9ZM4.00626 58V45H20.0313V60H6.00939C4.90767 60 4.00626 59.1 4.00626 58ZM57.9906 60H44.0689V45H60.0939V58C59.9937 59.1 59.0923 60 57.9906 60Z" fill="#484848"/>
</svg>
