<svg width="64" height="64" viewBox="0 0 64 64" fill="none" xmlns="http://www.w3.org/2000/svg">
<path fill-rule="evenodd" clip-rule="evenodd" d="M4 32C4 16.561 16.561 4 32 4C47.439 4 60 16.561 60 32C60 47.439 47.439 60 32 60C16.561 60 4 47.439 4 32ZM0 32C0 49.645 14.355 64 32 64C49.645 64 64 49.645 64 32C64 14.355 49.645 0 32 0C14.355 0 0 14.355 0 32ZM20 29C21.656 29 23 27.657 23 26C23 24.344 21.656 23 20 23C18.343 23 17 24.344 17 26C17 27.657 18.343 29 20 29ZM46.9998 26C46.9998 27.657 45.6558 29 43.9998 29C42.3428 29 40.9998 27.657 40.9998 26C40.9998 24.344 42.3428 23 43.9998 23C45.6558 23 46.9998 24.344 46.9998 26ZM17.7668 40.8C20.3938 46.996 26.4398 51 33.1688 51C34.2728 51 35.1688 50.104 35.1688 49C35.1688 47.896 34.2728 47 33.1688 47C28.0478 47 23.4478 43.954 21.4498 39.239C21.0188 38.223 19.8478 37.748 18.8278 38.178C17.8108 38.609 17.3358 39.783 17.7668 40.8ZM24.8359 21.8526C24.7209 21.8526 24.6049 21.8426 24.4859 21.8226L14.8179 20.1186C13.7319 19.9266 13.0049 18.8886 13.1959 17.8006C13.3879 16.7136 14.4169 15.9926 15.5139 16.1786L25.1819 17.8826C26.2689 18.0746 26.9949 19.1126 26.8039 20.2006C26.6329 21.1696 25.7889 21.8526 24.8359 21.8526ZM48.1532 21.8531C48.4002 21.9531 48.6562 22.0011 48.9072 22.0011C49.6962 22.0011 50.4442 21.5301 50.7612 20.7551C51.1772 19.7311 50.6852 18.5641 49.6632 18.1471C45.9062 16.6191 42.0952 16.6171 38.3362 18.1471C37.3132 18.5641 36.8222 19.7311 37.2382 20.7551C37.6552 21.7761 38.8212 22.2691 39.8452 21.8531C42.6412 20.7141 45.3592 20.7151 48.1532 21.8531Z" fill="#484848"/>
</svg>
