<svg width="64" height="64" viewBox="0 0 64 64" fill="none" xmlns="http://www.w3.org/2000/svg">
<path d="M31.8998 23.1638C32.9993 23.1638 33.8988 22.2652 33.8988 21.1669C33.8988 20.0686 32.9993 19.17 31.8998 19.17C30.8004 19.17 29.9009 20.0686 29.9009 21.1669C29.9009 22.2652 30.8004 23.1638 31.8998 23.1638Z" fill="#484848"/>
<path d="M59.8853 30.1529C58.8859 29.6537 57.6865 30.053 57.1867 31.0515C54.9879 35.5445 51.6896 39.3385 47.5918 42.1342L42.3945 27.9563C43.6938 26.0593 44.3935 23.7629 44.3935 21.2668C44.3935 15.0764 39.8958 9.9844 33.9989 8.98596V1.99688C33.9989 0.898596 33.0994 0 32 0C30.9006 0 30.0011 0.898596 30.0011 1.99688V8.98596C24.1042 9.9844 19.6065 15.0764 19.6065 21.2668C19.6065 23.5632 20.3062 25.7598 21.4056 27.6568L16.0084 41.8346C12.1105 39.1388 8.91215 35.4446 6.81325 31.0515C6.31351 30.053 5.11414 29.6537 4.11467 30.1529C3.1152 30.6521 2.71541 31.8502 3.21514 32.8487C5.81378 38.2402 9.81167 42.6334 14.6091 45.7285L12.2104 52.2184C11.5108 54.2153 12.0105 56.312 13.3098 57.8097L12.0105 61.2044C11.6107 62.2028 12.1105 63.4009 13.1099 63.8003C13.3098 63.9002 13.6097 63.9002 13.8096 63.9002C14.6091 63.9002 15.4087 63.4009 15.7086 62.6022L16.9079 59.507C17.0079 59.507 17.2078 59.507 17.3077 59.507C18.1073 59.507 18.9069 59.3073 19.6065 59.0078C20.9058 58.4087 21.9053 57.3105 22.405 55.9126L24.6039 49.922C27.0026 50.6209 29.5013 50.9204 32 50.9204C34.3987 50.9204 36.6975 50.6209 38.8964 50.1217L41.0952 56.0125C41.5949 57.4103 42.5944 58.5086 43.8937 59.1076C44.5934 59.4072 45.293 59.6069 46.0926 59.6069L47.292 62.702C47.5918 63.5008 48.3914 64 49.191 64C49.3909 64 49.6907 64 49.8906 63.9002C50.8901 63.5008 51.3898 62.3027 50.99 61.3042L49.7906 58.3089C51.3898 56.9111 52.0894 54.5148 51.2898 52.4181L48.9911 45.9282C53.9884 42.7332 58.0863 38.2402 60.7849 32.7488C61.2846 31.8502 60.8848 30.6521 59.8853 30.1529ZM39.2962 31.1513L43.9937 44.131C43.0942 44.5304 42.1946 44.9298 41.2951 45.2293L36.6975 32.649C37.697 32.2496 38.4966 31.7504 39.2962 31.1513ZM31.9001 12.78C36.5976 12.78 40.2956 16.5741 40.2956 21.2668C40.2956 25.9594 36.4976 29.7535 31.9001 29.7535C27.2025 29.7535 23.5045 25.9594 23.5045 21.2668C23.5045 16.5741 27.3025 12.78 31.9001 12.78ZM24.304 30.9516C25.1036 31.5507 25.9032 32.0499 26.8027 32.4493L22.2052 45.0296C21.3056 44.7301 20.4061 44.3307 19.5066 43.8315L24.304 30.9516ZM18.707 54.6147C18.607 55.014 18.3072 55.3136 17.9074 55.4134C17.6076 55.6131 17.2078 55.6131 16.808 55.4134C16.0084 55.1139 15.7086 54.3151 15.9085 53.5164L18.1073 47.6256C19.0068 48.025 19.9064 48.4243 20.8059 48.8237L18.707 54.6147ZM32 46.9267C30.0011 46.9267 28.0021 46.727 26.0032 46.2278L30.7007 33.5476C31.1005 33.5476 31.5003 33.6474 31.9001 33.6474C32.1999 33.6474 32.4997 33.6474 32.7996 33.6474L37.4971 46.4275C35.6981 46.727 33.899 46.9267 32 46.9267ZM47.5918 53.6162C47.8916 54.415 47.4918 55.2137 46.6923 55.5133C46.2925 55.6131 45.8927 55.6131 45.5928 55.5133C45.1931 55.3136 44.9932 55.014 44.7933 54.7145L42.6944 49.1232C43.5939 48.8237 44.4934 48.4243 45.393 48.025L47.5918 53.6162Z" fill="#484848"/>
</svg>
