<svg width="64" height="64" viewBox="0 0 64 64" fill="none" xmlns="http://www.w3.org/2000/svg">
<g clip-path="url(#clip0_327:322)">
<path d="M59.507 26.8838L47.9251 23.8042L39.4384 16.7508C38.3401 15.8567 37.0421 15.36 35.6443 15.36H18.8705C16.9735 15.36 15.1763 16.2541 13.9782 17.8436L9.9844 23.4068C9.78471 23.7048 9.38534 24.0029 8.98596 24.1022L1.39782 26.6851C0.599064 26.9831 0 27.6786 0 28.5726V40.4938C0 41.5866 0.898596 42.4807 1.99688 42.4807H8.88612C9.78471 46.0571 12.9797 48.64 16.8736 48.64C20.7676 48.64 23.9626 45.9577 24.8612 42.4807H38.8393C39.7379 46.0571 42.9329 48.64 46.8268 48.64C50.7207 48.64 53.9158 45.9577 54.8144 42.4807H62.0031C63.1014 42.4807 64 41.5866 64 40.4938V32.6457C64 29.9634 62.2028 27.5792 59.507 26.8838ZM16.9735 44.7656C14.6771 44.7656 12.78 42.8781 12.78 40.5932C12.78 38.3083 14.6771 36.4208 16.9735 36.4208C19.2699 36.4208 21.1669 38.3083 21.1669 40.5932C21.1669 42.8781 19.2699 44.7656 16.9735 44.7656ZM46.9267 44.7656C44.6303 44.7656 42.7332 42.8781 42.7332 40.5932C42.7332 38.3083 44.6303 36.4208 46.9267 36.4208C49.2231 36.4208 51.1201 38.3083 51.1201 40.5932C51.1201 42.8781 49.2231 44.7656 46.9267 44.7656ZM60.0062 38.507H54.9142C54.0156 34.9306 50.8206 32.3477 46.9267 32.3477C43.0328 32.3477 39.8378 35.03 38.9392 38.507H24.961C24.0624 34.9306 20.8674 32.3477 16.9735 32.3477C13.0796 32.3477 9.88456 35.03 8.98596 38.507H4.0936V29.9634L10.2839 27.8772C11.4821 27.4799 12.4805 26.6851 13.1794 25.6917L17.273 20.1285C17.6724 19.6317 18.2715 19.3337 18.8705 19.3337H35.5445C36.0437 19.3337 36.4431 19.5324 36.8424 19.8304L45.7285 27.1818C45.9282 27.3805 46.2278 27.4799 46.5273 27.5792L58.5086 30.7582C59.4072 30.9569 60.0062 31.7516 60.0062 32.6457V38.507Z" fill="#484848"/>
</g>
<defs>
<clipPath id="clip0_327:322">
<rect width="64" height="64" fill="white"/>
</clipPath>
</defs>
</svg>
