<svg width="64" height="64" viewBox="0 0 64 64" fill="none" xmlns="http://www.w3.org/2000/svg">
<g clip-path="url(#clip0_1407:49)">
<path d="M64 11.17C64 4.91 55.4115 0 44.4435 0C33.7254 0 25.2969 4.69001 24.927 10.76C24.9117 10.8962 24.9117 11.0338 24.927 11.17V21.23C23.1707 20.9555 21.3956 20.8184 19.6179 20.82C8.85987 20.82 0.431378 25.51 0.0114534 31.58C-0.00381782 31.7162 -0.00381782 31.8538 0.0114534 31.99V52.82C0.0114534 52.82 0.0114534 52.9 0.0114534 52.95C0.0114534 55.41 1.39121 57.72 3.90076 59.63C7.52011 62.36 13.3691 64 19.568 64C23.8429 64.0553 28.0814 63.2068 32.0057 61.51C35.9286 63.2115 40.1681 64.0602 44.4435 64C55.4415 64 63.99 59.09 63.99 52.82V11.17H64ZM4.01074 38.82C7.5501 41.48 13.1491 43.17 19.578 43.17C22.1934 43.1786 24.8008 42.8799 27.3466 42.28C29.2811 41.8442 31.1547 41.1725 32.9256 40.28C33.6945 39.8797 34.4301 39.4182 35.1252 38.9V42.44C35.1252 43.98 33.8654 45.25 32.8056 46.06C32.2593 46.4693 31.6809 46.8338 31.0759 47.15C29.5984 47.9033 28.0335 48.4709 26.4167 48.84C24.1758 49.3683 21.8803 49.6301 19.578 49.62C14.2189 49.62 9.2598 48.29 6.33032 46.05C5.27051 45.25 4.02074 43.98 4.02074 42.44C4.02074 42.44 4.02074 42.39 4.02074 42.37L4.01074 38.82ZM39.1245 32.35C40.8871 32.6295 42.6689 32.7699 44.4535 32.77C50.5624 32.77 56.3514 31.16 60.0007 28.46V32C60.0007 33.53 58.7409 34.81 57.6911 35.61C54.7417 37.85 49.7925 39.18 44.4535 39.18C42.6672 39.1815 40.8841 39.0275 39.1245 38.72V32.35ZM39.1245 49.13V42.76C40.8872 43.0383 42.6689 43.1787 44.4535 43.18C50.6624 43.18 56.3114 41.61 60.0007 38.87V42.41C60.0007 43.94 58.7409 45.22 57.6911 46.02C54.7417 48.25 49.7925 49.59 44.4535 49.59C42.6672 49.5915 40.8841 49.4375 39.1245 49.13ZM60.0007 21.58C60.0007 23.12 58.7409 24.4 57.6911 25.2C54.6917 27.43 49.7826 28.77 44.4535 28.77C42.2508 28.7712 40.0546 28.5298 37.9047 28.05C36.285 25.5 33.1055 23.41 28.9563 22.16C28.9133 21.9696 28.8898 21.7752 28.8863 21.58V18C32.4257 20.66 38.0147 22.35 44.4435 22.35C50.8724 22.35 56.4414 20.66 60.0007 18.01V21.58ZM44.4435 4C53.6019 4 59.9807 7.77 60.0007 11.16C60.0007 14.55 53.5919 18.31 44.4435 18.31C35.2951 18.31 28.8863 14.53 28.8863 11.13C28.8863 7.73 35.2751 4 44.4435 4ZM19.578 24.82C21.8771 24.8071 24.1697 25.0689 26.4067 25.6H26.5567C26.6586 25.6189 26.7589 25.6456 26.8567 25.68C30.7859 26.68 33.8554 28.59 34.7552 30.61C34.7552 30.61 34.8052 30.71 34.8352 30.75C34.9864 31.115 35.0678 31.505 35.0752 31.9V32.11C34.9852 33.71 33.5155 35.36 31.0759 36.67C29.5965 37.4164 28.032 37.9805 26.4167 38.35C24.1758 38.8783 21.8803 39.1401 19.578 39.13C10.4096 39.17 4.01074 35.39 4.01074 32C4.01074 28.61 10.4096 24.82 19.578 24.82ZM6.33032 56.44C5.27051 55.64 4.01074 54.36 4.01074 52.82V49.28C7.63009 51.98 13.4291 53.59 19.578 53.59C22.1934 53.598 24.8007 53.2993 27.3466 52.7C29.284 52.2632 31.1608 51.5915 32.9356 50.7C33.6993 50.2999 34.4313 49.8418 35.1252 49.33V52.88C35.1252 54.41 33.8654 55.68 32.8156 56.48C29.8161 58.71 24.917 60.04 19.578 60.04C14.2389 60.04 9.2698 58.67 6.33032 56.44ZM44.4535 60C41.6571 60.0376 38.8706 59.6601 36.185 58.88C37.0202 58.1753 37.7081 57.3125 38.2091 56.3412C38.7101 55.3699 39.0144 54.3092 39.1045 53.22C40.874 53.4979 42.6623 53.6383 44.4535 53.64C50.6624 53.64 56.3114 52.07 60.0007 49.33V52.87C60.0007 56.21 53.6119 60 44.4535 60Z" fill="#484848"/>
</g>
<defs>
<clipPath id="clip0_1407:49">
<rect width="64" height="64" fill="white"/>
</clipPath>
</defs>
</svg>
