<svg width="64" height="64" viewBox="0 0 64 64" fill="none" xmlns="http://www.w3.org/2000/svg">
<path d="M37.4061 30.6C36.2048 30.3 35.1035 30.2 34.0023 30.1V10.1C40.7098 10.8 45.9156 15 45.9156 20C45.9156 21.1 46.8166 22 47.9178 22C49.0191 22 49.9201 21.1 49.9201 20C49.9201 12.8 42.9123 6.9 34.0023 6.1V2C34.0023 0.9 33.1013 0 32.0001 0C30.8989 0 29.9978 0.9 29.9978 2V6.1C24.6919 6.6 19.9867 8.8 17.0834 12.2C12.9788 17 13.1791 23.8 17.584 28.4C19.6863 30.6 22.5896 32.3 25.9934 33.2C27.3949 33.6 28.6964 33.7 29.9978 33.9V54C23.2904 53.2 18.0845 49 18.0845 44C18.0845 42.9 17.1835 42 16.0823 42C14.9811 42 14.0801 42.9 14.0801 44C14.0801 51.2 21.0879 57.1 29.9978 57.9V62C29.9978 63.1 30.8989 64 32.0001 64C33.1013 64 34.0023 63.1 34.0023 62V57.9C38.9078 57.5 43.4128 55.5 46.4162 52.4C51.1214 47.6 50.9212 40 46.1158 35.2C43.9134 33.1 40.91 31.5 37.4061 30.6ZM26.9945 29.3C24.2915 28.6 22.089 27.3 20.4872 25.6C17.4839 22.5 17.3838 18 20.0868 14.8C22.2892 12.2 25.8933 10.5 29.9978 10.1V29.8C28.9967 29.7 27.9956 29.6 26.9945 29.3ZM43.5129 49.7C41.3105 52 37.8066 53.5 34.0023 53.9V34.1C34.8032 34.2 35.7042 34.3 36.5051 34.5C39.2081 35.2 41.6108 36.4 43.3127 38.1C46.6164 41.4 46.7165 46.4 43.5129 49.7Z" fill="#484848"/>
</svg>
