<svg width="64" height="64" viewBox="0 0 64 64" fill="none" xmlns="http://www.w3.org/2000/svg">
<path d="M53.1 37.7C52.3 36.9 51.1 36.9 50.3 37.7C49.5 38.5 49.5 39.7 50.3 40.5L57.2 47.4H35.7C32 47.4 28.9 44.4 28.9 40.6C28.9 37 27.1 33.8 24.4 31.8C27.1 29.8 28.9 26.6 28.9 23C28.9 19.3 31.9 16.2 35.7 16.2H57.2L50.3 23.1C49.5 23.9 49.5 25.1 50.3 25.9C50.7 26.3 51.2 26.5 51.7 26.5C52.2 26.5 52.7 26.3 53.1 25.9L63.4 15.6C64.2 14.8 64.2 13.6 63.4 12.8L53.1 2.6C52.3 1.8 51.1 1.8 50.3 2.6C49.5 3.4 49.5 4.6 50.3 5.4L57.2 12.3H35.7C29.8 12.3 24.9 17.1 24.9 23.1C24.9 26.8 21.9 29.9 18.1 29.9H2C0.9 29.9 0 30.8 0 31.9C0 33 0.9 33.9 2 33.9H18.1C21.8 33.9 24.9 36.9 24.9 40.7C24.9 46.6 29.7 51.5 35.7 51.5H57.2L50.3 58.4C49.5 59.2 49.5 60.4 50.3 61.2C50.7 61.6 51.2 61.8 51.7 61.8C52.2 61.8 52.7 61.6 53.1 61.2L63.4 50.9C64.2 50.1 64.2 48.9 63.4 48.1L53.1 37.7Z" fill="#484848"/>
</svg>
