<svg width="64" height="64" viewBox="0 0 64 64" fill="none" xmlns="http://www.w3.org/2000/svg">
<g clip-path="url(#clip0_247:226)">
<path fill-rule="evenodd" clip-rule="evenodd" d="M38.2526 0.614351C44.4618 1.84849 50.1655 4.89546 54.6425 9.37001C60.6349 15.3779 64 23.5159 64 32C64 40.4842 60.6349 48.6222 54.6425 54.63C50.1655 59.1046 44.4618 62.1515 38.2526 63.3857C32.0434 64.6198 25.6075 63.9857 19.7588 61.5635C13.9101 59.1412 8.91122 55.0397 5.39421 49.7775C1.87719 44.5153 0 38.3287 0 32C0 25.6713 1.87719 19.4847 5.39421 14.2225C8.91122 8.96031 13.9101 4.85879 19.7588 2.43657C25.6075 0.0143494 32.0434 -0.619784 38.2526 0.614351ZM37.4704 59.4622C42.9036 58.3821 47.8943 55.7156 51.8116 51.8C54.4127 49.1999 56.4761 46.1131 57.8839 42.7158C59.2917 39.3185 60.0162 35.6773 60.0162 32C60.0162 28.3228 59.2917 24.6815 57.8839 21.2842C56.4761 17.8869 54.4127 14.8001 51.8116 12.2C47.8943 8.28443 42.9036 5.61797 37.4704 4.53782C32.0373 3.45766 26.4057 4.01232 21.2879 6.13166C16.1701 8.251 11.7959 11.8398 8.71832 16.4443C5.64077 21.0489 3.99814 26.4623 3.99814 32C3.99814 37.5378 5.64077 42.9512 8.71832 47.5557C11.7959 52.1602 16.1701 55.749 21.2879 57.8684C26.4057 59.9877 32.0373 60.5424 37.4704 59.4622ZM27.0036 18H44.0091C44.5397 18 45.0486 18.2107 45.4238 18.5858C45.799 18.9609 46.0097 19.4696 46.0097 20V37C46.0097 37.5304 45.799 38.0391 45.4238 38.4142C45.0486 38.7893 44.5397 39 44.0091 39C43.4785 39 42.9696 38.7893 42.5944 38.4142C42.2192 38.0391 42.0085 37.5304 42.0085 37V24.83L21.4118 45.42C21.0367 45.7919 20.5297 46.0004 20.0014 46C19.606 46.0003 19.2195 45.8835 18.8905 45.6644C18.5615 45.4453 18.3048 45.1337 18.1529 44.7688C18.0009 44.404 17.9604 44.0024 18.0366 43.6146C18.1128 43.2268 18.3022 42.8703 18.5809 42.59L39.1775 22H27.0036C26.473 22 25.9641 21.7893 25.5889 21.4142C25.2137 21.0391 25.003 20.5304 25.003 20C25.003 19.4696 25.2137 18.9609 25.5889 18.5858C25.9641 18.2107 26.473 18 27.0036 18Z" fill="#484848"/>
</g>
<defs>
<clipPath id="clip0_247:226">
<rect width="64" height="64" fill="white"/>
</clipPath>
</defs>
</svg>
