<svg width="64" height="64" viewBox="0 0 64 64" fill="none" xmlns="http://www.w3.org/2000/svg">
<path fill-rule="evenodd" clip-rule="evenodd" d="M4 32C4 16.561 16.561 4 32 4C47.439 4 60 16.561 60 32C60 47.439 47.439 60 32 60C16.561 60 4 47.439 4 32ZM0 32C0 49.645 14.355 64 32 64C49.645 64 64 49.645 64 32C64 14.355 49.645 0 32 0C14.355 0 0 14.355 0 32ZM21 25C22.657 25 24 23.657 24 22C24 20.344 22.657 19 21 19C19.344 19 18 20.344 18 22C18 23.657 19.344 25 21 25ZM46 22C46 23.657 44.657 25 43 25C41.344 25 40 23.657 40 22C40 20.344 41.344 19 43 19C44.657 19 46 20.344 46 22ZM44.8376 47.1807C44.9956 48.1657 45.8446 48.8667 46.8106 48.8667C46.9146 48.8667 47.0216 48.8587 47.1276 48.8427C48.2186 48.6687 48.9616 47.6427 48.7896 46.5527C47.4686 38.2617 40.4086 32.2427 31.9996 32.2427C23.5916 32.2427 16.5326 38.2617 15.2116 46.5527C15.0396 47.6427 15.7826 48.6687 16.8736 48.8427C17.9656 49.0097 18.9896 48.2717 19.1636 47.1807C20.1706 40.8437 25.5706 36.2427 31.9996 36.2427C38.4306 36.2427 43.8306 40.8437 44.8376 47.1807Z" fill="#484848"/>
</svg>
