<svg width="64" height="64" viewBox="0 0 64 64" fill="none" xmlns="http://www.w3.org/2000/svg">
<g clip-path="url(#clip0_247:222)">
<path fill-rule="evenodd" clip-rule="evenodd" d="M14.2218 5.39297C19.4841 1.87677 25.671 0 32 0C40.4869 0 48.6263 3.37142 54.6274 9.37258C60.6286 15.3737 64 23.5131 64 32C64 38.329 62.1232 44.5159 58.607 49.7782C55.0908 55.0406 50.0931 59.1421 44.2459 61.5641C38.3986 63.9861 31.9645 64.6199 25.7571 63.3851C19.5497 62.1504 13.8479 59.1027 9.3726 54.6274C4.89732 50.1521 1.84961 44.4503 0.614885 38.2429C-0.619842 32.0355 0.013865 25.6014 2.43587 19.7541C4.85787 13.9069 8.95939 8.90918 14.2218 5.39297ZM16.444 55.2812C21.0486 58.3578 26.4621 60 32 60C39.4261 60 46.548 57.05 51.799 51.799C57.05 46.548 60 39.4261 60 32C60 26.4621 58.3578 21.0486 55.2812 16.444C52.2045 11.8395 47.8315 8.25063 42.7152 6.13137C37.5988 4.01212 31.969 3.45763 26.5375 4.53801C21.106 5.6184 16.1169 8.28514 12.201 12.201C8.28515 16.1169 5.61841 21.106 4.53803 26.5375C3.45764 31.9689 4.01213 37.5988 6.13139 42.7151C8.25064 47.8315 11.8395 52.2045 16.444 55.2812ZM36.9988 18.0702C37.512 18.0584 38.0102 18.2446 38.39 18.59L50.39 30.59C50.7625 30.9647 50.9716 31.4716 50.9716 32C50.9716 32.5283 50.7625 33.0352 50.39 33.41L38.39 45.41C38.2084 45.611 37.9879 45.7731 37.7418 45.8864C37.4957 45.9997 37.2291 46.0618 36.9583 46.0689C36.6875 46.0761 36.418 46.0281 36.1663 45.928C35.9145 45.8278 35.6858 45.6776 35.4939 45.4864C35.3019 45.2951 35.1509 45.0669 35.0499 44.8155C34.9488 44.5641 34.8999 44.2948 34.9061 44.024C34.9123 43.7531 34.9734 43.4863 35.0858 43.2398C35.1982 42.9933 35.3596 42.7722 35.56 42.59L44.15 34H15C14.4696 34 13.9609 33.7892 13.5858 33.4142C13.2107 33.0391 13 32.5304 13 32C13 31.4695 13.2107 30.9608 13.5858 30.5857C13.9609 30.2107 14.4696 30 15 30H44.15L35.56 21.41C35.2159 21.0289 35.0316 20.5301 35.0451 20.0169C35.0587 19.5037 35.269 19.0153 35.6327 18.6529C35.9964 18.2905 36.4855 18.0819 36.9988 18.0702Z" fill="#484848"/>
</g>
<defs>
<clipPath id="clip0_247:222">
<rect width="64" height="64" fill="white"/>
</clipPath>
</defs>
</svg>
