<svg width="64" height="64" viewBox="0 0 64 64" fill="none" xmlns="http://www.w3.org/2000/svg">
<path d="M63.2942 10.4724C62.4934 8.67483 60.9919 6.67753 59.1902 4.87996C55.3864 1.0851 50.4816 -1.51139 47.8791 0.985232L47.779 1.0851C47.6789 1.18496 47.5788 1.18496 47.5788 1.28483L26.3579 26.1512L1.53351 47.2227C1.43342 47.3226 1.33332 47.4224 1.23322 47.6222C1.13312 47.722 1.03302 47.722 1.03302 47.8219C-1.56953 50.4184 1.13312 55.3118 4.83676 59.1066C7.53942 61.803 10.9428 64 13.5453 64C14.5463 64 15.4472 63.7004 16.1479 63.0014C16.248 62.9015 16.248 62.8016 16.3481 62.8016C16.4482 62.7018 16.6484 62.6019 16.7485 62.502L30.2617 46.6235L33.4649 53.4143C33.7652 54.1134 34.4659 54.5128 35.2667 54.5128C36.0674 54.5128 36.7681 54.0135 37.0684 53.3145L38.4698 50.1188L41.673 50.8178C42.3736 51.0176 43.1744 50.718 43.6749 50.1188C44.1754 49.5196 44.2755 48.7207 43.9752 48.0216L39.9713 39.7328L48.2794 43.6276C48.5797 43.7274 48.88 43.8273 49.1803 43.8273C49.5807 43.8273 50.0812 43.6276 50.4816 43.4278C51.0822 42.9285 51.3825 42.1296 51.1823 41.4305L50.4816 38.2349L53.6848 36.8367C54.3854 36.5371 54.8859 35.8381 54.8859 35.0392C54.8859 34.2403 54.4855 33.5412 53.7849 33.2416L46.778 29.9461L62.6936 16.4643C62.7937 16.3644 62.8938 16.2646 62.8938 16.2646L62.9939 16.1647C63.6946 15.3658 64.6956 13.6681 63.2942 10.4724ZM59.991 13.4683L40.2716 30.2457L33.7652 23.7544L50.5817 3.98118C51.3825 3.98118 53.6848 4.97983 56.3874 7.67618C58.99 10.2727 59.991 12.6694 59.991 13.4683ZM29.2608 28.8475L31.0625 26.7504L37.1685 32.8421L35.2667 34.44C35.1666 34.5398 35.0665 34.5398 35.0665 34.6397L33.1646 36.9366L26.9585 30.8448L29.0606 29.0473C29.1607 28.9474 29.2608 28.9474 29.2608 28.8475ZM3.93588 50.4184C4.03597 50.3185 4.03597 50.3185 4.13607 50.2186L23.9555 33.4413L30.562 40.0324L13.6454 59.7058L13.5453 59.8057H13.4452C12.6444 59.8057 10.3422 58.807 7.63951 56.1107C4.93686 53.6141 3.93588 51.2173 3.93588 50.4184ZM37.7691 45.8246C36.8682 45.6249 35.8673 46.1242 35.4669 46.9231L35.1666 47.6222L33.0645 43.2281L35.7672 40.1323L38.5699 46.0243L37.7691 45.8246ZM47.8791 34.9393L47.1784 35.2389C46.2775 35.6384 45.8771 36.5371 46.0773 37.5358L46.2775 38.3347L40.2716 35.5385L43.3746 32.8421L47.8791 34.9393Z" fill="#484848"/>
</svg>
