<svg width="64" height="64" viewBox="0 0 64 64" fill="none" xmlns="http://www.w3.org/2000/svg">
<path fill-rule="evenodd" clip-rule="evenodd" d="M4 32C4 47.439 16.561 60 32 60C47.439 60 60 47.439 60 32C60 16.561 47.439 4 32 4C16.561 4 4 16.561 4 32ZM0 32C0 14.355 14.355 0 32 0C49.645 0 64 14.355 64 32C64 49.645 49.645 64 32 64C14.355 64 0 49.645 0 32ZM23 25C23 26.657 21.656 28 20 28C18.343 28 17 26.657 17 25C17 23.344 18.343 22 20 22C21.656 22 23 23.344 23 25ZM44 28C45.656 28 47 26.657 47 25C47 23.344 45.656 22 44 22C42.343 22 41 23.344 41 25C41 26.657 42.343 28 44 28ZM31.9989 36.7119H31.9999C38.3029 36.7119 44.1469 39.2439 48.4589 43.8419C49.2149 44.6479 49.1739 45.9129 48.3679 46.6689C47.5629 47.4239 46.2969 47.3849 45.5409 46.5779C41.9939 42.7949 37.1849 40.7119 31.9989 40.7119C26.8139 40.7119 22.0059 42.7949 18.4589 46.5779C18.0649 46.9979 17.5329 47.2099 16.9989 47.2099C16.5089 47.2099 16.0179 47.0309 15.6319 46.6699C14.8259 45.9139 14.7849 44.6489 15.5409 43.8429C19.8519 39.2449 25.6959 36.7129 31.9989 36.7119Z" fill="#484848"/>
</svg>
