<svg width="64" height="64" viewBox="0 0 64 64" fill="none" xmlns="http://www.w3.org/2000/svg">
<g clip-path="url(#clip0_247:224)">
<path fill-rule="evenodd" clip-rule="evenodd" d="M14.2218 5.39297C19.4841 1.87677 25.671 0 32 0C40.4869 0 48.6263 3.37142 54.6274 9.37258C60.6286 15.3737 64 23.5131 64 32C64 38.329 62.1232 44.5159 58.607 49.7782C55.0908 55.0406 50.0931 59.1421 44.2459 61.5641C38.3986 63.9861 31.9645 64.6199 25.7571 63.3851C19.5497 62.1504 13.8479 59.1027 9.3726 54.6274C4.89732 50.1521 1.84961 44.4503 0.614885 38.2429C-0.619842 32.0355 0.013865 25.6014 2.43587 19.7541C4.85787 13.9069 8.95939 8.90918 14.2218 5.39297ZM16.444 55.2812C21.0486 58.3578 26.4621 60 32 60C39.4261 60 46.548 57.05 51.799 51.799C57.05 46.548 60 39.4261 60 32C60 26.4621 58.3578 21.0486 55.2812 16.444C52.2045 11.8395 47.8315 8.25063 42.7152 6.13137C37.5988 4.01212 31.969 3.45763 26.5375 4.53801C21.106 5.6184 16.1169 8.28514 12.201 12.201C8.28515 16.1169 5.61841 21.106 4.53803 26.5375C3.45764 31.9689 4.01213 37.5988 6.13139 42.7151C8.25064 47.8315 11.8395 52.2045 16.444 55.2812ZM32.0001 13.0284C32.5285 13.0284 33.0354 13.2375 33.4101 13.61L45.4101 25.61C45.7555 25.9898 45.9416 26.4879 45.9299 27.0012C45.9182 27.5145 45.7095 28.0036 45.3472 28.3673C44.9848 28.7309 44.4964 28.9413 43.9832 28.9548C43.4699 28.9684 42.9712 28.784 42.5901 28.44L34.0001 19.86V49C34.0001 49.5304 33.7894 50.0391 33.4143 50.4142C33.0393 50.7893 32.5305 51 32.0001 51C31.4697 51 30.961 50.7893 30.5859 50.4142C30.2108 50.0391 30.0001 49.5304 30.0001 49V19.86L21.4101 28.44C21.0291 28.784 20.5303 28.9684 20.0171 28.9548C19.5038 28.9413 19.0155 28.7309 18.6531 28.3673C18.2907 28.0036 18.082 27.5145 18.0703 27.0012C18.0586 26.4879 18.2447 25.9898 18.5901 25.61L30.5901 13.61C30.9648 13.2375 31.4717 13.0284 32.0001 13.0284Z" fill="#484848"/>
</g>
<defs>
<clipPath id="clip0_247:224">
<rect width="64" height="64" fill="white"/>
</clipPath>
</defs>
</svg>
