<svg width="64" height="64" viewBox="0 0 64 64" fill="none" xmlns="http://www.w3.org/2000/svg">
<g clip-path="url(#clip0_247:225)">
<path fill-rule="evenodd" clip-rule="evenodd" d="M14.2218 5.39297C19.4841 1.87677 25.671 0 32 0C40.4869 0 48.6263 3.37142 54.6274 9.37258C60.6286 15.3737 64 23.5131 64 32C64 38.329 62.1232 44.5159 58.607 49.7782C55.0908 55.0406 50.0931 59.1421 44.2459 61.5641C38.3986 63.9861 31.9645 64.6199 25.7571 63.3851C19.5497 62.1504 13.8479 59.1027 9.3726 54.6274C4.89732 50.1521 1.84961 44.4503 0.614885 38.2429C-0.619842 32.0355 0.013865 25.6014 2.43587 19.7541C4.85787 13.9069 8.95939 8.90918 14.2218 5.39297ZM16.444 55.2812C21.0486 58.3578 26.4621 60 32 60C39.4261 60 46.548 57.05 51.799 51.799C57.05 46.548 60 39.4261 60 32C60 26.4621 58.3578 21.0486 55.2812 16.444C52.2045 11.8395 47.8315 8.25063 42.7152 6.13137C37.5988 4.01212 31.969 3.45763 26.5375 4.53801C21.106 5.6184 16.1169 8.28514 12.201 12.201C8.28515 16.1169 5.61841 21.106 4.53803 26.5375C3.45764 31.9689 4.01213 37.5988 6.13139 42.7151C8.25064 47.8315 11.8395 52.2045 16.444 55.2812ZM33.9999 44.14L42.5899 35.56C42.9709 35.2159 43.4697 35.0316 43.9829 35.0451C44.4962 35.0587 44.9845 35.269 45.3469 35.6327C45.7093 35.9964 45.918 36.4855 45.9297 36.9988C45.9414 37.512 45.7553 38.0102 45.4099 38.39L33.4099 50.39C33.0352 50.7625 32.5283 50.9716 31.9999 50.9716C31.4715 50.9716 30.9646 50.7625 30.5899 50.39L18.5899 38.39C18.3888 38.2084 18.2267 37.9879 18.1134 37.7418C18.0001 37.4957 17.938 37.2291 17.9309 36.9583C17.9238 36.6875 17.9717 36.418 18.0719 36.1663C18.172 35.9145 18.3223 35.6858 18.5135 35.4939C18.7047 35.3019 18.933 35.1509 19.1843 35.0499C19.4357 34.9488 19.705 34.8999 19.9759 34.9061C20.2467 34.9123 20.5135 34.9734 20.76 35.0858C21.0065 35.1982 21.2276 35.3596 21.4099 35.56L29.9999 44.14V15C29.9999 14.4696 30.2106 13.9609 30.5857 13.5858C30.9607 13.2107 31.4694 13 31.9999 13C32.5303 13 33.039 13.2107 33.4141 13.5858C33.7892 13.9609 33.9999 14.4696 33.9999 15V44.14Z" fill="#484848"/>
</g>
<defs>
<clipPath id="clip0_247:225">
<rect width="64" height="64" fill="white"/>
</clipPath>
</defs>
</svg>
