<svg width="64" height="64" viewBox="0 0 64 64" fill="none" xmlns="http://www.w3.org/2000/svg">
<g clip-path="url(#clip0_247:227)">
<path fill-rule="evenodd" clip-rule="evenodd" d="M38.2526 0.614351C44.4618 1.84849 50.1655 4.89546 54.6425 9.37001C60.6349 15.3779 64 23.5159 64 32C64 40.4842 60.6349 48.6222 54.6425 54.63C50.1655 59.1046 44.4618 62.1515 38.2526 63.3857C32.0434 64.6198 25.6075 63.9857 19.7588 61.5635C13.9101 59.1412 8.91122 55.0397 5.39421 49.7775C1.87719 44.5153 0 38.3287 0 32C0 25.6713 1.87719 19.4847 5.39421 14.2225C8.91122 8.96031 13.9101 4.85879 19.7588 2.43657C25.6075 0.0143494 32.0434 -0.619784 38.2526 0.614351ZM37.4704 59.4622C42.9036 58.3821 47.8943 55.7156 51.8116 51.8C54.4127 49.1999 56.4761 46.1131 57.8839 42.7158C59.2917 39.3185 60.0162 35.6773 60.0162 32C60.0162 28.3228 59.2917 24.6815 57.8839 21.2842C56.4761 17.8869 54.4127 14.8001 51.8116 12.2C47.8943 8.28443 42.9036 5.61797 37.4704 4.53782C32.0373 3.45766 26.4057 4.01232 21.2879 6.13166C16.1701 8.251 11.7959 11.8398 8.71832 16.4443C5.64077 21.0489 3.99814 26.4623 3.99814 32C3.99814 37.5378 5.64077 42.9512 8.71832 47.5557C11.7959 52.1602 16.1701 55.749 21.2879 57.8684C26.4057 59.9877 32.0373 60.5424 37.4704 59.4622ZM42.5946 25.5858C42.9698 25.2107 43.4786 25 44.0093 25C44.5399 25 45.0487 25.2107 45.4239 25.5858C45.7991 25.9609 46.0099 26.4696 46.0099 27V44C46.0099 44.5304 45.7991 45.0392 45.4239 45.4142C45.0487 45.7893 44.5399 46 44.0093 46H27.0038C26.4732 46 25.9643 45.7893 25.5891 45.4142C25.2139 45.0392 25.0031 44.5304 25.0031 44C25.0031 43.4696 25.2139 42.9609 25.5891 42.5858C25.9643 42.2107 26.4732 42 27.0038 42H39.1777L18.581 21.41C18.3952 21.2242 18.2477 21.0036 18.1471 20.7608C18.0465 20.518 17.9947 20.2578 17.9947 19.995C17.9947 19.7322 18.0465 19.472 18.1471 19.2292C18.2477 18.9864 18.3952 18.7658 18.581 18.58C18.7669 18.3942 18.9876 18.2468 19.2305 18.1462C19.4733 18.0457 19.7336 17.9939 19.9965 17.9939C20.2594 17.9939 20.5197 18.0457 20.7625 18.1462C21.0054 18.2468 21.2261 18.3942 21.412 18.58L42.0086 39.17V27C42.0086 26.4696 42.2194 25.9609 42.5946 25.5858Z" fill="#484848"/>
</g>
<defs>
<clipPath id="clip0_247:227">
<rect width="64" height="64" fill="white"/>
</clipPath>
</defs>
</svg>
