<svg width="64" height="64" viewBox="0 0 64 64" fill="none" xmlns="http://www.w3.org/2000/svg">
<path d="M63.4183 30.5856L54.6259 21.7944C54.4466 21.5851 54.2259 21.415 53.9777 21.2949C53.7295 21.1749 53.4592 21.1074 53.1837 21.0968C52.9082 21.0861 52.6334 21.1325 52.3767 21.2331C52.12 21.3337 51.8868 21.4862 51.6919 21.6811C51.4969 21.8761 51.3444 22.1092 51.2438 22.3659C51.1432 22.6226 51.0968 22.8973 51.1074 23.1727C51.1181 23.4482 51.1856 23.7185 51.3056 23.9667C51.4257 24.2148 51.5958 24.4355 51.8052 24.6148L57.1766 29.9955H53.1756C49.3909 29.9982 45.6645 30.9275 42.3219 32.7023C38.9794 34.4771 36.1223 37.0434 34.0005 40.1769V6.82248L39.3819 12.1932C39.5613 12.4026 39.782 12.5726 40.0302 12.6927C40.2784 12.8128 40.5487 12.8802 40.8242 12.8909C41.0997 12.9015 41.3745 12.8551 41.6312 12.7545C41.8879 12.654 42.1211 12.5014 42.316 12.3065C42.511 12.1116 42.6635 11.8784 42.7641 11.6218C42.8647 11.3651 42.9111 11.0904 42.9005 10.8149C42.8898 10.5394 42.8223 10.2691 42.7023 10.021C42.5822 9.7728 42.4121 9.55214 42.2027 9.37282L33.4104 0.581662C33.0355 0.209111 32.5285 0 32 0C31.4715 0 30.9645 0.209111 30.5896 0.581662L21.7973 9.37282C21.4696 9.75547 21.2983 10.2477 21.3178 10.7511C21.3372 11.2545 21.5459 11.7321 21.9022 12.0883C22.2585 12.4445 22.7361 12.6532 23.2396 12.6727C23.7431 12.6921 24.2354 12.5209 24.6181 12.1932L29.9995 6.82248V40.1769C27.8755 37.0432 25.0166 34.477 21.6724 32.7023C18.3282 30.9276 14.6004 29.9983 10.8144 29.9955H6.81338L12.1848 24.6148C12.501 24.2316 12.6632 23.7444 12.6398 23.2481C12.6165 22.7519 12.4093 22.2821 12.0586 21.9301C11.7079 21.5782 11.2388 21.3694 10.7425 21.3443C10.2463 21.3192 9.75847 21.4797 9.37405 21.7944L0.581738 30.5856C0.209138 30.9604 0 31.4674 0 31.9958C0 32.5242 0.209138 33.0312 0.581738 33.406L9.37405 42.1971C9.55339 42.4065 9.77409 42.5766 10.0223 42.6967C10.2705 42.8167 10.5408 42.8842 10.8163 42.8948C11.0918 42.9055 11.3666 42.859 11.6233 42.7585C11.88 42.6579 12.1132 42.5054 12.3081 42.3104C12.5031 42.1155 12.6556 41.8824 12.7562 41.6257C12.8568 41.369 12.9032 41.0943 12.8926 40.8188C12.8819 40.5434 12.8145 40.2731 12.6944 40.0249C12.5743 39.7767 12.4042 39.5561 12.1948 39.3768L6.82338 33.9961H10.8244C15.9085 34.0066 20.7811 36.0314 24.3751 39.6268C27.9691 43.2222 29.9915 48.0952 29.9995 53.1786V61.9997C29.9995 62.5302 30.2102 63.039 30.5854 63.4141C30.9606 63.7893 31.4694 64 32 64C32.5306 64 33.0394 63.7893 33.4146 63.4141C33.7898 63.039 34.0005 62.5302 34.0005 61.9997V53.1786C34.0085 48.0935 36.0323 43.219 39.6285 39.6233C43.2246 36.0275 48.0998 34.004 53.1856 33.9961H57.1866L51.8052 39.3768C51.5958 39.5561 51.4257 39.7767 51.3056 40.0249C51.1856 40.2731 51.1181 40.5434 51.1074 40.8188C51.0968 41.0943 51.1432 41.369 51.2438 41.6257C51.3444 41.8824 51.4969 42.1155 51.6919 42.3104C51.8868 42.5054 52.12 42.6579 52.3767 42.7585C52.6334 42.859 52.9082 42.9055 53.1837 42.8948C53.4592 42.8842 53.7295 42.8167 53.9777 42.6967C54.2259 42.5766 54.4466 42.4065 54.6259 42.1971L63.4183 33.406C63.7909 33.0312 64 32.5242 64 31.9958C64 31.4674 63.7909 30.9604 63.4183 30.5856Z" fill="#484848"/>
</svg>
