<svg width="64" height="64" viewBox="0 0 64 64" fill="none" xmlns="http://www.w3.org/2000/svg">
<path fill-rule="evenodd" clip-rule="evenodd" d="M43.878 29.1619L60 17.7945V45.2431L43.878 29.1619ZM23.437 31.4988L30.846 36.7233C31.191 36.9676 31.596 37.0893 32 37.0893C32.404 37.0893 32.809 36.9676 33.154 36.7233L40.564 31.4988L57.172 48.0638H6.82802L23.437 31.4988ZM32 32.6518L24.318 27.2349C24.316 27.2339 24.316 27.2329 24.314 27.2309L8.29604 15.9372H55.704L32 32.6518ZM4 17.7945L20.122 29.1619L4 45.2431V17.7945ZM63.847 50.8215C63.874 50.7557 63.89 50.6889 63.909 50.622C63.927 50.5642 63.948 50.5083 63.96 50.4495C63.986 50.3198 64 50.1892 64 50.0585V13.9425C64 13.751 63.964 13.5694 63.913 13.3939C63.908 13.3749 63.911 13.356 63.905 13.338C63.899 13.3201 63.888 13.3081 63.882 13.2912C63.819 13.1126 63.737 12.9441 63.63 12.7925C63.614 12.7705 63.595 12.7526 63.579 12.7306C63.476 12.598 63.357 12.4773 63.222 12.3745C63.199 12.3556 63.179 12.3366 63.155 12.3187C63.01 12.216 62.849 12.1352 62.677 12.0733C62.638 12.0594 62.6 12.0484 62.56 12.0364C62.386 11.9856 62.204 11.9506 62.014 11.9487C62.009 11.9487 62.004 11.9467 61.999 11.9467H2C1.994 11.9467 1.989 11.9496 1.983 11.9496C1.794 11.9506 1.614 11.9856 1.441 12.0364C1.4 12.0484 1.36 12.0604 1.321 12.0733C1.151 12.1362 0.991 12.216 0.847 12.3177C0.819 12.3366 0.798 12.3586 0.773 12.3785C0.643 12.4803 0.526 12.596 0.426 12.7256C0.407 12.7496 0.386 12.7705 0.368 12.7954C0.263 12.9441 0.182 13.1106 0.12 13.2862C0.113 13.3051 0.1 13.3191 0.094 13.338C0.087 13.358 0.091 13.3799 0.085 13.3999C0.035 13.5734 0 13.753 0 13.9425V13.9654V13.9664V50.0585C0 50.1892 0.014 50.3198 0.04 50.4495C0.052 50.5083 0.073 50.5642 0.091 50.622C0.11 50.6889 0.126 50.7557 0.153 50.8215C0.181 50.8893 0.22 50.9522 0.256 51.016C0.283 51.0659 0.305 51.1178 0.337 51.1646C0.483 51.3831 0.672 51.5716 0.892 51.7182C0.939 51.7491 0.99 51.7711 1.04 51.798C1.105 51.8329 1.167 51.8728 1.235 51.9017C1.301 51.9277 1.368 51.9436 1.435 51.9626C1.493 51.9795 1.548 52.0015 1.608 52.0144C1.737 52.0394 1.868 52.0533 2 52.0533H62C62.132 52.0533 62.263 52.0394 62.392 52.0144C62.452 52.0015 62.507 51.9795 62.565 51.9626C62.632 51.9436 62.699 51.9277 62.765 51.9017C62.833 51.8728 62.896 51.8329 62.96 51.798C63.01 51.7711 63.062 51.7491 63.108 51.7182C63.328 51.5716 63.517 51.3831 63.663 51.1646C63.695 51.1178 63.717 51.0659 63.744 51.016C63.78 50.9522 63.819 50.8893 63.847 50.8215Z" fill="#484848"/>
</svg>
