<svg width="64" height="64" viewBox="0 0 64 64" fill="none" xmlns="http://www.w3.org/2000/svg">
<path fill-rule="evenodd" clip-rule="evenodd" d="M8 6C8 4.897 8.897 4 10 4H54C55.103 4 56 4.897 56 6V27.581L32 44.548L24.321 39.12C24.317 39.117 24.314 39.115 24.312 39.113L8 27.582V6ZM43.878 41.049L59.118 30.274L60 29.651V57.172L43.878 41.049ZM23.437 43.392L30.846 48.63C31.191 48.875 31.596 48.997 32 48.997C32.404 48.997 32.809 48.875 33.154 48.63L40.563 43.392L57.172 60H6.82797L23.437 43.392ZM4 29.651L4.878 30.272C4.879 30.273 4.88 30.2738 4.88101 30.2745C4.882 30.2753 4.883 30.276 4.884 30.277L20.122 41.049L4 57.172V29.651ZM63.847 62.765C63.8687 62.7119 63.8833 62.6581 63.8981 62.6037L63.909 62.564C63.9115 62.5561 63.9141 62.5482 63.9166 62.5403C63.9187 62.534 63.9208 62.5277 63.9229 62.5213C63.9369 62.4788 63.951 62.4362 63.96 62.392C63.986 62.262 64 62.131 64 62V25.79C64 25.598 63.964 25.416 63.913 25.24C63.9118 25.2354 63.911 25.2308 63.9105 25.2262C63.9101 25.2219 63.9098 25.2176 63.9095 25.2134V25.2133C63.9088 25.2034 63.9082 25.1936 63.905 25.184C63.9019 25.1747 63.8974 25.167 63.8931 25.1593L63.893 25.1593C63.8889 25.1522 63.8849 25.1452 63.882 25.137C63.819 24.958 63.737 24.789 63.63 24.637C63.6248 24.6298 63.6192 24.623 63.6135 24.6164C63.6105 24.6129 63.6075 24.6095 63.6045 24.606C63.5957 24.596 63.587 24.586 63.579 24.575C63.476 24.441 63.356 24.321 63.222 24.218C63.2135 24.211 63.2055 24.204 63.1975 24.1971C63.1838 24.1852 63.1702 24.1734 63.155 24.162C63.01 24.059 62.849 23.978 62.677 23.916C62.647 23.9045 62.6176 23.8959 62.5875 23.8871C62.5784 23.8844 62.5692 23.8818 62.56 23.879C62.386 23.828 62.204 23.793 62.014 23.791C62.009 23.791 62.004 23.789 61.999 23.789H60V6C60 2.691 57.309 0 54 0H10C6.691 0 4 2.691 4 6V23.789H2C1.997 23.789 1.99425 23.7898 1.9915 23.7905C1.98875 23.7913 1.986 23.792 1.983 23.792C1.794 23.793 1.614 23.828 1.441 23.879L1.41926 23.8853L1.41924 23.8853C1.38582 23.895 1.35307 23.9045 1.321 23.916C1.151 23.979 0.991 24.059 0.847 24.161C0.830518 24.1722 0.816462 24.1844 0.802384 24.1967C0.792545 24.2052 0.782696 24.2138 0.772 24.222C0.643 24.324 0.526 24.439 0.426 24.57C0.418121 24.58 0.409898 24.5894 0.401688 24.5988L0.40163 24.5989C0.390061 24.6121 0.378518 24.6254 0.368 24.64C0.263 24.789 0.182 24.956 0.12 25.132C0.116825 25.1402 0.112415 25.1477 0.107983 25.1553C0.102646 25.1644 0.0972782 25.1736 0.094 25.184C0.0903352 25.1945 0.0896855 25.2055 0.0890373 25.2165C0.0884474 25.2265 0.0878587 25.2365 0.085 25.246C0.035 25.42 0 25.6 0 25.79V25.812V25.813V62C0 62.131 0.014 62.262 0.04 62.392C0.049 62.4362 0.0630625 62.4788 0.077125 62.5214C0.0818125 62.5356 0.0865 62.5498 0.091 62.564L0.101871 62.6036C0.116655 62.6581 0.131262 62.7119 0.153 62.765C0.175257 62.8191 0.204465 62.8699 0.233591 62.9207L0.233604 62.9207L0.256 62.96C0.264518 62.9758 0.272538 62.9917 0.280531 63.0077L0.280552 63.0077L0.28056 63.0077C0.297895 63.0422 0.315107 63.0765 0.337 63.108C0.483 63.328 0.672 63.517 0.892 63.664C0.922667 63.6847 0.956001 63.7013 0.989631 63.7181C1.00645 63.7266 1.02333 63.735 1.04 63.744C1.05783 63.7537 1.07558 63.7638 1.09338 63.7739L1.09347 63.774C1.13955 63.8001 1.18598 63.8264 1.235 63.848C1.28606 63.8681 1.33771 63.8822 1.3895 63.8964L1.38953 63.8964L1.435 63.909C1.45582 63.9151 1.47625 63.9218 1.49666 63.9286L1.49686 63.9287L1.49698 63.9287C1.53334 63.9407 1.56965 63.9527 1.608 63.961C1.737 63.986 1.868 64 2 64H62C62.132 64 62.263 63.986 62.392 63.961C62.4304 63.9527 62.4667 63.9407 62.5031 63.9287C62.5236 63.9219 62.5441 63.9151 62.565 63.909L62.6105 63.8964C62.6623 63.8822 62.7139 63.8681 62.765 63.848C62.814 63.8264 62.8605 63.8 62.9066 63.7739L62.9071 63.7736C62.9248 63.7636 62.9423 63.7537 62.96 63.744C62.9767 63.735 62.9936 63.7266 63.0104 63.7181C63.044 63.7013 63.0773 63.6847 63.108 63.664C63.328 63.517 63.517 63.328 63.663 63.108C63.6849 63.0765 63.7021 63.0423 63.7194 63.0078L63.7194 63.0077C63.7274 62.9918 63.7355 62.9758 63.744 62.96L63.7664 62.9207C63.7955 62.8699 63.8247 62.8191 63.847 62.765ZM16.5948 25.3105H47.4058C48.5098 25.3105 49.4058 24.4145 49.4058 23.3105C49.4058 22.2065 48.5098 21.3105 47.4058 21.3105H16.5948C15.4908 21.3105 14.5948 22.2065 14.5948 23.3105C14.5948 24.4145 15.4908 25.3105 16.5948 25.3105ZM47.4058 15.3105H16.5948C15.4908 15.3105 14.5948 14.4145 14.5948 13.3105C14.5948 12.2065 15.4908 11.3105 16.5948 11.3105H47.4058C48.5098 11.3105 49.4058 12.2065 49.4058 13.3105C49.4058 14.4145 48.5098 15.3105 47.4058 15.3105Z" fill="#484848"/>
</svg>
