<svg width="64" height="64" viewBox="0 0 64 64" fill="none" xmlns="http://www.w3.org/2000/svg">
<g clip-path="url(#clip0_944:12)">
<path d="M63.925 31.3C58.4272 17.9 45.6322 9 32.0375 9C18.3428 9 5.64779 17.9 0.149941 31.3C-0.0499805 31.8 -0.0499805 32.3 0.149941 32.8C5.64779 46.1 18.3428 55 32.0375 55C45.7321 55 58.5271 46.1 63.925 32.7C64.025 32.3 64.025 31.7 63.925 31.3ZM32.0375 51C20.2421 51 9.14643 43.4 4.24834 32C9.24639 20.6 20.2421 13 32.0375 13C43.8329 13 54.9285 20.6 59.9266 32C54.9285 43.4 43.8329 51 32.0375 51Z" fill="#484848"/>
<path d="M32.0375 18.8C24.5404 18.8 18.4428 24.7 18.4428 32C18.4428 39.3 24.5404 45.2 32.0375 45.2C39.5346 45.2 45.6322 39.3 45.6322 32C45.6322 24.7 39.5346 18.8 32.0375 18.8ZM32.0375 41.3C26.7396 41.3 22.4412 37.1 22.4412 32C22.4412 26.9 26.7396 22.7 32.0375 22.7C37.3354 22.7 41.6337 26.9 41.6337 32C41.6337 37.1 37.3354 41.3 32.0375 41.3Z" fill="#484848"/>
<path d="M32.0375 30C30.9379 30 30.0383 30.9 30.0383 32C30.0383 33.1 30.9379 34 32.0375 34C33.1371 34 34.0367 33.1 34.0367 32C34.0367 30.9 33.1371 30 32.0375 30Z" fill="#484848"/>
</g>
<defs>
<clipPath id="clip0_944:12">
<rect width="64" height="64" fill="white"/>
</clipPath>
</defs>
</svg>
