<svg width="64" height="64" viewBox="0 0 64 64" fill="none" xmlns="http://www.w3.org/2000/svg">
<path fill-rule="evenodd" clip-rule="evenodd" d="M54.2264 32.9786L49.1874 26.7527L54.9413 22.0947L59.9753 28.3247L54.2264 32.9786ZM42.4195 57.8613C42.4195 59.0403 41.4605 59.9993 40.2815 59.9993H6.13793C4.95894 59.9993 3.99995 59.0403 3.99995 57.8613V6.13693C3.99995 4.95794 4.95894 3.99995 6.13793 3.99995H29.3017V15.4838C29.3017 16.5878 30.1977 17.4838 31.3016 17.4838H42.4195V27.0837L25.7787 40.5555C25.4947 40.7865 25.2787 41.0895 25.1547 41.4345L21.2548 52.3264C21.0208 52.9834 21.1458 53.7154 21.5848 54.2584C21.9678 54.7304 22.5397 54.9994 23.1387 54.9994C23.2277 54.9994 23.3177 54.9934 23.4077 54.9804L34.8626 53.4264C35.2256 53.3774 35.5676 53.2304 35.8526 52.9994L42.4195 47.6835V57.8613ZM41.7926 13.4638C41.7986 13.4698 41.8025 13.4778 41.8095 13.4838H33.3016V4.97292L41.7926 13.4638ZM27.7197 46.1324L30.8026 49.9414L26.1277 50.5754L27.7197 46.1324ZM34.8905 48.6325L29.8506 42.4065L46.0774 29.2707L51.1174 35.4966L34.8905 48.6325ZM63.0903 25.8027L58.0493 19.5778C57.3893 18.7618 56.4604 18.2388 55.4334 18.1038C54.3694 17.9668 53.3274 18.2558 52.5014 18.9228L46.4195 23.8467V14.9768C46.4195 13.3388 45.7825 11.7979 44.6225 10.6369L35.7826 1.79698C34.6226 0.637993 33.0806 0 31.4416 0H6.13793C2.75297 0 0 2.75197 0 6.13693V57.8613C0 61.2463 2.75297 63.9993 6.13793 63.9993H40.2815C43.6655 63.9993 46.4195 61.2463 46.4195 57.8613V44.4455L55.1844 37.3496C55.1864 37.3486 55.1884 37.3476 55.1894 37.3466L55.1934 37.3426L62.5763 31.3666C63.4003 30.6986 63.9013 29.7417 63.9873 28.6697C64.0693 27.6367 63.7503 26.6187 63.0903 25.8027Z" fill="#484848"/>
</svg>
