<svg width="64" height="64" viewBox="0 0 64 64" fill="none" xmlns="http://www.w3.org/2000/svg">
<path d="M30.7089 64C19.8143 64 17.6154 55.7 13.9172 41.8C13.2175 39 12.318 35.9 11.3185 32.5C8.71977 23.6 10.0191 14.5 14.7168 8C18.6149 2.9 24.312 0 30.7089 0C40.504 0 45.8014 4.1 48.5 7.6C52.498 12.7 52.8978 18.4 52.9978 20.7C53.0977 29 49.7994 34.6 46.8009 39.5C46.4011 40.2 46.0013 40.9 45.6015 41.5C44.1022 44.2 43.1027 50.5 42.8028 53.4C41.9033 62.2 35.7064 64 30.7089 64ZM30.7089 4C25.5114 4 21.0137 6.3 17.9152 10.5C13.9172 15.9 12.9177 23.8 15.1166 31.4C16.1161 34.8 16.9157 38 17.7153 40.8C21.6134 55.4 23.2126 60 30.7089 60C37.2056 60 38.505 56.5 38.8048 53.1C39.0047 52 40.0042 43.5 42.2031 39.5C42.6029 38.8 43.0028 38.1 43.4025 37.4C46.2012 32.7 49.0997 27.8 48.9998 20.7C48.9998 19 48.4001 4 30.7089 4Z" fill="#484848"/>
<path d="M28.2101 45.4C22.8128 45.4 21.5134 39 20.414 33.3L20.0142 31.5C18.9147 26.1 17.0157 17 23.2126 11.5C26.8108 8.3 30.409 7.9 32.7079 8.1C35.9063 8.3 39.0047 9.9 40.9038 12.2C46.9008 19.3 42.0032 29 41.8033 29.4C41.3036 30.4 40.1042 30.8 39.1047 30.2C38.1052 29.7 37.8053 28.5 38.3051 27.5C38.3051 27.4 42.2031 19.7 37.9053 14.7C36.6059 13.2 34.507 12.1 32.408 12C30.1092 11.8 27.8103 12.7 25.7113 14.5C23.5124 16.4 22.7128 19.2 22.7128 22.1C22.8128 22.1 23.0127 22.1 23.1126 22.1C31.3086 22.9 34.7069 29.3 35.2066 34.9C35.5065 38.3 34.7069 41.2 32.9078 43.1C31.8083 44.6 30.1092 45.4 28.2101 45.4ZM23.1126 26.1C23.3125 27.7 23.6124 29.3 23.9122 30.6L24.312 32.4C25.1116 36.4 26.1111 41.3 28.2101 41.3C29.0097 41.3 29.6094 41 30.2091 40.4C31.2086 39.3 31.6084 37.4 31.4085 35.2C31.2086 32.8 30.0092 26.9 23.1126 26.1Z" fill="#484848"/>
</svg>
