<svg width="64" height="64" viewBox="0 0 64 64" fill="none" xmlns="http://www.w3.org/2000/svg">
<path fill-rule="evenodd" clip-rule="evenodd" d="M49.3171 60H15.1084C13.9282 60 12.9674 59.041 12.9674 57.862V6.138C12.9674 4.959 13.9282 4 15.1084 4H38.3176V15.484C38.3176 16.589 39.2143 17.484 40.3214 17.484H51.4591V57.862C51.4591 59.041 50.4983 60 49.3171 60ZM50.832 13.466C50.8348 13.4687 50.8369 13.4717 50.8389 13.4745C50.8414 13.478 50.8438 13.4813 50.8471 13.484H42.3252V4.975L50.832 13.466ZM53.6653 10.638L44.8088 1.798C43.6476 0.639 42.1037 0 40.4607 0H15.1084C11.7181 0 8.95996 2.753 8.95996 6.138V57.862C8.95996 61.247 11.7181 64 15.1084 64H49.3172C52.7085 64 55.4666 61.247 55.4666 57.862V14.978C55.4666 13.338 54.8264 11.797 53.6653 10.638ZM40.8491 38.7627C40.4824 38.1817 39.8422 37.8287 39.1549 37.8287C38.4667 37.8287 37.8265 38.1817 37.4598 38.7617L33.4894 45.0447L28.2085 35.9137C27.8499 35.2947 27.1886 34.9137 26.4723 34.9137C25.757 34.9137 25.0947 35.2947 24.7371 35.9137L17.7951 47.9137C17.2431 48.8697 17.5707 50.0937 18.5295 50.6467C19.4863 51.1977 20.7116 50.8687 21.2666 49.9137L26.4723 40.9137L31.678 49.9137C31.684 49.9251 31.6922 49.9343 31.7004 49.9436C31.7058 49.9497 31.7113 49.9559 31.7161 49.9627C31.7922 50.0857 31.8794 50.2017 31.9826 50.3077C31.9881 50.3132 31.9929 50.3193 31.9978 50.3254L31.9979 50.3255C32.0037 50.3328 32.0096 50.3402 32.0166 50.3467C32.1148 50.4427 32.224 50.5297 32.3442 50.6057C32.352 50.6108 32.3605 50.6144 32.3692 50.618C32.3773 50.6214 32.3856 50.6248 32.3933 50.6297C32.4177 50.6439 32.4427 50.6557 32.4678 50.6675C32.4851 50.6756 32.5024 50.6837 32.5196 50.6927C32.6218 50.7427 32.726 50.7867 32.8332 50.8197L32.8662 50.8289C32.9023 50.8391 32.9386 50.8493 32.9754 50.8577C33.0946 50.8837 33.2129 50.8987 33.3331 50.9037C33.3458 50.9042 33.3587 50.9064 33.3716 50.9086L33.3717 50.9086C33.3863 50.9112 33.4009 50.9137 33.4152 50.9137C33.4203 50.9137 33.4254 50.9127 33.4305 50.9119C33.4344 50.9113 33.4384 50.9107 33.4423 50.9107C33.5946 50.9087 33.7439 50.8887 33.8911 50.8527C33.9118 50.8473 33.9321 50.8401 33.9525 50.8329C33.9697 50.8268 33.9869 50.8207 34.0043 50.8157C34.1206 50.7797 34.2328 50.7337 34.342 50.6767C34.3538 50.6703 34.3661 50.6661 34.3783 50.6619C34.3909 50.6576 34.4034 50.6533 34.4151 50.6467C34.4282 50.6388 34.4397 50.6299 34.4511 50.621C34.4615 50.6129 34.4718 50.6048 34.4832 50.5977C34.5413 50.5617 34.5954 50.5207 34.6505 50.4777L34.6506 50.4777C34.7017 50.4367 34.7527 50.3957 34.8008 50.3497C34.8449 50.3077 34.885 50.2617 34.9251 50.2147C34.9741 50.1587 35.0202 50.1027 35.0613 50.0417C35.0683 50.0312 35.0766 50.0214 35.0849 50.0117C35.0931 50.0019 35.1014 49.9922 35.1084 49.9817L39.1549 43.5787L43.2005 49.9817C43.5812 50.5837 44.2314 50.9137 44.8966 50.9137C45.2613 50.9137 45.631 50.8147 45.9636 50.6057C46.8994 50.0167 47.1799 48.7817 46.5888 47.8467L40.8491 38.7627ZM38.3171 30.083C38.3171 31.74 36.9716 33.083 35.3115 33.083C33.6514 33.083 32.3059 31.74 32.3059 30.083C32.3059 28.427 33.6514 27.083 35.3115 27.083C36.9716 27.083 38.3171 28.427 38.3171 30.083Z" fill="#484848"/>
</svg>
