<svg width="64" height="64" viewBox="0 0 64 64" fill="none" xmlns="http://www.w3.org/2000/svg">
<path d="M58 2H6C2.7 2 0 4.70451 0 8.01002V40.9649C0 44.2705 2.7 46.975 6 46.975H30V57.9933H17C15.9 57.9933 15 58.8948 15 59.9967C15 61.0985 15.9 62 17 62H47C48.1 62 49 61.0985 49 59.9967C49 58.8948 48.1 57.9933 47 57.9933H34V46.975H58C61.3 46.975 64 44.2705 64 40.9649V8.01002C64 4.70451 61.3 2 58 2ZM60 40.9649C60 42.0668 59.1 42.9683 58 42.9683H6C4.9 42.9683 4 42.0668 4 40.9649V8.01002C4 6.90818 4.9 6.00668 6 6.00668H58C59.1 6.00668 60 6.90818 60 8.01002V40.9649Z" fill="#484848"/>
<path d="M32 22.4341C30.8 22.4341 29.9 23.3356 29.9 24.5376C29.9 25.7396 30.8 26.6411 32 26.6411C33.2 26.6411 34.1 25.7396 34.1 24.5376C34.1 23.3356 33.2 22.4341 32 22.4341Z" fill="#484848"/>
<path d="M37.5 16.6244C36.7 16.0234 35.5 16.2237 34.9 17.1252C34.3 17.9265 34.5 19.1285 35.4 19.7295C37 20.8314 37.9 22.6344 37.9 24.5376C37.9 26.4407 37 28.2437 35.4 29.3456C34.6 29.9466 34.3 31.0484 34.9 31.9499C35.3 32.4508 35.8 32.7513 36.4 32.7513C36.8 32.7513 37.1 32.6511 37.5 32.4508C40.1 30.6477 41.6 27.7429 41.6 24.6377C41.6 21.4324 40 18.4274 37.5 16.6244Z" fill="#484848"/>
<path d="M28.6 29.2454C27 28.1436 26.1 26.3406 26.1 24.4374C26.1 22.5342 27 20.7312 28.6 19.6294C29.4 19.0284 29.6 17.9265 29.1 17.025C28.5 16.2237 27.4 16.0234 26.5 16.5242C24 18.3272 22.4 21.2321 22.4 24.3372C22.4 27.4424 23.9 30.4474 26.5 32.1502C26.8 32.3506 27.2 32.4508 27.6 32.4508C28.2 32.4508 28.8 32.1502 29.1 31.6494C29.7 31.0484 29.5 29.8464 28.6 29.2454Z" fill="#484848"/>
<path d="M19.3 30.0467C18.5 28.2437 18.1 26.4407 18.1 24.4374C18.1 22.5342 18.5 20.6311 19.3 18.828C20 17.2254 21 15.823 22.2 14.5209C22.9 13.8197 22.9 12.6177 22.2 11.9165C21.5 11.2154 20.3 11.2154 19.6 11.9165C18 13.5192 16.8 15.3222 15.9 17.3255C14.9 19.5292 14.4 21.9332 14.4 24.3372C14.4 26.7412 14.9 29.1452 15.9 31.3489C16.8 33.3523 18 35.1553 19.6 36.7579C20 37.1586 20.4 37.2588 20.9 37.2588C21.4 37.2588 21.9 37.0584 22.2 36.7579C22.9 36.0568 22.9 34.8548 22.2 34.1536C20.9 33.1519 20 31.6494 19.3 30.0467Z" fill="#484848"/>
<path d="M44.5 12.0167C43.8 11.3155 42.6 11.3155 41.9 12.0167C41.2 12.7179 41.2 13.9199 41.9 14.621C43.1 15.9232 44.1 17.3255 44.8 18.9282C45.6 20.6311 46 22.5342 46 24.5376C46 26.4407 45.6 28.3439 44.8 30.1469C44.1 31.7496 43.1 33.1519 41.9 34.4541C41.2 35.1553 41.2 36.3573 41.9 37.0584C42.3 37.4591 42.7 37.5593 43.2 37.5593C43.7 37.5593 44.2 37.3589 44.5 37.0584C46.1 35.4558 47.3 33.6528 48.2 31.6494C49.2 29.4457 49.7 27.0417 49.7 24.6377C49.7 22.1336 49.2 19.8297 48.2 17.626C47.3 15.4224 46 13.6194 44.5 12.0167Z" fill="#484848"/>
</svg>
