<svg width="64" height="64" viewBox="0 0 64 64" fill="none" xmlns="http://www.w3.org/2000/svg">
<path fill-rule="evenodd" clip-rule="evenodd" d="M15.0813 60H48.9174C50.0857 60 51.036 59.041 51.036 57.862V17.484H40.0196C38.9246 17.484 38.0377 16.589 38.0377 15.484V4H15.0813C13.914 4 12.9637 4.959 12.9637 6.138V57.862C12.9637 59.041 13.914 60 15.0813 60ZM50.4227 13.4745C50.4207 13.4717 50.4186 13.4687 50.4159 13.466L42.0017 4.97498V13.484H50.4308C50.4275 13.4813 50.4252 13.4779 50.4227 13.4745ZM44.4582 1.798L53.2183 10.638C54.3668 11.797 55 13.338 55 14.978V57.862C55 61.247 52.2719 64 48.9175 64H15.0815C11.7281 64 9 61.247 9 57.862V6.138C9 2.753 11.7281 0 15.0815 0H40.1575C41.7827 0 43.3097 0.639 44.4582 1.798ZM40.1623 49.792H23.8384V43.931H40.1623V49.792ZM40.1609 30.069H23.8369V24.208H40.1609V30.069ZM40.1623 39.93H23.8384V34.069H40.1623V39.93ZM21.8563 20.208H42.143C43.238 20.208 44.1249 21.104 44.1249 22.208V51.792C44.1249 52.896 43.238 53.792 42.143 53.792H21.8563C20.7613 53.792 19.8744 52.896 19.8744 51.792V22.208C19.8744 21.104 20.7613 20.208 21.8563 20.208Z" fill="#484848"/>
</svg>
