<svg width="64" height="64" viewBox="0 0 64 64" fill="none" xmlns="http://www.w3.org/2000/svg">
<g clip-path="url(#clip0_1495:90)">
<path d="M47.321 14.2108C47.1678 13.9805 47.0185 13.8109 46.8169 13.6109C46.3 13.111 45.2037 13.011 44.4979 13.5109C43.893 13.9108 43.65 14.5107 43.5905 15.1106C43.0864 20.2095 40.5658 23.7087 38.5494 25.8083C36.9362 8.21207 22.0144 0.613711 21.3086 0.213798C20.7037 -0.0861375 19.8971 -0.0861375 19.2922 0.313776C18.6872 0.713689 18.3848 1.31356 18.3848 2.01341C18.4856 4.11295 18.2839 6.41246 18.0823 9.01189C17.679 12.5111 16.9733 17.0102 14.856 20.9093C14.3519 21.9091 13.7469 22.8089 13.142 23.8087C11.6296 26.4081 10.0165 29.0076 9.20988 32.0069C8.40329 34.8063 8 37.3058 8 39.7053C8 53.1024 18.9897 64 32.5 64C46.0103 64 57 53.1024 57 39.7053C57 32.5068 53.7737 23.9087 47.321 14.2108ZM23.4259 51.0028C23.4259 50.103 23.6276 49.1032 23.93 48.0035C24.2325 46.9037 24.8374 45.8039 25.5432 44.7042C25.8457 44.2043 26.1481 43.7044 26.4506 43.1045C27.7613 40.705 28.1646 38.1056 28.3663 36.106C30.3827 38.0056 32.7016 41.2049 32.5 46.0039C32.5 46.7037 32.8025 47.4036 33.5082 47.8035C34.1132 48.2034 34.9198 48.2034 35.5247 47.8035C35.6255 47.7035 37.9444 46.4038 39.4568 43.7044C40.8683 46.4038 41.5741 48.8033 41.5741 50.9028C41.5741 55.5018 38.0453 59.401 33.4074 59.8009C33.1049 59.8009 32.8025 59.8009 32.5 59.8009C32.1975 59.8009 31.8951 59.8009 31.5926 59.8009C27.0556 59.501 23.4259 55.7018 23.4259 51.0028ZM44.5988 56.1017C45.3045 54.502 45.607 52.8024 45.607 51.0028C45.607 47.3036 43.9938 42.9046 40.6667 37.9056C40.5689 37.7588 40.465 37.6057 40.3642 37.5057C39.6584 36.8059 38.6502 36.7059 37.8436 37.2058C37.2387 37.6057 37 38.2056 36.9362 38.8054C36.8354 39.9052 36.5329 40.805 36.1296 41.6048C34.3148 34.0065 27.7613 30.7072 27.4588 30.5072C26.8539 30.2073 26.0473 30.2073 25.4424 30.6072C24.8374 31.0071 24.535 31.607 24.535 32.3069C24.535 33.3066 24.535 34.4064 24.3333 35.6061C24.1317 37.2058 23.8292 39.3053 22.821 41.1049C22.5185 41.6048 22.3169 42.0048 22.0144 42.5046C21.2078 43.8044 20.4012 45.2041 19.9979 46.8037C19.5947 48.3034 19.393 49.6031 19.393 50.9028C19.393 52.7024 19.7963 54.4021 20.4012 56.0017C15.3601 52.4025 12.0329 46.4038 12.0329 39.7053C12.0329 37.7057 12.3354 35.5062 13.0412 33.1067C13.7469 30.6072 15.1584 28.3077 16.57 25.9082C17.1749 24.9085 17.7798 23.9087 18.3848 22.8089C20.8045 18.3099 21.6111 13.311 22.1152 9.41181C22.2161 8.01211 22.4177 6.81237 22.4177 5.51265C26.9547 8.71196 35.0206 16.5103 34.6173 29.8074C34.6173 30.5072 34.9198 31.2071 35.6255 31.607C36.2305 32.0069 37.037 32.0069 37.642 31.607C37.9444 31.407 43.9938 27.9078 46.6152 20.5094C50.8498 27.8078 53.0679 34.2064 53.0679 39.6053C52.9671 46.4038 49.6399 52.4025 44.5988 56.1017Z" fill="#484848"/>
</g>
<defs>
<clipPath id="clip0_1495:90">
<rect width="64" height="64" fill="white"/>
</clipPath>
</defs>
</svg>
