<svg width="64" height="64" viewBox="0 0 64 64" fill="none" xmlns="http://www.w3.org/2000/svg">
<path fill-rule="evenodd" clip-rule="evenodd" d="M15.1094 60H49.3171C50.4983 60 51.4591 59.041 51.4591 57.862V17.484H40.3214C39.2143 17.484 38.3176 16.589 38.3176 15.484V4H15.1094C13.9282 4 12.9674 4.959 12.9674 6.138V57.862C12.9674 59.041 13.9282 60 15.1094 60ZM50.8389 13.4745L50.8372 13.4721C50.8356 13.47 50.834 13.468 50.832 13.466L42.3251 4.975V13.484H50.847C50.8438 13.4813 50.8414 13.478 50.8389 13.4745ZM44.8098 1.799L53.6653 10.638C54.8264 11.797 55.4666 13.338 55.4666 14.978V57.862C55.4666 61.247 52.7085 64 49.3172 64H15.1094C11.7191 64 8.95996 61.247 8.95996 57.862V6.138C8.95996 2.753 11.7191 0 15.1094 0H40.4607C42.1047 0 43.6496 0.639 44.8098 1.799ZM20.2646 48H44.1622C45.2682 48 46.1659 48.896 46.1659 50C46.1659 51.104 45.2682 52 44.1622 52H20.2646C19.1586 52 18.2609 51.104 18.2609 50C18.2609 48.896 19.1586 48 20.2646 48ZM44.1622 36.333H20.2646C19.1586 36.333 18.2609 37.229 18.2609 38.333C18.2609 39.437 19.1586 40.333 20.2646 40.333H44.1622C45.2682 40.333 46.1659 39.437 46.1659 38.333C46.1659 37.229 45.2682 36.333 44.1622 36.333ZM20.2646 24.667H44.1622C45.2682 24.667 46.1659 25.563 46.1659 26.667C46.1659 27.771 45.2682 28.667 44.1622 28.667H20.2646C19.1586 28.667 18.2609 27.771 18.2609 26.667C18.2609 25.563 19.1586 24.667 20.2646 24.667Z" fill="#484848"/>
</svg>
