<svg width="64" height="64" viewBox="0 0 64 64" fill="none" xmlns="http://www.w3.org/2000/svg">
<g clip-path="url(#clip0_247:270)">
<path d="M63.4181 24.479L54.6264 15.6598C54.2516 15.2856 53.7446 15.0756 53.2161 15.0756C52.6876 15.0756 52.1806 15.2856 51.8058 15.6598L43.0041 24.479C42.6288 24.856 42.4179 25.3673 42.4179 25.9004C42.4179 26.4335 42.6288 26.9447 43.0041 27.3217C43.3795 27.6987 43.8886 27.9104 44.4194 27.9104C44.9502 27.9104 45.4593 27.6987 45.8347 27.3217L51.2057 21.9277V51.6902C51.1296 53.9316 50.1895 56.0557 48.5838 57.6143C46.978 59.1729 44.8322 60.0441 42.5991 60.0441C40.3659 60.0441 38.2201 59.1729 36.6143 57.6143C35.0086 56.0557 34.0685 53.9316 33.9924 51.6902V12.5961C33.9898 9.25797 32.6689 6.05716 30.3194 3.6958C27.97 1.33443 24.7839 0.00531869 21.46 0L21.33 0C18.0043 0.0026602 14.8157 1.3306 12.4641 3.69225C10.1125 6.0539 8.79021 9.25623 8.78756 12.5961V42.3587L3.41652 36.9646C3.04117 36.5877 2.53208 36.3759 2.00125 36.3759C1.47042 36.3759 0.961334 36.5877 0.585981 36.9646C0.210627 37.3416 -0.000244135 37.8529 -0.000244141 38.386C-0.000244146 38.9191 0.210627 39.4304 0.585981 39.8073L9.37767 48.6266C9.75247 49.0008 10.2595 49.2108 10.7879 49.2108C11.3164 49.2108 11.8234 49.0008 12.1982 48.6266L20.9999 39.8073C21.3753 39.4304 21.5861 38.9191 21.5861 38.386C21.5861 37.8529 21.3753 37.3416 20.9999 36.9646C20.6246 36.5877 20.1155 36.3759 19.5846 36.3759C19.0538 36.3759 18.5447 36.5877 18.1694 36.9646L12.7983 42.3587V12.5961C12.801 10.3236 13.7004 8.14474 15.2995 6.53687C16.8986 4.92901 19.0671 4.02321 21.33 4.0179H21.46C23.7246 4.02056 25.8956 4.92518 27.4969 6.53333C29.0982 8.14148 29.999 10.3218 30.0016 12.5961V51.6902C30.0941 54.9865 31.4629 58.1166 33.8172 60.4153C36.1715 62.714 39.3255 64 42.6091 64C45.8926 64 49.0467 62.714 51.4009 60.4153C53.7552 58.1166 55.124 54.9865 55.2165 51.6902V21.9277L60.5875 27.3217C60.9626 27.6953 61.4695 27.9047 61.9978 27.9043C62.3931 27.9046 62.7796 27.7873 63.1085 27.5672C63.4374 27.3471 63.6941 27.0341 63.846 26.6676C63.998 26.3012 64.0384 25.8977 63.9623 25.5082C63.8861 25.1187 63.6967 24.7606 63.4181 24.479Z" fill="#484848"/>
</g>
<defs>
<clipPath id="clip0_247:270">
<rect width="64" height="64" fill="white"/>
</clipPath>
</defs>
</svg>
