<svg width="64" height="64" viewBox="0 0 64 64" fill="none" xmlns="http://www.w3.org/2000/svg">
<path d="M53.3007 10.6L44.5598 1.8C43.3678 0.6 41.8779 0 40.1893 0H15.0591C11.7812 0 9 2.8 9 6.1V57.8C9 61.2 11.7812 64 15.0591 64H48.9303C52.3074 64 54.9893 61.2 54.9893 57.9V15C55.0886 13.3 54.4927 11.8 53.3007 10.6ZM50.5195 13.5H42.0766V5L50.5195 13.5ZM49.0296 60H15.0591C13.9664 60 12.9732 59 12.9732 57.9V6.1C12.9732 5 13.9664 4 15.0591 4H38.1034V15.5C38.1034 16.6 38.9974 17.5 40.09 17.5H51.1155V57.9C51.1155 59 50.2215 60 49.0296 60Z" fill="#484848"/>
<path d="M42.1759 20.2H21.9128C20.8201 20.2 19.9262 21.1 19.9262 22.2V51.8C19.9262 52.9 20.8201 53.8 21.9128 53.8H42.2752C43.3678 53.8 44.2618 52.9 44.2618 51.8V22.2C44.1625 21.1 43.3678 20.2 42.1759 20.2ZM23.8993 34.1H30.0577V40H23.8993V34.1ZM34.0309 34.1H40.1893V40H34.0309V34.1ZM40.1893 24.2V30.1H23.8993V24.2H40.1893ZM23.8993 43.9H30.0577V49.8H23.8993V43.9ZM34.0309 49.8V43.9H40.1893V49.8H34.0309Z" fill="#484848"/>
</svg>
