<svg width="64" height="64" viewBox="0 0 64 64" fill="none" xmlns="http://www.w3.org/2000/svg">
<path fill-rule="evenodd" clip-rule="evenodd" d="M15.1084 60H49.3171C50.4983 60 51.4591 59.041 51.4591 57.862V17.484H40.3214C39.2143 17.484 38.3176 16.589 38.3176 15.484V4H15.1084C13.9282 4 12.9674 4.959 12.9674 6.138V57.862C12.9674 59.041 13.9282 60 15.1084 60ZM50.8389 13.4745C50.8369 13.4717 50.8348 13.4687 50.832 13.466L42.3252 4.975V13.484H50.8471C50.8438 13.4813 50.8414 13.478 50.8389 13.4745ZM44.8098 1.799L53.6653 10.638C54.8264 11.797 55.4666 13.338 55.4666 14.978V57.862C55.4666 61.247 52.7085 64 49.3172 64H15.1084C11.7181 64 8.95996 61.247 8.95996 57.862V6.138C8.95996 2.753 11.7181 0 15.1084 0H40.4607C42.1047 0 43.6496 0.639 44.8098 1.799ZM33.4713 31.3975H41.37V26.7455H33.4713V27.0655V31.3975ZM23.0578 47.0315C23.0578 48.2365 24.5246 49.2545 26.2608 49.2545C27.997 49.2545 29.4638 48.2365 29.4638 47.0315C29.4638 45.8265 27.997 44.8085 26.2608 44.8085C24.5246 44.8085 23.0578 45.8265 23.0578 47.0315ZM31.4674 22.7455H43.3736C44.4797 22.7455 45.3774 23.6405 45.3774 24.7455V33.3975C45.3774 34.5015 44.4797 35.3975 43.3736 35.3975H33.4712V47.0315C33.4712 50.4625 30.2371 53.2545 26.2607 53.2545C22.2843 53.2545 19.0503 50.4625 19.0503 47.0315C19.0503 43.5995 22.2843 40.8085 26.2607 40.8085C27.4119 40.8085 28.4969 41.0485 29.4637 41.4645V33.3975V27.0655V24.7455C29.4637 23.6405 30.3614 22.7455 31.4674 22.7455Z" fill="#484848"/>
</svg>
