<svg width="64" height="64" viewBox="0 0 64 64" fill="none" xmlns="http://www.w3.org/2000/svg">
<path fill-rule="evenodd" clip-rule="evenodd" d="M15.1084 60H49.3171C50.4983 60 51.4591 59.041 51.4591 57.862V17.484H40.3204C39.2143 17.484 38.3166 16.589 38.3166 15.484V4H15.1084C13.9282 4 12.9674 4.959 12.9674 6.138V57.862C12.9674 59.041 13.9282 60 15.1084 60ZM50.8418 13.4789C50.841 13.4779 50.8402 13.4769 50.8394 13.4758C50.8369 13.4726 50.8343 13.4691 50.8312 13.466L42.3243 4.97401V13.484H50.8462C50.8447 13.4825 50.8432 13.4807 50.8418 13.4789ZM44.8088 1.798L53.6653 10.638C54.8274 11.798 55.4666 13.339 55.4666 14.978V57.862C55.4666 61.247 52.7075 64 49.3172 64H15.1084C11.7181 64 8.95996 61.247 8.95996 57.862V6.138C8.95996 2.753 11.7181 0 15.1084 0H40.4607C42.1037 0 43.6486 0.639 44.8088 1.798ZM20.264 24.667H44.1615C45.2676 24.667 46.1653 25.563 46.1653 26.667C46.1653 27.771 45.2676 28.667 44.1615 28.667H20.264C19.1579 28.667 18.2603 27.771 18.2603 26.667C18.2603 25.563 19.1579 24.667 20.264 24.667ZM44.1615 36.333H20.264C19.1579 36.333 18.2603 37.229 18.2603 38.333C18.2603 39.437 19.1579 40.333 20.264 40.333H44.1615C45.2676 40.333 46.1653 39.437 46.1653 38.333C46.1653 37.229 45.2676 36.333 44.1615 36.333ZM20.264 48H44.1615C45.2676 48 46.1653 48.896 46.1653 50C46.1653 51.104 45.2676 52 44.1615 52H20.264C19.1579 52 18.2603 51.104 18.2603 50C18.2603 48.896 19.1579 48 20.264 48Z" fill="#484848"/>
</svg>
