<svg width="64" height="60" viewBox="0 0 64 60" fill="none" xmlns="http://www.w3.org/2000/svg">
<path d="M58 0H6C2.7 0 0 2.7 0 6V38.9C0 42.2 2.7 44.9 6 44.9H30V55.9H17C15.9 55.9 15 56.8 15 57.9C15 59 15.9 59.9 17 59.9H47C48.1 59.9 49 59 49 57.9C49 56.8 48.1 55.9 47 55.9H34V44.9H58C61.3 44.9 64 42.2 64 38.9V6C64 2.7 61.3 0 58 0ZM60 38.9C60 40 59.1 40.9 58 40.9H6C4.9 40.9 4 40 4 38.9V6C4 4.9 4.9 4 6 4H58C59.1 4 60 4.9 60 6V38.9Z" fill="#484848"/>
<path d="M42 14.5C37.6 14.5 34 18.1 34 22.5C34 24 34.4 25.3 35.1 26.5H28.9C29.6 25.3 30 24 30 22.5C30 18.1 26.4 14.5 22 14.5C17.6 14.5 14 18.1 14 22.5C14 26.9 17.6 30.5 22 30.5H42C46.4 30.5 50 26.9 50 22.5C50 18.1 46.4 14.5 42 14.5ZM18 22.5C18 20.3 19.8 18.5 22 18.5C24.2 18.5 26 20.3 26 22.5C26 24.7 24.2 26.5 22 26.5C19.8 26.5 18 24.7 18 22.5ZM42 26.5C39.8 26.5 38 24.7 38 22.5C38 20.3 39.8 18.5 42 18.5C44.2 18.5 46 20.3 46 22.5C46 24.7 44.2 26.5 42 26.5Z" fill="#484848"/>
</svg>
