<svg width="64" height="64" viewBox="0 0 64 64" fill="none" xmlns="http://www.w3.org/2000/svg">
<path fill-rule="evenodd" clip-rule="evenodd" d="M44.9114 1.80282L53.7486 10.6166C54.9537 11.8185 55.5563 13.3208 55.4558 15.0235V57.8904C55.4558 61.1956 52.7444 64 49.33 64H15.0858C11.7718 64 8.95996 61.2958 8.95996 57.8904V6.10954C8.95996 2.80438 11.6714 0 15.0858 0H40.5932C42.2 0 43.7063 0.600942 44.9114 1.80282ZM42.4008 13.5211H50.9368L42.4008 5.00782V13.5211ZM15.0858 60.0939H49.4305C50.6355 60.0939 51.5393 59.0923 51.5393 57.9906V17.5274H40.3924C39.2877 17.5274 38.3839 16.626 38.3839 15.5243V4.00626H15.0858C13.9811 4.00626 12.9769 4.90767 12.9769 6.10954V57.9906C12.9769 59.0923 13.8807 60.0939 15.0858 60.0939ZM39.9452 34.2474C38.909 34.2474 38.0613 33.4064 38.0613 32.3784C38.0613 30.7898 36.3658 29.2946 34.1051 28.7339V36.3967C34.2464 36.4435 34.4112 36.4668 34.5761 36.4902C34.7409 36.5135 34.9058 36.5369 35.047 36.5836C36.8368 36.9574 38.4381 37.7985 39.6626 39.0133C42.3943 41.7233 42.4885 45.835 39.851 48.545C38.4381 50.0402 36.3658 50.9747 34.1051 51.3485V52.4699C34.1051 53.4978 33.2573 54.3389 32.2212 54.3389C31.185 54.3389 30.3373 53.4978 30.3373 52.4699V51.3485C25.9101 50.6009 22.6133 47.5171 22.6133 43.8726C22.6133 42.8447 23.4611 42.0036 24.4972 42.0036C25.5333 42.0036 26.3811 42.8447 26.3811 43.8726C26.3811 45.5547 28.0766 46.9564 30.3373 47.5171V39.8543C30.1018 39.8076 29.8899 39.7609 29.6779 39.7141C29.466 39.6674 29.254 39.6207 29.0186 39.574C27.2289 39.1067 25.7217 38.2657 24.5914 37.0509C22.1423 34.5278 22.0481 30.6964 24.3088 28.0798C25.7217 26.3977 27.8882 25.2763 30.3373 24.9025V23.7812C30.3373 22.7532 31.185 21.9122 32.2212 21.9122C33.2573 21.9122 34.1051 22.7532 34.1051 23.7812V24.9025C38.5323 25.6501 41.8291 28.7339 41.8291 32.3784C41.8291 33.4064 40.9813 34.2474 39.9452 34.2474ZM27.323 34.5278C27.9824 35.1819 28.9244 35.7426 30.0547 36.0229C30.1489 36.0229 30.2431 36.0229 30.2431 36.1164V28.8274C29.0186 29.1077 27.8882 29.7619 27.1347 30.6029C26.1927 31.7243 26.1927 33.4064 27.323 34.5278ZM37.0251 41.7233C36.3658 41.0692 35.3296 40.5085 34.1993 40.2281L34.1051 47.5171C35.3296 47.2368 36.3658 46.6761 37.1193 45.9285C38.3439 44.7137 38.2497 42.9381 37.0251 41.7233Z" fill="#484848"/>
</svg>
