<svg width="64" height="64" viewBox="0 0 64 64" fill="none" xmlns="http://www.w3.org/2000/svg">
<path fill-rule="evenodd" clip-rule="evenodd" d="M15.1084 60H49.3171C50.4983 60 51.4591 59.041 51.4591 57.862V17.484H40.3204C39.2143 17.484 38.3166 16.589 38.3166 15.484V4H15.1084C13.9282 4 12.9674 4.959 12.9674 6.138V57.862C12.9674 59.041 13.9282 60 15.1084 60ZM50.8462 13.484C50.8412 13.479 50.8372 13.472 50.8312 13.466L42.3243 4.97401V13.484H50.8462ZM44.8088 1.798L53.6653 10.638C54.8274 11.798 55.4666 13.339 55.4666 14.978V57.862C55.4666 61.247 52.7075 64 49.3172 64H15.1084C11.7181 64 8.95996 61.247 8.95996 57.862V6.138C8.95996 2.753 11.7181 0 15.1084 0H40.4607C42.1037 0 43.6486 0.639 44.8088 1.798ZM42.2327 40.8875C42.3399 40.9405 42.406 40.9665 42.4451 40.9795C42.6044 40.9775 42.7176 40.9685 42.7977 40.9585C42.6805 40.9335 42.5022 40.9075 42.2327 40.8875ZM32.3663 37.1795L31.6199 39.4195C32.3773 39.2005 33.1778 38.9915 34.0134 38.7935C33.7048 38.5215 33.4533 38.2905 33.3081 38.1445C32.9815 37.8185 32.6669 37.4975 32.3663 37.1795ZM31.0921 26.3145C30.9068 26.3145 30.473 26.3145 30.473 28.1585C30.473 28.5755 30.6092 29.2635 31.1743 30.3185C31.4288 29.4595 31.7123 28.4265 31.7123 28.0515C31.7123 26.3145 31.6181 26.3145 31.0921 26.3145ZM21.6563 47.6135C21.7785 47.6515 21.9388 47.6855 22.1272 47.6855C22.3947 47.6855 23.2773 47.1835 24.3684 46.0065C23.2272 46.5695 22.0661 47.1915 21.6563 47.6135ZM38.0639 37.9885C39.4295 37.7655 40.6638 37.6185 41.1777 37.6185C42.6695 37.6185 46.162 37.6185 46.162 40.7625C46.162 42.0505 45.6601 44.2105 42.2988 44.2105C41.9452 44.2105 40.8822 44.2105 37.2214 41.4265C35.5082 41.7525 32.5136 42.4025 30.0189 43.3605C27.7838 47.8225 24.5558 50.9225 22.1272 50.9225C20.2698 50.9225 18.264 49.7395 18.264 47.8265C18.264 45.3001 20.7415 44.129 24.4911 42.3567L24.4936 42.3555L24.6649 42.2744C25.4298 41.9124 26.1988 41.5483 27.0043 41.1445C27.2037 41.0455 27.4081 40.9495 27.6165 40.8545C27.912 40.1795 28.1875 39.4635 28.434 38.7245L28.7165 37.8775C29.1543 36.5645 29.5521 35.3715 29.9037 34.3025C28.1294 31.9515 27.2297 29.8845 27.2297 28.1585C27.2297 23.7375 29.6502 23.0775 31.0919 23.0775C33.8 23.0775 34.9551 24.5645 34.9551 28.0515C34.9551 28.9245 34.5945 30.3475 33.5335 33.6335C34.1546 34.3595 34.8489 35.1055 35.6003 35.8555C36.1714 36.4245 37.041 37.1775 38.0639 37.9885Z" fill="#484848"/>
</svg>
