<svg width="64" height="64" viewBox="0 0 64 64" fill="none" xmlns="http://www.w3.org/2000/svg">
<g clip-path="url(#clip0_944:131)">
<path d="M54 36.9C56.6 34.8 58.2 31.7 58.2 28.2C58.2 22 53.2 17 47 17C40.8 17 35.8 22 35.8 28.2C35.8 31.7 37.4 34.9 40 36.9C39.3 37.2 38.6 37.6 38 38C36.4 36.7 34.3 35.9 32 35.9C30.9 35.9 29.9 36.1 29 36.4C27.5 34.9 25.8 33.8 23.9 32.9C26.4 30.8 28 27.7 28 24.2C28 18 23 13 16.8 13C10.6 13 5.6 18 5.6 24.2C5.6 27.8 7.3 30.9 9.9 33C4.1 35.7 0 41.6 0 48.4V62C0 63.1 0.9 64 2 64H62C63.1 64 64 63.1 64 62V52.4C64 45.5 59.9 39.6 54 36.9ZM39.8 28.2C39.8 24.2 43 21 47 21C51 21 54.2 24.2 54.2 28.2C54.2 32.2 51 35.4 47 35.4C43 35.3 39.8 32.1 39.8 28.2ZM24.2 60C25.4 56.8 28.5 54.6 32 54.6C34.2 54.6 36.3 55.5 37.9 57C38.8 57.9 39.4 58.9 39.8 60H24.2ZM37.4 45.2C37.4 48.2 35 50.6 32 50.6C29 50.6 26.6 48.2 26.6 45.2C26.6 42.2 29 39.8 32 39.8C35 39.8 37.4 42.2 37.4 45.2ZM16.8 17C20.8 17 24 20.2 24 24.2C24 28.2 20.8 31.4 16.8 31.4C12.8 31.4 9.6 28.2 9.6 24.2C9.6 20.2 12.9 17 16.8 17ZM4 48.4C4 41.3 9.8 35.5 16.8 35.4H17C20.1 35.4 23.1 36.5 25.4 38.5C23.7 40.2 22.6 42.6 22.6 45.2C22.6 48 23.9 50.5 25.8 52.2C22.9 53.9 20.8 56.6 20 60H4V48.4ZM60 60H44C43.5 57.8 42.4 55.8 40.7 54.2C39.9 53.4 39.1 52.8 38.2 52.3C40.2 50.6 41.4 48.1 41.4 45.3C41.4 43.8 41.1 42.5 40.5 41.2C42.5 40 44.7 39.4 47 39.4C54.2 39.4 60 45.2 60 52.4V60Z" fill="#484848"/>
<path d="M32.6 17.6C33 18 33.5 18.2 34 18.2C34.5 18.2 35 18 35.4 17.6L41.5 11.5C44.9 8.10001 44.5 4.00001 42.2 1.80001C40.3 -0.0999893 37 -0.699989 33.9 1.40001C30.8 -0.699989 27.5 -0.0999893 25.6 1.80001C23.4 4.00001 23 8.00001 26.4 11.5L32.6 17.6ZM28.5 4.60001C28.9 4.20001 29.3 4.00001 29.9 4.00001C30.7 4.00001 31.6 4.40001 32.6 5.40001C33.4 6.20001 34.6 6.20001 35.4 5.40001C37.1 3.70001 38.6 3.80001 39.5 4.70001C40.3 5.50001 40.4 7.10001 38.8 8.80001L34 13.4L29.3 8.70001C27.6 7.00001 27.7 5.40001 28.5 4.60001Z" fill="#484848"/>
</g>
<defs>
<clipPath id="clip0_944:131">
<rect width="64" height="64" fill="white"/>
</clipPath>
</defs>
</svg>
