<svg width="64" height="64" viewBox="0 0 64 64" fill="none" xmlns="http://www.w3.org/2000/svg">
<path fill-rule="evenodd" clip-rule="evenodd" d="M4 32C4 16.561 16.561 4 32 4C47.439 4 60 16.561 60 32C60 47.439 47.439 60 32 60C16.561 60 4 47.439 4 32ZM0 32C0 49.645 14.355 64 32 64C49.645 64 64 49.645 64 32C64 14.355 49.645 0 32 0C14.355 0 0 14.355 0 32ZM39.5 26H47.5C48.604 26 49.5 25.104 49.5 24C49.5 22.896 48.604 22 47.5 22H43.654L47.063 17.728C47.752 16.864 47.61 15.606 46.747 14.917C45.886 14.229 44.627 14.37 43.937 15.233L37.937 22.753C37.457 23.354 37.364 24.175 37.698 24.867C38.031 25.56 38.731 26 39.5 26ZM24.5 26H16.5C15.396 26 14.5 25.104 14.5 24C14.5 22.896 15.396 22 16.5 22H20.346L16.937 17.728C16.248 16.864 16.39 15.606 17.253 14.917C18.116 14.229 19.373 14.37 20.063 15.233L26.063 22.753C26.543 23.354 26.636 24.175 26.302 24.867C25.969 25.56 25.269 26 24.5 26ZM44.8376 47.1807C44.9956 48.1657 45.8446 48.8667 46.8106 48.8667C46.9146 48.8667 47.0216 48.8587 47.1276 48.8427C48.2186 48.6687 48.9616 47.6427 48.7896 46.5527C47.4686 38.2607 40.4086 32.2417 31.9996 32.2417C23.5916 32.2417 16.5326 38.2607 15.2116 46.5527C15.0396 47.6427 15.7826 48.6687 16.8736 48.8427C17.9656 49.0117 18.9896 48.2717 19.1636 47.1807C20.1706 40.8427 25.5706 36.2417 31.9996 36.2417C38.4306 36.2417 43.8306 40.8427 44.8376 47.1807Z" fill="#484848"/>
</svg>
