<svg width="64" height="64" viewBox="0 0 64 64" fill="none" xmlns="http://www.w3.org/2000/svg">
<path fill-rule="evenodd" clip-rule="evenodd" d="M11 9.7C11 3.4 21.7972 0 32 0C42.1038 0 53 3.4 53 9.7V54.3C53 60.6 42.2028 64 32 64C21.7972 64 11 60.6 11 54.3V9.7ZM32 49.9C42.2028 49.9 49.0377 46.5 49.0377 44.2V25.8C44.9764 28.4 38.3396 29.7 32 29.7C25.6604 29.7 19.0236 28.3 14.9623 25.8V44.2C14.9623 46.5 21.5991 49.9 32 49.9ZM32 25.6C42.2028 25.6 49.0377 22.2 49.0377 19.9V15.5C44.9764 18.1 38.3396 19.4 32 19.4C25.6604 19.4 19.0236 18 14.9623 15.5V19.9C14.9623 22.3 21.5991 25.7 32 25.6ZM49.0377 9.7C49.0377 7.4 42.4009 4 32 4C21.5991 4 14.9623 7.4 14.9623 9.7C14.9623 12 21.5991 15.4 32 15.4C42.2028 15.4 49.0377 12 49.0377 9.7ZM14.9623 54.3C14.9623 56.6 21.5991 60 32 60C42.4009 60 49.0377 56.6 49.0377 54.3V50.1C44.9764 52.7 38.3396 54 32 54C25.6604 54 19.0236 52.6 14.9623 50.1V54.3ZM30.8111 9.80001C30.8111 12 28.3347 12.3 25.264 12C22.1932 11.7 19.8158 11 19.7168 9.80001C19.7168 8.60001 22.1932 7.90001 25.264 7.60001C28.3347 7.30001 30.8111 7.60001 30.8111 9.80001Z" fill="#484848"/>
</svg>
