<svg width="64" height="64" viewBox="0 0 64 64" fill="none" xmlns="http://www.w3.org/2000/svg">
<path d="M58 2H6C2.7 2 0 4.70451 0 8.01002V40.9649C0 44.2705 2.7 46.975 6 46.975H30V57.9933H17C15.9 57.9933 15 58.8948 15 59.9967C15 61.0985 15.9 62 17 62H47C48.1 62 49 61.0985 49 59.9967C49 58.8948 48.1 57.9933 47 57.9933H34V46.975H58C61.3 46.975 64 44.2705 64 40.9649V8.01002C64 4.70451 61.3 2 58 2ZM60 40.9649C60 42.0668 59.1 42.9683 58 42.9683H6C4.9 42.9683 4 42.0668 4 40.9649V8.01002C4 6.90818 4.9 6.00668 6 6.00668H58C59.1 6.00668 60 6.90818 60 8.01002V40.9649Z" fill="#484848"/>
<path d="M42.9 22.9349L27 13.7195C26.4 13.419 25.7 13.419 25.2 13.7195C24.7 14.02 24.3 14.621 24.3 15.3222V33.6528C24.3 34.3539 24.6 34.9549 25.2 35.2554C25.5 35.4558 25.8 35.4558 26.1 35.4558C26.4 35.4558 26.7 35.3556 27 35.2554L42.9 26.0401C43.5 25.7396 43.8 25.1386 43.8 24.4374C43.8 23.7362 43.4 23.2354 42.9 22.9349ZM27.9 30.5476V18.5275L38.3 24.5376L27.9 30.5476Z" fill="#484848"/>
</svg>
