<svg width="64" height="64" viewBox="0 0 64 64" fill="none" xmlns="http://www.w3.org/2000/svg">
<g clip-path="url(#clip0_1494:82)">
<path d="M63.7753 31.2096C63.5756 30.6124 57.5843 17.9707 41.108 16.378C39.6102 14.0886 35.1167 8.71333 26.2295 9.01195C25.5305 9.01195 24.8315 9.50966 24.5319 10.1069C24.4321 10.306 22.435 14.4867 22.9343 18.8665C20.2381 19.9615 17.9415 21.3551 16.0442 22.9477C13.2482 19.4638 9.05428 17.3734 4.56076 17.3734C3.66206 17.3734 1.26551 17.3734 0.366811 19.1652C-0.631748 20.9569 0.566523 22.8482 2.06436 24.9385C3.36249 26.9294 5.06004 29.5174 5.06004 32.006C5.06004 34.4945 3.36249 36.983 2.06436 39.0734C0.666379 41.1638 -0.531892 42.9555 0.466667 44.7473C1.26551 46.3399 3.16278 46.539 4.66062 46.539C9.15413 46.539 13.3481 44.5482 16.0442 40.9647C17.9415 42.6569 20.338 44.0505 23.0341 45.1454C22.5348 49.5252 24.5319 53.706 24.6318 53.905C24.9314 54.6018 25.6304 55 26.3294 55C26.5291 55 26.7288 55 26.9285 55C35.616 55 39.9098 49.6248 41.3077 47.4349C57.4844 45.8422 63.4758 33.4991 63.7753 32.9018C64.0749 32.4041 64.0749 31.8069 63.7753 31.2096ZM27.6275 12.9936C31.422 13.1927 34.1181 14.7853 35.7158 16.2785C32.6203 16.378 29.6246 16.8757 26.8286 17.5725C26.8286 15.7808 27.3279 14.0886 27.6275 12.9936ZM16.0442 37.0826C15.9443 37.0826 15.8445 37.0826 15.7446 37.0826C14.6462 37.1821 13.6476 37.6798 12.9487 38.5757C10.9515 41.1638 7.85601 42.5573 4.66062 42.5573H4.56076C4.86033 42.1592 5.1599 41.6615 5.35961 41.2633C6.9573 39.0734 9.05428 35.8881 9.05428 32.1055C9.05428 28.4225 6.9573 25.1376 5.35961 22.8482C5.06004 22.45 4.76047 21.8528 4.4609 21.4546H4.56076C7.85601 21.4546 10.8517 22.9477 12.8488 25.4363C13.5478 26.3321 14.5464 26.8298 15.6448 26.9294C16.7432 27.0289 17.7417 26.7303 18.5406 25.934C20.338 24.3413 22.8344 22.9477 25.6304 22.0519H25.7302C29.2252 20.8574 33.3193 20.1606 37.5132 20.1606C39.6102 20.1606 41.6073 20.3597 43.4047 20.7578C41.3077 24.1422 40.2093 28.0243 40.2093 32.006C40.2093 35.9876 41.3077 39.8697 43.4047 43.1546C41.6073 43.5528 39.71 43.7518 37.5132 43.8514C29.9242 43.9509 22.6347 41.761 18.5406 38.078C17.9415 37.4807 17.0428 37.0826 16.0442 37.0826ZM26.8286 46.539C29.6246 47.3353 32.7201 47.7335 35.8157 47.833C34.1181 49.3261 31.5219 51.0184 27.6275 51.2174C27.3279 50.1225 26.8286 48.3307 26.8286 46.539ZM47.4988 42.0596C45.5017 39.1729 44.4033 35.5895 44.4033 32.1055C44.4033 28.522 45.5017 24.9385 47.5987 21.9523C54.8881 24.7395 58.5828 30.0152 59.6812 32.006C58.483 34.0963 54.7883 39.2725 47.4988 42.0596Z" fill="#484848"/>
<path d="M50.9938 26.2326C49.8954 26.2326 48.9967 27.1285 48.9967 28.2234C48.9967 29.3184 49.8954 30.2142 50.9938 30.2142C52.0922 30.2142 52.9909 29.3184 52.9909 28.2234C52.9909 27.1285 52.0922 26.2326 50.9938 26.2326Z" fill="#484848"/>
</g>
<defs>
<clipPath id="clip0_1494:82">
<rect width="64" height="64" fill="white"/>
</clipPath>
</defs>
</svg>
