<svg width="64" height="64" viewBox="0 0 64 64" fill="none" xmlns="http://www.w3.org/2000/svg">
<path fill-rule="evenodd" clip-rule="evenodd" d="M58 11.7562H45.6V8.96593C45.6 5.67735 42.9 2.98669 39.6 2.98669H24.4C21.1 2.98669 18.4 5.67735 18.4 8.96593V11.7562H6C2.7 11.7562 0 14.4469 0 17.7355V54.6075C0 57.896 2.7 60.5867 6 60.5867H58C61.3 60.5867 64 57.896 64 54.6075V17.7355C64 14.4469 61.3 11.7562 58 11.7562ZM22.4 8.96593C22.4 7.86974 23.3 6.97285 24.4 6.97285H39.5C40.6 6.97285 41.5 7.86974 41.5 8.96593V11.7562H22.4V8.96593ZM60 54.6075C60 55.7036 59.1 56.6005 58 56.6005H6C4.9 56.6005 4 55.7036 4 54.6075V17.7355C4 16.6393 4.9 15.7424 6 15.7424H20.4H43.5H58C59.1 15.7424 60 16.6393 60 17.7355V54.6075ZM32 22.5189C24.4 22.5189 18.3 28.6974 18.3 36.1715C18.3 43.6455 24.4 49.8241 32 49.8241C39.6 49.8241 45.7 43.6455 45.7 36.1715C45.7 28.6974 39.6 22.5189 32 22.5189ZM32 45.8379C26.6 45.8379 22.3 41.4531 22.3 36.1715C22.3 30.8898 26.7 26.505 32 26.505C37.3 26.505 41.7 30.8898 41.7 36.1715C41.7 41.4531 37.4 45.8379 32 45.8379ZM34 34.1784H36C37.1 34.1784 38 35.0753 38 36.1715C38 37.2677 37.1 38.1646 36 38.1646H34V40.1576C34 41.2538 33.1 42.1507 32 42.1507C30.9 42.1507 30 41.2538 30 40.1576V38.1646H28C26.9 38.1646 26 37.2677 26 36.1715C26 35.0753 26.9 34.1784 28 34.1784H30V32.1853C30 31.0891 30.9 30.1922 32 30.1922C33.1 30.1922 34 31.0891 34 32.1853V34.1784Z" fill="#484848"/>
</svg>
