<svg width="64" height="64" viewBox="0 0 64 64" fill="none" xmlns="http://www.w3.org/2000/svg">
<path d="M32 0C14.4 0 0 14.4 0 32C0 49.6 14.4 64 32 64C49.6 64 64 49.6 64 32C64 14.4 49.6 0 32 0ZM32 60C16.6 60 4 47.4 4 32C4 16.6 16.6 4 32 4C47.4 4 60 16.6 60 32C60 47.4 47.4 60 32 60Z" fill="#484848"/>
<path d="M43 17.2C38.9 17.2 35.5 20.6 35.5 24.7C35.5 25.8 36.4 26.7 37.5 26.7C38.6 26.7 39.5 25.8 39.5 24.7C39.5 22.8 41.1 21.2 43 21.2C44.9 21.2 46.5 22.8 46.5 24.7C46.5 25.8 47.4 26.7 48.5 26.7C49.6 26.7 50.5 25.8 50.5 24.7C50.5 20.6 47.1 17.2 43 17.2Z" fill="#484848"/>
<path d="M17.5 24.8C17.5 22.9 19.1 21.3 21 21.3C22.9 21.3 24.5 22.9 24.5 24.8C24.5 25.9 25.4 26.8 26.5 26.8C27.6 26.8 28.5 25.9 28.5 24.8C28.5 20.7 25.1 17.3 21 17.3C16.9 17.3 13.5 20.7 13.5 24.8C13.5 25.9 14.4 26.8 15.5 26.8C16.6 26.8 17.5 25.9 17.5 24.8Z" fill="#484848"/>
<path d="M46.9 33.9H17.1C16 33.9 15.1 34.8 15.1 35.9C15.1 45.2 22.7 52.8 32 52.8C41.3 52.8 48.9 45.2 48.9 35.9C48.9 34.8 48.1 33.9 46.9 33.9ZM32 48.8C25.5 48.8 20.2 44 19.2 37.9H44.8C43.8 44.1 38.5 48.8 32 48.8Z" fill="#484848"/>
</svg>
