<svg width="64" height="64" viewBox="0 0 64 64" fill="none" xmlns="http://www.w3.org/2000/svg">
<path fill-rule="evenodd" clip-rule="evenodd" d="M49.3171 60H15.1084C13.9282 60 12.9674 59.041 12.9674 57.862V6.138C12.9674 4.959 13.9282 4 15.1084 4H38.3176V15.484C38.3176 16.589 39.2143 17.484 40.3214 17.484H51.4591V57.862C51.4591 59.041 50.4983 60 49.3171 60ZM50.832 13.466C50.8348 13.4687 50.8369 13.4717 50.8389 13.4745C50.8414 13.478 50.8438 13.4813 50.8471 13.484H42.3252V4.975L50.832 13.466ZM53.6653 10.638L44.8098 1.799C43.6496 0.639 42.1047 0 40.4607 0H15.1084C11.7181 0 8.95996 2.753 8.95996 6.138V57.862C8.95996 61.247 11.7181 64 15.1084 64H49.3172C52.7085 64 55.4666 61.247 55.4666 57.862V14.978C55.4666 13.338 54.8264 11.797 53.6653 10.638ZM36.7214 48.3516H34.2168V29.8866C34.2168 28.7826 33.3191 27.8866 32.213 27.8866H28.9159C27.8088 27.8866 26.9121 28.7826 26.9121 29.8866C26.9121 30.9916 27.8088 31.8866 28.9159 31.8866H30.2093V48.3516H27.7046C26.5986 48.3516 25.7009 49.2476 25.7009 50.3516C25.7009 51.4556 26.5986 52.3516 27.7046 52.3516H32.203C32.2045 52.3516 32.2063 52.3519 32.208 52.3521L32.2081 52.3521C32.2098 52.3524 32.2115 52.3526 32.213 52.3526C32.2145 52.3526 32.2162 52.3524 32.2179 52.3521L32.218 52.3521L32.2181 52.3521C32.2198 52.3519 32.2216 52.3516 32.223 52.3516H36.7214C37.8275 52.3516 38.7252 51.4556 38.7252 50.3516C38.7252 49.2476 37.8275 48.3516 36.7214 48.3516ZM33.215 22.6484C33.215 23.7524 32.3173 24.6484 31.2112 24.6484C30.1052 24.6484 29.2075 23.7524 29.2075 22.6484C29.2075 21.5444 30.1052 20.6484 31.2112 20.6484C32.3173 20.6484 33.215 21.5444 33.215 22.6484Z" fill="#484848"/>
</svg>
