<svg width="64" height="64" viewBox="0 0 64 64" fill="none" xmlns="http://www.w3.org/2000/svg">
<path fill-rule="evenodd" clip-rule="evenodd" d="M15.1084 60H49.3171C50.4983 60 51.4591 59.041 51.4591 57.862V17.484H40.3214C39.2143 17.484 38.3176 16.589 38.3176 15.484V4H15.1084C13.9282 4 12.9674 4.959 12.9674 6.138V57.862C12.9674 59.041 13.9282 60 15.1084 60ZM50.8389 13.4745C50.8369 13.4717 50.8348 13.4687 50.832 13.466L42.3252 4.975V13.484H50.8471C50.8438 13.4813 50.8414 13.478 50.8389 13.4745ZM44.8088 1.798L53.6653 10.638C54.8264 11.797 55.4666 13.338 55.4666 14.978V57.862C55.4666 61.247 52.7085 64 49.3172 64H15.1084C11.7181 64 8.95996 61.247 8.95996 57.862V6.138C8.95996 2.753 11.7181 0 15.1084 0H40.4607C42.1037 0 43.6476 0.639 44.8088 1.798ZM26.5426 30.4641V43.5361L37.8837 37.0001L26.5426 30.4641ZM25.5406 25.2671L42.8929 35.2671C43.5131 35.6251 43.8948 36.2851 43.8948 37.0001C43.8948 37.7151 43.5131 38.3751 42.8929 38.7321L25.5406 48.7321C25.23 48.9111 24.8853 49.0001 24.5387 49.0001C24.192 49.0001 23.8474 48.9111 23.5368 48.7321C22.9167 48.3751 22.535 47.7151 22.535 47.0001V27.0001C22.535 26.2851 22.9167 25.6251 23.5368 25.2671C24.157 24.9101 24.9204 24.9101 25.5406 25.2671Z" fill="#484848"/>
</svg>
