<svg width="64" height="64" viewBox="0 0 64 64" fill="none" xmlns="http://www.w3.org/2000/svg">
<path fill-rule="evenodd" clip-rule="evenodd" d="M15.1084 60H49.3171C50.4983 60 51.4591 59.041 51.4591 57.862V17.484H40.3214C39.2143 17.484 38.3176 16.589 38.3176 15.484V4H15.1084C13.9282 4 12.9674 4.959 12.9674 6.138V57.862C12.9674 59.041 13.9282 60 15.1084 60ZM50.8389 13.4745C50.8369 13.4717 50.8348 13.4687 50.832 13.466L42.3252 4.975V13.484H50.8471C50.8438 13.4813 50.8414 13.478 50.8389 13.4745ZM44.8088 1.798L53.6653 10.638C54.8264 11.797 55.4666 13.338 55.4666 14.978V57.862C55.4666 61.247 52.7085 64 49.3172 64H15.1084C11.7181 64 8.95996 61.247 8.95996 57.862V6.138C8.95996 2.753 11.7181 0 15.1084 0H40.4607C42.1037 0 43.6476 0.639 44.8088 1.798ZM40.4654 42.468H23.9617V31.676H40.4654V42.468ZM21.9578 27.676H42.469C43.5751 27.676 44.4728 28.571 44.4728 29.676V44.468C44.4728 45.572 43.5751 46.468 42.469 46.468H39.3863L40.5475 51.328C40.8029 52.403 40.1387 53.481 39.0627 53.737C38.9064 53.774 38.7501 53.792 38.5958 53.792C37.6901 53.792 36.8686 53.174 36.6492 52.256L35.2676 46.468H29.1592L27.7777 52.256C27.5593 53.174 26.7367 53.792 25.831 53.792C25.6768 53.792 25.5215 53.774 25.3642 53.737C24.2882 53.481 23.6239 52.403 23.8804 51.328L25.0406 46.468H21.9578C20.8508 46.468 19.9541 45.572 19.9541 44.468V29.676C19.9541 28.571 20.8508 27.676 21.9578 27.676Z" fill="#484848"/>
</svg>
