<svg width="64" height="64" viewBox="0 0 64 64" fill="none" xmlns="http://www.w3.org/2000/svg">
<path fill-rule="evenodd" clip-rule="evenodd" d="M37.2186 53.8457C39.6936 56.6751 43.2216 58.3023 46.9996 58.3023C54.1676 58.3023 59.9995 52.4839 59.9995 45.3328C59.9995 38.1816 54.1676 32.3632 46.9996 32.3632H41.7556H22.2497H16.9997C9.83172 32.3632 3.99975 38.1816 3.99975 45.3328C3.99975 52.4839 9.83172 58.3023 16.9997 58.3023C20.9557 58.3023 24.6487 56.5394 27.1337 53.4676C27.5137 52.9987 28.0857 52.7254 28.6897 52.7254H35.3196H35.4296C36.2176 52.7254 36.8936 53.1843 37.2186 53.8457ZM25.2763 24.9377C24.7103 24.9377 24.2503 25.3966 24.2503 25.9613V28.3726H39.7563V25.9613C39.7563 25.3966 39.2963 24.9377 38.7293 24.9377H25.2763ZM43.7558 28.3726H46.9998C56.3738 28.3726 63.9998 35.9807 63.9998 45.3327C63.9998 54.6847 56.3738 62.2928 46.9998 62.2928C42.1618 62.2928 37.6229 60.2726 34.3989 56.7159H29.6109C26.3869 60.2726 21.8439 62.2928 16.9999 62.2928C7.62597 62.2928 0 54.6847 0 45.3327C0 35.9807 7.62597 28.3726 16.9999 28.3726H20.2499V25.9613C20.2499 23.1968 22.5049 20.947 25.2759 20.947H28.4189C28.9799 19.6591 30.0039 18.836 30.7679 18.2384C31.7549 17.4652 32.0029 17.2009 32.0029 16.6741C32.0029 16.1453 31.7549 15.881 30.7669 15.1058C29.6659 14.2428 28.0029 12.9389 28.0029 10.4008C28.0029 7.86281 29.6659 6.55988 30.7679 5.69691C31.7549 4.92173 32.0029 4.65735 32.0029 4.12859C32.0029 3.02718 32.8979 2.13328 34.0029 2.13328C35.1069 2.13328 36.0029 3.02718 36.0029 4.12859C36.0029 6.66663 34.3399 7.97056 33.2379 8.83353C32.2509 9.60771 32.0029 9.87309 32.0029 10.4008C32.0029 10.9296 32.2509 11.194 33.2379 11.9692C34.3399 12.8321 36.0029 14.1361 36.0029 16.6741C36.0029 18.827 34.8069 20.0851 33.7709 20.947H38.7289C41.5008 20.947 43.7558 23.1968 43.7558 25.9613V28.3726ZM18.7582 42.8347H22.4901C23.5941 42.8347 24.4901 43.7286 24.4901 44.83C24.4901 45.9314 23.5941 46.8253 22.4901 46.8253H18.7582V50.5496C18.7582 51.652 17.8622 52.5449 16.7582 52.5449C15.6532 52.5449 14.7582 51.652 14.7582 50.5496V46.8253H11.0242C9.92019 46.8253 9.02419 45.9314 9.02419 44.83C9.02419 43.7286 9.92019 42.8347 11.0242 42.8347H14.7582V39.1114C14.7582 38.009 15.6532 37.1161 16.7582 37.1161C17.8622 37.1161 18.7582 38.009 18.7582 39.1114V42.8347ZM46.5026 42.066C48.1596 42.066 49.5026 40.7261 49.5026 39.073C49.5026 37.4199 48.1596 36.08 46.5026 36.08C44.8456 36.08 43.5026 37.4199 43.5026 39.073C43.5026 40.7261 44.8456 42.066 46.5026 42.066ZM43.5026 50.5197C43.5026 48.8676 44.8456 47.5267 46.5026 47.5267C48.1596 47.5267 49.5026 48.8676 49.5026 50.5197C49.5026 52.1728 48.1596 53.5127 46.5026 53.5127C44.8456 53.5127 43.5026 52.1728 43.5026 50.5197ZM40.7555 41.837C39.0985 41.837 37.7555 43.1778 37.7555 44.83C37.7555 46.4831 39.0985 47.8229 40.7555 47.8229C42.4115 47.8229 43.7555 46.4831 43.7555 44.83C43.7555 43.1778 42.4115 41.837 40.7555 41.837ZM49.2129 44.83C49.2129 43.1778 50.5559 41.837 52.2128 41.837C53.8698 41.837 55.2128 43.1778 55.2128 44.83C55.2128 46.4831 53.8698 47.8229 52.2128 47.8229C50.5559 47.8229 49.2129 46.4831 49.2129 44.83Z" fill="#484848"/>
</svg>
