<svg width="64" height="64" viewBox="0 0 64 64" fill="none" xmlns="http://www.w3.org/2000/svg">
<path d="M32 0C14.4 0 0 14.4 0 32C0 49.6 14.4 64 32 64C49.6 64 64 49.6 64 32C64 14.4 49.6 0 32 0ZM40.2 5.2C39.6 6.2 39.4 7.4 39.8 8.9C40.1 10.2 41 11.5 41.8 12.9C42.5 14.1 44.3 16.9 43.7 17.5C42.9 18.3 41.3 18.3 39.5 18.4C37.6 18.4 35.4 18.5 33.4 19.5C31.7 20.4 30.5 21.5 29.6 22.5C29.2 22.9 28.7 23.4 28.4 23.6C28.3 23.5 28.1 23.4 27.8 23.2C25.8 22 21 19.1 18.7 22.5C17.6 24.1 17 26.2 16.9 28C16.4 27.8 15.9 27.6 15.4 27.5L14.8 27.4C13.8 27.2 11.6 26.6 11.3 25.9C11.2 25.7 11.3 25.1 11.9 24.3C12.3 23.7 12.7 23.1 13.1 22.5C15.4 19.1 17.8 15.5 16.2 12.8C15.7 11.8 14.8 11.3 13.8 10.9C18.8 6.5 25.1 4 32 4C34.8 4 37.6 4.4 40.2 5.2ZM4 32C4 25.3 6.4 19.1 10.4 14.2C10.5 14.2 10.5 14.2 10.6 14.2C12.3 14.2 12.8 14.5 12.8 14.5C13 15.4 10.9 18.6 9.9 20.1C9.4 20.7 9 21.4 8.6 22C7.4 23.9 7.1 25.7 7.7 27.2C8.7 29.8 11.8 30.6 13.9 31.1L14.4 31.2C16.8 31.8 22.7 35.1 23.6 36.2C23.7 36.4 23.7 36.9 23.8 37.3C24 39.2 24.3 42.3 28 44C30.4 45.1 30.6 50 30.8 52.8V53.6C30.8 53.7 30.8 54.9 30.9 56.2C30.9 57.5 31 58.9 31 58.9C31 59.2 31.1 59.5 31.2 59.8C16.1 59.5 4 47.2 4 32ZM36.9 57.5C36.8 58.1 36.8 58.5 36.6 58.9C36.4 59.5 35.8 59.5 35.6 59.5C35 59.3 35 58.9 35 58.9C35 58.8 35 57.5 34.9 56.3C34.9 55 34.8 53.7 34.8 53.6V52.8C34.6 49 34.4 42.7 29.7 40.5C28.1 39.8 27.9 38.7 27.8 37C27.7 36.5 27.7 35.9 27.6 35.4C28.4 35.3 29.2 35 29.9 34.6C31.3 33.9 32.5 33.2 33.4 32.6C33.9 32.3 34.6 31.9 35 31.6C35.2 31.9 35.3 32.2 35.5 32.6C36.6 35 38.2 38.2 41.1 39.1C42.2 39.4 43.5 39.4 44.6 39.4C45.2 39.4 46.1 39.4 46.6 39.5C46.6 39.6 46.6 39.7 46.6 39.8C46.3 42 43.1 46 41.2 48.4C40.2 49.7 39.4 50.7 38.9 51.5C37.3 54.3 37.1 56.1 36.9 57.5ZM40.8 58.6C40.8 58.4 40.9 58.2 40.9 58C41 56.9 41.2 55.7 42.4 53.6C42.7 53.1 43.5 52.1 44.3 51C47.5 47 50.2 43.5 50.5 40.4C50.7 39 50.4 37.8 49.6 36.9C48.3 35.5 46.3 35.5 44.5 35.5C43.6 35.5 42.7 35.5 42.2 35.4C41 35 39.9 32.6 39.1 31C38.8 30.3 38.5 29.7 38.1 29.1C37.5 28.1 36.7 27.7 36.1 27.6C34.5 27.2 33.1 28.1 31.2 29.3C30.3 29.9 29.2 30.5 28 31.2C26.2 32.1 24 31.5 22.5 30.8C22.3 30.7 22 30.5 21.8 30.4C21.3 30.1 21 29.8 20.9 29.6C20.7 29 21 26.6 22 24.9C22.5 24.9 23.5 25.3 25.8 26.6C26.3 26.9 26.6 27.1 26.9 27.2C29.5 28.3 31.2 26.6 32.5 25.3C33.3 24.5 34.1 23.7 35.3 23.1C36.5 22.5 38 22.5 39.6 22.4C42 22.4 44.6 22.3 46.5 20.4C49.3 17.6 46.9 13.7 45.1 10.9C44.4 9.8 43.7 8.6 43.5 8C43.4 7.5 43.6 7.1 44 6.9C53.5 11.3 60 20.9 60 32C60 44.4 51.9 54.9 40.8 58.6Z" fill="#484848"/>
</svg>
