<svg width="64" height="64" viewBox="0 0 64 64" fill="none" xmlns="http://www.w3.org/2000/svg">
<g clip-path="url(#clip0_286:15)">
<path fill-rule="evenodd" clip-rule="evenodd" d="M62.713 40.8906C62.8117 38.6191 61.825 36.8415 61.0357 35.6564L61.0358 35.6563C61.3317 35.1626 61.6277 34.6688 61.8251 34.0762C63.305 30.0271 61.3317 25.7805 60.4437 24.1017C60.6411 22.5215 60.7397 18.67 58.5691 15.9047C57.4838 14.5221 56.0039 13.5345 54.1292 13.1395C54.4252 10.868 54.0306 7.9053 51.0706 5.63386C50.084 4.84379 48.9 4.35 47.7161 4.25124C44.2628 1.38725 41.1056 -0.0941229 38.2443 0.00463534C35.1857 0.103394 32.6204 2.57235 32.3244 5.5351C26.6019 1.28849 20.1887 -0.192881 14.3676 1.38725C8.44771 3.06614 3.90915 7.51026 2.33052 13.4358C0.35724 20.6451 3.11984 28.6445 9.829 35.3601L33.5084 59.0621C34.5937 60.8397 36.4683 62.5186 39.6256 63.5062C40.8096 63.9012 41.7962 64 42.8815 64C47.1241 64 50.084 61.2348 51.4653 59.0621C57.8785 57.0869 59.0625 51.6552 58.7665 48.0999C61.3317 45.9272 62.6144 43.4583 62.713 40.8906ZM6.17843 14.4233C7.3624 9.88046 10.8156 6.42392 15.3542 5.23882C20.7807 3.75745 26.7992 5.73262 32.2258 10.5718V52.149L12.6903 32.5949C6.96774 26.8669 4.5998 20.2501 6.17843 14.4233ZM55.4119 45.7297C54.8199 46.2235 54.5239 47.0136 54.6226 47.7049L54.6248 47.7184C54.735 48.378 55.664 53.938 49.5907 55.5068C48.9987 55.6055 48.604 56.0006 48.3081 56.4944L48.2821 56.538C47.8928 57.1958 45.5239 61.1979 40.8096 59.7534C36.0807 58.2387 36.1568 54.9999 36.1712 54.3862V54.3861C36.1718 54.3596 36.1724 54.338 36.1724 54.3217V54.0254V18.1762C36.567 17.6824 37.3563 17.2873 38.343 17.7811C39.3296 18.2749 40.5136 17.8799 41.0069 16.8923C41.5002 15.9047 41.1056 14.7196 40.1189 14.2258C38.639 13.5345 37.3563 13.4358 36.1724 13.732V8.99164V6.32516C36.1724 5.04131 37.159 4.05372 38.343 3.95497C39.3296 3.95497 40.8096 4.25124 42.9802 5.63386C41.329 6.70814 40.1614 8.12817 39.7086 8.67887C39.6203 8.78629 39.5591 8.86064 39.5269 8.89288C38.9349 9.7817 39.0336 10.9668 39.9216 11.6581C40.8096 12.3494 41.9935 12.1519 42.6842 11.2631C43.1775 10.5718 45.1508 8.49785 46.8281 8.20157C47.5187 8.10281 48.0121 8.30033 48.604 8.69536C50.2813 10.078 50.2813 11.7569 50.084 12.8432C45.3481 13.2382 42.3882 16.4973 41.9935 21.7315C41.8949 22.8178 42.6842 23.8054 43.7695 23.8054C44.8548 23.9041 45.8414 23.1141 45.8414 22.0277C46.2237 16.6715 49.845 16.688 51.238 16.6944C51.2685 16.6945 51.298 16.6947 51.3263 16.6947C51.34 16.6948 51.3535 16.6948 51.3666 16.6948C53.2413 16.7935 54.5239 17.2873 55.3132 18.3737C56.6945 20.1513 56.4972 23.1141 56.2999 24.1017C56.2012 24.5954 56.2999 25.188 56.5958 25.583C56.5958 25.583 59.1611 29.5334 57.9771 32.6936C57.3852 34.4713 55.6092 35.8539 52.8466 36.644C51.7613 36.9402 51.268 38.1253 51.564 39.1129C51.86 40.0017 52.6493 40.4955 53.4386 40.4955C53.6359 40.4955 53.8332 40.4955 54.0306 40.3968C55.6092 39.903 56.9905 39.2117 58.1745 38.4216C58.4705 39.0142 58.7665 39.8042 58.7665 40.5943C58.7665 42.3719 57.5825 44.0508 55.4119 45.7297ZM49.4917 46.5198C49.0971 46.5198 48.8011 46.5198 48.4064 46.6185C48.0117 43.557 46.4331 39.8042 41.6972 38.5204C40.6119 38.2241 39.5266 38.8166 39.2306 39.903C38.9346 40.9893 39.5266 42.0757 40.6119 42.3719C44.0652 43.2608 44.5585 46.421 44.5585 47.9024C42.1906 49.285 40.6119 51.754 40.3159 54.9142C40.2173 56.0006 41.0066 56.9882 42.0919 57.0869H42.2892C43.2759 57.0869 44.1638 56.2969 44.2625 55.3093C44.5585 52.2478 46.4331 50.6676 49.689 50.4701C50.7743 50.4701 51.6623 49.4825 51.5637 48.3962C51.465 47.3099 50.4784 46.5198 49.4917 46.5198ZM46.631 37.6315C46.335 37.6315 45.9403 37.5328 45.6444 37.3353C44.0657 36.3477 43.0791 34.8663 42.4871 33.2862C41.2045 32.8911 39.8232 32.2986 38.3432 31.4098C37.4552 30.8172 37.1592 29.5334 37.7512 28.6445C38.3432 27.7557 39.6258 27.4594 40.5138 28.052C42.6844 29.4346 44.5591 29.8296 45.9403 29.3358C47.815 28.6445 48.9003 26.2743 49.2949 24.8917C49.5909 23.8054 50.6762 23.3116 51.7615 23.6079C52.8468 23.9041 53.3402 24.9905 53.0442 26.0768C52.2549 28.5458 50.5776 31.8048 47.3217 32.9899C47.2808 32.9899 47.223 33.0069 47.1553 33.0267C47.0595 33.0548 46.9439 33.0887 46.8283 33.0887C47.0257 33.4837 47.223 33.78 47.6176 33.9775C48.6043 34.4713 48.9003 35.6564 48.3083 36.644C47.9136 37.3353 47.3217 37.6315 46.631 37.6315Z" fill="#484848"/>
</g>
<defs>
<clipPath id="clip0_286:15">
<rect width="64" height="64" fill="white"/>
</clipPath>
</defs>
</svg>
