<svg width="64" height="64" viewBox="0 0 64 64" fill="none" xmlns="http://www.w3.org/2000/svg">
<g clip-path="url(#clip0_937:4)">
<path d="M63.0788 42.3735C61.4793 39.4699 57.8806 38.1683 54.6816 39.3698L43.3854 43.2746C42.3858 41.5725 40.6863 40.4712 38.587 40.4712H32.9889C32.689 40.4712 32.3891 40.371 32.0892 40.2709L25.3915 36.5664C24.1919 35.8655 22.6924 35.465 21.2928 35.465H11.4961C11.0963 32.4613 8.39718 30.0584 5.29822 30.0584H1.99933C0.899698 30.0584 0 30.9595 0 32.0608V57.9926C0 59.094 0.899698 59.9951 1.99933 59.9951H5.29822C7.59745 59.9951 9.69674 58.6935 10.6964 56.7912C11.4961 56.9914 12.1959 57.1917 12.5958 57.492L18.8937 61.1966C21.5927 62.7985 24.5917 63.7998 27.4908 64C27.8906 64 28.1905 64 28.5904 64C31.1895 64 33.6887 63.4994 36.0879 62.398L59.68 52.0854C61.4793 51.3845 62.8789 49.8827 63.5786 48.0805C64.2784 46.2783 64.0785 44.1757 63.0788 42.3735ZM7.59745 53.7875C7.59745 55.0891 6.59778 56.0903 5.29822 56.0903H3.99866V34.0633H5.29822C6.59778 34.0633 7.59745 35.0645 7.59745 36.3661V53.7875ZM59.7799 46.7789C59.48 47.5799 58.8802 48.1806 58.0805 48.481L34.4884 58.7936C32.3891 59.7948 30.0899 60.1953 27.7907 59.9951C25.5914 59.895 23.1922 59.094 20.9929 57.7924L14.795 54.0878C13.7954 53.4871 12.5958 53.1867 11.5961 52.8864V39.4699H21.2928C21.9926 39.4699 22.7923 39.6702 23.3921 40.0707L30.0899 43.7752C30.9896 44.2758 31.8893 44.4761 32.889 44.4761H38.587C39.3868 44.4761 40.0865 45.1769 40.0865 45.9779C40.0865 46.7789 39.3868 47.4797 38.587 47.4797H28.2905C27.1909 47.4797 26.2912 48.3809 26.2912 49.4822C26.2912 50.5836 27.1909 51.4847 28.2905 51.4847H38.587C41.1862 51.4847 43.3854 49.6824 43.9852 47.2795H44.0852L56.0812 43.1745C57.4807 42.6739 58.9802 43.1745 59.68 44.3759C59.9799 45.0768 60.0798 45.9779 59.7799 46.7789Z" fill="#484848"/>
<path d="M28.5904 22.0486L42.3858 35.5651C42.7856 35.9656 43.2855 36.1659 43.7853 36.1659C44.2851 36.1659 44.785 35.9656 45.1848 35.5651L58.9802 22.0486C62.0791 19.0449 63.7786 15.6407 63.9785 12.0363C64.1784 8.73224 62.9788 5.62844 60.5796 3.32562C58.2804 1.02279 55.0815 -0.0785571 51.7826 0.0215656C49.0835 0.121688 46.3844 1.12292 43.8853 3.02525C41.3861 1.22304 38.687 0.121688 35.8879 0.0215656C32.4891 -0.17868 29.3901 1.02279 26.9909 3.32562C24.5917 5.62844 23.4921 8.73224 23.5921 12.0363C23.792 15.6407 25.4914 19.0449 28.5904 22.0486ZM29.69 6.12905C31.1895 4.82746 33.0889 4.02648 35.1882 4.02648C35.3881 4.02648 35.4881 4.02648 35.688 4.02648C37.9872 4.1266 40.3864 5.22795 42.5857 7.13028C43.3854 7.83114 44.4851 7.83114 45.1848 7.13028C47.2841 5.22795 49.6833 4.22672 51.9825 4.1266C54.2818 4.02648 56.2811 4.82746 57.8806 6.3293C59.3801 7.83114 60.1798 9.83359 60.0798 12.0363C59.9799 14.5394 58.6803 17.0424 56.2811 19.3453L43.7853 31.36L31.3895 19.2451C28.9903 16.9423 27.6907 14.3391 27.5907 11.8361C27.4908 9.63335 28.1905 7.63089 29.69 6.12905Z" fill="#484848"/>
</g>
<defs>
<clipPath id="clip0_937:4">
<rect width="64" height="64" fill="white"/>
</clipPath>
</defs>
</svg>
