<svg width="64" height="64" viewBox="0 0 64 64" fill="none" xmlns="http://www.w3.org/2000/svg">
<path fill-rule="evenodd" clip-rule="evenodd" d="M63.3 27.3328C63.8 28.1296 64 29.026 64 30.022V39.9823C64 42.074 63 44.066 61.2 45.3609C60 46.2573 58.7 46.6557 57.3 46.6557C56.6 46.6557 55.9 46.4565 55.2 46.2573L46.3 43.2692C45.6 43.07 45.1 42.4724 45 41.7752C44.8 41.0779 45.1 40.3807 45.6 39.8827L53.5 32.7113L53.2 32.1137L47.1 20.0618L37.8 38.8867C37.75 38.9863 37.675 39.061 37.6 39.1357C37.525 39.2104 37.45 39.2851 37.4 39.3847C37.1 39.7831 36.5 39.9823 36 39.9823H34V42.7712H39.3C44.7 42.7712 49.1 47.1537 49.1 52.5322C49.1 57.9108 44.7 62.2933 39.3 62.2933H9.8C4.4 62.2933 0 57.9108 0 52.5322C0 47.1537 4.4 42.7712 9.8 42.7712H11.6V39.9823H2C0.9 39.9823 0 39.0859 0 37.9903V25.9383C0 24.8427 0.9 23.9463 2 23.9463H6.5V20.5598C6.5 19.4642 7.4 18.5677 8.5 18.5677C9.6 18.5677 10.5 19.4642 10.5 20.5598V23.9463H15V11.3963C15 10.3007 15.9 9.40429 17 9.40429H31.9C32.8 9.40429 33.5 10.0019 33.8 10.7987L36 17.4721L41.8 5.61939C42.7 3.52774 44.7 2.1333 47 2.1333C49.2 2.1333 51.1 3.42814 52 5.22098L63.3 27.3328ZM58.4 28.4284C57.5 28.4284 56.8 29.1256 56.8 30.022C56.8 30.9185 57.5 31.6157 58.4 31.6157C59.3 31.6157 60 30.9185 60 30.022C60 29.1256 59.3 28.4284 58.4 28.4284ZM50.8 11.7948C50 12.492 49.1 12.99 48 13.1892L54.6 26.0379C55.4 25.3407 56.3 24.8427 57.4 24.6435L50.8 11.7948ZM48.6 7.71105C48.6 6.81463 47.9 6.11741 47 6.11741C46.1 6.11741 45.4 6.81463 45.4 7.71105C45.4 8.60747 46.1 9.30469 47 9.30469C47.9 9.30469 48.6 8.60747 48.6 7.71105ZM33.8 28.3288L33.7 23.0499L30.5 13.3884H27V26.5359L33.8 28.3288ZM23 13.3884H19V25.8387V35.8986H32H34L33.9 32.5121L24.5 29.9224C23.6 29.7232 23 28.9264 23 28.03V13.3884ZM15 27.8308H4V35.9982H13.6H15V27.8308ZM39.2 58.2096C42.4 58.2096 45 55.6199 45 52.4326C45 49.345 42.4 46.7553 39.2 46.6557H32H13.6H9.8C6.6 46.6557 4 49.2454 4 52.4326C4 55.6199 6.6 58.2096 9.8 58.2096H39.2ZM15.6 42.7712H30V39.9823H17H15.6V42.7712ZM37.7 23.2491L37.8 29.8228L44.9 15.7789L43.1 12.2928L37.7 23.2491ZM56.5 42.4724C57.3 42.6716 58.2 42.572 58.9 42.074C59.6 41.576 60 40.7791 60 39.9823V35.4006C59.5 35.5002 58.9 35.5998 58.4 35.5998C57.8 35.5998 57.2 35.5002 56.7 35.301L50.9 40.5799L56.5 42.4724ZM15 52.4326C15 53.5328 14.1046 54.4247 13 54.4247C11.8954 54.4247 11 53.5328 11 52.4326C11 51.3325 11.8954 50.4406 13 50.4406C14.1046 50.4406 15 51.3325 15 52.4326ZM36 54.4247C37.1046 54.4247 38 53.5328 38 52.4326C38 51.3325 37.1046 50.4406 36 50.4406C34.8954 50.4406 34 51.3325 34 52.4326C34 53.5328 34.8954 54.4247 36 54.4247ZM26.5 52.4326C26.5 53.5328 25.6046 54.4247 24.5 54.4247C23.3954 54.4247 22.5 53.5328 22.5 52.4326C22.5 51.3325 23.3954 50.4406 24.5 50.4406C25.6046 50.4406 26.5 51.3325 26.5 52.4326Z" fill="#484848"/>
</svg>
