<svg width="64" height="64" viewBox="0 0 64 64" fill="none" xmlns="http://www.w3.org/2000/svg">
<path fill-rule="evenodd" clip-rule="evenodd" d="M62 49.7649C63.104 49.7649 64 50.6598 64 51.7624C64 52.8651 63.104 53.76 62 53.76H2C0.896 53.76 0 52.8651 0 51.7624C0 50.6598 0.896 49.7649 2 49.7649H62ZM62 29.7891C63.104 29.7891 64 30.684 64 31.7867C64 32.8894 63.104 33.7843 62 33.7843H2C0.896 33.7843 0 32.8894 0 31.7867C0 30.684 0.896 29.7891 2 29.7891H62ZM62 9.81335C63.104 9.81335 64 10.7083 64 11.8109C64 12.9136 63.104 13.8085 62 13.8085H2C0.896 13.8085 0 12.9136 0 11.8109C0 10.7083 0.896 9.81335 2 9.81335H62Z" fill="#484848"/>
</svg>
