<svg width="64" height="64" viewBox="0 0 64 64" fill="none" xmlns="http://www.w3.org/2000/svg">
<path fill-rule="evenodd" clip-rule="evenodd" d="M59.0838 8.43096C55.6858 5.04304 51.1019 3.3102 46.1689 3.55049C41.2829 3.79077 36.438 5.95832 32.059 9.84575C27.6381 5.91345 22.7571 3.70702 17.8462 3.44181C12.8902 3.16663 8.28524 4.89349 4.88427 8.2844C1.4833 11.6753 -0.241682 16.2646 0.0273152 21.2069C0.322313 26.6328 3.00529 32.0197 7.78725 36.7866L30.644 59.5757C31.019 59.9496 31.527 60.16 32.058 60.16C32.588 60.16 33.097 59.9496 33.472 59.5757L56.3278 36.7866C61.0658 32.0626 63.7117 26.7096 63.9777 21.3076C64.2197 16.3913 62.4818 11.8179 59.0838 8.43096Z" fill="#484848"/>
</svg>
