<svg width="65" height="64" viewBox="0 0 65 64" fill="none" xmlns="http://www.w3.org/2000/svg">
<path fill-rule="evenodd" clip-rule="evenodd" d="M16.8813 7.40817C13.1863 7.40817 9.96729 8.85489 7.71329 11.1032C2.89029 15.912 1.74129 25.1187 10.6163 33.9675L32.0583 55.3463L53.5003 33.9675C57.5253 29.9534 59.7673 25.5086 59.9843 21.1116C60.1703 17.3348 58.8463 13.8322 56.2563 11.2508C53.6673 8.66943 50.1603 7.34535 46.3653 7.5338C41.9563 7.75016 37.4973 9.98554 33.4723 13.9977C32.6923 14.7774 31.4253 14.7774 30.6443 13.9977C25.9183 9.28661 21.0903 7.40817 16.8813 7.40817ZM32.0583 60.16C31.5283 60.16 31.0193 59.9496 30.6443 59.5757L7.7883 36.7872C3.0063 32.0203 0.323303 26.6323 0.0273026 21.2073C-0.241697 16.2649 1.4843 11.6745 4.8843 8.28357C8.2853 4.8936 12.8913 3.17071 17.8463 3.44091C22.7583 3.70612 27.6393 5.91259 32.0593 9.84495C36.4393 5.95746 41.2843 3.78987 46.1703 3.55058C51.1033 3.31428 55.6873 5.04217 59.0853 8.43014C62.4833 11.8181 64.2213 16.3916 63.9793 21.307C63.7133 26.709 61.0673 32.0632 56.3283 36.7872L33.4723 59.5757C33.0973 59.9496 32.5893 60.16 32.0583 60.16Z" fill="#484848"/>
</svg>
