<svg width="64" height="64" viewBox="0 0 64 64" fill="none" xmlns="http://www.w3.org/2000/svg">
<path d="M60.946 44.4983L35.046 27.4309C34.746 27.2301 34.446 27.1297 34.046 26.9289V26.8285V24.5194C34.046 23.7162 34.546 23.0134 35.246 22.7122C38.646 21.2063 40.446 17.592 39.746 13.8773C39.146 10.8655 36.746 8.45594 33.746 7.85356C31.346 7.35157 29.046 7.95395 27.146 9.4599C25.346 10.9658 24.246 13.1746 24.246 15.5841C24.246 16.6884 25.146 17.592 26.246 17.592C27.346 17.592 28.246 16.6884 28.246 15.5841C28.246 14.3793 28.746 13.3754 29.646 12.5722C30.546 11.8694 31.746 11.5682 32.846 11.769C34.246 12.0702 35.446 13.275 35.746 14.6805C36.146 16.4877 35.246 18.2948 33.546 18.9976C31.446 20.0015 30.046 22.1099 30.046 24.5194V26.8285V26.9289C29.646 27.0293 29.346 27.2301 29.046 27.4309L3.14604 44.4983C0.646039 46.1046 -0.553962 49.0161 0.246039 51.9276C1.04604 54.8391 3.64604 56.7467 6.54604 56.7467H57.346C60.346 56.7467 62.846 54.8391 63.646 51.9276C64.646 49.0161 63.446 46.1046 60.946 44.4983ZM59.946 50.8233C59.646 51.7268 58.946 52.7308 57.446 52.7308H6.64604C5.24604 52.7308 4.44604 51.7268 4.14604 50.8233C3.84604 49.9197 4.04604 48.7149 5.24604 47.9118L31.046 30.9448C31.346 30.744 31.646 30.6436 31.946 30.6436C32.246 30.6436 32.546 30.744 32.746 30.8444L58.646 47.9118C60.046 48.7149 60.246 49.9197 59.946 50.8233Z" fill="#484848"/>
</svg>
