<svg width="64" height="64" viewBox="0 0 64 64" fill="none" xmlns="http://www.w3.org/2000/svg">
<path fill-rule="evenodd" clip-rule="evenodd" d="M0 32C0 14.4 14.4 0 32 0C49.6 0 64 14.4 64 32C64 49.6 49.6 64 32 64C14.4 64 0 49.6 0 32ZM4 32C4 47.4 16.6 60 32 60C47.4 60 60 47.4 60 32C60 16.6 47.4 4 32 4C16.6 4 4 16.6 4 32ZM34 30H47C48.1 30 49 30.9 49 32C49 33.1 48.1 34 47 34H34V47C34 48.1 33.1 49 32 49C30.9 49 30 48.1 30 47V34H17C15.9 34 15 33.1 15 32C15 30.9 15.9 30 17 30H30V17C30 15.9 30.9 15 32 15C33.1 15 34 15.9 34 17V30Z" fill="#484848"/>
</svg>
