<svg width="64" height="64" viewBox="0 0 64 64" fill="none" xmlns="http://www.w3.org/2000/svg">
<g clip-path="url(#clip0_944:39)">
<path d="M61.4006 12.9C55.7021 11.6 55.4021 11.3 54.1024 5.6C53.8025 4.1 52.4029 3 50.8033 3C49.2037 3 47.904 4.1 47.604 5.6C47.5041 5.9 47.4041 6.3 47.4041 6.6C46.0044 6.3 44.6048 6.2 43.1052 6.3C38.8062 6.5 34.5073 8.2 30.6082 11.3C26.7092 8.2 22.3103 6.5 18.0114 6.3C13.0126 5.9 8.41373 7.7 5.01457 11.1C1.51543 14.5 -0.18415 19 0.0158002 24C0.315726 29.3 2.91508 34.5 7.51395 39L29.1086 60.4C29.5085 60.8 30.0084 61 30.5083 61C31.0081 61 31.508 60.8 31.9079 60.4L53.7025 39C58.3014 34.5 60.9008 29.3 61.1007 24C61.2007 22.5 61.0007 21 60.7008 19.5C60.9008 19.4 61.2007 19.4 61.4006 19.3C62.9003 18.9 64 17.6 64 16.1C64 14.6 62.9003 13.2 61.4006 12.9ZM50.8033 9.1C52.003 13.3 53.6026 14.9 57.9015 16.2C57.6016 16.3 57.3017 16.4 57.1017 16.4C53.3026 17.7 51.903 19.6 50.8033 23.2C49.6036 18.9 48.004 17.4 43.705 16.1C47.2042 15.1 49.1037 13.8 50.4034 10.3C50.6033 10 50.7033 9.5 50.8033 9.1ZM57.1017 23.9C56.9018 28.2 54.7023 32.4 50.9032 36.2L30.6082 56.2L10.4132 36.2C6.41422 32.3 4.31474 28 4.01481 23.8C3.81486 20 5.11454 16.5 7.7139 13.9C10.4132 11.3 14.0123 10 17.8114 10.2C21.7104 10.4 25.7095 12.2 29.3086 15.4C30.1084 16.1 31.2081 16.1 31.9079 15.4C35.507 12.3 39.4061 10.5 43.3051 10.3C44.2049 10.3 45.1047 10.3 46.0044 10.4C45.2046 11.5 43.905 12.1 40.3059 12.9C38.8062 13.2 37.7065 14.6 37.7065 16.1C37.7065 17.7 38.8062 19 40.3059 19.3C46.0044 20.6 46.3044 20.9 47.604 26.6C48.004 28.1 49.3036 29.2 50.8033 29.2C52.4029 29.2 53.7025 28.1 54.0025 26.6C54.9022 22.7 55.5021 21.4 56.8018 20.7C57.1017 21.8 57.1017 22.8 57.1017 23.9Z" fill="#484848"/>
</g>
<defs>
<clipPath id="clip0_944:39">
<rect width="64" height="64" fill="white"/>
</clipPath>
</defs>
</svg>
