<svg width="64" height="64" viewBox="0 0 64 64" fill="none" xmlns="http://www.w3.org/2000/svg">
<g clip-path="url(#clip0_944:16)">
<path d="M60.1004 23.0011C61 21.5011 61.8996 17.9011 59.2008 15.6011C58.1013 14.6011 56.8018 14.2011 55.4025 14.3011C52.8036 14.5011 51.0044 16.7011 50.8045 17.0011L48.7054 20.0011L50.3047 11.0011C50.8045 8.40111 49.9049 5.10111 46.6063 4.40111C42.9079 3.50111 40.7089 6.60111 40.1092 8.50111L37.9101 15.9011L36.9106 7.20111C36.8106 4.70111 35.6112 0.201108 31.2131 0.00110803C30.7133 0.00110803 28.5143 -0.098892 26.815 1.60111C25.3157 3.10111 24.7159 5.40111 25.0158 8.50111C25.3157 10.8011 25.5156 13.7011 25.6155 16.5011L22.7168 10.4011C22.5169 10.1011 21.1175 7.00111 18.4187 6.30111C17.4191 6.00111 15.7199 5.90111 13.9207 7.20111C11.9216 8.60111 10.2223 11.4011 12.8212 17.1011C13.121 17.8011 15.0202 22.9011 16.3196 26.6011L17.3192 29.4011L15.42 29.0011C14.3205 28.6011 10.1224 27.1011 6.72385 29.0011C5.32446 29.8011 3.62521 31.4011 3.02547 34.8011C2.92552 35.6011 3.12543 36.4011 3.52525 37.1011C4.02503 37.7011 4.72473 38.2011 5.52437 38.3011C6.92376 38.5011 10.5222 39.2011 12.4213 41.0011C12.8212 41.4011 13.121 41.8011 13.6208 42.4011C15.0202 44.1011 16.8194 46.5011 21.2175 48.0011C21.9172 48.2011 22.417 49.7011 22.6169 51.3011H21.1175C17.819 51.3011 15.1202 54.0011 15.1202 57.3011V62.0011C15.1202 63.1011 16.0198 64.0011 17.1193 64.0011H53.1035C54.203 64.0011 55.1026 63.1011 55.1026 62.0011V57.2011C55.1026 53.9011 52.4038 51.2011 49.1052 51.2011H48.6054C48.6054 48.1011 48.9053 43.1011 50.1048 40.9011C52.2039 37.0011 60.0004 23.2011 60.1004 23.0011ZM51.1043 57.2011V60.0011H19.1184V57.2011C19.1184 56.1011 20.018 55.2011 21.1175 55.2011H24.7159H46.7063H49.2052C50.2047 55.2011 51.1043 56.1011 51.1043 57.2011ZM46.6063 39.0011C44.9071 42.2011 44.7072 48.0011 44.6072 51.2011H26.6151C26.4152 48.8011 25.5156 45.2011 22.5169 44.1011C19.2184 43.0011 18.0189 41.4011 16.7195 39.8011C16.2197 39.2011 15.8198 38.6011 15.2201 38.1011C12.9211 35.9011 9.52262 34.9011 7.12367 34.4011C7.42354 33.5011 7.92332 32.8011 8.52306 32.5011C10.2223 31.6011 13.0211 32.4011 13.9207 32.8011C14.0206 32.9011 14.2206 32.9011 14.3205 32.9011L16.4196 33.3011C17.819 33.6011 19.2184 33.1011 20.2179 32.0011C21.1175 30.9011 21.4174 29.4011 20.9176 28.1011L19.9181 25.3011C18.0189 19.9011 16.7195 16.3011 16.3196 15.4011C14.7203 12.0011 15.42 11.0011 16.1197 10.5011C16.8194 10.0011 17.1193 10.1011 17.3192 10.2011C18.0189 10.4011 18.8185 11.5011 19.1184 12.2011L26.0154 26.5011C26.4152 27.4011 27.4148 27.9011 28.4143 27.6011C29.4139 27.4011 30.0136 26.5011 30.0136 25.5011C30.0136 23.4011 29.6138 14.0011 29.0141 8.00111C28.8141 6.30111 29.0141 5.00111 29.6138 4.40111C30.1136 4.00111 30.8133 4.00111 30.9132 4.00111H31.0132C32.9123 4.10111 32.9123 7.30111 32.9123 7.30111C32.9123 7.40111 32.9123 7.40111 32.9123 7.50111L34.9115 25.6011C35.0114 26.6011 35.8111 27.4011 36.8106 27.5011C37.8102 27.6011 38.7098 26.9011 38.9097 26.0011L43.7076 9.70111C44.0075 9.40111 44.6072 8.00111 45.7067 8.20111C46.7063 8.40111 46.4064 10.1011 46.4064 10.2011L43.3078 27.2011C43.1079 28.2011 43.6076 29.1011 44.5072 29.5011C45.4068 29.9011 46.4064 29.6011 47.0061 28.8011L53.9031 19.5011C54.103 19.2011 55.0026 18.4011 55.7023 18.3011C55.9022 18.3011 56.1021 18.3011 56.502 18.6011C57.4016 19.4011 56.6019 20.9011 56.502 21.0011C56.3021 21.6011 48.7054 35.1011 46.6063 39.0011Z" fill="#484848"/>
</g>
<defs>
<clipPath id="clip0_944:16">
<rect width="64" height="64" fill="white"/>
</clipPath>
</defs>
</svg>
