<svg width="64" height="64" viewBox="0 0 64 64" fill="none" xmlns="http://www.w3.org/2000/svg">
<g clip-path="url(#clip0_937:73)">
<path d="M59.2001 54.0999L39.5001 18.9999C39.8001 18.6999 40.0001 18.3999 40.1001 17.9999C40.2001 17.4999 40.2001 16.8999 39.9001 16.4999L38.6001 14.2999C41.2001 12.4999 44.2001 12.2999 50.4001 12.4999C51.1001 12.4999 51.8001 12.1999 52.2001 11.4999C52.6001 10.8999 52.6001 10.0999 52.2001 9.49994C50.2001 5.89994 46.8001 2.79994 43.1001 1.19994C39.0001 -0.500058 34.7001 -0.400058 31.1001 1.59994L18.9001 8.49994C18.4001 8.79994 18.1001 9.19994 18.0001 9.69994C17.9001 10.1999 17.9001 10.7999 18.2001 11.1999C18.4001 11.4999 18.4001 11.8999 18.3001 12.1999C18.2001 12.4999 18.0001 12.7999 17.7001 12.9999C17.4001 13.1999 17.0001 13.1999 16.7001 13.0999C16.4001 12.9999 16.1001 12.7999 15.9001 12.4999C15.6001 11.9999 15.2001 11.6999 14.7001 11.5999C14.2001 11.4999 13.6001 11.4999 13.2001 11.7999L6.20015 15.7999C5.60015 15.9999 5.20015 16.4999 5.10015 16.9999C4.90015 17.4999 5.00015 17.9999 5.30015 18.4999L12.8001 31.8999C13.2001 32.5999 13.8001 32.8999 14.5001 32.8999C14.8001 32.8999 15.2001 32.7999 15.5001 32.5999L22.5001 28.5999C23.0001 28.2999 23.3001 27.8999 23.4001 27.3999C23.5001 26.8999 23.5001 26.2999 23.2001 25.8999C23.0001 25.5999 23.0001 25.1999 23.1001 24.8999C23.2001 24.5999 23.4001 24.2999 23.7001 24.0999C24.0001 23.8999 24.4001 23.8999 24.7001 23.9999C25.0001 24.0999 25.3001 24.2999 25.5001 24.5999C25.8001 25.0999 26.2001 25.3999 26.7001 25.4999C27.1001 25.5999 27.5001 25.5999 27.8001 25.4999L30.9001 30.9999L47.5001 60.5999C48.7001 62.6999 50.9001 63.9999 53.2001 63.9999C54.3001 63.9999 55.4001 63.6999 56.4001 63.1999L56.5001 63.0999C58.0001 62.1999 59.1001 60.7999 59.6001 59.0999C60.2001 57.3999 60.0001 55.6999 59.2001 54.0999ZM31.4001 23.5999L36.0001 20.9999L38.1001 24.6999L33.5001 27.2999L31.4001 23.5999ZM21.8001 20.5999C20.6001 21.2999 19.7001 22.3999 19.3001 23.7999C19.1001 24.4999 19.1001 25.1999 19.1001 25.8999L15.2001 28.0999L9.60015 18.1999L13.5001 15.9999C14.1001 16.3999 14.7001 16.7999 15.4001 16.9999C16.8001 17.3999 18.2001 17.1999 19.4001 16.4999C20.6001 15.7999 21.5001 14.6999 21.9001 13.2999C22.1001 12.5999 22.1001 11.8999 22.1001 11.1999L33.0001 5.09994C35.5001 3.69994 38.5001 3.69994 41.5001 4.99994C43.3001 5.79994 45.0001 6.99994 46.4001 8.49994C41.6001 8.49994 38.0001 9.19994 34.6001 12.3999C33.9001 12.9999 33.7001 13.9999 34.2001 14.8999L35.3001 16.8999L29.7001 19.9999L27.6001 21.1999C27.0001 20.7999 26.4001 20.3999 25.7001 20.1999C24.5001 19.7999 23.1001 19.8999 21.8001 20.5999ZM55.9001 57.9999C55.7001 58.6999 55.3001 59.1999 54.7001 59.5999L54.6001 59.6999C53.4001 60.3999 51.8001 59.9999 51.1001 58.6999L35.5001 30.8999L40.1001 28.2999L55.7001 56.0999C56.0001 56.6999 56.1001 57.3999 55.9001 57.9999Z" fill="#484848"/>
</g>
<defs>
<clipPath id="clip0_937:73">
<rect width="64" height="64" fill="white"/>
</clipPath>
</defs>
</svg>
