<svg width="64" height="64" viewBox="0 0 64 64" fill="none" xmlns="http://www.w3.org/2000/svg">
<path fill-rule="evenodd" clip-rule="evenodd" d="M4 32C4 16.561 16.561 4 32 4C47.439 4 60 16.561 60 32C60 47.439 47.439 60 32 60C16.561 60 4 47.439 4 32ZM0 32C0 49.645 14.355 64 32 64C49.645 64 64 49.645 64 32C64 14.355 49.645 0 32 0C14.355 0 0 14.355 0 32ZM20 28C21.656 28 23 26.657 23 25C23 23.344 21.656 22 20 22C18.343 22 17 23.344 17 25C17 26.657 18.343 28 20 28ZM47 25C47 26.657 45.656 28 44 28C42.343 28 41 26.657 41 25C41 23.344 42.343 22 44 22C45.656 22 47 23.344 47 25ZM15.5409 42.0801C19.8519 46.6781 25.6969 49.2111 31.9999 49.2111C38.3029 49.2111 44.1479 46.6781 48.4589 42.0801C49.2149 41.2741 49.1739 40.0081 48.3679 39.2531C47.5629 38.4951 46.2959 38.5371 45.5409 39.3441C41.9939 43.1271 37.1859 45.2111 31.9999 45.2111C26.8139 45.2111 22.0059 43.1271 18.4589 39.3441C17.7039 38.5381 16.4369 38.4981 15.6319 39.2531C14.8259 40.0081 14.7849 41.2741 15.5409 42.0801Z" fill="#484848"/>
</svg>
