<svg width="64" height="64" viewBox="0 0 64 64" fill="none" xmlns="http://www.w3.org/2000/svg">
<path fill-rule="evenodd" clip-rule="evenodd" d="M49.0931 60H52.1893C53.288 60 54.1869 60.9 54.1869 62C54.1869 63.1 53.288 64 52.1893 64H47.0955H17.2317H12.2378C11.1391 64 10.2402 63.1 10.2402 62C10.2402 60.9 11.1391 60 12.2378 60H15.2342V50C15.2342 43.7 18.6301 37.8 23.9236 34.5L28.3183 31.9L23.9236 29.2C18.5302 26 15.2342 20.1 15.2342 13.8V4H12.2378C11.1391 4 10.2402 3.1 10.2402 2C10.2402 0.9 11.1391 0 12.2378 0H17.2317H47.0955H52.1893C53.288 0 54.1869 0.9 54.1869 2C54.1869 3.1 53.288 4 52.1893 4H49.193V14C49.193 20.3 45.7971 26.3 40.4036 29.5L36.009 32.1L40.4036 34.8C45.7971 38 49.0931 43.9 49.0931 50.2V60ZM45.0979 14V4H19.2293V13.9V14.1C22.2257 14.2 23.9236 14.6 25.5217 15.1C27.2196 15.6 28.9176 16 32.2136 16C35.515 16 37.1173 15.5274 38.764 15.0417C38.8111 15.0278 38.8582 15.0139 38.9054 15C39.0582 14.9618 39.2119 14.9226 39.3674 14.883C40.8391 14.5081 42.4783 14.0904 45.0979 14ZM23.6488 18.7112C22.6132 18.452 21.5265 18.18 19.9285 18.1C20.9273 21.3 23.0247 24.1 25.9212 25.8L32.2136 29.6L38.2063 26C41.2027 24.2 43.4 21.3 44.3988 18C42.4012 18.2 41.2027 18.5 39.9042 18.9C39.7859 18.9312 39.6672 18.9627 39.5477 18.9945C37.7501 19.4725 35.7661 20 32.1137 20C28.5603 20 26.5828 19.4741 24.7877 18.9967C24.6655 18.9642 24.544 18.9319 24.423 18.9C24.1633 18.84 23.9076 18.776 23.6488 18.7112ZM32.0138 34.4L26.0211 38C21.8262 40.5 19.2293 45.1 19.1294 50V55.8C20.5157 55.2448 21.4744 54.0048 22.7176 52.3967C22.818 52.2668 22.9202 52.1345 23.0247 52C23.0873 51.9185 23.1503 51.8364 23.2135 51.7538C25.1688 49.2025 27.4698 46.2 32.1137 46.2C36.9079 46.2 39.305 49.4 41.2027 52C42.601 53.9 43.6996 55.2 45.0979 55.8V50.2C45.0979 45.3 42.5011 40.7 38.3062 38.2L32.0138 34.4ZM26.1416 54.6324C24.4879 56.7799 22.6027 59.228 19.2293 60H45.1978C41.7021 59.2 39.7045 56.6 38.1064 54.4C36.1088 51.8 34.8104 50.2 32.2136 50.2C29.6167 50.2 28.2184 51.8 26.3207 54.4C26.2613 54.477 26.2016 54.5545 26.1416 54.6324ZM34.211 41.8C34.211 42.9 33.3121 43.8 32.2135 43.8C31.1148 43.8 30.2159 42.9 30.2159 41.8V40.3C30.2159 39.2 31.1148 38.3 32.2135 38.3C33.3121 38.3 34.211 39.2 34.211 40.3V41.8Z" fill="#484848"/>
</svg>
