<svg width="64" height="64" viewBox="0 0 64 64" fill="none" xmlns="http://www.w3.org/2000/svg">
<path d="M62.9 2.17422C62.2 1.87459 61.4 1.97447 60.8 2.37397L44.9 14.8585C42.7 16.6563 42 19.6525 43.2 22.0496L43.1 22.1494L39.3 25.4453C36.5 25.2456 30.4 24.7462 29.1 24.8461C28.2 24.946 27.5 25.2456 26.9 25.6451C26.7 25.6451 26.5 25.6451 26.3 25.5452C25.5 25.4453 23 23.6476 20.9 21.7499C21.8 19.3529 21.2 16.5564 19.1 14.8585L3.2 2.37397C2.6 1.97447 1.8 1.87459 1.1 2.17422C0.4 2.47385 0 3.17298 0 3.97199V43.423C0 44.3219 0.5 45.0211 1.4 45.3207C1.6 45.4206 1.8 45.4206 2 45.4206C2.6 45.4206 3.2 45.1209 3.6 44.6216L8.5 38.3294C9.6 39.0285 11.6 40.3269 13.3 41.825C12.6 42.5242 11.9 43.3232 11.4 44.3219C9.3 48.4169 12.7 52.1123 15.5 55.0087C19.5 59.2035 22.6 61.201 25.4 61.201C27.2 61.201 28.8 60.7016 29.9 60.402C31.6 61.4007 33.3 62 35.3 62C35.5 62 35.8 62 36 62C38.5 61.8002 41.8 60.2022 44.8 57.5056C48.2 54.6092 50.6 51.0136 51.7 47.518C52.3 45.6203 51.6 44.2221 50.6 43.2233L50.9 41.9249L55.5 38.5291C55.6 38.5291 55.6 38.4292 55.6 38.4292L60.4 44.6216C60.8 45.1209 61.4 45.4206 62 45.4206C62.2 45.4206 62.4 45.4206 62.6 45.3207C63.4 45.0211 64 44.3219 64 43.423V3.97199C64 3.17298 63.6 2.47385 62.9 2.17422ZM4 8.06691L16.6 17.9546C17.5 18.6538 17.6 19.8523 16.9 20.7512L4 37.5304V8.06691ZM25.4 57.1061C24.5 57.1061 22.4 56.5068 18.4 52.2121C15.6 49.2159 14.3 47.4181 14.9 46.0198C15.2 45.5204 15.6 45.0211 16 44.6216C16.4 45.2208 16.8 45.8201 17.3 46.6191C18.7 48.9162 20.5 51.7128 23.5 54.8089C24.3 55.6079 25.1 56.4069 25.9 57.1061C25.7 57.1061 25.5 57.1061 25.4 57.1061ZM47.8 46.2196C46 52.6116 38.8 57.7053 35.7 57.9051C32.8 58.1048 30.8 56.4069 26.3 51.9125C23.6 49.2159 22.1 46.719 20.7 44.5217C20 43.3232 19.3 42.2245 18.5 41.2258C18.3 41.026 18.1 40.7264 17.9 40.5266C17.9 40.5266 17.9 40.5266 17.8 40.4268C15.7 38.1296 12.3 35.9323 11 35.0335L18.7 25.0458C20 26.2444 22.2 27.9423 24.2 28.941C24 29.2406 23.7 29.5403 23.4 29.74C22.7 30.3393 21.2 31.338 19.2 32.4367C18.5 32.8362 18 33.5353 17.8 34.3343C17.6 35.1333 17.8 36.0322 18.2 36.6315C19 37.83 20.9 40.0273 23.9 40.5266C26.2 40.9261 28.7 40.227 31.3 38.5291C32.8 39.3281 35.3 40.3269 38.3 39.8275C39.9 42.7239 43.1 46.4193 47.9 45.9199C47.9 46.1197 47.9 46.2196 47.8 46.2196ZM53 35.3331L48.4 38.7289C47.6 39.3281 47.1 40.1271 46.9 41.026L46.6 42.2245C43.1 41.825 41.3 37.3306 41.2 37.1309C40.8 36.1321 39.7 35.5328 38.7 35.9323C35.4 37.031 32.6 34.9336 32.5 34.8337C31.8 34.2344 30.8 34.2344 30 34.8337C27.9 36.4317 26 37.1309 24.5 36.8312C23.5 36.6315 22.7 36.1321 22.1 35.5328C23.4 34.7338 24.9 33.7351 25.8 33.0359C26.9 32.137 27.5 31.1383 28 30.3393C28.2 30.0396 28.4 29.74 28.5 29.6401C28.7 29.5403 28.8 29.3405 28.9 29.1408C29 29.0409 29.1 29.0409 29.2 29.0409C30 28.941 35.1 29.3405 39.5 29.74C40 29.8399 40.6 29.6401 41 29.2406L45.3 25.5452L52.9 35.3331C53.1 35.2332 53.1 35.2332 53 35.3331ZM60 37.5304L47.1 20.851C46.4 19.9522 46.6 18.7537 47.4 18.0545L60 8.06691V37.5304Z" fill="#484848"/>
</svg>
