<svg width="65" height="64" viewBox="0 0 65 64" fill="none" xmlns="http://www.w3.org/2000/svg">
<path d="M63.541 32.9L55.241 24V4.9C55.241 3.8 54.341 2.9 53.241 2.9H42.241C41.141 2.9 40.241 3.8 40.241 4.9V7.9L33.441 0.6C32.641 -0.2 31.241 -0.2 30.541 0.6L0.540954 32.9C0.040954 33.5 -0.159046 34.3 0.140954 35.1C0.440954 35.8 1.14095 36.3 1.94095 36.3H8.24095V62C8.24095 63.1 9.14095 64 10.241 64H25.541H38.241H53.541C54.641 64 55.541 63.1 55.541 62V36.3H62.041C62.841 36.3 63.541 35.8 63.841 35.1C64.241 34.3 64.041 33.5 63.541 32.9ZM36.341 60H27.641V46.2H36.341V60ZM53.541 32.3C52.441 32.3 51.541 33.2 51.541 34.3V60H40.341V44.2C40.341 43.1 39.441 42.2 38.341 42.2H25.541C24.441 42.2 23.541 43.1 23.541 44.2V60H12.341V34.3C12.341 33.2 11.441 32.3 10.341 32.3H6.64095L32.041 4.9L40.841 14.3C41.441 14.9 42.241 15.1 43.041 14.8C43.841 14.5 44.341 13.8 44.341 12.9V6.9H51.341V24.8C51.341 25.3 51.541 25.8 51.841 26.2L57.441 32.3H53.541Z" fill="#484848"/>
</svg>
