<svg width="64" height="64" viewBox="0 0 64 64" fill="none" xmlns="http://www.w3.org/2000/svg">
<g clip-path="url(#clip0_285:50)">
<path d="M61.9071 31.2058H60.7111C63.701 26.2308 64.6976 20.9573 63.402 15.9824C61.8074 10.2114 57.2229 5.63448 51.542 4.14199C45.0639 2.4505 38.0874 4.53999 32.1075 9.91294C27.6227 5.93297 22.8388 3.74399 17.8556 3.4455C12.8724 3.147 8.28787 4.93798 4.8993 8.32095C1.51072 11.7039 -0.183562 16.2809 0.0157656 21.2558C0.215093 24.6388 1.3114 28.0218 3.30467 31.2058H2.10871C1.0124 31.2058 0.11543 32.1012 0.11543 33.1957C0.11543 34.2902 1.0124 35.1857 2.10871 35.1857H6.39426C6.89258 35.6832 7.3909 36.2802 7.88921 36.7777L30.7123 59.563C31.1109 59.961 31.6092 60.16 32.1075 60.16C32.6059 60.16 33.1042 59.961 33.5028 59.563L56.3259 36.7777C56.8242 36.2802 57.3225 35.6832 57.8208 35.1857H62.0067C63.103 35.1857 64 34.2902 64 33.1957C64 32.1012 63.0034 31.2058 61.9071 31.2058ZM7.78955 11.1069C10.0818 8.91795 13.2711 7.42546 16.9586 7.42546C21.1445 7.42546 25.9284 9.31595 30.7123 13.9924C31.5096 14.7884 32.7055 14.7884 33.5028 13.9924C38.785 8.71895 44.9642 6.52997 50.5454 8.02246C54.9306 9.21645 58.3192 12.5994 59.5151 16.9774C60.7111 21.5543 59.4155 26.6288 55.9272 31.2058H49.1501L45.5622 26.3303C45.1635 25.8328 44.5655 25.5343 43.9676 25.5343C43.3696 25.5343 42.7716 25.8328 42.3729 26.3303L38.8847 31.1063L34.1008 21.0568C33.7022 20.2608 32.9049 19.8629 32.1075 19.9624C31.3102 20.0619 30.6126 20.6588 30.3136 21.4548L26.7257 35.2852L22.5398 27.6238C22.2408 27.0268 21.6428 26.6288 21.0449 26.6288C20.3472 26.5293 19.7492 26.8278 19.3506 27.3253L15.962 31.2058L8.98552 31.3053H8.28787C2.10871 23.2458 3.504 15.3854 7.78955 11.1069ZM32.1075 55.2845L11.8758 35.0862L16.859 34.9867C17.4569 34.9867 17.9553 34.6882 18.3539 34.2902L20.4469 31.9022L25.7291 41.4542C26.1277 42.0512 26.7257 42.4492 27.523 42.4492C27.6227 42.4492 27.7223 42.4492 27.7223 42.4492C28.5196 42.3497 29.2173 41.7527 29.4166 40.9567L32.9049 27.6238L36.6921 35.7827C36.9911 36.3797 37.5891 36.8772 38.2867 36.8772C38.9844 36.9767 39.682 36.6782 40.0807 36.0812L43.9676 30.8078L46.4591 34.1907C46.8578 34.6882 47.4558 34.9867 48.0538 34.9867H52.2397L32.1075 55.2845Z" fill="#484848"/>
</g>
<defs>
<clipPath id="clip0_285:50">
<rect width="64" height="64" fill="white"/>
</clipPath>
</defs>
</svg>
