<svg width="64" height="64" viewBox="0 0 64 64" fill="none" xmlns="http://www.w3.org/2000/svg">
<path fill-rule="evenodd" clip-rule="evenodd" d="M30.9 22.6L30.6 22.3L23.9 15.6C23.1 14.8 23.1 13.6 23.9 12.8C24.7 12 25.9 12 26.7 12.8L30 16.1V2C30 0.9 30.9 0 32 0C33.1 0 34 0.9 34 2V16.1L37.3 12.8C38.1 12 39.3 12 40.1 12.8C40.9 13.6 40.9 14.8 40.1 15.6L33.4 22.3L33.1 22.6C33.1 22.7 33 22.7 33 22.7C32.95 22.7 32.925 22.725 32.9 22.75C32.875 22.775 32.85 22.8 32.8 22.8C32.7425 22.8575 32.7181 22.8819 32.6887 22.8923C32.6669 22.9 32.6425 22.9 32.6 22.9L32.6 22.9L32.5999 22.9001C32.5425 22.9575 32.5181 22.9819 32.4887 22.9923C32.4669 23 32.4425 23 32.4 23H32H31.6C31.5 22.9 31.5 22.9 31.4 22.9C31.3425 22.8425 31.3181 22.8181 31.2887 22.8077C31.2669 22.8 31.2425 22.8 31.2 22.8C31.15 22.8 31.125 22.775 31.1 22.75C31.075 22.725 31.05 22.7 31 22.7L30.9 22.6ZM48 39.4C50.4 33.7 55.8 30 62 30C63.1 30 64 30.9 64 32V62C64 63.1 63.1 64 62 64H2C0.9 64 0 63.1 0 62V32C0 30.9 0.9 30 2 30C8.2 30 13.6 33.7 16 39.4L17.9 43.8C18.2 44.5 18.9 45 19.7 45H44.4C45.2 45 45.9 44.6 46.2 43.8L48 39.4ZM4 60H59.9V34.2C56.2 34.9 53.1 37.3 51.6 40.9L49.8 45.3C48.9 47.5 46.7 49 44.3 49H19.6C17.2 49 15 47.5 14.1 45.3L12.3 40.9C10.8 37.4 7.7 34.9 4 34.2V60ZM21.2 36C20.1 36 19.2 36.9 19.2 38C19.2 39.1 20.1 40 21.2 40H42.9C44 40 44.9 39.1 44.9 38C44.9 36.9 44 36 42.9 36H21.2ZM50.5 31H13.5C12.4 31 11.5 30.1 11.5 29C11.5 27.9 12.4 27 13.5 27H50.5C51.6 27 52.5 27.9 52.5 29C52.5 30.1 51.6 31 50.5 31Z" fill="#484848"/>
</svg>
