<svg width="64" height="64" viewBox="0 0 64 64" fill="none" xmlns="http://www.w3.org/2000/svg">
<path fill-rule="evenodd" clip-rule="evenodd" d="M32 60C16.561 60 4 47.439 4 32C4 16.561 16.561 4 32 4C47.439 4 60 16.561 60 32C60 47.439 47.439 60 32 60ZM32 0C14.355 0 0 14.355 0 32C0 49.645 14.355 64 32 64C49.645 64 64 49.645 64 32C64 14.355 49.645 0 32 0ZM36.8789 44.8808H33.9999V24.8288C33.9999 23.7248 33.1049 22.8288 31.9999 22.8288H27.8389C26.7348 22.8288 25.8389 23.7248 25.8389 24.8288C25.8389 25.9338 26.7348 26.8288 27.8389 26.8288H29.9999V44.8808H27.1208C26.0168 44.8808 25.1208 45.7768 25.1208 46.8808C25.1208 47.9848 26.0168 48.8808 27.1208 48.8808H36.8789C37.9829 48.8808 38.8789 47.9848 38.8789 46.8808C38.8789 45.7768 37.9829 44.8808 36.8789 44.8808ZM33 17C33 18.104 32.104 19 31 19C29.896 19 29 18.104 29 17C29 15.896 29.896 15 31 15C32.104 15 33 15.896 33 17Z" fill="#484848"/>
</svg>
