<svg width="64" height="64" viewBox="0 0 64 64" fill="none" xmlns="http://www.w3.org/2000/svg">
<g clip-path="url(#clip0_247:268)">
<path fill-rule="evenodd" clip-rule="evenodd" d="M0 0.0100123L4.00177 0V4.01492H0V0.0100123ZM0 25.6415L4.00177 25.6315V29.6464H0V25.6415ZM4.00177 17.081L0 17.101V21.1059H4.00177V17.081ZM0 8.55048L4.00177 8.54046V12.5554H0V8.55048ZM4.00177 42.7123L0 42.7423V46.7472H4.00177V42.7123ZM0 34.1919L4.00177 34.1718V38.1968H0V34.1919ZM0 51.2728V53.2753C0 53.8064 0.210807 54.3157 0.586046 54.6912C0.961284 55.0668 1.47022 55.2777 2.00089 55.2777H4.00177V51.2728H0ZM38.3172 55.2777H34.3154L34.2954 51.2728H38.3172V55.2777ZM8.58355 55.2777H12.5853V51.2728H8.56354L8.58355 55.2777ZM51.4427 51.2728H55.4645V55.2777H51.4627L51.4427 51.2728ZM42.8888 55.2777H46.8905V51.2728H42.8688L42.8888 55.2777ZM29.7334 55.2777H25.7317L25.7117 51.2728H29.7334V55.2777ZM17.1575 55.2777H21.1593V51.2728H17.1375L17.1575 55.2777ZM54.6739 43.0527L63.4378 51.8635C63.7984 52.2369 64 52.7359 64 53.2552C64 53.7745 63.7984 54.2735 63.4378 54.6469L54.6739 63.4177C54.299 63.7906 53.7919 64 53.2633 64C52.7347 64 52.2276 63.7906 51.8527 63.4177C51.48 63.0425 51.2708 62.535 51.2708 62.006C51.2708 61.4769 51.48 60.9694 51.8527 60.5942L59.1959 53.2352L51.8527 45.8762C51.5249 45.4931 51.3536 45.0004 51.373 44.4964C51.3925 43.9924 51.6012 43.5144 51.9576 43.1577C52.3139 42.8011 52.7916 42.5922 53.2952 42.5727C53.7988 42.5532 54.2912 42.7247 54.6739 43.0527Z" fill="#484848"/>
</g>
<defs>
<clipPath id="clip0_247:268">
<rect width="64" height="64" fill="white"/>
</clipPath>
</defs>
</svg>
