<svg width="64" height="64" viewBox="0 0 64 64" fill="none" xmlns="http://www.w3.org/2000/svg">
<path fill-rule="evenodd" clip-rule="evenodd" d="M6 8.69627H58C59.1 8.69627 60 7.79561 60 6.69481C60 5.59401 59.1 4.69336 58 4.69336H6C4.9 4.69336 4 5.59401 4 6.69481C4 7.79561 4.9 8.69627 6 8.69627ZM62 25.7087C55.8 25.7087 50.4 29.4113 48 35.1155L46.2 39.5187C45.9 40.3193 45.2 40.7196 44.4 40.7196H19.7C18.9 40.7196 18.2 40.2192 17.9 39.5187L16 35.1155C13.6 29.4113 8.2 25.7087 2 25.7087C0.9 25.7087 0 26.6093 0 27.7101V57.7319C0 58.8327 0.9 59.7334 2 59.7334H62C63.1 59.7334 64 58.8327 64 57.7319V27.7101C64 26.6093 63.1 25.7087 62 25.7087ZM59.9 55.7305H4V29.9117C7.7 30.6122 10.8 33.114 12.3 36.6166L14.1 41.0198C15 43.2214 17.2 44.7225 19.6 44.7225H44.3C46.7 44.7225 48.9 43.2214 49.8 41.0198L51.6 36.6166C53.1 33.014 56.2 30.6122 59.9 29.9117V55.7305ZM58 17.7028H6C4.9 17.7028 4 16.8021 4 15.7013C4 14.6005 4.9 13.6999 6 13.6999H58C59.1 13.6999 60 14.6005 60 15.7013C60 16.8021 59.1 17.7028 58 17.7028ZM21.2 31.713C20.1 31.713 19.2 32.6137 19.2 33.7145C19.2 34.8153 20.1 35.7159 21.2 35.7159H42.9C44 35.7159 44.9 34.8153 44.9 33.7145C44.9 32.6137 44 31.713 42.9 31.713H21.2ZM50.5 22.7065C51.6 22.7065 52.5 23.6071 52.5 24.7079C52.5 25.8087 51.6 26.7094 50.5 26.7094H13.5C12.4 26.7094 11.5 25.8087 11.5 24.7079C11.5 23.6071 12.4 22.7065 13.5 22.7065H50.5Z" fill="#484848"/>
</svg>
