<svg width="64" height="64" viewBox="0 0 64 64" fill="none" xmlns="http://www.w3.org/2000/svg">
<g clip-path="url(#clip0_190:369)">
<path fill-rule="evenodd" clip-rule="evenodd" d="M32.9883 0.0125071C38.875 0.212156 44.2627 2.70777 48.2537 7.10005C52.3444 11.5921 54.5394 17.6814 54.1403 23.8706C53.0428 43.8355 34.3852 62.6025 33.587 63.4011C33.1879 63.8004 32.689 64 32.1901 64C31.6913 64 31.1924 63.8004 30.7933 63.4011C30.7555 63.3585 30.6751 63.2731 30.5563 63.1469C28.1674 60.6095 10.24 41.5681 10.24 22.0737C10.24 15.9844 12.6346 10.3943 16.9248 6.20162C21.2151 2.009 27.0019 -0.187142 32.9883 0.0125071ZM32.2899 59.0088C36.5802 54.2172 49.4509 38.9441 50.2491 23.5711C50.4487 18.5799 48.6527 13.4888 45.2604 9.79531C42.0677 6.20163 37.5779 4.20514 32.8885 4.00549H32.2899C27.5008 4.00549 23.1108 5.80233 19.7185 9.09654C16.2264 12.5904 14.2309 17.1823 14.2309 22.0737C14.2309 37.7462 27.8001 54.0176 32.2899 59.0088ZM20.6348 21.8126C20.6348 15.3126 25.9321 10.1126 32.3288 10.1126C38.7255 10.1126 44.0228 15.3126 44.0228 21.8126C44.0228 28.3126 38.7255 33.5126 32.3288 33.5126C25.8321 33.5126 20.6348 28.3126 20.6348 21.8126ZM24.6327 21.7126C24.6327 26.0126 28.131 29.4126 32.3288 29.4126C36.5267 29.4126 40.0249 26.0126 40.0249 21.7126C40.0249 17.4126 36.6266 14.0126 32.3288 14.0126C28.031 14.0126 24.6327 17.4126 24.6327 21.7126Z" fill="#484848"/>
</g>
<defs>
<clipPath id="clip0_190:369">
<rect width="64" height="64" fill="white"/>
</clipPath>
</defs>
</svg>
