<svg width="64" height="64" viewBox="0 0 64 64" fill="none" xmlns="http://www.w3.org/2000/svg">
<g clip-path="url(#clip0_1092:7)">
<path d="M59.5282 3.59093C54.8991 -1.19698 47.3153 -1.19698 42.6863 3.59093L33.5266 12.963C29.39 17.2415 28.8975 24.0669 32.2462 28.8548L28.8975 32.3183C24.2685 28.8548 17.6696 29.2622 13.533 33.6427L4.4718 43.0147C-0.157268 47.8026 -0.157268 55.6466 4.4718 60.4345C6.83558 62.8794 9.8888 64 12.942 64C15.9952 64 19.0485 62.7776 21.4122 60.4345L30.4734 51.0625C34.61 46.7839 35.1025 39.9586 31.7538 35.1707L35.1025 31.7071C37.1708 33.2352 39.633 34.0501 41.9968 34.0501C45.05 34.0501 48.1033 32.8277 50.467 30.4847L59.5282 21.1126C64.1573 16.3247 64.1573 8.4807 59.5282 3.59093ZM29.9809 42.4035C29.9809 44.6446 29.193 46.6821 27.6172 48.2101L18.556 57.5822C17.0786 59.1102 15.0103 60.0271 12.942 60.0271C10.8737 60.0271 8.8054 59.2121 7.32804 57.5822C5.75218 56.0541 4.96426 54.0167 4.96426 51.7756C4.96426 49.5344 5.75218 47.497 7.32804 45.969L16.3892 36.5969C17.8666 35.0688 19.9349 34.152 22.0032 34.152C23.4805 34.152 24.8594 34.5595 26.0413 35.2726L21.8062 39.653C21.0183 40.468 21.0183 41.6904 21.8062 42.5054C22.2002 42.9129 22.6926 43.1166 23.1851 43.1166C23.6775 43.1166 24.17 42.9129 24.5639 42.5054L28.799 38.125C29.587 39.4493 29.9809 40.8754 29.9809 42.4035ZM56.7705 18.1584L47.7093 27.5304C46.2319 29.0585 44.1636 29.9753 42.0953 29.9753C40.618 29.9753 39.2391 29.5678 38.0572 28.8548L42.2923 24.4743C43.0802 23.6594 43.0802 22.4369 42.2923 21.622C41.5044 20.807 40.3225 20.807 39.5345 21.622L35.2994 26.0024C33.5266 22.8444 33.9206 18.6677 36.4813 15.9172L45.5425 6.54517C46.9214 4.91524 48.8912 4.10028 51.058 4.10028C53.2248 4.10028 55.1946 4.91524 56.672 6.54517C58.1493 8.07322 59.0357 10.2125 59.0357 12.3518C59.0357 14.491 58.2478 16.6303 56.7705 18.1584Z" fill="#484848"/>
</g>
<defs>
<clipPath id="clip0_1092:7">
<rect width="64" height="64" fill="white"/>
</clipPath>
</defs>
</svg>
