<svg width="64" height="64" viewBox="0 0 64 64" fill="none" xmlns="http://www.w3.org/2000/svg">
<path fill-rule="evenodd" clip-rule="evenodd" d="M52.4458 60H11.5554C10.4509 60 9.55268 59.103 9.55268 58V19.135H54.4485V58C54.4485 59.103 53.5503 60 52.4458 60ZM11.5554 4H52.4458C53.5503 4 54.4485 4.897 54.4485 6V15.135H9.55268V6C9.55268 4.897 10.4509 4 11.5554 4ZM52.4452 0H11.5548C8.24128 0 5.54663 2.691 5.54663 6V58C5.54663 61.309 8.24128 64 11.5548 64H52.4452C55.7586 64 58.4533 61.309 58.4533 58V6C58.4533 2.691 55.7586 0 52.4452 0ZM31.9985 50.6884C26.8274 50.6884 22.4806 47.1444 21.2329 42.3654C22.1171 42.9004 23.3247 43.5764 25.4235 43.5764C27.6248 43.5764 28.8502 42.8313 29.7461 42.2864L29.7494 42.2844C30.4744 41.8424 30.912 41.5764 31.9914 41.5764C33.0729 41.5764 33.5105 41.8424 34.2355 42.2844L34.2376 42.2857C35.1336 42.8306 36.3601 43.5764 38.5643 43.5764C40.6682 43.5764 41.8788 42.8974 42.764 42.3614C41.5183 47.1424 37.1705 50.6884 31.9985 50.6884ZM31.9992 28.4465C37.5558 28.4465 42.16 32.5365 42.9901 37.8555C42.0378 38.1235 41.3609 38.5335 40.8092 38.8685L40.8033 38.872C40.0808 39.3109 39.6437 39.5765 38.5651 39.5765C37.485 39.5765 37.0464 39.3096 36.3218 38.8689L36.3211 38.8685C35.4259 38.3235 34.1982 37.5765 31.9922 37.5765C29.7872 37.5765 28.5606 38.3235 27.6654 38.8695L27.6587 38.8735C26.9377 39.3111 26.5005 39.5765 25.4243 39.5765C24.3486 39.5765 23.9115 39.3108 23.1908 38.8728L23.1853 38.8695C22.6346 38.5335 21.9586 38.1245 21.0084 37.8565C21.8375 32.5365 26.4427 28.4465 31.9992 28.4465ZM31.9991 24.4465C23.6498 24.4465 16.8576 31.2295 16.8576 39.5675V39.5735V39.5765C16.8576 39.5776 16.8578 39.5787 16.858 39.5798L16.8582 39.5812C16.8584 39.5825 16.8586 39.5836 16.8586 39.5845C16.8687 47.9145 23.6558 54.6885 31.9991 54.6885C40.3424 54.6885 47.1296 47.9145 47.1397 39.5845C47.1397 39.5825 47.1407 39.5795 47.1407 39.5765V39.5735V39.5675C47.1407 31.2295 40.3485 24.4465 31.9991 24.4465ZM50.5809 9.56692C50.5809 10.6819 49.6757 11.5859 48.5602 11.5859C47.4447 11.5859 46.5384 10.6819 46.5384 9.56692C46.5384 8.45292 47.4447 7.54992 48.5602 7.54992C49.6757 7.54992 50.5809 8.45292 50.5809 9.56692ZM14.9924 11.5674H21.1467C22.2522 11.5674 23.1494 10.6714 23.1494 9.5674C23.1494 8.4634 22.2522 7.5674 21.1467 7.5674H14.9924C13.8869 7.5674 12.9897 8.4634 12.9897 9.5674C12.9897 10.6714 13.8869 11.5674 14.9924 11.5674ZM42.4995 9.56692C42.4995 10.6819 41.5932 11.5859 40.4777 11.5859C39.3622 11.5859 38.457 10.6819 38.457 9.56692C38.457 8.45292 39.3622 7.54992 40.4777 7.54992C41.5932 7.54992 42.4995 8.45292 42.4995 9.56692Z" fill="#484848"/>
</svg>
