<svg width="64" height="64" viewBox="0 0 64 64" fill="none" xmlns="http://www.w3.org/2000/svg">
<path fill-rule="evenodd" clip-rule="evenodd" d="M59.9997 49.4649C59.9997 50.5679 59.1027 51.4649 57.9997 51.4649H5.99977C4.89677 51.4649 3.99977 50.5679 3.99977 49.4649V45.0929H59.9997V49.4649ZM8.17616 14.96C8.17616 13.858 9.07316 12.96 10.1762 12.96H52.5791C53.6821 12.96 54.5791 13.858 54.5791 14.96V41.084H8.17616V14.96ZM61.9999 41.093H58.5779V14.96C58.5779 11.652 55.8869 8.95996 52.5779 8.95996H10.175C6.86599 8.95996 4.175 11.652 4.175 14.96V41.093H2C0.895999 41.093 0 41.988 0 43.093V49.465C0 52.774 2.691 55.465 5.99999 55.465H57.9999C61.3089 55.465 63.9999 52.774 63.9999 49.465V43.093C63.9999 41.988 63.1039 41.093 61.9999 41.093Z" fill="#484848"/>
</svg>
