<svg width="64" height="64" viewBox="0 0 64 64" fill="none" xmlns="http://www.w3.org/2000/svg">
<path fill-rule="evenodd" clip-rule="evenodd" d="M53.7476 60C54.848 60 55.7428 59.103 55.7428 58V29.508C55.7428 28.405 54.848 27.508 53.7476 27.508H52.1974H11.8025H10.2522C9.15185 27.508 8.257 28.405 8.257 29.508V58C8.257 59.103 9.15185 60 10.2522 60H53.7476ZM31.3934 4C22.791 4 15.7929 11.015 15.7929 19.638V23.508H48.2069V19.638C48.2069 11.015 41.2088 4 32.6074 4H31.3934ZM52.1974 23.508H53.7477C57.0487 23.508 59.7333 26.199 59.7333 29.508V58C59.7333 61.309 57.0487 64 53.7477 64H10.2522C6.95215 64 4.2666 61.309 4.2666 58V29.508C4.2666 26.199 6.95215 23.508 10.2522 23.508H11.8025V19.638C11.8025 8.81 20.5914 0 31.3934 0H32.6075C43.4095 0 52.1974 8.81 52.1974 19.638V23.508ZM28.0097 42.3967C28.0097 40.1877 29.7965 38.3967 32.0002 38.3967C34.2039 38.3967 35.9906 40.1877 35.9906 42.3967C35.9906 43.8737 35.1825 45.1487 33.9954 45.8417V54.4377H30.0049V45.8417C28.8178 45.1487 28.0097 43.8737 28.0097 42.3967Z" fill="#484848"/>
</svg>
