<svg width="64" height="64" viewBox="0 0 64 64" fill="none" xmlns="http://www.w3.org/2000/svg">
<g clip-path="url(#clip0_1494:77)">
<path d="M63.9391 1.45631C63.7387 0.657034 62.9374 0.0575738 62.1361 0.0575738C60.4333 -0.0423362 23.072 -1.14135 8.64839 13.1458C-1.16771 22.937 -2.36968 37.6238 5.34297 46.9154C3.03919 51.4113 1.23623 56.3069 0.034262 61.6022C-0.166067 62.7012 0.535083 63.7003 1.53673 64C1.63689 64 1.83722 64 1.93738 64C2.83886 64 3.74034 63.4005 3.94067 62.4014C4.94231 57.9055 6.44478 53.7093 8.3479 49.8128C12.5548 53.2097 18.0638 55.108 23.7732 55.108C24.4743 55.108 25.1755 55.108 25.7765 55.0081C32.4875 54.5085 38.297 51.3114 42.1033 46.0162C46.3102 40.1215 48.7141 32.8281 50.7174 26.4338C51.8192 23.0369 52.8208 19.8398 54.0228 17.1422C58.7305 6.95137 63.1378 3.65434 63.1378 3.65434C63.8389 3.15479 64.1394 2.25559 63.9391 1.45631ZM50.4169 15.6435C49.1148 18.5409 48.013 21.838 46.9111 25.3348C44.9079 31.4293 42.7042 38.423 38.898 43.8182C35.7929 48.1143 31.0852 50.712 25.5762 51.1116C19.967 51.6112 14.3578 49.8128 10.4513 46.3159C21.3693 27.7327 40.3003 18.1413 40.6008 18.0414C41.6024 17.5418 42.0031 16.3429 41.5023 15.3438C41.0015 14.3447 39.7995 13.9451 38.7978 14.4446C37.7962 14.9442 19.0655 24.3357 7.64675 43.1188C2.23788 35.3258 3.74034 23.8362 11.5532 16.0432C21.8701 5.65254 46.9111 4.15389 57.3282 3.95407C55.3249 6.35191 52.921 10.0486 50.4169 15.6435Z" fill="#484848"/>
</g>
<defs>
<clipPath id="clip0_1494:77">
<rect width="64" height="64" fill="white"/>
</clipPath>
</defs>
</svg>
