<svg width="64" height="64" viewBox="0 0 64 64" fill="none" xmlns="http://www.w3.org/2000/svg">
<path fill-rule="evenodd" clip-rule="evenodd" d="M57.0134 44.5974C57.0134 45.7003 56.1166 46.5972 55.014 46.5972H9.41023C8.30757 46.5972 7.41085 45.7003 7.41085 44.5974V16.0264C7.41085 14.9235 8.30757 14.0266 9.41023 14.0266H32.7859C29.9988 16.6904 27.4476 19.4362 25.3213 22.229C23.6738 22.094 22.0183 22.437 20.6637 23.3089C20.0249 23.7209 19.4531 24.2438 18.9622 24.8628C18.9622 24.8638 18.9622 24.8638 18.9622 24.8648C17.6467 26.5297 17.1318 28.5925 16.678 30.4114C16.571 30.8394 16.467 31.2583 16.3541 31.6573C15.4923 34.7071 14.0438 38.5018 14.0288 38.5398C13.7689 39.2188 13.8978 39.9857 14.3657 40.5417C14.7506 40.9986 15.3124 41.2546 15.8962 41.2546C16.0232 41.2546 16.1521 41.2436 16.2791 41.2176C18.1885 40.8446 27.8485 38.8488 30.5506 36.146C32.0931 34.6041 32.9429 32.5532 32.9429 30.3704C32.9429 30.2304 32.9289 30.0924 32.9219 29.9524C34.4124 28.7975 35.9049 27.5386 37.4115 26.1587C37.6234 26.0237 37.8024 25.8527 37.9473 25.6577C41.3902 22.444 44.9111 18.6102 48.623 14.0266H55.014C56.1166 14.0266 57.0134 14.9235 57.0134 16.0264V44.5974ZM30.5524 24.5958C30.1775 24.2198 29.7626 23.8918 29.3248 23.6019C29.9096 22.8769 30.5174 22.155 31.1592 21.435C32.2758 22.095 33.1636 22.9389 33.8343 23.9868C33.0856 24.6538 32.3428 25.2867 31.605 25.8887C31.3011 25.4287 30.9512 24.9948 30.5524 24.5958ZM27.7239 27.4236C28.5107 28.2105 28.9445 29.2574 28.9445 30.3704C28.9445 31.4843 28.5107 32.5312 27.7239 33.3181C26.7852 34.2571 22.9654 35.537 19.0086 36.5159C19.4145 35.333 19.8494 33.9941 20.2032 32.7452C20.3262 32.3092 20.4412 31.8503 20.5581 31.3803C20.932 29.8824 21.3189 28.3325 22.0997 27.3426C22.3196 27.0666 22.5575 26.8466 22.8294 26.6716C24.194 25.7917 26.4373 26.1367 27.7239 27.4236ZM50.928 4.15624C50.982 4.11525 51.033 4.07225 51.0819 4.02725C51.1139 3.99626 51.1639 3.99826 51.1969 4.02925C51.2269 4.06025 51.2279 4.11125 51.1979 4.14325C51.1459 4.19924 51.0979 4.25724 51.053 4.31923C45.9975 11.1987 41.276 16.7883 36.7774 21.223C35.9997 20.1591 35.061 19.2372 33.9543 18.4732C39.0367 13.3706 45.2018 8.48793 50.928 4.15624ZM55.015 10.0269H51.769C52.5757 8.97194 53.3895 7.89102 54.2172 6.7651C55.6258 5.14821 55.5498 2.72839 54.0233 1.2015C52.4937 -0.331395 50.0665 -0.40239 48.449 1.01651C44.7492 3.81531 40.8724 6.84309 37.1925 10.0269H9.41121C6.10325 10.0269 3.41309 12.7177 3.41309 16.0264V44.5974C3.41309 47.9062 6.10325 50.597 9.41121 50.597H30.2127V60.0003H18.8123C17.7086 60.0003 16.8129 60.8962 16.8129 62.0001C16.8129 63.1051 17.7086 64 18.8123 64H45.6139C46.7175 64 47.6133 63.1051 47.6133 62.0001C47.6133 60.8962 46.7175 60.0003 45.6139 60.0003H34.2115V50.597H55.015C58.3229 50.597 61.0131 47.9062 61.0131 44.5974V16.0264C61.0131 12.7177 58.3229 10.0269 55.015 10.0269Z" fill="#484848"/>
</svg>
