<svg width="64" height="64" viewBox="0 0 64 64" fill="none" xmlns="http://www.w3.org/2000/svg">
<path d="M62 12H2C0.9 12 0 12.8955 0 13.99V50.0099C0 51.1045 0.9 52 2 52H62C63.1 52 64 51.1045 64 50.0099V13.99C64 12.8955 63.1 12 62 12ZM49 48.0199H15C14.1 42.3483 9.7 37.9701 4 37.0746V26.9254C9.6 26.0299 14.1 21.6517 15 15.9801H49C49.9 21.5522 54.3 26.0299 60 26.9254V37.0746C54.3 37.8706 49.9 42.3483 49 48.0199ZM60 22.8458C56.6 22.0498 53.9 19.3632 53.1 15.9801H60V22.8458ZM10.9 15.9801C10.1 19.3632 7.4 22.0498 4 22.8458V15.9801H10.9ZM4 41.0547C7.4 41.8507 10.2 44.5373 10.9 47.9204H4V41.0547ZM53.1 48.0199C53.9 44.6368 56.6 41.8507 60 41.1542V48.0199H53.1Z" fill="#484848"/>
<path d="M32 19.8607C25.3 19.8607 19.9 25.3333 19.9 31.9005C19.9 38.5672 25.4 43.9403 32 43.9403C38.6 43.9403 44.1 38.4677 44.1 31.9005C44.1 25.3333 38.7 19.8607 32 19.8607ZM32 40.0597C27.5 40.0597 23.9 36.3781 23.9 32C23.9 27.6219 27.6 23.9403 32 23.9403C36.4 23.9403 40.1 27.6219 40.1 32C40.1 36.3781 36.5 40.0597 32 40.0597Z" fill="#484848"/>
</svg>
