<svg width="64" height="64" viewBox="0 0 64 64" fill="none" xmlns="http://www.w3.org/2000/svg">
<path d="M62 10H10.1C9 10 8.1 10.8917 8.1 11.9816V18.0253H2C0.9 18.0253 0 18.9171 0 20.0069V51.0184C0 52.1083 0.9 53 2 53H53.9C55 53 55.9 52.1083 55.9 51.0184V44.9747H62C63.1 44.9747 64 44.0829 64 42.9931V11.9816C64 10.8917 63.1 10 62 10ZM51.9 27.3387C49.3 26.6452 47.3 24.5645 46.5 21.9885H51.9V27.3387ZM42.4 21.9885C43.2 26.7442 47 30.5092 51.8 31.3018V39.5253C47 40.318 43.2 44.0829 42.4 48.9378H13.4C12.6 44.182 8.8 40.417 4 39.5253V31.3018C8.8 30.5092 12.6 26.7442 13.4 21.9885H42.4ZM9.4 21.9885C8.7 24.5645 6.6 26.5461 4 27.3387V21.9885H9.4ZM4 43.6866C6.6 44.3802 8.7 46.4608 9.4 49.0369H4V43.6866ZM46.5 49.0369C47.2 46.4608 49.3 44.3802 51.9 43.6866V49.0369H46.5ZM60 41.0115H55.9V20.0069C55.9 18.9171 55 18.0253 53.9 18.0253H12.1V13.9631H60V41.0115Z" fill="#484848"/>
<path d="M27.9 46.1636C33.8 46.1636 38.7 41.4078 38.7 35.4631C38.7 29.6175 33.9 24.7627 27.9 24.7627C21.9 24.7627 17.1 29.5184 17.1 35.4631C17.2 41.4078 22 46.1636 27.9 46.1636ZM27.9 28.8249C31.6 28.8249 34.7 31.7972 34.7 35.5622C34.7 39.3272 31.7 42.2995 27.9 42.2995C24.1 42.2995 21.1 39.3272 21.1 35.5622C21.1 31.7972 24.2 28.8249 27.9 28.8249Z" fill="#484848"/>
</svg>
