<svg width="64" height="64" viewBox="0 0 64 64" fill="none" xmlns="http://www.w3.org/2000/svg">
<path fill-rule="evenodd" clip-rule="evenodd" d="M6.4 25.6001C2.86507 25.6001 0 28.4662 0 32.0001C0 35.534 2.86507 38.4001 6.4 38.4001C9.93387 38.4001 12.8 35.534 12.8 32.0001C12.8 28.4662 9.93387 25.6001 6.4 25.6001ZM32 25.6001C28.4651 25.6001 25.6 28.4662 25.6 32.0001C25.6 35.534 28.4651 38.4001 32 38.4001C35.5339 38.4001 38.4 35.534 38.4 32.0001C38.4 28.4662 35.5339 25.6001 32 25.6001ZM51.2 32.0001C51.2 28.4662 54.0651 25.6001 57.6 25.6001C61.1339 25.6001 64 28.4662 64 32.0001C64 35.534 61.1339 38.4001 57.6 38.4001C54.0651 38.4001 51.2 35.534 51.2 32.0001Z" fill="#484848"/>
</svg>
