<svg width="64" height="64" viewBox="0 0 64 64" fill="none" xmlns="http://www.w3.org/2000/svg">
<g clip-path="url(#clip0_1500:55)">
<path d="M59.5832 13.6799C59.5 13.5 59.4702 13.419 59.3832 13.2797C58.8834 12.4794 57.7837 12.2793 56.984 12.6795C56.3841 12.9796 56 13.5 55.8843 14.1801C55.1845 17.0813 53.585 19.0821 52.0855 20.3826C52.3854 7.67751 42.6883 0.67471 42.2884 0.37459C41.6886 -0.0255702 41 0 40.2891 0.17451C39.5922 0.37459 39.0894 0.87479 38.9894 1.57507C38.7895 3.07567 38.4896 4.77635 37.9898 6.57707C37.29 9.07807 36.2903 12.1793 34.3909 14.7803C33.891 15.4806 33.3912 16.0809 32.8913 16.6811C31.4917 18.3818 29.9922 20.1825 28.9925 22.2833C28.0928 24.2841 27.493 26.0849 27.193 27.8856C26.6932 31.0869 27.0931 34.2881 28.0928 37.1893L2.50057 53.7959C0.00132895 55.4966 -0.798427 58.898 0.901055 61.499C1.70081 62.7995 3.00042 63.5998 4.39999 63.9C4.79987 64 5.19974 64 5.59962 64C6.69929 64 7.69898 63.6999 8.59871 63.0997L34.9907 45.9928C37.19 47.4934 39.7892 48.5939 42.5883 48.994C43.588 49.1941 44.4878 49.1941 45.4875 49.1941C49.3863 49.1941 53.1851 47.9936 56.3841 45.5927C60.3829 42.6915 62.9821 38.3898 63.7819 33.4878C64.5816 28.2857 63.1821 21.5831 59.5832 13.6799ZM33.0912 38.2897L37.9898 33.3878C38.7895 32.5875 39.7892 32.0873 40.8889 32.1873C41.9885 32.2873 42.9882 32.8876 43.588 33.7879C44.1879 34.6883 44.2878 35.8888 43.9879 36.8892C43.688 37.8896 42.7883 38.7899 41.6886 39.0901L35.6905 41.2909C34.6908 40.4906 33.791 39.4902 33.0912 38.2897ZM6.39938 59.7983C5.9995 59.9984 5.59962 60.0984 5.19974 59.9984C4.79987 59.8984 4.39999 59.6983 4.20005 59.2981C3.7002 58.5979 3.90014 57.5975 4.6999 57.0973L29.9922 40.7907C30.592 41.6911 31.1918 42.4914 31.8916 43.2917L6.39938 59.7983ZM59.7831 32.9876C59.1833 36.7891 57.1839 40.1905 53.9849 42.4914C50.8858 44.7923 47.087 45.6927 43.1882 45.0925C41.9885 44.8924 40.8889 44.5923 39.7892 44.0921L42.8883 42.8916C45.1876 42.1913 46.887 40.4906 47.6868 38.1897C48.4866 35.8888 48.1866 33.4878 46.887 31.5871C45.5874 29.6863 43.4881 28.3858 41.1888 28.1857C38.7895 27.9856 36.5902 28.886 34.9907 30.5867L31.2918 34.2881C30.7919 32.4874 30.692 30.4866 30.9919 28.5859C31.1918 27.1853 31.6917 25.6847 32.3915 23.984C33.1912 22.2833 34.3909 20.7827 35.6905 19.2821C36.2903 18.5819 36.7901 17.8816 37.3899 17.1813C39.7892 14.0801 40.8889 10.4786 41.6886 7.67751C41.8886 7.07727 41.9885 6.37699 42.1885 5.77675C45.0876 8.87799 49.0864 14.9804 47.4869 23.7839C47.3869 24.4842 47.5868 25.1845 48.1866 25.6847C48.7865 26.1849 49.4862 26.2849 50.186 25.9848C50.386 25.8848 54.7846 24.1841 57.6838 19.5823C59.6831 24.8844 60.3829 29.4862 59.7831 32.9876Z" fill="#484848"/>
</g>
<defs>
<clipPath id="clip0_1500:55">
<rect width="64" height="64" fill="white"/>
</clipPath>
</defs>
</svg>
