<svg width="64" height="64" viewBox="0 0 64 64" fill="none" xmlns="http://www.w3.org/2000/svg">
<path d="M63.0858 42.3662C61.4862 39.4617 57.887 38.1596 54.6877 39.3615L43.3902 43.2676C42.3905 41.5649 40.6908 40.4632 38.5913 40.4632H32.9926C32.6926 40.4632 32.3927 40.3631 32.0928 40.2629L25.3943 36.5571C24.1946 35.856 22.6949 35.4554 21.2952 35.4554H11.4974C11.0975 32.4507 8.39811 30.0469 5.29881 30.0469H1.99955C0.899797 30.0469 0 30.9484 0 32.0501V57.9906C0 59.0923 0.899797 59.9937 1.99955 59.9937H5.29881C7.59829 59.9937 9.69782 58.6917 10.6976 56.7887C11.4974 56.989 12.1973 57.1894 12.5972 57.4898L18.8957 61.1956C21.5951 62.7981 24.5945 63.7997 27.4938 64C27.8937 64 28.1937 64 28.5936 64C31.193 64 33.6924 63.4992 36.0919 62.3975L59.6866 52.0814C61.4862 51.3803 62.8858 49.8779 63.5857 48.0751C64.2855 46.2723 64.0856 44.169 63.0858 42.3662ZM7.59829 53.784C7.59829 55.0861 6.59851 56.0876 5.29881 56.0876H3.9991V34.0532H5.29881C6.59851 34.0532 7.59829 35.0548 7.59829 36.3568V53.784ZM59.7865 46.7731C59.4866 47.5743 58.8867 48.1753 58.0869 48.4757L34.4922 58.7919C32.3927 59.7934 30.0932 60.1941 27.7937 59.9937C25.5942 59.8936 23.1948 59.0923 20.9953 57.7903L14.7967 54.0845C13.7969 53.4836 12.5972 53.1831 11.5974 52.8826V39.4617H21.2952C21.995 39.4617 22.7949 39.662 23.3947 40.0626L30.0932 43.7684C30.993 44.2692 31.8928 44.4695 32.8926 44.4695H38.5913C39.3911 44.4695 40.091 45.1706 40.091 45.9718C40.091 46.7731 39.3911 47.4742 38.5913 47.4742H28.2936C27.1939 47.4742 26.2941 48.3756 26.2941 49.4773C26.2941 50.579 27.1939 51.4804 28.2936 51.4804H38.5913C41.1907 51.4804 43.3902 49.6776 43.9901 47.2739H44.0901L56.0874 43.1674C57.4871 42.6667 58.9867 43.1674 59.6866 44.3693C59.9865 45.0704 60.0865 45.9718 59.7865 46.7731Z" fill="#484848"/>
<path d="M15.7965 30.5477H59.7866C60.8863 30.5477 61.7861 29.6463 61.7861 28.5446V2.00313C61.7861 0.901408 60.8863 0 59.7866 0H15.7965C14.6967 0 13.7969 0.901408 13.7969 2.00313V28.5446C13.7969 29.6463 14.6967 30.5477 15.7965 30.5477ZM25.7942 4.00626H49.8888C50.6886 8.01252 53.8879 11.2175 57.887 12.0188V18.6291C53.8879 19.4304 50.6886 22.6354 49.8888 26.6416H25.7942C24.9944 22.6354 21.7951 19.4304 17.796 18.6291V12.0188C21.7951 11.2175 24.9944 8.01252 25.7942 4.00626ZM17.796 22.7355C19.5956 23.3365 20.9953 24.7387 21.5952 26.5415H17.796V22.7355ZM53.9879 26.5415C54.5878 24.7387 55.9874 23.3365 57.787 22.7355V26.5415H53.9879ZM57.787 7.81221C55.9874 7.21127 54.5878 5.80908 53.9879 4.00626H57.787V7.81221ZM21.5952 4.00626C20.9953 5.80908 19.5956 7.21127 17.796 7.81221V4.00626H21.5952Z" fill="#484848"/>
<path d="M37.7915 24.7387C42.9903 24.7387 47.1894 20.5321 47.1894 15.3239C47.1894 10.1158 42.9903 5.80908 37.7915 5.80908C32.5927 5.80908 28.3936 10.0157 28.3936 15.2238C28.3936 20.4319 32.5927 24.7387 37.7915 24.7387ZM37.7915 9.81534C40.7908 9.81534 43.1903 12.2191 43.1903 15.2238C43.1903 18.2285 40.7908 20.6322 37.7915 20.6322C34.7922 20.6322 32.3927 18.2285 32.3927 15.2238C32.3927 12.2191 34.7922 9.81534 37.7915 9.81534Z" fill="#484848"/>
</svg>
