<svg width="64" height="64" viewBox="0 0 64 64" fill="none" xmlns="http://www.w3.org/2000/svg">
<path d="M63.7 60.7L44.8 29.7C44.4 29.1 43.8 28.7 43.1 28.7C42.4 28.7 41.8 29.1 41.4 29.7L35.9 38.8L26.8 23.8V16.4H43.1C43.9 16.4 44.6 16 44.9 15.3C45.2 14.6 45.1 13.8 44.7 13.2L40.7 8.2L44.7 3.2C45.2 2.6 45.3 1.8 44.9 1.1C44.6 0.4 43.9 0 43.1 0H24.8C23.7 0 22.8 0.9 22.8 2V14.6V23.9L0.3 60.9C-0.1 61.5 -0.1 62.3 0.3 62.9C0.7 63.5 1.3 63.9 2 63.9H62C62.7 63.9 63.4 63.5 63.7 62.9C64.1 62.1 64.1 61.3 63.7 60.7ZM36.6 9.3L39 12.3H26.8V3.8H39L36.6 6.8C36 7.6 36 8.6 36.6 9.3ZM5.6 59.8L24.8 28.2L34.2 43.7C34.6 44.3 35.2 44.7 35.9 44.7C36.6 44.7 37.2 44.3 37.6 43.7L43.1 34.6L58.4 59.8H5.6Z" fill="#484848"/>
</svg>
