<svg width="64" height="64" viewBox="0 0 64 64" fill="none" xmlns="http://www.w3.org/2000/svg">
<path fill-rule="evenodd" clip-rule="evenodd" d="M51.3019 49.894H22.8886C22.0941 49.894 21.4466 49.248 21.4466 48.454V5.441C21.4466 4.647 22.0941 4 22.8886 4H41.8282V13.213C41.8282 14.318 42.7248 15.213 43.8296 15.213H52.7439V48.454C52.7439 49.248 52.0975 49.894 51.3019 49.894ZM42.5547 58C42.5547 59.103 41.656 60 40.5532 60H13.2578C12.155 60 11.2563 59.103 11.2563 58V16.183C11.2563 15.081 12.155 14.183 13.2578 14.183H17.4438V48.454C17.4438 51.454 19.8865 53.894 22.8886 53.894H42.5547V58ZM51.7622 11.213H45.831V5.28802L51.7622 11.213ZM55.1526 8.945L47.7964 1.595C46.7836 0.581 45.3806 0 43.9456 0H22.8886C19.8864 0 17.4437 2.441 17.4437 5.441V10.183H13.2577C9.94734 10.183 7.25342 12.874 7.25342 16.183V58C7.25342 61.309 9.94734 64 13.2577 64H40.5532C43.8636 64 46.5575 61.309 46.5575 58V53.894H51.3019C54.304 53.894 56.7467 51.454 56.7467 48.454V12.792C56.7467 11.338 56.1803 9.972 55.1526 8.945Z" fill="#484848"/>
</svg>
