<svg width="64" height="64" viewBox="0 0 64 64" fill="none" xmlns="http://www.w3.org/2000/svg">
<g clip-path="url(#clip0_247:272)">
<path d="M63.5182 22.3745L54.712 13.5834C54.3366 13.2108 53.8288 13.0017 53.2994 13.0017C52.7701 13.0017 52.2623 13.2108 51.8868 13.5834L43.0707 22.3745C42.8699 22.5568 42.7082 22.778 42.5956 23.0245C42.483 23.271 42.4217 23.5378 42.4155 23.8087C42.4094 24.0796 42.4584 24.3489 42.5596 24.6004C42.6608 24.8518 42.8121 25.08 43.0044 25.2713C43.1967 25.4626 43.4258 25.6128 43.6781 25.713C43.9303 25.8131 44.2002 25.8611 44.4715 25.854C44.7429 25.8468 45.0099 25.7847 45.2565 25.6714C45.503 25.5581 45.724 25.396 45.9059 25.1949L51.2857 19.8242V26.8851C51.2857 29.1672 50.3783 31.356 48.7628 32.9706C47.1473 34.5852 44.9559 35.4936 42.6699 35.4963C39.4669 35.502 36.3863 36.725 34.0541 38.9167V6.82248L39.444 12.1932C39.6236 12.4026 39.8447 12.5726 40.0933 12.6927C40.3418 12.8128 40.6126 12.8802 40.8885 12.8909C41.1645 12.9015 41.4397 12.8551 41.6968 12.7545C41.9539 12.654 42.1874 12.5014 42.3827 12.3065C42.578 12.1116 42.7308 11.8784 42.8315 11.6218C42.9322 11.3651 42.9787 11.0904 42.9681 10.8149C42.9574 10.5394 42.8898 10.2691 42.7696 10.021C42.6493 9.7728 42.4789 9.55214 42.2692 9.37282L33.463 0.581662C33.0876 0.209111 32.5798 0 32.0504 0C31.5211 0 31.0132 0.209111 30.6378 0.581662L21.8317 9.37282C21.5034 9.75547 21.3319 10.2477 21.3514 10.7511C21.3708 11.2545 21.5799 11.7321 21.9367 12.0883C22.2936 12.4445 22.7719 12.6532 23.2762 12.6727C23.7805 12.6921 24.2735 12.5209 24.6569 12.1932L30.0467 6.82248V46.6277C28.1263 45.0627 25.7233 44.2078 23.2443 44.2074H19.6076C17.8043 44.2048 16.0756 43.4884 14.8004 42.2155C13.5253 40.9425 12.8077 39.2167 12.8051 37.4165V29.8255L18.185 35.1962C18.5596 35.5729 19.0688 35.7855 19.6005 35.7874C20.1322 35.7893 20.6429 35.5802 21.0202 35.2062C21.3975 34.8322 21.6105 34.3239 21.6124 33.7931C21.6143 33.2623 21.4048 32.7525 21.0302 32.3758L12.214 23.5847C11.8386 23.2121 11.3308 23.003 10.8014 23.003C10.2721 23.003 9.76424 23.2121 9.38882 23.5847L0.582655 32.3758C0.209468 32.7506 0 33.2576 0 33.786C0 34.3145 0.209468 34.8214 0.582655 35.1962C0.958069 35.5688 1.46591 35.7779 1.99525 35.7779C2.52459 35.7779 3.03243 35.5688 3.40784 35.1962L8.79774 29.8255V37.4165C8.80039 40.2778 9.94013 43.0211 11.9668 45.0443C13.9935 47.0675 16.7414 48.2053 19.6076 48.2079H23.2443C25.0476 48.2106 26.7763 48.9269 28.0514 50.1999C29.3266 51.4728 30.0441 53.1986 30.0467 54.9988V61.9997C30.0467 62.5302 30.2578 63.039 30.6336 63.4141C31.0094 63.7893 31.519 64 32.0504 64C32.5818 64 33.0915 63.7893 33.4672 63.4141C33.843 63.039 34.0541 62.5302 34.0541 61.9997V48.1079C34.0568 45.8249 34.9664 43.6362 36.5835 42.0218C38.2006 40.4075 40.393 39.4994 42.6799 39.4968C46.0279 39.4915 49.2371 38.1607 51.6036 35.7965C53.97 33.4322 55.3005 30.2274 55.3031 26.8851V19.8242L60.693 25.1949C61.0763 25.5226 61.5694 25.6938 62.0737 25.6744C62.5779 25.6549 63.0563 25.4462 63.4131 25.09C63.77 24.7338 63.979 24.2562 63.9985 23.7528C64.018 23.2494 63.8465 22.7572 63.5182 22.3745Z" fill="#484848"/>
</g>
<defs>
<clipPath id="clip0_247:272">
<rect width="64" height="64" fill="white"/>
</clipPath>
</defs>
</svg>
