<svg width="64" height="64" viewBox="0 0 64 64" fill="none" xmlns="http://www.w3.org/2000/svg">
<path fill-rule="evenodd" clip-rule="evenodd" d="M4 23.21C4 12.618 12.618 4 23.21 4C33.802 4 42.42 12.618 42.42 23.21C42.42 33.802 33.802 42.42 23.21 42.42C12.618 42.42 4 33.802 4 23.21ZM63.414 60.586L40.965 38.137C44.365 34.098 46.42 28.891 46.42 23.21C46.42 10.412 36.008 0 23.21 0C10.412 0 0 10.412 0 23.21C0 36.008 10.412 46.42 23.21 46.42C28.89 46.42 34.098 44.365 38.137 40.965L60.586 63.414C60.976 63.805 61.488 64 62 64C62.512 64 63.024 63.805 63.414 63.414C64.195 62.633 64.195 61.367 63.414 60.586Z" fill="#484848"/>
</svg>
