<svg width="64" height="64" viewBox="0 0 64 64" fill="none" xmlns="http://www.w3.org/2000/svg">
<path fill-rule="evenodd" clip-rule="evenodd" d="M52.4554 8.8H45.758V6C45.758 2.7 43.059 0 39.7603 0H24.666C21.3673 0 18.6683 2.7 18.6683 6V8.8H11.9709C8.67212 8.8 5.97314 11.5 5.97314 14.8V58C5.97314 61.3 8.67212 64 11.9709 64H52.4554C55.7542 64 58.4531 61.3 58.4531 58V14.8C58.4531 11.5 55.7542 8.8 52.4554 8.8ZM22.6668 6C22.6668 4.9 23.5664 4 24.666 4H39.7603C40.8599 4 41.7595 4.9 41.7595 6V8.8H22.6668V6ZM54.4547 58C54.4547 59.1 53.555 60 52.4554 60H11.9709C10.8713 60 9.97162 59.1 9.97162 58V14.8C9.97162 13.7 10.8713 12.8 11.9709 12.8H20.6675H43.7587H52.4554C53.555 12.8 54.4547 13.7 54.4547 14.8V58ZM32.2627 22.7C24.6656 22.7 18.5679 28.9 18.5679 36.4C18.5679 44 24.7656 50.1 32.2627 50.1C39.7598 50.1 45.9575 44 45.9575 36.4C45.9575 28.8 39.7598 22.7 32.2627 22.7ZM32.2627 46.1C26.8648 46.1 22.5664 41.7 22.5664 36.4C22.5664 31 26.9647 26.7 32.2627 26.7C37.5607 26.7 41.959 31 41.959 36.4C41.959 41.8 37.5607 46.1 32.2627 46.1ZM34.2623 34.4H36.2616C37.3612 34.4 38.2608 35.3 38.2608 36.4C38.2608 37.5 37.3612 38.4 36.2616 38.4H34.2623V40.4C34.2623 41.5 33.3627 42.4 32.2631 42.4C31.1635 42.4 30.2639 41.5 30.2639 40.4V38.4H28.2646C27.165 38.4 26.2654 37.5 26.2654 36.4C26.2654 35.3 27.165 34.4 28.2646 34.4H30.2639V32.4C30.2639 31.3 31.1635 30.4 32.2631 30.4C33.3627 30.4 34.2623 31.3 34.2623 32.4V34.4Z" fill="#484848"/>
</svg>
