<svg width="64" height="64" viewBox="0 0 64 64" fill="none" xmlns="http://www.w3.org/2000/svg">
<path fill-rule="evenodd" clip-rule="evenodd" d="M4 32C4 47.439 16.561 60 32 60C47.439 60 60 47.439 60 32C60 16.561 47.439 4 32 4C16.561 4 4 16.561 4 32ZM0 32C0 14.355 14.355 0 32 0C49.645 0 64 14.355 64 32C64 49.645 49.645 64 32 64C14.355 64 0 49.645 0 32ZM18.5522 30H45.4482C46.5522 30 47.4482 30.896 47.4482 32C47.4482 33.104 46.5522 34 45.4482 34H18.5522C17.4472 34 16.5522 33.104 16.5522 32C16.5522 30.896 17.4472 30 18.5522 30Z" fill="#484848"/>
</svg>
