<svg width="64" height="64" viewBox="0 0 64 64" fill="none" xmlns="http://www.w3.org/2000/svg">
<path fill-rule="evenodd" clip-rule="evenodd" d="M4 32C4 16.561 16.561 4 32 4C47.439 4 60 16.561 60 32C60 47.439 47.439 60 32 60C16.561 60 4 47.439 4 32ZM0 32C0 49.645 14.355 64 32 64C49.645 64 64 49.645 64 32C64 14.355 49.645 0 32 0C14.355 0 0 14.355 0 32ZM20 28C21.657 28 23 26.656 23 25C23 23.343 21.657 22 20 22C18.344 22 17 23.343 17 25C17 26.656 18.344 28 20 28ZM47 25C47 26.656 45.657 28 44 28C42.344 28 41 26.656 41 25C41 23.343 42.344 22 44 22C45.657 22 47 23.343 47 25ZM16.9847 45.099C17.1917 46.032 18.0177 46.667 18.9357 46.667C19.0797 46.667 19.2237 46.652 19.3697 46.62L46.4947 40.62C47.5737 40.381 48.2537 39.313 48.0157 38.235C47.7767 37.155 46.7077 36.475 45.6307 36.714L18.5057 42.714C17.4267 42.953 16.7467 44.021 16.9847 45.099Z" fill="#484848"/>
</svg>
