<svg width="64" height="64" viewBox="0 0 64 64" fill="none" xmlns="http://www.w3.org/2000/svg">
<g clip-path="url(#clip0_267:50)">
<path fill-rule="evenodd" clip-rule="evenodd" d="M60.4045 29.0839C61.1336 28.1451 62.4874 28.1451 63.3206 28.8753C64.1538 29.6055 64.2579 30.9616 63.4248 31.7961L56.1346 39.9325C55.8221 40.3498 55.1973 40.6627 54.6765 40.6627H54.5724C54.0516 40.6627 53.5309 40.4541 53.1143 40.0369L44.991 31.9004C44.1578 31.0659 44.1578 29.8141 44.991 28.9796C45.8241 28.1451 47.0739 28.1451 47.907 28.9796L52.4895 33.5694V31.4831C52.0729 18.3396 41.45 8.01255 28.3276 8.01255C14.997 8.01255 4.16583 18.8612 4.16583 32.2133C4.16583 45.5655 14.997 56.5184 28.3276 56.4141C36.0344 56.4141 43.1163 52.8674 47.6988 46.6086C48.4278 45.6698 49.6775 45.4612 50.6148 46.1914C51.5521 46.9216 51.7604 48.1733 51.0314 49.1122C45.72 56.3098 37.2842 60.5867 28.3276 60.5867C12.7058 60.5867 0 47.8604 0 32.2133C0 16.5663 12.7058 3.84 28.3276 3.84C43.7412 3.84 56.2387 15.9404 56.7594 31.3788V33.1522L60.4045 29.0839ZM37.8051 22.8251C38.6383 22.0949 39.888 22.0949 40.7212 22.9294C41.4502 23.7639 41.4502 25.12 40.5129 25.8502L33.2227 32.8392V33.3608C33.2227 35.2384 31.6605 36.8031 29.7859 36.8031C27.9113 36.8031 26.3491 35.2384 26.3491 33.3608V32.9435L15.4138 21.3647C14.6848 20.5302 14.6848 19.2784 15.5179 18.4439C16.3511 17.7137 17.6008 17.7137 18.434 18.5482L29.161 30.0227C29.3693 29.9184 29.5776 29.9184 29.7859 29.9184H30.3066L37.8051 22.8251Z" fill="#484848"/>
</g>
<defs>
<clipPath id="clip0_267:50">
<rect width="64" height="64" fill="white"/>
</clipPath>
</defs>
</svg>
