<svg width="64" height="64" viewBox="0 0 64 64" fill="none" xmlns="http://www.w3.org/2000/svg">
<path d="M2.00313 52.2C5.20814 52.2 6.9108 50.8 8.31299 49.8C9.51487 48.9 10.3161 48.2 12.1189 48.2C13.9218 48.2 14.723 48.8 15.9249 49.8C17.3271 50.9 18.9296 52.2 22.2347 52.2C25.4398 52.2 27.1424 50.8 28.4444 49.8C29.6463 48.9 30.4476 48.2 32.1502 48.2C33.9531 48.2 34.7543 48.8 35.9562 49.8C37.3584 50.9 38.9609 52.2 42.1659 52.2C45.3709 52.2 47.0736 50.8 48.3756 49.8C49.5775 48.9 50.3787 48.2 52.0814 48.2C53.8842 48.2 54.6854 48.8 55.7872 49.8C57.1894 50.9 58.7919 52.2 61.9969 52.2C63.0986 52.2 64 51.3 64 50.2C64 49.1 63.0986 48.2 61.9969 48.2C60.1941 48.2 59.3928 47.6 58.2911 46.6C57.0892 45.6 55.4867 44.4 52.8826 44.2C52.3818 43.7 51.6808 43 51.3803 42.6C47.5743 38.6 45.3709 32.6 45.9718 27.8C46.3725 24.7 47.7747 22.3 50.2786 20.6C51.3803 20 52.5822 19.7 53.784 19.7C55.687 19.7 56.6886 20.5 57.7903 21.9C58.3912 22.6 59.2926 22.9 60.1941 22.5C60.9953 22.1 61.4961 21.3 61.3959 20.4C59.7934 9.1 52.9828 3 41.7653 3C37.2582 3 32.8513 4.4 28.8451 7.1C24.338 10.2 21.133 14.5 18.9296 20.5C17.928 23.1 17.3271 25.8 16.7261 28.4L16.2254 30.7C15.0235 35.9 13.6213 41.8 9.2144 44.6C7.71205 45.1 6.71049 45.9 5.80908 46.6C4.6072 47.5 3.80595 48.2 2.00313 48.2C0.901408 48.2 0 49.1 0 50.2C0 51.3 0.901408 52.2 2.00313 52.2ZM48.2754 17.3L48.1753 17.4C44.6698 19.7 42.5665 23.2 42.0657 27.5C41.3646 33.3 43.8685 40.3 48.2754 45.2C47.374 45.7 46.5728 46.2 45.9718 46.8C44.77 47.7 43.9687 48.4 42.266 48.4C40.4632 48.4 39.662 47.8 38.4601 46.8C37.0579 45.7 35.4554 44.4 32.2504 44.4C31.4491 44.4 30.8482 44.5 30.2473 44.6C29.0454 36.6 30.2473 25.6 35.1549 19.4C37.759 16.1 41.1643 14.4 45.1706 14.3C48.0751 14.2 50.3787 14.8 52.482 16.1C50.8795 16.1 49.4773 16.6 48.2754 17.3ZM20.1315 31.7L20.6322 29.4C21.2332 26.8 21.8341 24.3 22.6354 22C24.5383 16.9 27.2426 13.1 31.0485 10.6C34.3537 8.2 38.1596 7 41.7653 7C47.5743 7 51.7809 8.8 54.385 12.6C51.6808 10.9 48.6761 10.1 44.8701 10.2C39.662 10.3 35.1549 12.6 31.7496 16.8C25.7402 24.4 24.4382 37.2 26.241 46.3C26.0407 46.4 25.9405 46.6 25.7402 46.7C24.5383 47.6 23.7371 48.3 22.0344 48.3C20.2316 48.3 19.4304 47.7 18.2285 46.7C17.3271 46 16.3255 45.2 14.9233 44.7C17.928 40.9 19.1299 35.9 20.1315 31.7Z" fill="#484848"/>
<path d="M62.097 58C60.2942 58 59.493 57.4 58.3912 56.4C56.989 55.3 55.3865 54 52.1815 54C48.9765 54 47.2739 55.4 45.9718 56.4C44.77 57.3 43.9687 58 42.266 58C40.4632 58 39.662 57.4 38.4601 56.4C37.0579 55.3 35.4554 54 32.2504 54C29.0454 54 27.3427 55.4 26.0407 56.4C24.8388 57.3 24.0376 58 22.3349 58C20.5321 58 19.7308 57.4 18.529 56.4C17.1268 55.3 15.5243 54 12.2191 54C9.01408 54 7.31142 55.4 5.90923 56.4C4.6072 57.4 3.80595 58 2.00313 58C0.901408 58 0 58.9 0 60C0 61.1 0.901408 62 2.00313 62C5.20814 62 6.9108 60.6 8.31299 59.6C9.51487 58.7 10.3161 58 12.1189 58C13.9218 58 14.723 58.6 15.9249 59.6C17.3271 60.7 18.9296 62 22.2347 62C25.4398 62 27.1424 60.6 28.4444 59.6C29.6463 58.7 30.4476 58 32.1502 58C33.9531 58 34.7543 58.6 35.9562 59.6C37.3584 60.7 38.9609 62 42.1659 62C45.3709 62 47.0736 60.6 48.3756 59.6C49.5775 58.7 50.3787 58 52.0814 58C53.8842 58 54.6854 58.6 55.7872 59.6C57.1894 60.7 58.7919 62 61.9969 62C63.0986 62 64 61.1 64 60C64 58.9 63.1987 58 62.097 58Z" fill="#484848"/>
</svg>
