<svg width="64" height="64" viewBox="0 0 64 64" fill="none" xmlns="http://www.w3.org/2000/svg">
<path d="M61.9937 13.9201H56.3762V9.29073V9.19009C56.3762 9.08945 56.3762 9.08945 56.3762 8.98881C56.3762 8.88817 56.3762 8.88817 56.3762 8.78753C56.3762 8.6869 56.3762 8.6869 56.2759 8.58626C56.2759 8.48562 56.2759 8.48562 56.1756 8.38498C56.1756 8.28434 56.0752 8.28434 56.0752 8.1837C56.0752 8.08306 55.9749 8.08306 55.9749 7.98242C55.9749 7.88178 55.8746 7.88178 55.8746 7.78114L55.7743 7.68051C55.7743 7.68051 55.674 7.57987 55.5737 7.57987C55.5737 7.57987 55.4734 7.47923 55.373 7.47923C55.2727 7.47923 55.2727 7.37859 55.1724 7.37859C55.0721 7.37859 55.0721 7.27795 54.9718 7.27795C54.8715 7.27795 54.8715 7.27795 54.7712 7.17731C54.6708 7.17731 54.6708 7.17731 54.5705 7.17731H54.4702C45.1411 6.3722 38.1191 8.28434 32.1003 13.4169C26.0815 8.28434 19.0596 6.3722 9.63009 7.27795H9.52978C9.42947 7.27795 9.42947 7.27795 9.32915 7.27795C9.22884 7.27795 9.22884 7.27795 9.12853 7.37859C9.02821 7.47923 9.02821 7.47923 8.9279 7.47923C8.82759 7.47923 8.82759 7.57987 8.72727 7.57987C8.62696 7.57987 8.62696 7.68051 8.52665 7.68051C8.42633 7.68051 8.42633 7.78114 8.32602 7.78114L8.22571 7.88178C8.22571 7.88178 8.12539 7.98242 8.12539 8.08306C8.12539 8.1837 8.02508 8.1837 8.02508 8.28434C8.02508 8.28434 8.02508 8.38498 8.02508 8.48562C8.02508 8.58626 7.92477 8.58626 7.92477 8.6869C7.92477 8.78753 7.92477 8.78753 7.82445 8.88817C7.82445 8.98881 7.82445 8.98881 7.82445 9.08945C7.82445 9.19009 7.82445 9.19009 7.82445 9.29073V9.39137V14.0208H2.00627C0.902821 14.0208 0 14.9265 0 16.0335V55.9872C0 57.0942 0.902821 58 2.00627 58H32.1003H61.9937C63.0972 58 64 57.0942 64 55.9872V15.9329C64 14.8259 63.0972 13.9201 61.9937 13.9201ZM52.3636 11.2029V46.9297C45.0408 46.5272 39.1223 47.9361 34.1066 51.5591V17.0399C39.0219 12.5112 44.6395 10.6997 52.3636 11.2029ZM30.094 17.0399V51.5591C25.0784 47.9361 19.1599 46.4265 11.837 46.8291V11.2029C19.5611 10.6997 25.1787 12.5112 30.094 17.0399ZM4.01254 17.9457H7.82445V49.0431V49.1438V49.2444V49.3451C7.82445 49.4457 7.82445 49.4457 7.82445 49.5463C7.82445 49.647 7.82445 49.647 7.92477 49.7476C7.92477 49.8482 7.92477 49.8482 8.02508 49.9489C8.02508 50.0495 8.12539 50.0495 8.12539 50.1502C8.12539 50.1502 8.12539 50.2508 8.22571 50.2508C8.32602 50.3514 8.32602 50.4521 8.42633 50.4521C8.42633 50.4521 8.42633 50.4521 8.42633 50.5527C8.52665 50.6534 8.62696 50.6534 8.72727 50.754C8.82759 50.8546 8.9279 50.8546 9.02821 50.9553C9.12853 50.9553 9.22884 51.0559 9.32915 51.0559H9.42947C9.52978 51.0559 9.63009 51.0559 9.73041 51.0559H9.83072H9.93104H10.0313C16.7524 50.3514 21.8683 51.2572 26.2821 53.8738H4.01254V17.9457ZM59.9875 53.8738H37.9185C42.3323 51.2572 47.4483 50.3514 54.1693 51.0559H54.2696H54.3699H54.4702C54.5705 51.0559 54.6708 51.0559 54.7712 51.0559H54.8715C54.9718 51.0559 55.0721 51.0559 55.1724 50.9553H55.2727C55.373 50.9553 55.4734 50.8546 55.4734 50.8546C55.4734 50.8546 55.5737 50.8546 55.5737 50.754C55.674 50.754 55.674 50.6534 55.7743 50.5527L55.8746 50.4521C55.9749 50.3514 55.9749 50.3514 55.9749 50.2508L56.0752 50.1502C56.0752 50.0495 56.1756 50.0495 56.1756 49.9489C56.1756 49.8482 56.2759 49.8482 56.2759 49.7476C56.2759 49.647 56.2759 49.647 56.3762 49.5463C56.3762 49.4457 56.3762 49.4457 56.3762 49.3451V49.2444V49.1438V49.0431V17.9457H59.9875V53.8738Z" fill="#484848"/>
</svg>
