<svg width="64" height="64" viewBox="0 0 64 64" fill="none" xmlns="http://www.w3.org/2000/svg">
<path fill-rule="evenodd" clip-rule="evenodd" d="M4 32C4 16.561 16.561 4 32 4C47.439 4 60 16.561 60 32C60 47.439 47.439 60 32 60C16.561 60 4 47.439 4 32ZM0 32C0 49.645 14.355 64 32 64C49.645 64 64 49.645 64 32C64 14.355 49.645 0 32 0C14.355 0 0 14.355 0 32ZM20 28C21.656 28 23 26.657 23 25C23 23.344 21.656 22 20 22C18.343 22 17 23.344 17 25C17 26.657 18.343 28 20 28ZM47 25C47 26.657 45.656 28 44 28C42.343 28 41 26.657 41 25C41 23.344 42.343 22 44 22C45.656 22 47 23.344 47 25ZM34.6412 41.657C35.6562 40.535 37.0492 39 39.7482 39C42.4472 39 43.8402 40.535 44.8552 41.657C45.7222 42.612 46.1092 43 47.0002 43C48.1042 43 49.0002 43.896 49.0002 45C49.0002 46.104 48.1042 47 47.0002 47C44.3012 47 42.9082 45.465 41.8932 44.343C41.0262 43.388 40.6392 43 39.7482 43C38.8572 43 38.4702 43.388 37.6032 44.343C36.5882 45.465 35.1952 47 32.4962 47C29.7982 47 28.4062 45.464 27.3912 44.343C26.5252 43.388 26.1392 43 25.2492 43C24.3592 43 23.9732 43.388 23.1072 44.343L23.1071 44.3432C22.0911 45.4641 20.6991 47 18.0002 47C16.8952 47 16.0002 46.104 16.0002 45C16.0002 43.896 16.8952 43 18.0002 43C18.8912 43 19.2772 42.612 20.1432 41.657C21.1592 40.535 22.5512 39 25.2492 39C27.9482 39 29.3402 40.536 30.3552 41.657C31.2212 42.612 31.6072 43 32.4962 43C33.3872 43 33.7742 42.612 34.6412 41.657Z" fill="#484848"/>
</svg>
