<svg width="64" height="64" viewBox="0 0 64 64" fill="none" xmlns="http://www.w3.org/2000/svg">
<path d="M62 15H49V2C49 0.9 48.1 0 47 0H17C15.9 0 15 0.9 15 2V15H2C0.9 15 0 15.9 0 17V62C0 63.1 0.9 64 2 64H62C63.1 64 64 63.1 64 62V17C64 15.9 63.1 15 62 15ZM4 19H15V60H4V19ZM19 4H45V60H41.5V47C41.5 45.9 40.6 45 39.5 45H24.5C23.4 45 22.5 45.9 22.5 47V60H19V4ZM26.5 49H30V60H26.5V49ZM34 60V49H37.5V60H34ZM60 60H49V19H60V60Z" fill="#484848"/>
<path d="M9.5 26.5C10.6046 26.5 11.5 25.6046 11.5 24.5C11.5 23.3954 10.6046 22.5 9.5 22.5C8.39543 22.5 7.5 23.3954 7.5 24.5C7.5 25.6046 8.39543 26.5 9.5 26.5Z" fill="#484848"/>
<path d="M24.5 11.5C25.6046 11.5 26.5 10.6046 26.5 9.5C26.5 8.39543 25.6046 7.5 24.5 7.5C23.3954 7.5 22.5 8.39543 22.5 9.5C22.5 10.6046 23.3954 11.5 24.5 11.5Z" fill="#484848"/>
<path d="M9.5 34C10.6046 34 11.5 33.1046 11.5 32C11.5 30.8954 10.6046 30 9.5 30C8.39543 30 7.5 30.8954 7.5 32C7.5 33.1046 8.39543 34 9.5 34Z" fill="#484848"/>
<path d="M9.5 41.5C10.6046 41.5 11.5 40.6046 11.5 39.5C11.5 38.3954 10.6046 37.5 9.5 37.5C8.39543 37.5 7.5 38.3954 7.5 39.5C7.5 40.6046 8.39543 41.5 9.5 41.5Z" fill="#484848"/>
<path d="M9.5 49C10.6046 49 11.5 48.1046 11.5 47C11.5 45.8954 10.6046 45 9.5 45C8.39543 45 7.5 45.8954 7.5 47C7.5 48.1046 8.39543 49 9.5 49Z" fill="#484848"/>
<path d="M9.5 56.5C10.6046 56.5 11.5 55.6046 11.5 54.5C11.5 53.3954 10.6046 52.5 9.5 52.5C8.39543 52.5 7.5 53.3954 7.5 54.5C7.5 55.6046 8.39543 56.5 9.5 56.5Z" fill="#484848"/>
<path d="M54.5 26.5C55.6046 26.5 56.5 25.6046 56.5 24.5C56.5 23.3954 55.6046 22.5 54.5 22.5C53.3954 22.5 52.5 23.3954 52.5 24.5C52.5 25.6046 53.3954 26.5 54.5 26.5Z" fill="#484848"/>
<path d="M54.5 34C55.6046 34 56.5 33.1046 56.5 32C56.5 30.8954 55.6046 30 54.5 30C53.3954 30 52.5 30.8954 52.5 32C52.5 33.1046 53.3954 34 54.5 34Z" fill="#484848"/>
<path d="M54.5 41.5C55.6046 41.5 56.5 40.6046 56.5 39.5C56.5 38.3954 55.6046 37.5 54.5 37.5C53.3954 37.5 52.5 38.3954 52.5 39.5C52.5 40.6046 53.3954 41.5 54.5 41.5Z" fill="#484848"/>
<path d="M54.5 49C55.6046 49 56.5 48.1046 56.5 47C56.5 45.8954 55.6046 45 54.5 45C53.3954 45 52.5 45.8954 52.5 47C52.5 48.1046 53.3954 49 54.5 49Z" fill="#484848"/>
<path d="M54.5 56.5C55.6046 56.5 56.5 55.6046 56.5 54.5C56.5 53.3954 55.6046 52.5 54.5 52.5C53.3954 52.5 52.5 53.3954 52.5 54.5C52.5 55.6046 53.3954 56.5 54.5 56.5Z" fill="#484848"/>
<path d="M32 11.4C33.1046 11.4 34 10.5046 34 9.4C34 8.29543 33.1046 7.4 32 7.4C30.8954 7.4 30 8.29543 30 9.4C30 10.5046 30.8954 11.4 32 11.4Z" fill="#484848"/>
<path d="M39.5 11.4C40.6046 11.4 41.5 10.5046 41.5 9.4C41.5 8.29543 40.6046 7.4 39.5 7.4C38.3954 7.4 37.5 8.29543 37.5 9.4C37.5 10.5046 38.3954 11.4 39.5 11.4Z" fill="#484848"/>
<path d="M24.5 19C25.6046 19 26.5 18.1046 26.5 17C26.5 15.8954 25.6046 15 24.5 15C23.3954 15 22.5 15.8954 22.5 17C22.5 18.1046 23.3954 19 24.5 19Z" fill="#484848"/>
<path d="M24.5 26.5C25.6046 26.5 26.5 25.6046 26.5 24.5C26.5 23.3954 25.6046 22.5 24.5 22.5C23.3954 22.5 22.5 23.3954 22.5 24.5C22.5 25.6046 23.3954 26.5 24.5 26.5Z" fill="#484848"/>
<path d="M24.5 34C25.6046 34 26.5 33.1046 26.5 32C26.5 30.8954 25.6046 30 24.5 30C23.3954 30 22.5 30.8954 22.5 32C22.5 33.1046 23.3954 34 24.5 34Z" fill="#484848"/>
<path d="M24.5 41.5C25.6046 41.5 26.5 40.6046 26.5 39.5C26.5 38.3954 25.6046 37.5 24.5 37.5C23.3954 37.5 22.5 38.3954 22.5 39.5C22.5 40.6046 23.3954 41.5 24.5 41.5Z" fill="#484848"/>
<path d="M32 19C33.1046 19 34 18.1046 34 17C34 15.8954 33.1046 15 32 15C30.8954 15 30 15.8954 30 17C30 18.1046 30.8954 19 32 19Z" fill="#484848"/>
<path d="M32 26.5C33.1046 26.5 34 25.6046 34 24.5C34 23.3954 33.1046 22.5 32 22.5C30.8954 22.5 30 23.3954 30 24.5C30 25.6046 30.8954 26.5 32 26.5Z" fill="#484848"/>
<path d="M32 34C33.1046 34 34 33.1046 34 32C34 30.8954 33.1046 30 32 30C30.8954 30 30 30.8954 30 32C30 33.1046 30.8954 34 32 34Z" fill="#484848"/>
<path d="M32 41.5C33.1046 41.5 34 40.6046 34 39.5C34 38.3954 33.1046 37.5 32 37.5C30.8954 37.5 30 38.3954 30 39.5C30 40.6046 30.8954 41.5 32 41.5Z" fill="#484848"/>
<path d="M39.5 19C40.6046 19 41.5 18.1046 41.5 17C41.5 15.8954 40.6046 15 39.5 15C38.3954 15 37.5 15.8954 37.5 17C37.5 18.1046 38.3954 19 39.5 19Z" fill="#484848"/>
<path d="M39.5 26.5C40.6046 26.5 41.5 25.6046 41.5 24.5C41.5 23.3954 40.6046 22.5 39.5 22.5C38.3954 22.5 37.5 23.3954 37.5 24.5C37.5 25.6046 38.3954 26.5 39.5 26.5Z" fill="#484848"/>
<path d="M39.5 34C40.6046 34 41.5 33.1046 41.5 32C41.5 30.8954 40.6046 30 39.5 30C38.3954 30 37.5 30.8954 37.5 32C37.5 33.1046 38.3954 34 39.5 34Z" fill="#484848"/>
<path d="M39.5 41.5C40.6046 41.5 41.5 40.6046 41.5 39.5C41.5 38.3954 40.6046 37.5 39.5 37.5C38.3954 37.5 37.5 38.3954 37.5 39.5C37.5 40.6046 38.3954 41.5 39.5 41.5Z" fill="#484848"/>
</svg>
