<svg width="64" height="64" viewBox="0 0 64 64" fill="none" xmlns="http://www.w3.org/2000/svg">
<path fill-rule="evenodd" clip-rule="evenodd" d="M0 32C0 14.4 14.4 0 32 0C49.6 0 64 14.4 64 32C64 49.6 49.6 64 32 64C14.4 64 0 49.6 0 32ZM4 32C4 47.4 16.6 60 32 60C47.4 60 60 47.4 60 32C60 16.6 47.4 4 32 4C16.6 4 4 16.6 4 32ZM24.7998 17.3L45.2998 30.3C45.8998 30.7 46.2998 31.3 46.2998 32C46.2998 32.7 45.9998 33.3 45.3998 33.7L24.8998 46.7C24.4998 46.9 24.1998 47 23.7998 47C23.3998 47 23.0998 47 22.7998 46.8C22.1998 46.4 21.7998 45.7 21.7998 45V19C21.7998 18.2 22.1998 17.5 22.7998 17.2C23.3998 16.9 24.1998 16.9 24.7998 17.3ZM40.4998 32L25.7998 22.6V41.4L40.4998 32Z" fill="#484848"/>
</svg>
