<svg width="64" height="64" viewBox="0 0 64 64" fill="none" xmlns="http://www.w3.org/2000/svg">
<g clip-path="url(#clip0_600:34)">
<path fill-rule="evenodd" clip-rule="evenodd" d="M27.1959 0.138002C43.8106 6.83402 56.8003 19.5265 63.849 35.9167C64.0503 36.4164 64.0503 36.9161 63.849 37.4158C63.6476 37.9155 63.2448 38.3153 62.7413 38.5152L54.9878 41.8132L31.4251 51.7073L2.82763 63.8001C2.76458 63.821 2.70592 63.8418 2.64981 63.8618C2.43709 63.9374 2.2611 64 2.02207 64C1.51859 64 1.01511 63.8001 0.612332 63.4004C0.00816001 62.9007 -0.193231 62.0012 0.209551 61.1017L17.7305 18.1273L21.4563 8.93277L24.5778 1.23735C24.9806 0.237943 26.1889 -0.26176 27.1959 0.138002ZM24.3764 26.3224C24.3764 24.0238 22.866 22.025 20.7514 21.3254L16.7236 31.1196C17.4284 31.4194 18.234 31.6193 19.0396 31.6193C21.9597 31.6193 24.3764 29.2207 24.3764 26.3224ZM19.0396 35.6169C17.7305 35.6169 16.4215 35.3171 15.2131 34.8174L5.74779 58.2034L15.2131 54.2058C14.4076 52.9066 14.0048 51.3076 14.0048 49.7085C14.0048 44.6115 18.234 40.414 23.3695 40.414C27.5987 40.414 31.123 43.2124 32.3313 47.0101L51.3627 39.0149C45.321 27.6216 35.755 18.4271 24.2757 12.5306L22.2618 17.6276C25.8868 18.9268 28.4042 22.3248 28.4042 26.3224C28.4042 31.4194 24.175 35.6169 19.0396 35.6169ZM18.0326 49.7085C18.0326 50.8078 18.3347 51.8073 18.9389 52.7067L28.6056 48.6092C28.1021 46.2106 25.8868 44.4117 23.3695 44.4117C20.4493 44.4117 18.0326 46.8102 18.0326 49.7085ZM25.7861 8.83283C38.2724 15.0291 48.5433 25.1231 55.0885 37.4158L59.3177 35.6169C52.7725 21.7252 41.5953 10.8316 27.498 4.63533L25.7861 8.83283ZM43.609 34.8174C43.609 38.3153 40.6888 41.1136 37.2652 41.1136C33.7409 41.1136 30.9214 38.3153 30.9214 34.8174C30.9214 31.3194 33.7409 28.5211 37.2652 28.5211C40.7895 28.5211 43.609 31.4194 43.609 34.8174ZM39.5812 34.9173C39.5812 33.6181 38.4735 32.6187 37.2652 32.6187C35.9561 32.6187 34.9492 33.6181 34.9492 34.9173C34.9492 36.2165 35.9561 37.2159 37.2652 37.2159C38.5742 37.2159 39.5812 36.2165 39.5812 34.9173Z" fill="#484848"/>
</g>
<defs>
<clipPath id="clip0_600:34">
<rect width="64" height="64" fill="white"/>
</clipPath>
</defs>
</svg>
