<svg width="64" height="64" viewBox="0 0 64 64" fill="none" xmlns="http://www.w3.org/2000/svg">
<path fill-rule="evenodd" clip-rule="evenodd" d="M32 0C14.355 0 0 14.355 0 32C0 49.645 14.355 64 32 64C49.645 64 64 49.645 64 32C64 14.355 49.645 0 32 0Z" fill="#484848"/>
<path fill-rule="evenodd" clip-rule="evenodd" d="M46.4828 29.9999H33.9998V17.5179C33.9998 16.4129 33.1048 15.5179 31.9998 15.5179C30.8958 15.5179 29.9998 16.4129 29.9998 17.5179V29.9999H17.5178C16.4128 29.9999 15.5178 30.8959 15.5178 31.9999C15.5178 33.1039 16.4128 33.9999 17.5178 33.9999H29.9998V46.4829C29.9998 47.5879 30.8958 48.4829 31.9998 48.4829C33.1048 48.4829 33.9998 47.5879 33.9998 46.4829V33.9999H46.4828C47.5868 33.9999 48.4828 33.1039 48.4828 31.9999C48.4828 30.8959 47.5868 29.9999 46.4828 29.9999Z" fill="white"/>
</svg>
