<svg width="64" height="64" viewBox="0 0 64 64" fill="none" xmlns="http://www.w3.org/2000/svg">
<path fill-rule="evenodd" clip-rule="evenodd" d="M60 47C60 48.103 59.103 49 58 49H52.09V44.912H53.459C54.563 44.912 55.459 44.017 55.459 42.912C55.459 41.808 54.563 40.912 53.459 40.912H50.09H13.91H10.542C9.437 40.912 8.542 41.808 8.542 42.912C8.542 44.017 9.437 44.912 10.542 44.912H11.91V49H6C4.897 49 4 48.103 4 47V25C4 23.897 4.897 23 6 23H13.91H50.09H58C59.103 23 60 23.897 60 25V47ZM15.91 60H48.09V44.912H15.91V60ZM15.91 19H48.09V4H15.91V19ZM52.09 19V2C52.09 0.896 51.194 0 50.09 0H13.91C12.806 0 11.91 0.896 11.91 2V19H6C2.691 19 0 21.691 0 25V47C0 50.309 2.691 53 6 53H11.91V62C11.91 63.104 12.806 64 13.91 64H50.09C51.194 64 52.09 63.104 52.09 62V53H58C61.309 53 64 50.309 64 47V25C64 21.691 61.309 19 58 19H52.09ZM22 51.3047C20.896 51.3047 20 52.2007 20 53.3047C20 54.4087 20.896 55.3047 22 55.3047H42C43.104 55.3047 44 54.4087 44 53.3047C44 52.2007 43.104 51.3047 42 51.3047H22ZM52.4345 30.9512C51.3295 30.9512 50.4345 30.0552 50.4345 28.9512C50.4345 27.8462 51.3295 26.9512 52.4345 26.9512C53.5385 26.9512 54.4345 27.8462 54.4345 28.9512C54.4345 30.0552 53.5385 30.9512 52.4345 30.9512Z" fill="#484848"/>
</svg>
