<svg width="64" height="64" viewBox="0 0 64 64" fill="none" xmlns="http://www.w3.org/2000/svg">
<g clip-path="url(#clip0_344:0)">
<path d="M63.7 16.9104C63.3 16.4091 62.7 16.1083 62.1 16.1083H57.1C56.6 16.1083 56 16.3088 55.7 16.7099L47.3 25.3323L39.6 25.1318L47 16.1083C47.5 15.5068 47.6 14.7047 47.3 14.0028C47 13.301 46.3 12.9 45.5 12.9H37C36.5 12.9 36.1 13.1005 35.7 13.4013L22.7 24.7308L14.8 24.5303C11 24.5303 7.4 25.4326 4.3 27.137C1.4 28.5407 0 30.2451 0 32.1501C0 34.0551 1.4 35.7595 4.2 37.2634C7.3 38.9678 11 39.8702 14.8 39.8702L23.1 39.6697L36.8 50.6984C37.2 50.9992 37.6 51.0994 38.1 51.0994H46.4C47.2 51.0994 47.9 50.6984 48.2 49.9966C48.5 49.2947 48.4 48.4927 48 47.8911L41 39.2686L59.1 38.8676C59.7 38.8676 60.2 38.5668 60.6 38.1658C61 37.7647 61.1 37.1632 61 36.5616L60 30.3454L63.9 18.8154C64.1 18.1135 64 17.4117 63.7 16.9104ZM37.8 16.8101H41.2L34.5 25.0316L28.6 24.831L37.8 16.8101ZM56.1 29.443C56 29.7438 56 30.1449 56 30.4457L56.7 34.9574L36.9 35.3584C36.1 35.3584 35.5 35.8598 35.1 36.5616C34.8 37.2634 34.9 38.0655 35.3 38.6671L42.2 47.2895H38.7L25 36.0603C24.6 35.7595 24.2 35.559 23.7 35.6592L14.7 35.8598C11.6 35.8598 8.6 35.1579 6.1 33.7543C4.6 32.9522 4.1 32.3506 4 32.1501C4.1 31.9496 4.6 31.348 6.1 30.5459C8.6 29.1423 11.6 28.4404 14.7 28.4404L48 29.443C48.6 29.443 49.1 29.2425 49.5 28.8415L57.9 20.1188H59.3L56.1 29.443Z" fill="#484848"/>
</g>
<defs>
<clipPath id="clip0_344:0">
<rect width="64" height="64" fill="white"/>
</clipPath>
</defs>
</svg>
