<svg width="64" height="64" viewBox="0 0 64 64" fill="none" xmlns="http://www.w3.org/2000/svg">
<path fill-rule="evenodd" clip-rule="evenodd" d="M61.6479 12.6009C62.6164 14.2397 63.6456 15.9814 63.9343 18.0922C64.0343 18.8902 64.0343 19.6882 63.8342 20.2867C63.5341 21.9825 62.5335 23.3791 61.2328 24.4763C62.5335 34.3518 61.3329 46.3221 59.8321 56.7961C59.632 58.9906 57.831 60.5867 55.7299 60.5867C53.6288 60.5867 51.9279 58.9906 51.6278 56.7961C49.5266 43.529 49.1264 33.1548 50.227 24.4763C48.5261 22.9801 47.4255 20.7855 47.4255 18.2917C47.4255 14.6932 52.2193 7.16883 53.7304 4.79698C53.853 4.6046 53.954 4.44612 54.029 4.32638C54.4292 3.72786 55.1296 3.32885 55.83 3.42861C56.6304 3.52836 57.2307 3.92737 57.5309 4.62563C57.5309 4.62563 59.2318 8.41622 60.8326 11.309C60.8799 11.3797 60.9327 11.4559 60.9884 11.5363C61.1689 11.7967 61.3801 12.1015 61.533 12.4063L61.6479 12.6009ZM56.4803 11.3589C56.1552 10.7355 55.83 10.112 55.5298 9.51349C53.3287 13.2043 51.4277 16.8952 51.3276 18.1919C51.3276 20.586 53.3287 22.581 55.7299 22.581C57.6309 22.581 59.5319 21.1845 59.9322 19.4887V18.4912C59.844 17.3484 59.1342 16.1282 58.4191 14.8988L58.4188 14.8982C58.3225 14.7327 58.2262 14.567 58.1312 14.4014C58.0312 14.2019 57.9061 14.0023 57.781 13.8028C57.656 13.6033 57.5309 13.4038 57.4308 13.2043C57.1307 12.6058 56.8055 11.9824 56.4803 11.3589ZM55.6299 56.2973C55.6299 56.7961 55.93 56.7961 55.93 56.3971C56.9306 48.9156 57.9311 40.736 57.831 33.1548C57.1307 33.2545 56.4303 33.3543 55.7299 33.3543C55.1296 33.3543 54.4292 33.2545 53.7289 33.1548C53.6288 39.7384 54.2291 47.4194 55.6299 56.2973ZM53.8289 29.0649C55.1296 29.3642 56.4303 29.3642 57.731 29.0649L57.7059 28.8408C57.6148 28.0318 57.5309 27.2854 57.5309 26.3716C57.4546 26.3843 57.38 26.397 57.3066 26.4094C56.8019 26.4951 56.354 26.5711 55.83 26.5711C55.2297 26.5711 54.6293 26.4714 54.029 26.3716C53.979 26.8205 53.954 27.2694 53.929 27.7183C53.904 28.1672 53.8789 28.6161 53.8289 29.0649ZM33.1176 29.863C33.918 30.7607 35.4188 31.06 37.0196 31.3593C41.522 32.257 46.3246 35.5489 46.7248 41.135C47.0249 46.1226 44.1234 51.1102 38.8206 54.402C34.8185 56.9956 30.116 58.2924 25.4135 58.2924C11.406 58.2924 0 46.6214 0 32.4565C0 23.8778 4.40233 15.5984 11.5061 10.8103C20.1107 5.02465 30.7163 4.22663 38.4204 8.71549C41.0217 10.2118 42.9228 12.0073 44.1234 14.0024C45.7242 16.7954 45.9243 20.7855 43.1229 22.9801C41.3219 24.4763 39.0207 24.5761 37.3198 24.5761H37.1197C35.0186 24.6759 33.8179 24.7756 33.0175 25.8729C32.117 27.0699 32.2171 28.8654 33.1176 29.863ZM25.5135 54.2025C29.5156 54.2025 33.3177 53.1053 36.7195 51.0105C38.2203 50.1127 43.1229 46.5216 42.7226 41.4342C42.4225 37.9429 39.2208 35.9479 36.2192 35.3493C34.4182 35.0501 32.017 34.5513 30.216 32.7558C27.9148 30.3617 27.7147 26.3716 29.8158 23.5786C31.831 20.8998 34.4904 20.7902 36.7348 20.6977C36.8305 20.6938 36.9255 20.6898 37.0196 20.6858H37.1197C38.7205 20.586 39.8211 20.4863 40.6215 19.8877C41.6221 19.0897 41.2218 17.1944 40.6215 16.0972C39.8211 14.7006 38.3203 13.4038 36.3193 12.2068C33.5178 10.6108 30.4161 9.91251 27.3145 9.91251C22.4119 9.91251 17.4092 11.7081 13.7073 14.2019C7.70408 18.192 4.00212 25.1746 4.00212 32.4565C4.00212 44.4268 13.6072 54.3023 25.5135 54.2025ZM27.3149 15.6982C25.9142 13.2044 22.7125 12.2068 20.2112 13.6034C19.0105 14.3016 18.1101 15.3989 17.7099 16.6957C17.3096 17.9925 17.5098 19.4888 18.1101 20.6858C19.1106 22.3816 20.9116 23.3791 22.7125 23.3791C23.613 23.3791 24.4134 23.1796 25.2138 22.7806C27.8152 21.4838 28.7157 18.2917 27.3149 15.6982ZM23.9131 18.591C23.8131 18.8903 23.613 19.1895 23.3128 19.2893C23.0127 19.4888 22.7125 19.4888 22.3123 19.389C22.0121 19.2893 21.712 19.0898 21.6119 18.7905C21.4118 18.4912 21.4118 18.192 21.5119 17.793C21.6119 17.4937 21.812 17.1945 22.1122 17.0947C22.3123 16.995 22.5124 16.8952 22.7125 16.8952C23.1127 16.8952 23.613 17.0947 23.8131 17.5935C24.0132 17.9925 24.0132 18.2917 23.9131 18.591ZM15.308 32.4565C14.5076 32.8555 13.7072 33.055 12.8067 33.055C12.4751 33.055 12.0749 32.9866 11.606 32.9064C11.5089 32.8897 11.4089 32.8726 11.3059 32.8555C10.0052 32.4565 8.90461 31.5587 8.20424 30.3617C7.60393 29.1647 7.40382 27.6684 7.80403 26.3716C8.20424 25.0748 9.10472 23.9776 10.3054 23.2793C12.8067 21.8828 16.0084 22.8803 17.4091 25.3741C18.8099 27.8679 17.8093 31.06 15.308 32.4565ZM12.2064 26.7706C11.9062 26.8704 11.7061 27.1696 11.606 27.4689C11.5174 27.734 11.5858 27.9992 11.6722 28.3337C11.6833 28.3767 11.6947 28.4209 11.7061 28.4664C11.8062 28.7657 12.1063 28.9652 12.4065 29.0649C12.8067 29.1647 13.1068 29.1647 13.407 28.9652C13.7072 28.8654 13.9073 28.5662 14.0073 28.2669C14.1074 27.8679 14.1074 27.5686 13.9073 27.2694C13.7072 26.7706 13.2069 26.5711 12.8067 26.5711C12.6066 26.5711 12.4065 26.6709 12.2064 26.7706ZM13.3075 36.4467C10.8062 37.8432 9.80566 41.0353 11.2064 43.5291C12.2069 45.2249 14.0079 46.2224 15.8088 46.2224C16.7093 46.2224 17.5097 46.0229 18.3102 45.6239C20.8115 44.2274 21.812 41.0353 20.4113 38.5415C19.0105 36.0477 15.8088 35.1499 13.3075 36.4467ZM17.0095 41.4343C16.9094 41.7335 16.7093 42.0328 16.4092 42.1326C16.109 42.3321 15.8088 42.3321 15.4086 42.2323C15.1085 42.1326 14.8083 41.933 14.7083 41.6338C14.5082 41.3345 14.5082 41.0353 14.6082 40.6363C14.7083 40.337 14.9084 40.0378 15.2085 39.938C15.4086 39.8382 15.6087 39.7385 15.8088 39.7385C15.9089 39.7385 16.0089 39.7385 16.2091 39.8382C16.5092 39.938 16.8094 40.1375 16.9094 40.4368C17.1095 40.736 17.1095 41.135 17.0095 41.4343ZM23.8124 43.7285C24.2126 42.4317 25.1131 41.3344 26.3137 40.6362C28.815 39.2396 32.0167 40.2372 33.4175 42.731C34.0178 43.928 34.2179 45.4243 33.8177 46.7211C33.4175 48.0178 32.517 49.1151 31.3164 49.8134C30.5159 50.2124 29.7155 50.4119 28.815 50.4119C28.3148 50.4119 27.8145 50.3121 27.3143 50.2124C26.0136 49.8134 24.913 48.9156 24.2126 47.7186C23.6123 46.5215 23.4122 45.0253 23.8124 43.7285ZM29.4154 46.322C29.7155 46.2223 29.9156 45.923 30.0157 45.6238C30.1157 45.3245 30.1157 44.9255 29.9156 44.6263C29.7155 44.1275 29.2153 43.928 28.815 43.928C28.6149 43.928 28.4148 44.0277 28.2147 44.1275C27.9146 44.2272 27.7145 44.5265 27.6144 44.8258C27.5144 45.2248 27.5144 45.524 27.7145 45.8233C27.8145 46.1225 28.1147 46.322 28.4148 46.4218C28.815 46.5215 29.1152 46.5215 29.4154 46.322Z" fill="#484848"/>
</svg>
