<svg width="64" height="64" viewBox="0 0 64 64" fill="none" xmlns="http://www.w3.org/2000/svg">
<path fill-rule="evenodd" clip-rule="evenodd" d="M17.1159 35.4884L10.64 28.9921L27.2009 12.38L33.6768 18.8754C35.7848 20.991 36.9458 23.8028 36.9458 26.7932C36.9458 29.7836 35.7848 32.5954 33.6768 34.711L32.9008 35.4884C30.7928 37.6031 27.9899 38.7687 25.0089 38.7687C22.0269 38.7687 19.2239 37.6031 17.1159 35.4884ZM61.994 47.6736C63.288 46.3766 64 44.6512 64 42.8164C64 40.9817 63.288 39.2562 61.994 37.9592C59.323 35.2798 54.9781 35.2818 52.3091 37.9592L46.9201 43.3651C46.2141 44.0733 45.0641 44.0743 44.3562 43.3661L37.4802 36.4685C39.7222 33.75 40.9452 30.3664 40.9452 26.7932C40.9452 22.7304 39.3682 18.9115 36.5042 16.0385L30.0283 9.5431L32.2023 7.36227C32.9832 6.57881 32.9832 5.30883 32.2023 4.52537C31.4213 3.74192 30.1553 3.74192 29.3743 4.52537L22.9283 10.9906L14.2604 2.29438C13.4784 1.51092 12.2134 1.51092 11.4314 2.29438C10.6504 3.07784 10.6504 4.34782 11.4314 5.13127L20.1003 13.8275L12.0834 21.8707L3.41447 13.1745C2.63348 12.391 1.36749 12.391 0.586495 13.1745C-0.195498 13.9579 -0.195498 15.2279 0.586495 16.0114L9.25543 24.7076L2.80948 31.1729C2.02848 31.9564 2.02848 33.2263 2.80948 34.0098C3.20048 34.402 3.71247 34.5976 4.22347 34.5976C4.73546 34.5976 5.24746 34.402 5.63746 34.0098L7.81144 31.83L14.2874 38.3253C17.1504 41.1983 20.9583 42.7813 25.0083 42.7813C28.5693 42.7813 31.9423 41.5555 34.6522 39.3054L41.5282 46.203C43.7942 48.4751 47.4801 48.4751 49.7481 46.203L55.1371 40.7961C56.2491 39.6836 58.054 39.6826 59.166 40.7971C59.704 41.3358 60 42.053 60 42.8164C60 43.5788 59.704 44.297 59.166 44.8367L53.7761 50.2437C51.5101 52.5178 51.5101 56.2154 53.7761 58.4895L56.9821 61.7056C57.3731 62.0968 57.885 62.2935 58.396 62.2935C58.908 62.2935 59.42 62.0968 59.81 61.7056C60.592 60.9222 60.592 59.6522 59.81 58.8687L56.6041 55.6526C55.8981 54.9434 55.8981 53.7898 56.6041 53.0806L61.994 47.6736Z" fill="#484848"/>
</svg>
