<svg width="64" height="64" viewBox="0 0 64 64" fill="none" xmlns="http://www.w3.org/2000/svg">
<path fill-rule="evenodd" clip-rule="evenodd" d="M54.2482 39.9064H10.5758V3.99992H54.2482V39.9064ZM58.2446 39.9064H58.5893C59.693 39.9064 60.587 40.8024 60.587 41.9063C60.587 43.0113 59.693 43.9063 58.5893 43.9063H56.2469H34.2119V53.9182L48.0212 60.1771C49.0261 60.6331 49.4716 61.817 49.0171 62.824C48.6825 63.563 47.9563 64 47.1962 64C46.9205 64 46.6408 63.942 46.3731 63.821L32.2142 57.4041L18.0552 63.821C17.7885 63.942 17.5078 64 17.2321 64C16.472 64 15.7458 63.563 15.4112 62.824C14.9567 61.817 15.4022 60.6331 16.4071 60.1771L30.2164 53.9182V43.9063H8.57896H5.83807C4.73432 43.9063 3.84033 43.0113 3.84033 41.9063C3.84033 40.8024 4.73432 39.9064 5.83807 39.9064H6.58122V3.99994H5.83807C4.73432 3.99994 3.84033 3.10495 3.84033 1.99997C3.84033 0.895986 4.73432 0 5.83807 0H8.57896H56.2469H58.5893C59.693 0 60.587 0.895986 60.587 1.99997C60.587 3.10495 59.693 3.99994 58.5893 3.99994H58.2446V39.9064ZM23.5767 29.6129H28.1255C29.2283 29.6129 30.1232 30.5089 30.1232 31.6129C30.1232 32.7168 29.2283 33.6128 28.1255 33.6128H20.1166C19.4034 33.6128 18.7431 33.2318 18.3865 32.6128C18.031 31.9938 18.031 31.2319 18.3865 30.6129L22.7626 23.025C23.315 22.069 24.5326 21.739 25.4915 22.293C26.4474 22.845 26.774 24.068 26.2237 25.025L23.5767 29.6129ZM42.062 23.0251C41.5086 22.0691 40.287 21.7391 39.3331 22.2931C38.3771 22.8451 38.0495 24.0681 38.6009 25.025L41.2479 29.613H36.1077C35.005 29.613 34.11 30.5079 34.11 31.6129C34.11 32.7169 35.005 33.6129 36.1077 33.6129H44.707C45.4212 33.6129 46.0804 33.2319 46.438 32.6129C46.7936 31.9939 46.7936 31.2319 46.438 30.6129L42.062 23.0251ZM37.5247 19.1585C37.2111 19.3405 36.8665 19.4265 36.5279 19.4265C35.8377 19.4265 35.1664 19.0685 34.7958 18.4265L32.4125 14.2936L30.1062 18.2925C29.5538 19.2475 28.3352 19.5755 27.3772 19.0255C26.4213 18.4725 26.0947 17.2495 26.6451 16.2925L30.6815 9.29365C31.0391 8.67466 31.6983 8.29367 32.4125 8.29367C33.1267 8.29367 33.786 8.67466 34.1426 9.29365L38.2559 16.4265C38.8073 17.3835 38.4807 18.6065 37.5247 19.1585Z" fill="#484848"/>
</svg>
