<svg width="64" height="64" viewBox="0 0 64 64" fill="none" xmlns="http://www.w3.org/2000/svg">
<path d="M45.948 36.3686C44.9476 35.8679 44.0472 34.9668 43.5469 34.0656C41.346 29.66 36.844 26.9566 31.9418 26.9566C27.0396 26.9566 22.5376 29.66 20.3366 34.0656C19.8364 35.0669 19.0361 35.8679 17.9356 36.3686C13.2335 38.7716 10.4322 43.8782 10.9325 49.1849C11.5327 55.3928 16.635 60.3992 22.7377 60.8999C25.0387 61.1001 27.4398 60.6996 29.5407 59.6983C31.0414 58.9974 32.7421 58.9974 34.2428 59.6983C36.0436 60.5995 37.9445 61 39.9453 61C40.3455 61 40.6457 61 41.0458 61C47.2486 60.4994 52.3508 55.493 52.8511 49.2851C53.3513 43.778 50.6501 38.7716 45.948 36.3686ZM48.9493 48.7844C48.5492 53.0899 45.0476 56.4943 40.7457 56.8948C39.145 56.9949 37.5443 56.6945 36.0436 55.9936C34.743 55.3928 33.3424 55.0925 31.9418 55.0925C30.5412 55.0925 29.1405 55.3928 27.84 55.9936C26.4393 56.6945 24.7386 56.9949 23.1379 56.8948C18.836 56.4943 15.3344 53.0899 14.9342 48.7844C14.6341 45.0797 16.4349 41.5752 19.7364 39.8731C21.5372 38.9719 22.9378 37.47 23.8382 35.7678C25.3389 32.764 28.4402 30.8616 31.8417 30.8616C35.2433 30.8616 38.3446 32.764 39.8453 35.7678C40.7457 37.47 42.1463 38.8718 43.9471 39.8731C47.3486 41.5752 49.2495 45.0797 48.9493 48.7844Z" fill="#484848"/>
<path d="M39.9454 24.0529C40.5457 24.2532 41.146 24.2532 41.8463 24.2532C43.6471 24.2532 45.4479 23.6524 47.0486 22.3507C49.0495 20.8488 50.5501 18.4457 51.2504 15.7423C52.6511 10.1351 49.9499 4.42787 45.2478 3.22633C40.5457 2.0248 35.4434 5.72953 34.0428 11.4368C33.3425 14.1403 33.5426 16.8437 34.543 19.2468C35.6435 21.75 37.5444 23.4521 39.9454 24.0529ZM37.8445 12.4381C38.7449 9.33412 41.146 7.03119 43.447 7.03119C43.7471 7.03119 44.0472 7.03119 44.3474 7.13131C46.8485 7.83221 48.2491 11.3367 47.3487 14.8411C46.8485 16.6434 45.9481 18.2455 44.5475 19.2468C43.3469 20.1479 42.1464 20.4483 40.9459 20.1479C39.7453 19.8475 38.8449 18.9464 38.2447 17.6447C37.5444 16.1428 37.4443 14.2404 37.8445 12.4381Z" fill="#484848"/>
<path d="M16.935 22.4508C18.5357 23.6523 20.3365 24.3532 22.1373 24.3532C22.7376 24.3532 23.4379 24.2531 24.0382 24.153C26.4392 23.5522 28.3401 21.85 29.4406 19.3468C30.441 17.0439 30.6411 14.2403 29.9408 11.5369C29.2405 8.83344 27.7398 6.5305 25.7389 4.92846C23.5379 3.22629 21.0368 2.72565 18.7358 3.32642C16.3347 3.92718 14.4339 5.62935 13.3334 8.13254C12.333 10.4355 12.1329 13.2391 12.8332 15.9425C13.5335 18.646 14.9341 20.9489 16.935 22.4508ZM16.935 9.73459C17.5353 8.43293 18.5357 7.53178 19.6362 7.2314C19.9363 7.13127 20.2365 7.13127 20.5366 7.13127C21.437 7.13127 22.4375 7.53178 23.2378 8.13254C24.5384 9.13382 25.5388 10.7359 26.0391 12.5382C26.5393 14.3405 26.4392 16.2429 25.7389 17.7448C25.1387 19.0465 24.1382 19.9476 23.0377 20.248C21.8372 20.5484 20.6367 20.248 19.4361 19.3468C18.1355 18.3456 17.1351 16.7435 16.6349 14.9412C16.1347 13.1389 16.2347 11.2365 16.935 9.73459Z" fill="#484848"/>
<path d="M14.234 31.6626C14.8343 29.7602 14.8343 27.5573 14.0339 25.4547C13.2336 23.352 11.933 21.6498 10.2322 20.5484C8.33138 19.447 6.23045 19.1466 4.42965 19.8475C2.62885 20.5484 1.12819 22.1504 0.427878 24.153C-0.172389 26.0554 -0.172389 28.2582 0.627966 30.3609C1.42832 32.4636 2.7289 34.1658 4.42965 35.2672C5.63019 35.9681 6.93076 36.3686 8.1313 36.3686C8.83161 36.3686 9.53192 36.2685 10.2322 35.9681C12.1331 35.2672 13.5337 33.6651 14.234 31.6626ZM10.4323 30.3609C10.2322 30.8616 9.83205 31.8628 8.83161 32.1632C7.93121 32.5637 6.93076 32.0631 6.53059 31.7627C5.53014 31.1619 4.72979 30.1607 4.32961 28.9591C3.92943 27.7576 3.82939 26.4559 4.22956 25.3545C4.42965 24.8539 4.82983 23.8526 5.83028 23.5522C6.13041 23.4521 6.3305 23.4521 6.53059 23.4521C7.2309 23.4521 7.83116 23.7525 8.1313 23.9527C9.13174 24.5535 9.93209 25.5548 10.3323 26.7563C10.7325 27.9579 10.8325 29.3596 10.4323 30.3609Z" fill="#484848"/>
<path d="M59.554 19.7474C57.6532 19.0465 55.5522 19.3469 53.7514 20.4483C52.0507 21.5497 50.6501 23.2519 49.9497 25.3546C49.1494 27.4572 49.1494 29.6601 49.7497 31.5625C50.45 33.6652 51.8506 35.1671 53.7514 35.868C54.4517 36.0682 55.1521 36.2685 55.8524 36.2685C58.9537 36.2685 62.1552 33.9655 63.4557 30.2608C64.9564 25.8552 63.2556 21.1492 59.554 19.7474ZM59.554 28.9592C58.6536 31.2621 56.5527 32.764 54.952 32.1632C53.9515 31.8629 53.5513 30.8616 53.3513 30.3609C52.9511 29.2595 53.0511 27.9579 53.4513 26.7563C53.8515 25.5548 54.6518 24.4534 55.6523 23.9528C55.9524 23.7525 56.5527 23.4521 57.253 23.4521C57.4531 23.4521 57.7532 23.4521 57.9533 23.5523C59.7541 24.153 60.4544 26.6562 59.554 28.9592Z" fill="#484848"/>
</svg>
