<svg width="64" height="64" viewBox="0 0 64 64" fill="none" xmlns="http://www.w3.org/2000/svg">
<g clip-path="url(#clip0_1655:43)">
<path d="M52.9902 59.9532H16.0824C21.6779 54.0578 24.7418 47.9625 25.435 41.4576C25.4852 41.0279 25.5053 40.5983 25.5254 40.1686H44.7829C45.3158 40.1686 45.8268 39.9581 46.2036 39.5833C46.5804 39.2085 46.7921 38.7002 46.7921 38.1702C46.7921 37.6402 46.5804 37.1319 46.2036 36.7571C45.8268 36.3823 45.3158 36.1717 44.7829 36.1717H25.4751C25.2368 33.5936 24.868 31.029 24.3701 28.4877C24.0085 26.4893 23.6669 24.5508 23.456 22.6323L23.3254 21.4932C22.9637 18.3657 22.6121 15.408 23.6167 12.6201C24.5479 10.1138 26.2219 7.94756 28.4174 6.40784C30.6129 4.86811 33.2264 4.02741 35.9126 3.99688C39.3762 3.99688 42.6979 5.36545 45.147 7.80152C47.5961 10.2376 48.972 13.5416 48.972 16.9867C48.972 17.5167 49.1836 18.0251 49.5604 18.3998C49.9372 18.7746 50.4482 18.9852 50.9811 18.9852C51.514 18.9852 52.025 18.7746 52.4018 18.3998C52.7786 18.0251 52.9902 17.5167 52.9902 16.9867C52.9902 12.4816 51.191 8.16093 47.9883 4.9753C44.7856 1.78967 40.4419 0 35.9126 0C32.3923 0.00181227 28.9585 1.08572 26.0813 3.10335C23.2041 5.12098 21.024 7.97375 19.8395 11.2712C18.5235 14.9383 18.9455 18.5055 19.3473 21.9528L19.4779 23.082C19.6989 25.0804 20.0706 27.1988 20.4322 29.1972C20.8541 31.5853 21.266 33.8935 21.4368 36.1917H13.1993C12.6665 36.1917 12.1555 36.4023 11.7787 36.7771C11.4019 37.1518 11.1902 37.6601 11.1902 38.1902C11.1902 38.7202 11.4019 39.2285 11.7787 39.6033C12.1555 39.9781 12.6665 40.1886 13.1993 40.1886H21.4971C21.4971 40.4817 21.477 40.7715 21.4368 41.0579C20.8441 46.6835 18.1318 51.9794 13.1592 57.2153C12.0848 58.3696 10.9372 59.4543 9.72354 60.4628C9.40583 60.7259 9.17746 61.0801 9.06959 61.4771C8.96172 61.8741 8.9796 62.2945 9.1208 62.681C9.26119 63.0673 9.51781 63.4011 9.85573 63.6371C10.1937 63.8731 10.5965 63.9998 11.0094 64H52.9902C53.5231 64 54.0341 63.7895 54.4109 63.4147C54.7877 63.0399 54.9994 62.5316 54.9994 62.0016C55.0061 61.7349 54.9591 61.4697 54.8611 61.2214C54.7631 60.9732 54.6162 60.7469 54.429 60.556C54.2417 60.3651 54.018 60.2135 53.7709 60.1099C53.5238 60.0064 53.2584 59.9531 52.9902 59.9532Z" fill="#484848"/>
</g>
<defs>
<clipPath id="clip0_1655:43">
<rect width="64" height="64" fill="white"/>
</clipPath>
</defs>
</svg>
