<svg width="64" height="64" viewBox="0 0 64 64" fill="none" xmlns="http://www.w3.org/2000/svg">
<path d="M64 14.6932C64 13.2939 63.397 11.9945 62.3919 10.9949L52.9441 1.59926C51.9391 0.599723 50.6325 0.0999539 49.2254 0C47.7177 0 46.5116 0.499769 45.5066 1.49931L5.10242 41.9806C4.8009 42.2805 4.70039 42.5803 4.59988 42.8802L0.0770299 61.5716C-0.123986 62.2713 0.0770299 62.9709 0.579569 63.4707C1.03069 63.9193 1.9866 64.0705 2.48922 63.9705L21.1837 59.3726C21.5857 59.2726 21.8872 59.0727 22.0882 58.8728L54.1502 26.7876L54.2507 26.6877L54.3512 26.5877L62.4924 18.3915C63.4975 17.4919 64 16.0926 64 14.6932ZM5.80598 54.8747L7.61512 47.3781L16.7613 56.374L9.22324 58.2731L5.80598 54.8747ZM20.6811 54.6748L9.32375 43.38L38.672 14.0935L50.0294 25.2883L20.6811 54.6748ZM59.6782 15.5928L52.8436 22.4896L41.4862 11.2948L48.3208 4.39797C48.6223 4.09811 48.9238 4.09811 49.1248 4.09811C49.4264 4.09811 49.8284 4.29802 50.1299 4.49792L59.5777 13.8936C59.8792 14.1934 59.9797 14.4933 59.9797 14.7932C59.9797 14.9931 59.9797 15.2929 59.6782 15.5928Z" fill="#484848"/>
</svg>
