<svg width="64" height="64" viewBox="0 0 64 64" fill="none" xmlns="http://www.w3.org/2000/svg">
<path fill-rule="evenodd" clip-rule="evenodd" d="M10.5773 39.9064H54.2482V3.99992H10.5773V39.9064ZM58.5888 39.9064H58.2422V3.99994H58.5888C59.6915 3.99994 60.5865 3.10395 60.5865 1.99997C60.5865 0.894986 59.6915 0 58.5888 0H56.2445H8.5793H5.83751C4.7348 0 3.83984 0.894986 3.83984 1.99997C3.83984 3.10395 4.7348 3.99994 5.83751 3.99994H6.58164V39.9064H5.83751C4.7348 39.9064 3.83984 40.8014 3.83984 41.9063C3.83984 43.0103 4.7348 43.9063 5.83751 43.9063H8.5793H30.216V53.9182L16.4061 60.1761C15.4023 60.6321 14.9558 61.817 15.4103 62.824C15.7449 63.562 16.4721 64 17.2322 64C17.5079 64 17.7875 63.942 18.0552 63.821L32.2137 57.4051L46.3711 63.821C46.6388 63.942 46.9184 64 47.1951 64C47.9542 64 48.6814 63.562 49.016 62.824C49.4705 61.817 49.025 60.6321 48.0202 60.1761L34.2113 53.9182V43.9063H56.2445H58.5888C59.6915 43.9063 60.5865 43.0103 60.5865 41.9063C60.5865 40.8014 59.6915 39.9064 58.5888 39.9064Z" fill="#484848"/>
</svg>
