<svg width="64" height="64" viewBox="0 0 64 64" fill="none" xmlns="http://www.w3.org/2000/svg">
<g clip-path="url(#clip0_944:95)">
<path d="M45.3192 26.2047C46.8192 26.2047 48.4192 25.9047 50.0192 25.2047C58.4192 21.6047 61.0192 13.4047 57.4192 2.10474C57.1192 1.20474 56.5192 0.504737 55.6192 0.204738C54.7192 -0.0952625 53.8192 -0.0952625 53.0192 0.404738C51.1192 1.50474 47.1192 3.00474 41.4192 4.30474C36.7192 5.30474 33.3192 8.60474 32.5192 13.0047C31.9192 16.0047 32.7192 19.1047 34.3192 21.2047C32.8192 22.9047 31.8192 24.9047 31.0192 26.8047C30.6192 26.2047 30.1192 25.6047 29.6192 25.1047C30.8192 22.7047 32.0192 19.0047 30.5192 15.7047C27.2192 9.00474 21.1192 8.10474 16.7192 7.40474C12.7192 6.80474 11.6192 6.40474 11.4192 4.90474C11.2192 4.00474 10.6192 3.30474 9.71924 3.10474C8.81924 3.00474 7.91924 3.40474 7.41924 4.10474C6.11924 6.20474 2.91924 15.9047 7.01924 23.2047C9.41924 27.6047 13.7192 30.5047 18.5192 31.0047C19.0192 31.1047 19.5192 31.1047 20.0192 31.1047C22.8192 31.1047 25.4192 30.2047 27.3192 28.5047C28.2192 29.5047 28.6192 30.9047 28.9192 32.8047H13.6192C12.5192 32.8047 11.6192 33.7047 11.6192 34.8047V44.9047C11.6192 46.0047 12.5192 46.9047 13.6192 46.9047H18.2192L22.9192 62.6047C23.2192 63.5047 23.9192 64.0047 24.9192 64.0047H39.0192C39.9192 64.0047 40.7192 63.4047 41.0192 62.6047L45.7192 46.9047H50.3192C51.4192 46.9047 52.3192 46.0047 52.3192 44.9047V34.8047C52.3192 33.7047 51.4192 32.8047 50.3192 32.8047H33.5192C34.0192 30.3047 35.0192 26.5047 37.3192 23.9047C39.0192 24.8047 41.9192 26.2047 45.3192 26.2047ZM37.5192 60.0047H26.3192L22.4192 46.9047H41.4192L37.5192 60.0047ZM48.2192 42.8047H44.1192H19.7192H15.6192V36.8047H48.1192V42.8047H48.2192ZM36.5192 13.7047C36.8192 12.1047 38.0192 9.20474 42.3192 8.20474C48.3192 6.90474 52.1192 5.40474 53.9192 4.50474C56.4192 13.2047 54.5192 18.9047 48.4192 21.5047C45.7192 22.7047 43.0192 22.0047 41.1192 21.2047C48.6192 18.1047 52.0192 11.6047 52.2192 11.3047C52.7192 10.3047 52.3192 9.10474 51.3192 8.60474C50.3192 8.10474 49.1192 8.50474 48.6192 9.50474C48.6192 9.60474 45.6192 15.1047 39.4192 17.6047C38.7192 17.9047 38.1192 18.2047 37.5192 18.6047C36.5192 17.3047 36.2192 15.5047 36.5192 13.7047ZM18.9192 27.0047C15.5192 26.6047 12.4192 24.5047 10.6192 21.3047C8.51924 17.6047 9.01924 12.8047 9.71924 9.60474C11.4192 10.8047 13.8192 11.1047 16.1192 11.5047C20.2192 12.1047 24.5192 12.7047 26.7192 17.5047C27.5192 19.2047 26.9192 21.3047 26.1192 23.0047C25.5192 22.7047 24.9192 22.5047 24.2192 22.3047C19.1192 20.7047 17.8192 16.9047 17.7192 16.7047C17.4192 15.6047 16.2192 15.0047 15.2192 15.4047C14.1192 15.7047 13.5192 16.8047 13.8192 17.9047C13.9192 18.1047 15.7192 24.0047 22.9192 26.2047C23.0192 26.2047 23.1192 26.3047 23.3192 26.3047C22.1192 26.9047 20.6192 27.2047 18.9192 27.0047Z" fill="#484848"/>
</g>
<defs>
<clipPath id="clip0_944:95">
<rect width="64" height="64" fill="white"/>
</clipPath>
</defs>
</svg>
