<svg width="64" height="64" viewBox="0 0 64 64" fill="none" xmlns="http://www.w3.org/2000/svg">
<g clip-path="url(#clip0_330:12)">
<path d="M62.6929 1.20861C61.3778 -0.105865 59.1524 -0.409205 56.0166 0.601929C52.5773 1.61306 49.3403 3.63533 46.6091 6.26428L39.3259 13.5444L10.0919 9.19657C9.38667 9.17339 8.77691 9.3988 8.37229 9.80325L3.1122 15.0612C2.60642 15.5667 2.40411 16.1734 2.60642 16.8812C2.70757 17.589 3.21335 18.0946 3.82028 18.3979L25.5687 27.397L17.6786 35.2838L5.33762 36.3961C4.83184 36.3961 4.42722 36.5983 4.12375 37.0028L0.583304 40.5417C0.0775263 41.0473 -0.124785 41.7551 0.0775264 42.3618C0.178682 43.0696 0.68446 43.5751 1.29139 43.8785L14.8462 49.2375L20.2075 62.7867C20.4098 63.3934 21.0167 63.8989 21.7248 64.0001C21.826 64.0001 22.0283 64.0001 22.1295 64.0001C22.6352 64.0001 23.141 63.7978 23.5456 63.3934L27.0861 59.8544C27.3895 59.5511 27.5919 59.0455 27.693 58.641L28.8057 46.3052L36.6959 38.4184L45.6987 60.1577C46.0022 60.7644 46.508 61.27 47.216 61.3711C47.3172 61.3711 47.5195 61.3711 47.6207 61.3711C48.1264 61.3711 48.6322 61.1689 49.0368 60.7644L54.2969 55.5065C54.7016 55.1021 55.005 54.3943 54.9039 53.7876L50.5542 24.5658L57.9385 17.1845C60.6697 14.4545 62.5917 11.2188 63.6033 7.78098C64.3113 4.74758 64.109 2.52309 62.6929 1.20861ZM8.06882 15.7689L10.4966 13.3422L35.7855 17.0834L28.6034 24.2625L8.06882 15.7689ZM50.5542 53.4843L48.1264 55.911L39.6294 35.385L46.8114 28.2059L50.5542 53.4843ZM59.4559 6.76985C58.6466 9.60103 57.0281 12.23 54.8027 14.4545L46.7103 22.5435L35.7855 33.4638L25.2653 43.9796C24.9618 44.2829 24.7595 44.7885 24.6583 45.193L23.5456 57.5288L22.6352 58.4388L18.0832 46.9119C17.8809 46.4063 17.4763 46.0019 16.9705 45.7996L5.53993 41.2495L6.45033 40.3395L18.7913 39.2273C19.2971 39.2273 19.7017 39.025 20.0052 38.6206L30.5254 28.1048L41.4502 17.1845L49.5426 9.09546C51.768 6.87096 54.3981 5.25315 57.2304 4.44424C58.8489 3.93867 59.6582 4.03979 59.8605 4.03979C59.8605 4.34313 59.9617 5.05092 59.4559 6.76985Z" fill="#484848"/>
</g>
<defs>
<clipPath id="clip0_330:12">
<rect width="64" height="64" fill="white"/>
</clipPath>
</defs>
</svg>
