<svg width="64" height="64" viewBox="0 0 64 64" fill="none" xmlns="http://www.w3.org/2000/svg">
<path fill-rule="evenodd" clip-rule="evenodd" d="M0 32C0 14.4 14.4 0 32 0C49.6 0 64 14.4 64 32C64 49.6 49.6 64 32 64C14.4 64 0 49.6 0 32ZM4 32C4 47.4 16.6 60 32 60C47.4 60 60 47.4 60 32C60 16.6 47.4 4 32 4C16.6 4 4 16.6 4 32ZM34.0001 30H45.4001C46.6001 30 47.4001 30.9 47.4001 32C47.4001 33.1 46.5001 34 45.4001 34H34.0001V45.4C34.0001 46.5 33.1001 47.4 32.0001 47.4C30.9001 47.4 30.0001 46.5 30.0001 45.4V34H18.6001C17.5001 34 16.6001 33.1 16.6001 32C16.6001 30.9 17.5001 30 18.6001 30H30.0001V18.6C30.0001 17.5 30.9001 16.6 32.0001 16.6C33.1001 16.6 34.0001 17.5 34.0001 18.6V30Z" fill="#484848"/>
</svg>
