<svg width="64" height="64" viewBox="0 0 64 64" fill="none" xmlns="http://www.w3.org/2000/svg">
<path d="M61.9033 23.2273H58.209C56.9111 19.9207 54.7145 16.9148 51.9189 14.4098C51.4197 10.8027 54.2153 7.59633 54.2153 7.59633C54.7145 7.09534 54.8144 6.29375 54.6147 5.59236C54.415 4.89098 53.8159 4.38999 53.117 4.28979C46.2278 2.98721 41.9345 6.39395 40.1373 8.19752C37.741 7.59633 35.3448 7.29573 32.9485 7.29573C18.7707 7.29573 7.18877 17.2154 6.09048 29.6399C5.49142 29.6399 4.89236 29.5397 4.49298 29.2391C4.39314 29.2391 3.99376 28.9385 3.99376 27.8364C3.99376 26.7342 3.09516 25.8324 1.99688 25.8324C0.898596 25.8324 0 26.7342 0 27.8364C0 30.3413 1.09828 31.7441 2.09672 32.5457C3.3947 33.5477 4.89236 33.7481 6.19033 33.7481C6.68955 39.0586 9.18565 43.9683 13.2793 47.9762V57.996C13.2793 59.0982 14.1778 60 15.2761 60H27.8565C28.9548 60 29.8534 59.0982 29.8534 57.996V55.4911C30.8518 55.5913 34.1466 55.6915 34.8456 55.5913V57.996C34.8456 59.0982 35.7442 60 36.8424 60H49.4228C50.5211 60 51.4197 59.0982 51.4197 57.996V49.0784C54.3151 46.6736 56.6115 43.6677 58.0094 40.261H62.0031C63.1014 40.261 64 39.3592 64 38.257V25.2312C63.9002 24.129 63.0016 23.2273 61.9033 23.2273ZM59.9064 36.253H56.6115C55.8128 36.253 55.014 36.754 54.7145 37.5556C53.5164 40.9623 51.22 44.0685 48.1248 46.4732C47.6256 46.874 47.3261 47.4752 47.3261 48.0764V55.8919H38.7395V53.2867C38.7395 52.6855 38.5398 52.1845 38.0406 51.7837C37.6412 51.383 37.0421 51.1826 36.4431 51.2828C33.6474 51.6835 30.8518 51.5834 28.0562 51.0824C27.4571 50.9822 26.858 51.0824 26.4587 51.4832C25.9594 51.8839 25.7598 52.3849 25.7598 52.9861V55.7917H17.1732V47.0744C17.1732 46.4732 16.9735 45.9722 16.4743 45.5715C12.3807 41.8641 10.0842 37.0546 9.9844 31.8443C9.9844 31.6439 9.9844 31.3433 9.9844 31.1429C10.1841 20.2213 20.3682 11.4039 32.9485 11.4039C35.4446 11.4039 37.9407 11.8047 40.337 12.506C41.1357 12.7064 42.0343 12.4058 42.5335 11.7045C42.6334 11.5041 44.9298 8.49811 49.3229 8.09732C48.3245 10.1013 47.5257 12.9068 48.2247 16.013C48.3245 16.4138 48.5242 16.8146 48.8237 17.015C51.7192 19.4197 53.8159 22.5259 54.9142 25.8324C55.2137 26.634 55.9126 27.2352 56.8112 27.2352H59.9064V36.253Z" fill="#484848"/>
<path d="M45.2293 24.7302C46.3321 24.7302 47.2262 23.833 47.2262 22.7263C47.2262 21.6195 46.3321 20.7223 45.2293 20.7223C44.1265 20.7223 43.2324 21.6195 43.2324 22.7263C43.2324 23.833 44.1265 24.7302 45.2293 24.7302Z" fill="#484848"/>
<path d="M28.6556 15.6122C24.2624 16.013 19.7695 18.7183 17.5729 22.2253C16.9738 23.127 17.2734 24.4296 18.172 25.0308C18.4715 25.2312 18.8709 25.3314 19.2702 25.3314C19.9692 25.3314 20.5682 25.0308 20.9676 24.4296C22.4653 22.0249 25.9598 19.9207 29.055 19.7203C30.1532 19.6201 30.952 18.6181 30.8521 17.5159C30.6525 16.3136 29.7539 15.512 28.6556 15.6122Z" fill="#484848"/>
</svg>
