<svg width="64" height="64" viewBox="0 0 64 64" fill="none" xmlns="http://www.w3.org/2000/svg">
<path fill-rule="evenodd" clip-rule="evenodd" d="M4 32C4 16.561 16.561 4 32 4C47.439 4 60 16.561 60 32C60 47.439 47.439 60 32 60C16.561 60 4 47.439 4 32ZM0 32C0 49.645 14.355 64 32 64C49.645 64 64 49.645 64 32C64 14.355 49.645 0 32 0C14.355 0 0 14.355 0 32ZM46.5 24.75C46.5 25.854 47.396 26.75 48.5 26.75C49.604 26.75 50.5 25.854 50.5 24.75C50.5 20.614 47.136 17.25 43 17.25C38.864 17.25 35.5 20.614 35.5 24.75C35.5 25.854 36.396 26.75 37.5 26.75C38.604 26.75 39.5 25.854 39.5 24.75C39.5 22.82 41.07 21.25 43 21.25C44.93 21.25 46.5 22.82 46.5 24.75ZM26.5 26.75C25.396 26.75 24.5 25.854 24.5 24.75C24.5 22.82 22.93 21.25 21 21.25C19.07 21.25 17.5 22.82 17.5 24.75C17.5 25.854 16.604 26.75 15.5 26.75C14.396 26.75 13.5 25.854 13.5 24.75C13.5 20.614 16.864 17.25 21 17.25C25.136 17.25 28.5 20.614 28.5 24.75C28.5 25.854 27.604 26.75 26.5 26.75ZM15.2109 38.69C16.5309 46.981 23.5919 53 31.9999 53C40.4079 53 47.4679 46.981 48.7879 38.69C48.9609 37.6 48.2179 36.574 47.1269 36.4C46.0369 36.229 45.0119 36.971 44.8369 38.062C43.8289 44.399 38.4299 49 31.9999 49C25.5689 49 20.1699 44.399 19.1619 38.062C18.9879 36.971 17.9649 36.229 16.8719 36.4C15.7809 36.574 15.0379 37.6 15.2109 38.69Z" fill="#484848"/>
</svg>
