<svg width="64" height="64" viewBox="0 0 64 64" fill="none" xmlns="http://www.w3.org/2000/svg">
<path fill-rule="evenodd" clip-rule="evenodd" d="M62.1334 25.86C61.3521 25.079 60.0821 25.079 59.3009 25.86L29.2128 55.901C26.5656 58.544 23.0461 60 19.3023 60C15.5584 60 12.0389 58.544 9.39174 55.901C6.74459 53.258 5.28631 49.744 5.28631 46.006C5.28631 42.268 6.74459 38.755 9.39174 36.111L39.0101 6.539C39.0101 6.538 39.0111 6.538 39.0121 6.537C40.6507 4.901 42.8301 4 45.1478 4C47.4644 4 49.6438 4.901 51.2824 6.537C54.6637 9.913 54.6637 15.405 51.2864 18.783L22.5674 47.458C22.5143 47.51 22.4752 47.569 22.4292 47.626C22.3731 47.671 22.313 47.711 22.2609 47.763C21.0009 49.021 18.8035 49.022 17.5425 47.763C16.9125 47.134 16.565 46.297 16.565 45.408C16.565 44.518 16.9125 43.681 17.5425 43.052C17.5946 43 17.6336 42.941 17.6797 42.884C17.7358 42.839 17.7959 42.799 17.848 42.747L34.6693 25.952C35.4516 25.171 35.4516 23.905 34.6693 23.124C33.8881 22.342 32.6181 22.342 31.8369 23.124L15.0155 39.919C14.9635 39.971 14.9234 40.03 14.8783 40.087C14.8212 40.131 14.7621 40.172 14.7091 40.224C13.3229 41.609 12.5587 43.45 12.5587 45.408C12.5587 47.366 13.3229 49.207 14.7091 50.591C16.1413 52.021 18.0213 52.735 19.9012 52.735C21.7811 52.735 23.6621 52.021 25.0933 50.591C25.1454 50.539 25.1855 50.48 25.2305 50.423C25.2876 50.378 25.3467 50.339 25.3998 50.286L54.1128 21.618C54.1128 21.617 54.1138 21.617 54.1148 21.616C54.1168 21.614 54.1178 21.612 54.1198 21.611L54.5815 21.149C54.6927 21.039 54.7838 20.917 54.863 20.79C59.0385 15.82 58.7931 8.38 54.1148 3.709C51.72 1.317 48.5351 0 45.1478 0C42.091 0 39.2054 1.081 36.9098 3.048C36.7907 3.124 36.6765 3.212 36.5723 3.316L6.5593 33.283C3.15497 36.681 1.28003 41.2 1.28003 46.006C1.28003 50.813 3.15497 55.332 6.5593 58.729C9.96263 62.128 14.4887 64 19.3023 64C24.1158 64 28.6419 62.128 32.0452 58.729L62.1334 28.688C62.9156 27.907 62.9156 26.641 62.1334 25.86Z" fill="#484848"/>
</svg>
