<svg width="64" height="64" viewBox="0 0 64 64" fill="none" xmlns="http://www.w3.org/2000/svg">
<path fill-rule="evenodd" clip-rule="evenodd" d="M46.0052 60H17.9947C16.8927 60 15.9964 59.1031 15.9964 58V48.217H48.0034V58C48.0034 59.1031 47.1072 60 46.0052 60ZM17.9947 4H46.0052C47.1072 4 48.0034 4.897 48.0034 6V12.79H15.9964V6C15.9964 4.897 16.8927 4 17.9947 4ZM15.9964 44.217H48.0034V16.79H15.9964V44.217ZM46.0042 0H17.9938C14.6877 0 11.999 2.691 11.999 6V58C11.999 61.309 14.6877 64 17.9938 64H46.0042C49.3103 64 51.999 61.309 51.999 58V6C51.999 2.691 49.3103 0 46.0042 0ZM28.1751 10.3955H35.8184C36.9224 10.3955 37.8167 9.49951 37.8167 8.39551C37.8167 7.29151 36.9224 6.39551 35.8184 6.39551H28.1751C27.0721 6.39551 26.1769 7.29151 26.1769 8.39551C26.1769 9.49951 27.0721 10.3955 28.1751 10.3955ZM28.9989 54.1084C28.9989 52.4514 30.3407 51.1084 31.9962 51.1084C33.6518 51.1084 34.9936 52.4514 34.9936 54.1084C34.9936 55.7654 33.6518 57.1084 31.9962 57.1084C30.3407 57.1084 28.9989 55.7654 28.9989 54.1084Z" fill="#484848"/>
</svg>
