<svg width="64" height="64" viewBox="0 0 64 64" fill="none" xmlns="http://www.w3.org/2000/svg">
<path d="M62 41.5748H59.9C58.9 27.7915 47.8 16.705 34 15.7062V13.8085H35.7C36.8 13.8085 37.7 12.9096 37.7 11.8109C37.7 10.7122 36.8 9.81332 35.7 9.81332H28.2C27.1 9.81332 26.2 10.7122 26.2 11.8109C26.2 12.9096 27.1 13.8085 28.2 13.8085H30V15.7062C16.2 16.705 5.1 27.7915 4.1 41.5748H2C0.9 41.5748 0 42.4737 0 43.5724C0 49.2654 4.6 53.76 10.2 53.76H53.8C59.4 53.76 64 49.2654 64 43.5724C64 42.4737 63.1 41.5748 62 41.5748ZM32 19.6014C44.6 19.6014 54.9 29.2897 55.9 41.5748H8.1C9.1 29.2897 19.4 19.6014 32 19.6014ZM53.8 49.7648H10.2C7.5 49.7648 5.1 47.967 4.3 45.5699H6H58H59.6C58.8 48.0669 56.5 49.7648 53.8 49.7648Z" fill="#484848"/>
</svg>
