<svg width="64" height="64" viewBox="0 0 64 64" fill="none" xmlns="http://www.w3.org/2000/svg">
<g clip-path="url(#clip0_247:267)">
<path d="M36.7651 4.69336C32.5208 4.70658 28.3378 5.71019 24.5472 7.62477C20.7566 9.53935 17.4623 12.3123 14.9251 15.7243C14.7507 15.9335 14.6207 16.1761 14.543 16.4374C14.4653 16.6986 14.4415 16.973 14.4731 17.2438C14.5047 17.5146 14.5911 17.776 14.7268 18.0122C14.8626 18.2484 15.045 18.4544 15.2628 18.6175C15.4806 18.7807 15.7293 18.8976 15.9937 18.9611C16.258 19.0246 16.5326 19.0334 16.8004 18.9869C17.0683 18.9404 17.3239 18.8397 17.5517 18.6908C17.7794 18.542 17.9745 18.3481 18.1251 18.1211C21.3972 13.7045 26.1227 10.592 31.4642 9.33485C36.8058 8.07774 42.4187 8.75721 47.3085 11.2529C52.1983 13.7486 56.0494 17.8993 58.1796 22.9699C60.3097 28.0404 60.5814 33.7034 58.9465 38.9556C57.3116 44.2078 53.8756 48.7101 49.2473 51.665C44.619 54.6199 39.0971 55.8366 33.6598 55.0995C28.2226 54.3624 23.221 51.7192 19.5411 47.638C15.8613 43.5569 13.7407 38.3013 13.5551 32.8023V30.556L20.6851 37.706C20.8666 37.9077 21.0871 38.0702 21.3333 38.1838C21.5794 38.2974 21.8459 38.3597 22.1168 38.3669C22.3876 38.374 22.657 38.3259 22.9088 38.2255C23.1605 38.1251 23.3893 37.9744 23.5812 37.7826C23.7731 37.5909 23.9242 37.362 24.0252 37.1099C24.1262 36.8578 24.1752 36.5878 24.169 36.3162C24.1628 36.0445 24.1016 35.777 23.9892 35.5298C23.8768 35.2826 23.7155 35.0609 23.5151 34.8781L12.9951 24.2884C12.8061 24.0906 12.5772 23.9355 12.3237 23.8334C12.0702 23.7314 11.798 23.6848 11.5251 23.6967C11.2544 23.7042 10.9882 23.7668 10.7424 23.8805C10.4966 23.9943 10.2763 24.1569 10.0951 24.3586L0.515059 34.9483C0.160546 35.3423 -0.0237785 35.8612 0.00246251 36.3913C0.0287035 36.9213 0.263371 37.4193 0.655059 37.7762C1.04799 38.1317 1.56541 38.3166 2.09398 38.2903C2.62255 38.264 3.11917 38.0286 3.47506 37.6358L9.55506 30.8969V32.8424C9.7201 38.205 11.4568 43.4001 14.5483 47.7789C17.6398 52.1576 21.9491 55.5262 26.9381 57.4638C31.9272 59.4014 37.3749 59.8222 42.601 58.6737C47.8271 57.5253 52.6 54.8584 56.3238 51.0061C60.0476 47.1538 62.5572 42.2867 63.5394 37.0127C64.5215 31.7387 63.9326 26.2914 61.8462 21.3511C59.7597 16.4107 56.2683 12.1961 51.8077 9.23361C47.3472 6.27112 42.1152 4.69197 36.7651 4.69336Z" fill="#484848"/>
</g>
<defs>
<clipPath id="clip0_247:267">
<rect width="64" height="64" fill="white"/>
</clipPath>
</defs>
</svg>
