<svg width="64" height="64" viewBox="0 0 64 64" fill="none" xmlns="http://www.w3.org/2000/svg">
<path fill-rule="evenodd" clip-rule="evenodd" d="M57.8412 10.1158H53.1609H43.1032V2.00313C43.1032 0.901408 42.207 0 41.1116 0H22.9878C21.8925 0 20.9962 0.901408 20.9962 2.00313V10.1158H10.9385H6.25822C5.16283 10.1158 4.2666 11.0172 4.2666 12.1189C4.2666 13.2207 5.16283 14.1221 6.25822 14.1221H9.04649L13.0297 62.1972C13.1293 63.1987 14.0255 64 15.0214 64H48.9785C49.9743 64 50.8706 63.1987 50.9701 62.1972L54.9534 14.1221H57.7416C58.837 14.1221 59.7333 13.2207 59.7333 12.1189C59.7333 11.0172 58.9366 10.1158 57.8412 10.1158ZM24.9795 4.00626H39.12V10.1158H24.9795V4.00626ZM47.186 60.0939H16.8138L13.0297 14.1221H22.8883H41.1116H50.9701L47.186 60.0939ZM28.3652 25.9405C23.6849 27.2426 20.2991 31.4491 19.8012 36.2566C19.5025 39.662 20.6974 42.9671 22.8882 45.471H21.6932C20.5979 45.471 19.7016 46.3725 19.7016 47.4742C19.7016 48.5759 20.5979 49.4773 21.6932 49.4773H28.166C29.2614 49.4773 30.1576 48.5759 30.1576 47.4742V40.964C30.1576 39.8623 29.2614 38.9609 28.166 38.9609C27.0706 38.9609 26.1744 39.8623 26.1744 40.964V43.0673C24.4815 41.4648 23.5853 39.061 23.7844 36.6573C24.0832 33.4523 26.3736 30.6479 29.4606 29.8466C30.556 29.5462 31.1535 28.4444 30.8547 27.3427C30.556 26.241 29.4606 25.6401 28.3652 25.9405ZM33.7425 33.3522V26.842C33.7425 25.7403 34.6387 24.8389 35.7341 24.8389H42.2069C43.3022 24.8389 44.1985 25.7403 44.1985 26.842C44.1985 27.9437 43.3022 28.8451 42.2069 28.8451H40.7131C43.3022 31.349 44.5968 34.9547 44.2981 38.5603C43.8002 43.3678 40.4144 47.5744 35.7341 48.8764C35.6345 48.9766 35.4353 48.9766 35.2362 48.9766C34.4395 48.9766 33.5433 48.3756 33.3441 47.4742C33.0454 46.3725 33.6429 45.2708 34.7383 44.9703C37.8253 44.1691 40.1157 41.3647 40.4144 38.1597C40.6136 35.6558 39.6177 33.1518 37.7257 31.5493V33.3522C37.7257 34.4539 36.8295 35.3553 35.7341 35.3553C34.6387 35.3553 33.7425 34.4539 33.7425 33.3522Z" fill="#484848"/>
</svg>
