<svg width="64" height="64" viewBox="0 0 64 64" fill="none" xmlns="http://www.w3.org/2000/svg">
<path fill-rule="evenodd" clip-rule="evenodd" d="M40.7703 40.3984L41.4417 41.0698C44.5109 44.2349 44.5109 49.3182 41.3458 52.3874L33.2892 60.444C32.6178 61.1153 31.5628 61.2113 30.7955 60.6358L30.6036 60.444C30.0282 59.8685 29.8363 58.9094 30.3159 58.1421C32.9055 53.826 32.2341 50.565 28.014 47.7836C24.753 49.3182 22.4511 50.2773 22.1634 50.3732C21.492 50.6609 20.7247 50.565 20.1493 49.9896L14.1068 44.043C13.5313 43.5635 13.3395 42.7003 13.6272 42.0289C13.7232 41.7411 14.5864 39.4393 16.2169 36.0824C13.4354 31.8622 10.2703 31.0949 5.85839 33.6846C5.09109 34.0682 4.13198 33.9723 3.55651 33.3968L3.36468 33.205C2.78921 32.4377 2.88512 31.3827 3.55651 30.7113L11.6131 22.6547C14.6823 19.4896 19.7656 19.4896 22.9307 22.6547L23.6021 23.3261C25.2326 21.0242 26.959 18.9141 28.8772 16.9959C40.4791 5.30119 57.1108 3.21705 58.7812 3.00774C58.8369 3.00076 58.876 2.99586 58.8976 2.99277C60.0486 2.89686 61.1036 3.95189 61.0077 5.10283C61.0057 5.11893 61.0029 5.14229 60.9993 5.17271C60.8308 6.59224 58.8379 23.3858 47.1005 35.1232C45.1822 37.0415 42.9763 38.7679 40.7703 40.3984ZM54.8693 14.694C55.8285 11.6248 56.4039 9.03521 56.7876 7.21289C54.9652 7.59654 52.3756 8.17201 49.4024 9.22704L54.8693 14.694ZM14.2986 25.2443L11.2295 28.3135C13.8191 28.6012 16.121 29.8481 18.1351 32.15C19.0942 30.3276 20.1493 28.4094 21.3961 26.4912L20.1493 25.2443C18.6147 23.6138 15.9291 23.6138 14.2986 25.2443ZM31.5628 19.6814C24.5612 26.7789 19.286 38.4801 17.6555 42.1248L21.8757 46.3449C25.6162 44.8103 37.3175 39.4393 44.319 32.4377C48.5392 28.2176 51.4165 23.2302 53.3347 18.6264L45.3741 10.6657C40.7703 12.584 35.7829 15.4613 31.5628 19.6814ZM31.8505 45.8654C34.1524 47.8795 35.4951 50.1814 35.687 52.771L38.7561 49.7018C40.3867 48.1672 40.3867 45.4817 38.7561 43.8512L37.5093 42.6044C35.5911 43.8512 33.6728 44.9062 31.8505 45.8654ZM37.1254 17.7631C39.6191 15.2694 43.7433 15.2694 46.237 17.7631C48.7308 20.2568 48.7308 24.381 46.237 26.8747C43.7433 29.3685 39.6191 29.3685 37.1254 26.8747C34.6317 24.381 34.6317 20.2568 37.1254 17.7631ZM39.811 20.4487C38.7559 21.5037 38.7559 23.1342 39.811 24.1892C40.866 25.2442 42.4965 25.2442 43.5515 24.1892C44.6066 23.1342 44.6066 21.5037 43.5515 20.4487C42.4965 19.3936 40.866 19.3936 39.811 20.4487Z" fill="#484848"/>
</svg>
