<svg width="64" height="64" viewBox="0 0 64 64" fill="none" xmlns="http://www.w3.org/2000/svg">
<path fill-rule="evenodd" clip-rule="evenodd" d="M47.6285 38.988C46.9443 39.37 46.6986 40.239 47.0802 40.924C47.4617 41.607 48.3267 41.853 49.0109 41.473C49.0119 41.473 49.0119 41.472 49.0129 41.472C49.0135 41.4714 49.0137 41.4711 49.014 41.471C49.0142 41.471 49.0145 41.471 49.0149 41.471C49.3445 41.285 49.5842 40.983 49.6871 40.617C49.791 40.252 49.7461 39.868 49.5603 39.537C49.3755 39.205 49.0728 38.965 48.7073 38.861C48.3437 38.758 47.9591 38.804 47.6285 38.988ZM33.0793 60.0001C38.48 60.0001 42.8719 55.6031 42.8719 50.1971V36.316H21.5538V50.1971C21.5538 55.6031 25.9466 60.0001 31.3463 60.0001H33.0793ZM17.5573 22.56C15.9512 23.146 14.8035 24.391 14.8035 25.805C14.8035 27.219 15.9512 28.464 17.5573 29.05V22.56ZM23.5514 17.7C22.4507 17.7 21.5538 18.598 21.5538 19.7V32.316H42.8719V19.7C42.8719 18.598 41.9759 17.7 40.8742 17.7H23.5514ZM46.8679 29.05C48.4761 28.464 49.6227 27.219 49.6227 25.805C49.6227 24.391 48.4761 23.146 46.8679 22.56V29.05ZM17.3433 40.924V40.923C17.7249 40.238 17.4792 39.37 16.796 38.988C16.5812 38.868 16.3445 38.807 16.1048 38.807C15.9749 38.807 15.8451 38.825 15.7163 38.861C15.3507 38.965 15.049 39.204 14.8632 39.536C14.4807 40.222 14.7264 41.089 15.4106 41.472C15.7422 41.657 16.1268 41.703 16.4903 41.598C16.8549 41.494 17.1576 41.255 17.3433 40.924ZM33.1009 5.138C33.1009 4.511 32.5905 4 31.9642 4C31.3379 4 30.8285 4.511 30.8285 5.138C30.8285 5.765 31.3379 6.275 31.9642 6.275C32.5905 6.275 33.1009 5.765 33.1009 5.138ZM58.3589 50.362C59.7513 50.757 60.9059 51.67 61.6111 52.935C62.1495 53.9 61.8039 55.117 60.841 55.656C59.8782 56.196 58.6606 55.85 58.1232 54.886C57.9374 54.554 57.6348 54.314 57.2692 54.21C56.9056 54.108 56.5211 54.152 56.1905 54.337C55.5073 54.719 55.2605 55.587 55.6431 56.272C56.1815 57.236 55.8369 58.454 54.874 58.993C54.5654 59.166 54.2308 59.247 53.9011 59.247C53.201 59.247 52.5207 58.878 52.1552 58.223C51.0435 56.231 51.3341 53.837 52.6896 52.164L49.0298 45.604C48.7971 45.635 48.5624 45.652 48.3296 45.652C47.8332 45.652 47.3418 45.579 46.8664 45.446V50.197C46.8664 57.809 40.6816 64 33.0785 64H31.3455C23.7434 64 17.5576 57.809 17.5576 50.197V45.446C17.0832 45.579 16.5917 45.652 16.0953 45.652C15.8616 45.652 15.6279 45.635 15.3932 45.604L11.7374 52.158C12.1969 52.723 12.5475 53.377 12.7522 54.101C13.1458 55.494 12.974 56.958 12.2688 58.223C11.9032 58.878 11.224 59.247 10.5228 59.247C10.1932 59.247 9.85862 59.166 9.55098 58.993C8.5881 58.454 8.24251 57.236 8.78088 56.272C8.96666 55.941 9.01161 55.557 8.90773 55.192C8.80485 54.825 8.56413 54.523 8.23252 54.337C7.90191 54.152 7.52235 54.109 7.15378 54.21C6.78921 54.314 6.48556 54.554 6.30078 54.886C5.76241 55.849 4.54483 56.195 3.58196 55.656C2.61908 55.117 2.27448 53.9 2.81286 52.935C3.51803 51.67 4.67268 50.757 6.06505 50.362C6.78821 50.157 7.52734 50.112 8.2485 50.207L11.9102 43.645C10.5548 41.972 10.2641 39.578 11.3758 37.586C12.08 36.322 13.2347 35.408 14.628 35.013C15.6019 34.737 16.6067 34.754 17.5576 35.022V34.316V33.2C13.6951 32.412 10.8085 29.399 10.8085 25.805C10.8085 22.163 13.77 19.113 17.7104 18.375C18.3147 15.703 20.7019 13.7 23.5506 13.7H29.9671V9.869C28.1273 9.087 26.8338 7.261 26.8338 5.138C26.8338 2.305 29.1361 0 31.9648 0C34.7945 0 37.0968 2.305 37.0968 5.138C37.0968 7.261 35.8023 9.088 33.9624 9.869V13.7H40.8734C43.723 13.7 46.1092 15.703 46.7145 18.375C50.6539 19.113 53.6165 22.163 53.6165 25.805C53.6165 29.399 50.7288 32.412 46.8664 33.2V34.316V35.022C49.2196 34.364 51.8046 35.358 53.0491 37.586C53.7543 38.85 53.9261 40.314 53.5316 41.708C53.3268 42.432 52.9762 43.086 52.5168 43.651L56.1745 50.207C56.8966 50.112 57.6368 50.157 58.3589 50.362ZM27.0583 27.007C28.1021 27.007 28.9491 26.159 28.9491 25.114C28.9491 24.069 28.1021 23.222 27.0583 23.222C26.0145 23.222 25.1675 24.069 25.1675 25.114C25.1675 26.159 26.0145 27.007 27.0583 27.007ZM37.4547 27.007C38.4985 27.007 39.3455 26.159 39.3455 25.114C39.3455 24.069 38.4985 23.222 37.4547 23.222C36.4109 23.222 35.5639 24.069 35.5639 25.114C35.5639 26.159 36.4109 27.007 37.4547 27.007Z" fill="#484848"/>
</svg>
