<svg width="64" height="64" viewBox="0 0 64 64" fill="none" xmlns="http://www.w3.org/2000/svg">
<path d="M63.9 45.2112C63.4 39.9173 59.5 35.4225 54.2 34.4236L49.3 33.5247L39.9 17.6429C38.8 15.2457 36.1 14.047 33.6 14.946L27.8 17.0436L27.9 16.2445C28.2 13.7474 26.9 11.2502 24.7 10.0516L21.9 8.65323C19.1 7.25483 15.8 8.1538 14.1 10.8507L6.3 23.3364C6 23.2365 5.6 23.2365 5.2 23.3364C4.7 23.4362 4.3 23.8358 4 24.3352L0.4 30.9276C-0.1 31.9265 0.2 33.1251 1.2 33.6245L38.6 54.7003C38.9 54.9001 39.2 55 39.6 55H62C63.1 55 64 54.101 64 53.0023V45.8106C64 45.5109 64 45.411 63.9 45.2112ZM45.1 34.3237C44.5 34.3237 44 34.0241 43.6 33.5247L37.4 25.1343C37.1 24.6349 36.9 24.1354 37 23.5361C37.1 22.9368 37.4 22.5373 37.9 22.2376L45.1 34.3237ZM35 18.7416C35.3 18.6418 35.6 18.6418 35.8 18.8415H35.7C34.3 19.7405 33.4 21.2388 33.1 22.8369C32.8 24.4351 33.2 26.1332 34.2 27.5315L40.4 35.9219C41.6 37.5201 43.4 38.419 45.2 38.419C46.2 38.419 47.1 38.2193 48 37.7198L48.3 37.5201L53.4 38.5189C56.3 39.0184 58.5 41.1159 59.4 43.713H43C42.6 43.713 42.3 43.6131 41.9 43.4133L26.2 34.5235L29.5 32.2262C30.4 31.6268 30.6 30.3283 30 29.4294C29.4 28.5304 28.1 28.3306 27.2 28.9299L22.3 32.326L20 31.0275L25 27.2319C25.9 26.5327 26.1 25.3341 25.4 24.4351C24.7 23.5361 23.5 23.3364 22.6 24.0356L16.3 28.8301L16.2 28.9299L9.8 25.3341L15.4 16.2445L25 21.2388C25.8 21.6383 26.7 21.7382 27.5 21.4385L35 18.7416ZM20.1 12.2491L22.9 13.6475C23.7 14.047 24.1 14.8461 24 15.7451V16.0447L17.7 12.7485C18.2 12.0493 19.2 11.7497 20.1 12.2491ZM60 50.9047H40.1L4.9 31.0275L6.6 27.9311L39.9 46.8094C40.8 47.4087 41.9 47.7084 43 47.7084H60V50.9047Z" fill="#484848"/>
<path d="M25.1 50.9047H2C0.9 50.9047 0 51.8037 0 52.9024C0 54.0012 0.9 54.9001 2 54.9001H25.1C26.2 54.9001 27.1 54.0012 27.1 52.9024C27.1 51.8037 26.2 50.9047 25.1 50.9047Z" fill="#484848"/>
<path d="M2 47.4087H10.7C11.8 47.4087 12.7 46.5098 12.7 45.411C12.7 44.3123 11.8 43.4133 10.7 43.4133H2C0.9 43.4133 0 44.3123 0 45.411C0 46.5098 0.9 47.4087 2 47.4087Z" fill="#484848"/>
</svg>
