<svg width="64" height="64" viewBox="0 0 64 64" fill="none" xmlns="http://www.w3.org/2000/svg">
<g clip-path="url(#clip0_305:57)">
<path fill-rule="evenodd" clip-rule="evenodd" d="M44.9756 41.6913H45.9766C50.5813 41.6913 54.285 45.3927 54.1849 49.9945V61.9992C54.1849 62.9996 53.4842 63.9 52.4832 64H52.1829C51.282 64 50.4811 63.3998 50.2809 62.4994C48.8795 57.3974 45.9766 55.5967 40.8714 56.5971C39.9543 59.2703 39.0955 61.3021 38.696 62.2472C38.5723 62.54 38.4926 62.7285 38.4689 62.7995C38.1686 63.4998 37.4679 64 36.6671 64H27.758C26.9572 64 26.2565 63.4998 25.9562 62.7995C25.9283 62.7159 25.8305 62.4692 25.6758 62.079C25.275 61.0685 24.4926 59.0951 23.5538 56.4971C18.3485 55.3966 15.4455 57.2974 14.1442 62.3994C13.944 63.2997 13.1432 63.9 12.2423 63.9H11.942C10.9409 63.7999 10.2402 62.8996 10.2402 61.8992V49.9945C10.2402 45.3927 13.944 41.6913 18.6488 41.6913H19.6498C19.1493 38.8902 18.849 35.9891 18.849 33.188C18.849 16.41 28.9798 2.91812 30.4856 0.912731C30.5779 0.789737 30.6379 0.70995 30.661 0.675264C31.4618 -0.225088 32.9633 -0.225088 33.7642 0.675264C34.2647 1.2755 45.6763 15.381 45.7764 33.188C45.7764 35.9891 45.4761 38.8902 44.9756 41.6913ZM36.2667 12.2798C34.8653 9.37866 33.3637 6.97773 32.2626 5.3771C31.1615 6.87769 29.66 9.27862 28.2586 12.2798H36.2667ZM14.2443 49.9945V54.4963C16.3464 52.7956 18.9491 51.9953 22.1523 52.2954C21.4516 50.1946 20.851 47.9937 20.3505 45.6928H18.5487C16.2463 45.6928 14.2443 47.5936 14.2443 49.9945ZM22.8531 33.188C22.8531 43.592 27.5578 56.0969 29.1595 59.9984H35.3658C36.9674 56.0969 41.6722 43.492 41.6722 33.188C41.6722 26.8855 40.1707 21.0832 38.1686 16.2814H26.4567C24.4547 21.0832 22.8531 26.9855 22.8531 33.188ZM42.3729 52.1954C45.5762 51.9953 48.1788 52.7956 50.2809 54.4963V49.8945C50.2809 47.5936 48.379 45.5928 45.9766 45.5928H44.1747C43.5741 47.8937 42.9735 50.1946 42.3729 52.1954ZM25.5557 27.5858C25.5557 23.8844 28.5587 20.8832 32.2625 20.8832C35.9663 20.8832 38.9693 23.8844 38.9693 27.5858C38.9693 31.2872 35.9663 34.2884 32.2625 34.2884C28.5587 34.2884 25.5557 31.2872 25.5557 27.5858ZM29.5597 27.6858C29.5597 29.1864 30.761 30.3869 32.2625 30.3869C33.764 30.3869 34.9652 29.1864 34.9652 27.6858C34.9652 26.1852 33.764 24.9848 32.2625 24.9848C30.761 24.9848 29.5597 26.1852 29.5597 27.6858Z" fill="#484848"/>
</g>
<defs>
<clipPath id="clip0_305:57">
<rect width="64" height="64" fill="white"/>
</clipPath>
</defs>
</svg>
