<svg width="64" height="64" viewBox="0 0 64 64" fill="none" xmlns="http://www.w3.org/2000/svg">
<g clip-path="url(#clip0_360:10)">
<path fill-rule="evenodd" clip-rule="evenodd" d="M49.3252 40.0091L58.1728 55.3204C58.5617 55.9055 58.5617 56.7832 58.0756 57.4659C57.5895 58.051 56.9089 58.3436 56.1311 58.2461L50.2975 57.1733L48.2557 62.7322C47.9641 63.4149 47.3807 63.9025 46.6029 64H46.4084C45.7279 64 45.1445 63.6099 44.7556 63.0248L36.0052 47.7135L33.4773 50.0541C33.1856 50.3467 32.6995 50.5417 32.2134 50.5417C31.7273 50.5417 31.2411 50.3467 30.9494 49.9566L28.4216 47.616L19.6712 62.9272C19.3795 63.5124 18.6989 63.9025 18.0183 63.9025H17.8239C17.0461 63.8049 16.4627 63.3173 16.171 62.6347L14.1293 57.0758L8.29568 58.1486C7.51787 58.3436 6.83729 57.9535 6.35116 57.3684C5.86502 56.7832 5.86502 56.003 6.25393 55.3204L15.1015 40.0091L11.5042 38.8389C10.6291 38.5463 10.0458 37.571 10.2402 36.5958L11.4069 30.9394L7.51787 26.6484C6.83729 25.8682 6.83729 24.7954 7.51787 24.0152L11.4069 19.7242L10.2402 14.0678C9.94853 13.0926 10.5319 12.1173 11.5042 11.8248L17.0461 10.0693L18.7961 4.51048C19.0878 3.63276 20.0601 3.04762 21.0323 3.24267L26.6715 4.41295L30.9494 0.512C31.7273 -0.170667 32.7967 -0.170667 33.5746 0.512L37.8525 4.41295L43.4916 3.24267C44.4639 2.9501 45.4362 3.53524 45.7279 4.51048L47.4779 10.0693L53.0198 11.8248C53.8949 12.1173 54.4782 13.0926 54.2838 14.0678L53.1171 19.7242L57.0061 24.0152C57.6867 24.7954 57.6867 25.8682 57.0061 26.6484L53.1171 30.9394L54.2838 36.5958C54.5755 37.571 53.9921 38.5463 53.0198 38.8389L49.3252 40.0091ZM17.1433 54.2476L18.31 57.4659L24.5325 46.5432L20.9351 47.3234C19.9629 47.616 18.9906 47.0309 18.6989 46.0556L17.7266 43.0324L11.6986 53.565L15.0043 52.9798C15.8793 52.7848 16.8516 53.3699 17.1433 54.2476ZM28.5188 42.5448L32.2134 45.9581L35.908 42.7398C36.3941 42.2522 37.0747 42.1547 37.6581 42.2522L42.6166 43.325L44.1722 38.5463C44.3667 37.9611 44.8528 37.4735 45.4362 37.2785L50.2003 35.7181L49.1308 30.7444C49.0336 30.0617 49.228 29.4766 49.6169 28.989L53.0198 25.283L49.6169 21.5771C49.1308 21.0895 49.0336 20.4069 49.1308 19.8217L50.2003 14.848L45.4362 13.2876C44.8528 13.0926 44.3667 12.605 44.1722 12.0198L42.6166 7.24114L37.6581 8.3139C36.9775 8.41143 36.3941 8.21638 35.908 7.82629L32.2134 4.41295L28.616 7.72876C28.1299 8.21638 27.4493 8.3139 26.8659 8.21638L21.9074 7.14362L20.3518 11.9223C20.1573 12.5074 19.6712 12.995 19.0878 13.1901L14.3237 14.7505L15.3932 19.7242C15.4904 20.4069 15.296 20.992 14.9071 21.4796L11.5042 25.1855L14.9071 28.7939C15.3932 29.2815 15.4904 29.9642 15.3932 30.5493L14.3237 35.523L19.0878 37.0834C19.6712 37.2785 20.1573 37.7661 20.3518 38.3512L21.9074 43.1299L26.8659 42.0571H27.2548C27.6437 42.0571 28.1299 42.2522 28.5188 42.5448ZM47.2835 54.2476C47.5752 53.3699 48.4502 52.7848 49.4225 52.9798L52.7282 53.6625L46.7001 43.1299L45.7279 46.1531C45.4362 47.0309 44.4639 47.616 43.4916 47.421L39.8943 46.6408L46.1168 57.4659L47.2835 54.2476ZM28.3247 13.1901C34.9361 10.947 42.1309 14.6529 44.2699 21.2845C46.4088 27.9162 42.7142 35.0354 36.1028 37.376C34.8389 37.7661 33.4777 37.9611 32.2138 37.9611C26.8663 37.9611 21.9078 34.5478 20.1577 29.184C19.0882 25.9657 19.3799 22.5524 20.9355 19.5291C22.4911 16.5059 25.1163 14.2628 28.3247 13.1901ZM24.3384 21.187C23.2689 23.3325 23.1717 25.6731 23.8523 27.9162C25.4079 32.4998 30.3665 35.0354 34.8389 33.475C39.4085 32.0122 41.9364 27.0384 40.478 22.4548C39.2141 18.7489 35.8112 16.4083 32.1166 16.4083C31.2415 16.4083 30.2693 16.5059 29.3942 16.7984C27.2552 17.5786 25.4079 19.139 24.3384 21.187Z" fill="#484848"/>
</g>
<defs>
<clipPath id="clip0_360:10">
<rect width="64" height="64" fill="white"/>
</clipPath>
</defs>
</svg>
