<svg width="64" height="64" viewBox="0 0 64 64" fill="none" xmlns="http://www.w3.org/2000/svg">
<g clip-path="url(#clip0_944:103)">
<path d="M63.392 60.6004L3.39957 0.608027C2.79965 0.0081026 1.99975 -0.191872 1.19985 0.208077C0.499937 0.508039 0 1.20795 0 2.00785V62.0003C0 63.1001 0.899886 64 1.99975 64H61.9921C62.792 64 63.492 63.5001 63.7919 62.8002C64.1919 62.0003 63.9919 61.2004 63.392 60.6004ZM3.99949 60.0005V6.80724L12.2984 15.1062L10.1987 17.2059C9.39881 18.0058 9.39881 19.3057 10.1987 20.0056C10.5987 20.4055 11.0986 20.6055 11.5985 20.6055C12.0985 20.6055 12.5984 20.4055 12.9984 20.0056L15.0981 17.9058L17.8977 20.7055L15.898 22.8052C15.0981 23.6051 15.0981 24.905 15.898 25.6049C16.2979 26.0048 16.7979 26.2048 17.2978 26.2048C17.7977 26.2048 18.2977 26.0048 18.6976 25.6049L20.6974 23.5051L23.497 26.3048L21.4973 28.4045C20.6974 29.2044 20.6974 30.5042 21.4973 31.2042C21.8972 31.6041 22.3972 31.8041 22.8971 31.8041C23.397 31.8041 23.897 31.6041 24.2969 31.2042L26.2967 29.1044L29.0963 31.9041L27.0966 33.9038C26.2967 34.7037 26.2967 36.0035 27.0966 36.7035C27.4965 37.1034 27.9965 37.3034 28.4964 37.3034C28.9963 37.3034 29.4963 37.1034 29.8962 36.7035L31.896 34.7037L34.6956 37.5034L32.6959 39.5031C31.896 40.303 31.896 41.6028 32.6959 42.3027C33.0958 42.7027 33.5957 42.9027 34.0957 42.9027C34.5956 42.9027 35.0956 42.7027 35.4955 42.3027L37.4953 40.303L40.2949 43.1026L38.3951 45.1024C37.5952 45.9023 37.5952 47.2021 38.3951 47.902C38.7951 48.302 39.295 48.502 39.795 48.502C40.2949 48.502 40.7948 48.302 41.1948 47.902L43.0945 45.9023L45.8942 48.7019L43.9944 50.7017C43.1945 51.5016 43.1945 52.8014 43.9944 53.5013C44.3944 53.9013 44.8943 54.1012 45.3943 54.1012C45.8942 54.1012 46.3941 53.9013 46.7941 53.5013L48.6938 51.5016L57.1928 60.0005H3.99949Z" fill="#484848"/>
<path d="M12.7983 27.4046C12.1984 26.8047 11.3985 26.7047 10.5986 27.0046C9.89865 27.3046 9.39871 28.0045 9.39871 28.8044V52.5014C9.39871 53.6013 10.2986 54.5012 11.3985 54.5012H35.0955C35.8954 54.5012 36.5953 54.0012 36.8952 53.3013C37.1952 52.6014 36.9952 51.7015 36.4953 51.1016L12.7983 27.4046ZM13.3982 50.4017V33.6038L30.2961 50.4017H13.3982Z" fill="#484848"/>
</g>
<defs>
<clipPath id="clip0_944:103">
<rect width="64" height="64" fill="white"/>
</clipPath>
</defs>
</svg>
