<svg width="64" height="64" viewBox="0 0 64 64" fill="none" xmlns="http://www.w3.org/2000/svg">
<path fill-rule="evenodd" clip-rule="evenodd" d="M4 32C4 47.439 16.561 60 32 60C47.439 60 60 47.439 60 32C60 27.23 58.799 22.737 56.687 18.803H54.944V23.964C54.944 27.272 52.253 29.964 48.944 29.964H38.5C35.191 29.964 32.5 27.272 32.5 23.964V18.803H30.944V23.964C30.944 27.272 28.253 29.964 24.944 29.964H14.5C11.191 29.964 8.5 27.272 8.5 23.964V18.803H7.313C5.201 22.737 4 27.23 4 32ZM26.944 18.803H12.5V23.964C12.5 25.066 13.397 25.964 14.5 25.964H24.944C26.047 25.964 26.944 25.066 26.944 23.964V18.803ZM50.944 18.803H36.5V23.964C36.5 25.066 37.397 25.964 38.5 25.964H48.944C50.047 25.964 50.944 25.066 50.944 23.964V18.803ZM54.0721 14.803C48.9431 8.234 40.9601 4 32.0001 4C23.0401 4 15.0571 8.234 9.92811 14.803H10.5001H28.9441H34.5001H52.9441H54.0721ZM59.479 15.627C59.573 15.754 59.654 15.89 59.716 16.037C62.435 20.739 64 26.188 64 32C64 49.645 49.645 64 32 64C14.355 64 0 49.645 0 32C0 26.187 1.565 20.736 4.286 16.033C4.347 15.889 4.427 15.756 4.518 15.631C10.109 6.278 20.334 0 32 0C43.665 0 53.888 6.276 59.479 15.627ZM44.8379 38.0614C45.0119 36.9704 46.0399 36.2284 47.1279 36.4004C48.2189 36.5744 48.9619 37.5994 48.7889 38.6904C47.4689 46.9814 40.4079 53.0004 31.9999 53.0004C23.5919 53.0004 16.5319 46.9814 15.2119 38.6904C15.0389 37.5994 15.7819 36.5744 16.8729 36.4004C17.9669 36.2294 18.9889 36.9704 19.1629 38.0614C20.1709 44.3994 25.5699 49.0004 31.9999 49.0004C38.4309 49.0004 43.8299 44.3994 44.8379 38.0614Z" fill="#484848"/>
</svg>
