<svg width="64" height="64" viewBox="0 0 64 64" fill="none" xmlns="http://www.w3.org/2000/svg">
<path fill-rule="evenodd" clip-rule="evenodd" d="M25.8404 8.95996H61.9969C63.0986 8.95996 64 9.86009 64 10.9602C64 12.0604 63.0986 12.9605 61.9969 12.9605H27.2426L12.7199 54.1665C12.4194 54.9666 11.6182 55.4666 10.8169 55.4666H10.7167C9.81534 55.3666 9.01408 54.7665 8.81377 53.9664L3.40532 34.1636H2.00313C0.901408 34.1636 0 33.2634 0 32.1633C0 31.0631 0.901408 30.163 2.00313 30.163H4.90767C5.80908 30.163 6.61033 30.7631 6.81064 31.6632L10.9171 46.7654L23.9374 10.2601C24.2379 9.46003 24.939 8.95996 25.8404 8.95996ZM59.1929 23.362C59.1929 24.4621 58.2915 25.3623 57.1898 25.3623H53.1835L46.9738 35.2637L53.0833 45.1651H57.1898C58.2915 45.1651 59.1929 46.0652 59.1929 47.1654C59.1929 48.2655 58.2915 49.1657 57.1898 49.1657H51.9816C51.2805 49.1657 50.6796 48.8656 50.279 48.2655L44.57 39.0642L38.8611 48.2655C38.4605 48.7656 37.8596 49.1657 37.1585 49.1657H31.9503C30.8486 49.1657 29.9472 48.2655 29.9472 47.1654C29.9472 46.0652 30.8486 45.1651 31.9503 45.1651H36.1569L42.2664 35.2637L36.0567 25.3623H31.9503C30.8486 25.3623 29.9472 24.4621 29.9472 23.362C29.9472 22.2618 30.8486 21.3617 31.9503 21.3617H37.1585C37.8596 21.3617 38.4605 21.6617 38.8611 22.2618L44.57 31.4631L50.279 22.2618C50.6796 21.7617 51.2805 21.3617 51.9816 21.3617H57.1898C58.2915 21.3617 59.1929 22.2618 59.1929 23.362Z" fill="#484848"/>
</svg>
