<svg width="64" height="64" viewBox="0 0 64 64" fill="none" xmlns="http://www.w3.org/2000/svg">
<path fill-rule="evenodd" clip-rule="evenodd" d="M0 28.0058C0 13.9805 14.4 2.56 32 2.56C49.6 2.56 64 13.9805 64 28.0058C64 35.2187 60.2 42.031 53.5 46.7395C53.3 49.6447 51.5 56.8577 40.3 61.6663C40.2693 61.6765 40.2397 61.6868 40.2109 61.6969C40.1814 61.7073 40.1528 61.7176 40.1248 61.7276L40.1234 61.7281C39.9122 61.8039 39.7374 61.8667 39.5 61.8667C38.9 61.8667 38.4 61.6663 38 61.2656C37.5 60.6645 37.3 59.6627 37.7 58.9614C38 58.3604 38.8 56.1564 38 54.9542C37.4 53.9524 35.6 53.3513 33 53.3513H32.5H32H31.9C14.3 53.3513 0 42.031 0 28.0058ZM49.5 45.8378C49.5 45.1366 49.8 44.4353 50.4 44.0346C56.5 40.0274 60 34.1168 60 28.0058C60 16.1845 47.4 6.5672 32 6.5672C16.6 6.5672 4 16.1845 4 28.0058C4 39.7268 16.5 49.3441 31.9 49.244H32.2H32.7H33C37.1 49.244 40 50.4461 41.4 52.7503C42 53.8522 42.3 54.9542 42.3 56.0562C49.6048 51.6654 49.5103 46.4193 49.5005 45.8716C49.5002 45.8569 49.5 45.8457 49.5 45.8378ZM19.0996 16.6854H44.8996C45.9996 16.6854 46.9996 17.587 46.9996 18.689C46.9996 19.791 46.0996 20.6926 44.9996 20.6926H19.0996C17.9996 20.6926 17.0996 19.791 17.0996 18.689C17.0996 17.587 17.9996 16.6854 19.0996 16.6854ZM44.8996 25.7016H19.0996C17.9996 25.7016 17.0996 26.6032 17.0996 27.7052C17.0996 28.8072 17.9996 29.7088 19.0996 29.7088H44.9996C46.0996 29.7088 46.9996 28.8072 46.9996 27.7052C46.9996 26.6032 45.9996 25.7016 44.8996 25.7016ZM19.0996 34.7178H44.8996C45.9996 34.7178 46.9996 35.6195 46.9996 36.7214C46.9996 37.8234 46.0996 38.725 44.9996 38.725H19.0996C17.9996 38.725 17.0996 37.8234 17.0996 36.7214C17.0996 35.6195 17.9996 34.7178 19.0996 34.7178Z" fill="#484848"/>
</svg>
