<svg width="64" height="64" viewBox="0 0 64 64" fill="none" xmlns="http://www.w3.org/2000/svg">
<g clip-path="url(#clip0_285:22)">
<path fill-rule="evenodd" clip-rule="evenodd" d="M53.4913 13.6L51.9928 15.1C57.2876 20.3 60.6843 27.5 60.5844 35.6C60.5844 51.2 47.7969 64 32.2121 64C16.6273 64 3.83984 51.3 3.83984 35.6C3.83984 20.5 15.5284 8.2 30.2141 7.2V6.9V4H26.218C25.119 4 24.2199 3.1 24.2199 2C24.2199 0.9 25.119 0 26.218 0H31.6127H32.8115H38.2062C39.3052 0 40.2043 0.9 40.2043 2C40.2043 3.1 39.3052 4 38.2062 4H34.2102V7V7.3C39.7048 7.6 44.6999 9.6 48.8958 12.6L50.694 10.8L50.0946 10.2C49.2954 9.4 49.2954 8.2 50.0946 7.4C50.8938 6.6 52.0927 6.6 52.8919 7.4L56.888 11.4C57.6872 12.2 57.6872 13.4 56.888 14.2C56.4884 14.6 55.9889 14.8 55.4893 14.8C54.9898 14.8 54.4903 14.6 54.0907 14.2L53.4913 13.6ZM7.83594 35.6C7.83594 49 18.8252 60 32.2121 60C45.6989 60 56.5883 49 56.5883 35.6C56.5883 22.2 45.599 11.2 32.2121 11.2C18.8252 11.2 7.83594 22.2 7.83594 35.6ZM36.2081 35.6C36.2081 35.9 36.2081 36.3 36.1082 36.6L45.2992 46C46.0984 46.8 46.0984 48 45.2992 48.8C44.8996 49.2 44.4001 49.4 43.9006 49.4C43.4011 49.4 42.9015 49.2 42.5019 48.8L33.211 39.5C33.0719 39.5 32.9328 39.5216 32.7837 39.5447C32.6116 39.5713 32.4261 39.6 32.212 39.6C30.0141 39.6 28.2159 37.8 28.2159 35.6C28.2159 33.4 30.0141 31.6 32.212 31.6C34.4098 31.6 36.2081 33.4 36.2081 35.6Z" fill="#484848"/>
</g>
<defs>
<clipPath id="clip0_285:22">
<rect width="64" height="64" fill="white"/>
</clipPath>
</defs>
</svg>
