<svg width="64" height="64" viewBox="0 0 64 64" fill="none" xmlns="http://www.w3.org/2000/svg">
<path fill-rule="evenodd" clip-rule="evenodd" d="M42.3395 57.862C42.3395 59.041 41.3823 60 40.2045 60H6.12636C4.9496 60 3.99242 59.041 3.99242 57.862V6.137C3.99242 4.959 4.9496 4 6.12636 4H29.2464V15.484C29.2464 16.589 30.1397 17.484 31.2426 17.484H42.3395V25.538C41.4871 25.378 40.6128 25.284 39.7145 25.284C31.8933 25.284 25.5304 31.659 25.5304 39.495C25.5304 47.331 31.8933 53.706 39.7145 53.706C40.6128 53.706 41.4871 53.612 42.3395 53.452V57.862ZM41.7136 13.465C41.7196 13.47 41.7236 13.478 41.7306 13.484H33.2387V4.97302L41.7136 13.465ZM49.906 39.495C49.906 45.125 45.3337 49.706 39.7144 49.706C34.0951 49.706 29.5228 45.125 29.5228 39.495C29.5228 33.865 34.0951 29.284 39.7144 29.284C45.3337 29.284 49.906 33.865 49.906 39.495ZM63.4154 60.413L51.0409 48.013C52.8265 45.636 53.8985 42.693 53.8985 39.495C53.8985 34.053 50.8263 29.322 46.3319 26.935V14.977C46.3319 13.34 45.6951 11.799 44.5373 10.637L35.7141 1.798C34.5573 0.638 33.0182 0 31.3813 0H6.12635C2.74777 0 0 2.753 0 6.137V57.862C0 61.247 2.74777 64 6.12635 64H40.2045C43.5831 64 46.3319 61.247 46.3319 57.862V52.054C46.9956 51.703 47.6214 51.292 48.2183 50.841L60.5927 63.241C60.983 63.632 61.493 63.827 62.004 63.827C62.5151 63.827 63.0261 63.632 63.4154 63.241C64.1949 62.46 64.1949 61.194 63.4154 60.413Z" fill="#484848"/>
</svg>
