<svg width="64" height="64" viewBox="0 0 64 64" fill="none" xmlns="http://www.w3.org/2000/svg">
<path fill-rule="evenodd" clip-rule="evenodd" d="M4 32C4 16.561 16.561 4 32 4C47.439 4 60 16.561 60 32C60 47.439 47.439 60 32 60C16.561 60 4 47.439 4 32ZM0 32C0 49.645 14.355 64 32 64C49.645 64 64 49.645 64 32C64 14.355 49.645 0 32 0C14.355 0 0 14.355 0 32ZM20 31C21.656 31 23 29.657 23 28C23 27.2319 22.7108 26.5309 22.2355 26H24.9081C26.0121 26 26.9081 25.104 26.9081 24C26.9081 22.896 26.0121 22 24.9081 22H15.0911C13.9861 22 13.0911 22.896 13.0911 24C13.0911 25.104 13.9861 26 15.0911 26H17.7641C17.2889 26.5309 17 27.2319 17 28C17 29.657 18.343 31 20 31ZM47 28C47 29.657 45.656 31 44 31C42.343 31 41 29.657 41 28C41 27.2319 41.2889 26.5309 41.7641 26H39.0911C37.9861 26 37.0911 25.104 37.0911 24C37.0911 22.896 37.9861 22 39.0911 22H48.9081C50.0121 22 50.9081 22.896 50.9081 24C50.9081 25.104 50.0121 26 48.9081 26H46.2355C46.7108 26.5309 47 27.2319 47 28ZM21.3941 44.6074H44.0001C45.1041 44.6074 46.0001 43.7114 46.0001 42.6074C46.0001 41.5034 45.1041 40.6074 44.0001 40.6074H21.3941C20.2891 40.6074 19.3941 41.5034 19.3941 42.6074C19.3941 43.7114 20.2891 44.6074 21.3941 44.6074Z" fill="#484848"/>
</svg>
