<svg width="64" height="64" viewBox="0 0 64 64" fill="none" xmlns="http://www.w3.org/2000/svg">
<path fill-rule="evenodd" clip-rule="evenodd" d="M57.4171 55.5L46.0781 31.2L40.2581 19.5V4H42.0643C43.1681 4 44.0712 3.1 44.0712 2C44.0712 0.9 43.1681 0 42.0643 0H21.9953C20.8915 0 19.9884 0.9 19.9884 2C19.9884 3.1 20.8915 4 21.9953 4H23.8015V19.4L17.9815 31.1L6.54214 55.5C5.63903 57.4 5.83972 59.5 6.94352 61.3C8.04731 63 9.85353 64 11.9608 64H51.9985C54.1057 64 56.0123 63 57.1161 61.2C58.2199 59.4 58.3202 57.3 57.4171 55.5ZM27.5143 20.8C27.6146 20.5 27.715 20.2 27.715 19.9V4H36.144V19.9C36.144 20.2 36.2443 20.5 36.3446 20.8L40.9605 30H22.8984L27.5143 20.8ZM53.604 59.1C53.2026 59.7 52.6006 60 51.8981 60H11.9608C11.2584 60 10.6563 59.7 10.2549 59.1C9.85353 58.5 9.85353 57.8 10.1546 57.2L20.9918 34H42.9674L53.8047 57.2C54.1057 57.8 54.0054 58.5 53.604 59.1ZM27.6145 37.1C23.6007 37.1 20.2893 40.4 20.2893 44.4C20.2893 48.4 23.6007 51.7 27.6145 51.7C31.6283 51.7 34.9397 48.4 34.9397 44.4C34.9397 40.4 31.7286 37.1 27.6145 37.1ZM27.6145 47.7C25.8083 47.7 24.3031 46.2 24.3031 44.4C24.3031 42.6 25.8083 41.1 27.6145 41.1C29.4207 41.1 30.9259 42.6 30.9259 44.4C30.9259 46.2 29.521 47.7 27.6145 47.7ZM35.8428 51.7C35.8428 48.7 38.2511 46.2 41.3618 46.2C44.4725 46.2 46.8808 48.7 46.8808 51.7C46.8808 54.7 44.3722 57.2 41.3618 57.2C38.3515 57.2 35.8428 54.7 35.8428 51.7ZM39.8566 51.8C39.8566 52.6 40.4587 53.3 41.3618 53.3C42.2649 53.3 42.867 52.6 42.867 51.8C42.867 51 42.1646 50.3 41.3618 50.3C40.5591 50.3 39.8566 51 39.8566 51.8Z" fill="#484848"/>
</svg>
