<svg width="64" height="64" viewBox="0 0 64 64" fill="none" xmlns="http://www.w3.org/2000/svg">
<path fill-rule="evenodd" clip-rule="evenodd" d="M52 20.5482L55.679 25.1021L59.838 21.7292L56.159 17.1754L52 20.5482ZM5.895 58.2864H38.037C39.082 58.2864 39.933 57.4339 39.933 56.3871V42.7235C39.9121 42.728 39.8919 42.7346 39.8718 42.7413C39.8469 42.7495 39.8221 42.7577 39.796 42.7616L30.404 44.0378C30.314 44.0508 30.224 44.0568 30.135 44.0568C29.536 44.0568 28.964 43.7874 28.581 43.3155C28.142 42.7716 28.017 42.0373 28.251 41.3792L31.45 32.4317C31.574 32.0871 31.789 31.7826 32.074 31.5512L39.933 25.1782V18.4296H29.584C28.48 18.4296 27.584 17.532 27.584 16.4261V5.71358H5.895C4.85 5.71358 4 6.56505 4 7.61186V56.3871C4 57.4339 4.85 58.2864 5.895 58.2864ZM31.584 14.4226H39.195L31.584 6.79947V14.4226ZM37.842 32.029L41.521 36.5829L52.571 27.6234L48.892 23.0695L37.842 32.029ZM38.269 38.926L34.877 34.7277L33.124 39.6252L38.269 38.926ZM59.041 14.3725L63.174 19.4884C64.437 21.0501 64.224 23.328 62.7 24.5642L43.933 39.7824V56.3871C43.933 59.6438 41.288 62.2933 38.037 62.2933H5.895C2.645 62.2933 0 59.6438 0 56.3871V7.61187C0 4.35524 2.645 1.70667 5.895 1.70667H29.716C31.291 1.70667 32.772 2.32173 33.885 3.43766L42.205 11.7721C43.32 12.889 43.933 14.3705 43.933 15.9473V21.9346L53.986 13.7825C55.512 12.5494 57.779 12.8129 59.041 14.3725ZM23.815 48.4305C24.661 47.607 25.9377 46.3644 28.2884 46.3644C29.3934 46.3644 30.2884 47.2619 30.2884 48.3678C30.2884 49.4737 29.3934 50.3713 28.2884 50.3713C27.5954 50.3713 27.3314 50.5967 26.6024 51.3059C25.7574 52.1303 24.4794 53.3765 22.1264 53.3765C19.7737 53.3765 18.497 52.1338 17.651 51.3104L17.6474 51.3069C16.9194 50.5967 16.6534 50.3713 15.9584 50.3713C15.2634 50.3713 14.9994 50.5967 14.2684 51.3069C13.4234 52.1313 12.1454 53.3765 9.79042 53.3765C8.68642 53.3765 7.79042 52.4789 7.79042 51.373C7.79042 50.2671 8.68642 49.3695 9.79042 49.3695C10.4874 49.3695 10.7514 49.1442 11.4794 48.4339C12.3254 47.6095 13.6044 46.3644 15.9584 46.3644C18.3114 46.3644 19.5914 47.6095 20.4364 48.4339C21.1654 49.1442 21.4294 49.3695 22.1264 49.3695C22.8214 49.3695 23.0854 49.1442 23.8114 48.4339L23.815 48.4305Z" fill="#484848"/>
</svg>
