<svg width="64" height="64" viewBox="0 0 64 64" fill="none" xmlns="http://www.w3.org/2000/svg">
<path fill-rule="evenodd" clip-rule="evenodd" d="M4 32C4 16.561 16.561 4 32 4C47.439 4 60 16.561 60 32C60 47.439 47.439 60 32 60C16.561 60 4 47.439 4 32ZM0 32C0 49.645 14.355 64 32 64C49.645 64 64 49.645 64 32C64 14.355 49.645 0 32 0C14.355 0 0 14.355 0 32ZM15 20.5C15 24.359 18.141 27.5 22 27.5C25.859 27.5 29 24.359 29 20.5C29 19.396 28.104 18.5 27 18.5C25.896 18.5 25 19.396 25 20.5C25 22.154 23.654 23.5 22 23.5C20.346 23.5 19 22.154 19 20.5C19 19.396 18.104 18.5 17 18.5C15.896 18.5 15 19.396 15 20.5ZM42 27.5C38.141 27.5 35 24.359 35 20.5C35 19.396 35.896 18.5 37 18.5C38.104 18.5 39 19.396 39 20.5C39 22.154 40.346 23.5 42 23.5C43.654 23.5 45 22.154 45 20.5C45 19.396 45.896 18.5 47 18.5C48.104 18.5 49 19.396 49 20.5C49 24.359 45.859 27.5 42 27.5ZM28 50C28 51.104 28.896 52 30 52C38.773 52 46.439 46.383 49.076 38.022C49.408 36.969 48.824 35.846 47.771 35.514C46.719 35.18 45.594 35.764 45.262 36.819C43.152 43.507 37.02 48 30 48C28.896 48 28 48.896 28 50Z" fill="#484848"/>
</svg>
