<svg width="64" height="64" viewBox="0 0 64 64" fill="none" xmlns="http://www.w3.org/2000/svg">
<path d="M64 18.4615C64 16.8462 63.4203 15.2308 62.3768 14.0769C61.1014 12.5769 59.1304 11.5385 57.0435 11.5385H45.913V9.92308C45.913 6.11538 42.7826 3 38.9565 3H25.0435C21.2174 3 18.087 6.11538 18.087 9.92308V11.5385H6.95652C3.13043 11.5385 0 14.6538 0 18.4615V53.0769C0 56.8846 3.13043 60 6.95652 60H57.0435C60.8696 60 64 56.8846 64 53.0769V33.5769C64 33.5769 64 33.5769 64 33.4615V18.4615ZM51.7101 30.5769H41.971C40.6957 30.5769 39.6522 31.6154 39.6522 32.8846V35.7692H24.3478V32.8846C24.3478 31.6154 23.3043 30.5769 22.029 30.5769H12.2899C11.0145 30.5769 9.97101 31.6154 9.97101 32.8846V35.7692H6.95652C5.68116 35.7692 4.63768 34.7308 4.63768 33.4615V18.4615C4.63768 17.1923 5.68116 16.1538 6.95652 16.1538H57.0435C57.7391 16.1538 58.3188 16.3846 58.6667 16.8462C59.1304 17.3077 59.3623 17.8846 59.3623 18.4615V33.5769C59.3623 34.8462 58.3188 35.8846 57.0435 35.8846H54.029V33C54.029 31.6154 52.9855 30.5769 51.7101 30.5769ZM49.3913 35.1923V42H44.2899V35.1923H49.3913ZM19.7101 35.1923V42H14.6087V35.1923H19.7101ZM22.7246 9.92308C22.7246 8.65385 23.7681 7.61538 25.0435 7.61538H38.9565C40.2319 7.61538 41.2754 8.65385 41.2754 9.92308V11.5385H22.7246V9.92308ZM57.0435 55.3846H6.95652C5.68116 55.3846 4.63768 54.3462 4.63768 53.0769V40.0385C5.33333 40.2692 6.14493 40.5 6.95652 40.5H9.97101V44.3077C9.97101 45.5769 11.0145 46.6154 12.2899 46.6154H22.029C23.3043 46.6154 24.3478 45.5769 24.3478 44.3077V40.5H39.6522V44.3077C39.6522 45.5769 40.6957 46.6154 41.971 46.6154H51.7101C52.9855 46.6154 54.029 45.5769 54.029 44.3077V40.5H57.0435C57.8551 40.5 58.6667 40.3846 59.3623 40.1538V53.1923C59.3623 54.3462 58.3188 55.3846 57.0435 55.3846Z" fill="#484848"/>
</svg>
