<svg width="64" height="64" viewBox="0 0 64 64" fill="none" xmlns="http://www.w3.org/2000/svg">
<path d="M64 13.4C64 13 64 12.6 63.9 12.2C63.9 12 63.8 11.9 63.8 11.7C63.7 11.5 63.7 11.3 63.6 11.2V11.1C63.6 11 63.6 11 63.5 10.9C63.5 10.9 63.5 10.8 63.4 10.8L63.3 10.5C63.3 10.4 63.2 10.3 63.1 10.3C63.1 10.3 63.1 10.3 63.1 10.2C63.1 10.2 63.1 10.2 63.1 10.1C63 9.9 62.8 9.7 62.7 9.6C62.6 9.5 62.5 9.4 62.4 9.3C62.2 9.1 62.1 9 62 9C61.9 8.9 61.7 8.7 61.5 8.6C61.4 8.5 61.3 8.5 61.2 8.4C61.1 8.3 61 8.3 60.9 8.2C60.6 8 60.2 7.9 59.9 7.8C59.5 7.7 59.2 7.6 58.8 7.6H58.7C58.6 7.6 58.6 7.6 58.5 7.6C58.4 7.6 58.3 7.6 58.2 7.6H48.6V6C48.6 2.7 45.9 0 42.6 0H30.6C27.3 0 24.6 2.7 24.6 6V7.4H15C11.7 7.4 9 10.1 9 13.4V22.2H6C2.7 22.2 0 24.9 0 28.2V58C0 61.3 2.7 64 6 64H49.2C52.5 64 55.2 61.3 55.2 58V49.2H58C61.3 49.2 64 46.5 64 43.2V26.6C64 26.5 64 26.5 64 26.4V13.4ZM44.6 38.6H36.2C35.1 38.6 34.2 39.5 34.2 40.6V43.1H21V40.6C21 39.5 20.1 38.6 19 38.6H10.6C9.5 38.6 8.6 39.5 8.6 40.6V43.1H6C4.9 43.1 4 42.2 4 41.1V28.1C4 27 4.9 26.1 6 26.1H49.2C49.7 26.1 50.2 26.3 50.6 26.7C51 27.1 51.2 27.6 51.2 28.1V35.6V41.1C51.2 42.2 50.3 43.1 49.2 43.1H46.6V40.6C46.6 39.5 45.7 38.6 44.6 38.6ZM42.6 42.6V48.4H38.2V42.6H42.6ZM17 42.6V48.4H12.6V42.6H17ZM35.6 22.1H19.6V20.7C19.6 19.6 20.5 18.7 21.6 18.7H33.6C34.7 18.7 35.6 19.6 35.6 20.7V22.1ZM54.1 24.7C53.7 24.2 53.4 23.8 53 23.5C52 22.6 50.6 22.1 49.2 22.1H39.6V20.7C39.6 17.4 36.9 14.7 33.6 14.7H21.6C18.3 14.7 15.6 17.4 15.6 20.7V22.1H12.8V13.3C12.8 12.2 13.7 11.3 14.8 11.3H58C58.1 11.3 58.2 11.3 58.2 11.3C58.3 11.3 58.5 11.3 58.6 11.4C58.7 11.4 58.8 11.5 59 11.5C59.1 11.6 59.3 11.7 59.4 11.8L59.6 12C59.7 12.1 59.7 12.1 59.7 12.2L59.9 12.7V12.8C59.9 12.9 59.9 13.1 59.9 13.2V26.3C59.8 27.3 59 28.2 57.9 28.2H55.1V28C55.2 26.9 54.8 25.7 54.1 24.7ZM28.4 6C28.4 4.9 29.3 4 30.4 4H42.4C43.5 4 44.4 4.9 44.4 6V7.4H28.4V6ZM49.2 60H6C4.9 60 4 59.1 4 58V46.7C4.6 46.9 5.3 47.1 6 47.1H8.6V50.4C8.6 51.5 9.5 52.4 10.6 52.4H19C20.1 52.4 21 51.5 21 50.4V47.1H34.2V50.4C34.2 51.5 35.1 52.4 36.2 52.4H44.6C45.7 52.4 46.6 51.5 46.6 50.4V47.1H49.2C49.9 47.1 50.6 47 51.2 46.8V58C51.2 59.1 50.3 60 49.2 60ZM58 45.3H55.2V41.2V41.1V32.3H58C58.7 32.3 59.4 32.2 60 32V43.3C60 44.4 59.1 45.3 58 45.3Z" fill="#484848"/>
</svg>
