<svg width="64" height="64" viewBox="0 0 64 64" fill="none" xmlns="http://www.w3.org/2000/svg">
<g clip-path="url(#clip0_944:125)">
<path d="M26.0477 30C26.0477 33.3 28.7488 36 32.05 36C35.3513 36 38.0523 33.3 38.0523 30C38.0523 26.7 35.3513 24 32.05 24C28.7488 24 26.0477 26.7 26.0477 30ZM34.0508 30C34.0508 31.1 33.1504 32 32.05 32C30.9496 32 30.0493 31.1 30.0493 30C30.0493 28.9 30.9496 28 32.05 28C33.1504 28 34.0508 28.9 34.0508 30Z" fill="#484848"/>
<path d="M28.0485 45C29.1535 45 30.0493 44.1046 30.0493 43C30.0493 41.8954 29.1535 41 28.0485 41C26.9435 41 26.0477 41.8954 26.0477 43C26.0477 44.1046 26.9435 45 28.0485 45Z" fill="#484848"/>
<path d="M36.0515 45C37.1565 45 38.0523 44.1046 38.0523 43C38.0523 41.8954 37.1565 41 36.0515 41C34.9466 41 34.0508 41.8954 34.0508 43C34.0508 44.1046 34.9466 45 36.0515 45Z" fill="#484848"/>
<path d="M51.8576 45C52.9625 45 53.8583 44.1046 53.8583 43C53.8583 41.8954 52.9625 41 51.8576 41C50.7526 41 49.8568 41.8954 49.8568 43C49.8568 44.1046 50.7526 45 51.8576 45Z" fill="#484848"/>
<path d="M51.8576 55.1C52.9625 55.1 53.8583 54.2046 53.8583 53.1C53.8583 51.9954 52.9625 51.1 51.8576 51.1C50.7526 51.1 49.8568 51.9954 49.8568 53.1C49.8568 54.2046 50.7526 55.1 51.8576 55.1Z" fill="#484848"/>
<path d="M12.2425 45C13.3475 45 14.2432 44.1046 14.2432 43C14.2432 41.8954 13.3475 41 12.2425 41C11.1375 41 10.2417 41.8954 10.2417 43C10.2417 44.1046 11.1375 45 12.2425 45Z" fill="#484848"/>
<path d="M12.2425 55.1C13.3475 55.1 14.2432 54.2046 14.2432 53.1C14.2432 51.9954 13.3475 51.1 12.2425 51.1C11.1375 51.1 10.2417 51.9954 10.2417 53.1C10.2417 54.2046 11.1375 55.1 12.2425 55.1Z" fill="#484848"/>
<path d="M63.3619 32.5L54.6586 24.7C54.2585 24.4 53.8583 24.2 53.3581 24.2H44.5548L34.0508 14.1V12.8H46.4555C47.2558 12.8 47.9561 12.3 48.2562 11.6C48.5563 10.9 48.4563 10 47.856 9.4L45.055 6.4L47.856 3.4C48.3562 2.8 48.5563 2 48.2562 1.2C47.9561 0.5 47.2558 0 46.4555 0H32.05C30.9496 0 30.0493 0.9 30.0493 2V14.1L19.5453 24.1H10.842C10.3418 24.1 9.84157 24.3 9.54146 24.6L0.638072 32.4C0.0378437 33 -0.162232 33.8 0.137882 34.6C0.437996 35.4 1.13826 35.9 2.0386 35.9V62C2.0386 63.1 2.93895 64 4.03937 64H60.0607C61.1611 64 62.0614 63.1 62.0614 62V35.9C62.8617 35.9 63.562 35.4 63.8621 34.6C64.1622 33.9 63.9622 33 63.3619 32.5ZM56.8595 31.9H45.7552V28.1H52.6579L56.8595 31.9ZM38.0523 60V52C38.0523 50.9 37.152 50 36.0515 50H28.0485C26.9481 50 26.0477 50.9 26.0477 52V60H22.4464V27L32.1501 17.7L41.8537 27V60H38.0523ZM40.9534 7.7L41.9538 8.7H34.0508V4H41.8537L40.8534 5C40.2531 5.8 40.2531 7 40.9534 7.7ZM11.6423 28.1H18.3448V31.9H7.34062L11.6423 28.1ZM6.04013 35.9H18.3448V60H6.04013V35.9ZM30.0493 60V54H34.0508V60H30.0493ZM45.7552 60V35.9H58.0599V60H45.7552Z" fill="#484848"/>
</g>
<defs>
<clipPath id="clip0_944:125">
<rect width="64" height="64" fill="white"/>
</clipPath>
</defs>
</svg>
