<svg width="64" height="64" viewBox="0 0 64 64" fill="none" xmlns="http://www.w3.org/2000/svg">
<path fill-rule="evenodd" clip-rule="evenodd" d="M55.8011 29.4C55.1011 30.3 54.301 31.1 53.401 32C53.801 32.45 54.201 32.875 54.601 33.3C55.0011 33.725 55.4011 34.15 55.8011 34.6C61.5014 41.4 61.1013 45.7 59.7013 48C58.7012 49.9 56.3011 51.8 51.1009 51.8C49.7008 51.8 48.1007 51.6 46.2006 51.3C45.2025 51.1336 44.2735 50.8981 43.2986 50.6509C43.1014 50.6009 42.9024 50.5505 42.7005 50.5C40.5004 58.3 37.0002 64 32 64C26.9998 64 23.3996 58.3 21.2995 50.5C20.0994 50.8 18.8994 51.1 17.7993 51.3C15.9993 51.7 14.2992 51.8 12.8991 51.8C7.69888 51.8 5.39877 49.8 4.29872 48C2.89866 45.6 2.49864 41.4 8.1989 34.6C8.89891 33.7 9.69893 32.9 10.5989 32.0001L10.599 32C9.69897 31.1 8.89893 30.3 8.1989 29.4C2.49864 22.6 2.89866 18.3 4.29872 16C5.59878 13.7 9.09894 11.2 17.7993 12.7C18.7975 12.8664 19.7265 13.1019 20.7014 13.3491C20.8985 13.3991 21.0976 13.4495 21.2995 13.5C23.3996 5.7 27.0998 0 32 0C36.9002 0 40.5004 5.7 42.6005 13.5C43.8005 13.2 45.0006 12.9 46.1006 12.7C54.9011 11.2 58.3012 13.6 59.7013 16C61.1013 18.4 61.5014 22.6 55.8011 29.4ZM51.0009 16.2C49.7008 16.2 48.3008 16.3 46.8007 16.6C46.3007 16.7 45.7756 16.825 45.2506 16.95C44.7256 17.075 44.2006 17.2 43.7005 17.3C44.1006 19.6 44.5006 22.1 44.7006 24.6C46.8007 26.1 48.7008 27.6 50.5008 29.2C51.3008 28.4001 52.0008 27.6001 52.7008 26.8002L52.701 26.8C55.8011 23.1 57.2012 19.7 56.2011 18C55.6011 16.8 53.701 16.2 51.0009 16.2ZM32 42.2C33.5001 41.5 35.0001 40.7 36.5002 39.8C38.0003 38.9 39.4003 38 40.8004 37.1C40.9004 35.5 41.0004 33.8 41.0004 32C41.0004 30.2 40.9004 28.5 40.8004 26.9C39.4003 26 38.0003 25.1 36.5002 24.2C35.0001 23.3 33.5001 22.5 32 21.8C30.4999 22.5 28.9999 23.3 27.4998 24.2C25.9997 25.1 24.5997 26 23.1996 26.9C23.0996 28.5 22.9996 30.2 22.9996 32C22.9996 33.8 23.0996 35.5 23.1996 37.1C24.5997 38 25.9997 38.9 27.4998 39.8C28.9999 40.7 30.4999 41.5 32 42.2ZM40.0809 43.6C40.1462 43.1187 40.2139 42.6187 40.3004 42.1C39.7004 42.5 39.1003 42.9 38.5003 43.2C38.0732 43.383 37.6833 43.6033 37.3079 43.8154C37.0681 43.9509 36.8341 44.083 36.6002 44.2L36.6006 44.2001C37.7005 44.6001 38.8004 45 39.8004 45.4C39.9139 44.8322 39.9952 44.2322 40.0809 43.6ZM25.6997 44.9C26.2247 44.7 26.7498 44.5 27.2998 44.3C26.6998 43.9 26.0997 43.6 25.3997 43.3C25.0997 43.1 24.7997 42.925 24.4997 42.75C24.1996 42.575 23.8996 42.4 23.5996 42.2C23.6996 43.3 23.8996 44.4 24.0996 45.5C24.6497 45.3 25.1747 45.1 25.6997 44.9ZM18.9993 34.0999L18.9994 34.1V32V29.9L18.9993 29.9001C18.0993 30.6 17.1993 31.3 16.3993 32C17.1993 32.7 18.0993 33.3999 18.9993 34.0999ZM23.8191 20.4C23.7538 20.8813 23.6861 21.3813 23.5996 21.9C24.039 21.6489 24.439 21.3978 24.7997 21.1715C25.0135 21.0372 25.2135 20.9117 25.3997 20.8C25.8268 20.617 26.2167 20.3967 26.5921 20.1846C26.8319 20.0491 27.0658 19.917 27.2998 19.8C26.1997 19.4 25.0997 19 24.0996 18.6C23.9861 19.1678 23.9048 19.7678 23.8191 20.4ZM38.2003 19.1C37.6753 19.3 37.1502 19.5 36.6002 19.7C37.2002 20.1 37.8003 20.4 38.5003 20.7C38.8003 20.9 39.1003 21.075 39.4003 21.25C39.7004 21.425 40.0004 21.6 40.3004 21.8C40.2004 20.7 40.0004 19.6001 39.8004 18.5001L39.8004 18.5C39.2503 18.7 38.7253 18.9 38.2003 19.1ZM44.9007 29.9001L44.9006 29.9V32V34.1L44.9007 34.0999C45.8007 33.3999 46.7007 32.7 47.5007 32C46.7007 31.3 45.8007 30.6 44.9007 29.9001ZM38.9003 14.6C37.0002 7.8 34.2001 4 32 4C29.6999 4 26.9998 7.8 25.0997 14.6C27.3998 15.4 29.6999 16.3 32 17.4C34.4001 16.3 36.7002 15.4 38.9003 14.6ZM12.8991 16.2C10.299 16.2 8.39891 16.9 7.69888 18C6.79884 19.7 8.0989 23.1 11.299 26.8C11.8991 27.6 12.6991 28.4 13.4991 29.2C15.1992 27.6 17.1993 26.1 19.2994 24.6C19.4994 22.1 19.7994 19.6 20.2995 17.3C19.3803 17.0493 18.4611 16.8685 17.6003 16.6991C17.4309 16.6658 17.2637 16.6329 17.0993 16.6C15.5992 16.3 14.0992 16.2 12.8991 16.2ZM7.69888 46C8.69892 47.7 12.2991 48.2 17.0993 47.4C17.8247 47.2681 18.5501 47.0927 19.2182 46.9312C19.5632 46.8478 19.8929 46.7681 20.1995 46.7C19.7994 44.4 19.3994 41.9 19.1994 39.4C17.0993 37.9 15.1992 36.4 13.3991 34.8C12.5991 35.6 11.8991 36.3999 11.1991 37.1999L11.199 37.2C8.0989 40.9 6.69883 44.3 7.69888 46ZM25.0997 49.4C26.9998 56.2 29.7999 60 32 60C34.2001 60 37.0002 56.2 38.9003 49.4C36.6002 48.6 34.3001 47.7 32 46.6C29.5999 47.7 27.2998 48.6 25.0997 49.4ZM46.8007 47.4C51.6009 48.2 55.2011 47.7 56.2011 46C57.2012 44.3 55.8011 40.9 52.6009 37.2C52.0009 36.4 51.2009 35.6 50.4008 34.8C48.7008 36.4 46.7007 37.9 44.6006 39.4C44.4006 41.9 44.1006 44.4 43.6005 46.7C44.5197 46.9507 45.4389 47.1315 46.2998 47.3009C46.4691 47.3342 46.6363 47.3671 46.8007 47.4ZM25.0998 32C25.0998 28.2 28.1999 25.1 32.0001 25.1C35.8003 25.1 38.9004 28.2 38.9004 32C38.9004 35.8 35.8003 38.9 32.0001 38.9C28.1999 38.9 25.0998 35.8 25.0998 32ZM29.1 32C29.1 33.6 30.4 34.9 32.0001 34.9C33.6002 34.9 34.8002 33.6 34.9003 32C34.9003 30.4 33.6002 29.1 32.0001 29.1C30.4 29.1 29.1 30.4 29.1 32Z" fill="#484848"/>
</svg>
