<svg width="64" height="64" viewBox="0 0 64 64" fill="none" xmlns="http://www.w3.org/2000/svg">
<path fill-rule="evenodd" clip-rule="evenodd" d="M2 0H62C63.1 0 64 0.9 64 2V32V62C64 63.1 63.1 64 62 64H32H2C0.9 64 0 63.1 0 62V2C0 0.9 0.9 0 2 0ZM34 29.9H60V4H34V29.9ZM30 29.9V4H4V29.9H30ZM30 60V33.9H4V60H30ZM34 60H60V34H34V60ZM15 18.9999H11.7C10.6 18.9999 9.7 18.0999 9.7 16.9999C9.7 15.8999 10.6 14.9999 11.7 14.9999H15V11.6999C15 10.5999 15.9 9.69988 17 9.69988C18.1 9.69988 19 10.5999 19 11.6999V14.9999H22.3C23.4 14.9999 24.3 15.8999 24.3 16.9999C24.3 18.0999 23.4 18.9999 22.3 18.9999H19V22.2999C19 23.3999 18.1 24.2999 17 24.2999C15.9 24.2999 15 23.3999 15 22.2999V18.9999ZM41.7 19H52.3C53.4 19 54.3 18.1 54.3 17C54.3 15.9 53.4 15 52.3 15H41.7C40.6 15 39.7 15.9 39.7 17C39.7 18.1 40.6 19 41.7 19ZM22.1 44.7001L19.8 47.0001L22.1 49.3001C22.9 50.1001 22.9 51.3001 22.1 52.1001C21.7 52.5001 21.2 52.7001 20.7 52.7001C20.2 52.7001 19.7 52.5001 19.3 52.1001L17 49.8001L14.7 52.1001C14.3 52.5001 13.8 52.7001 13.3 52.7001C12.8 52.7001 12.3 52.5001 11.9 52.1001C11.1 51.3001 11.1 50.1001 11.9 49.3001L14.2 47.0001L11.9 44.7001C11.1 43.9001 11.1 42.7001 11.9 41.9001C12.7 41.1001 13.9 41.1001 14.7 41.9001L17 44.2001L19.3 41.9001C20.1 41.1001 21.3 41.1001 22.1 41.9001C22.9 42.7001 22.9 43.9001 22.1 44.7001ZM41.7 45.5H52.3C53.4 45.5 54.3 44.6 54.3 43.5C54.3 42.4 53.4 41.5 52.3 41.5H41.7C40.6 41.5 39.7 42.4 39.7 43.5C39.7 44.6 40.6 45.5 41.7 45.5ZM41.7 48.5H52.3C53.4 48.5 54.3 49.4 54.3 50.5C54.3 51.6 53.4 52.5 52.3 52.5H41.7C40.6 52.5 39.7 51.6 39.7 50.5C39.7 49.4 40.6 48.5 41.7 48.5Z" fill="#484848"/>
</svg>
