<svg width="64" height="64" viewBox="0 0 64 64" fill="none" xmlns="http://www.w3.org/2000/svg">
<path d="M59.0865 45.3L51.9764 41.2L58.5858 38.1C59.5873 37.6 59.9878 36.4 59.5873 35.4C59.0865 34.4 57.8848 34 56.8834 34.4L47.7704 38.7L36.0536 32L47.6702 25.3L56.7832 29.6C57.0837 29.7 57.3841 29.8 57.6845 29.8C58.3855 29.8 59.1867 29.4 59.4871 28.7C59.9878 27.7 59.4871 26.5 58.4857 26L51.8762 22.9L58.9864 18.8C59.9878 18.2 60.2883 17 59.6874 16.1C59.0865 15.1 57.8848 14.8 56.9835 15.4L49.8734 19.5L50.4742 12.2C50.5744 11.1 49.7732 10.1 48.6717 10C47.5701 9.9 46.5687 10.7 46.4685 11.8L45.6674 21.9L34.0508 28.5V15.1L42.3626 9.4C43.2639 8.8 43.4642 7.5 42.8634 6.6C42.2625 5.7 40.9606 5.5 40.0594 6.1L34.0508 10.3V2C34.0508 0.9 33.1495 0 32.0479 0C30.9463 0 30.0451 0.9 30.0451 2V10.2L24.0365 6C23.1352 5.4 21.8333 5.6 21.2325 6.5C20.6316 7.4 20.8319 8.7 21.7332 9.3L30.0451 15V28.4L18.4285 21.7L17.6273 11.6C17.5272 10.5 16.5257 9.7 15.4242 9.8C14.3226 10 13.4213 11 13.5215 12.1L14.1223 19.4L7.01216 15.3C6.01072 14.7 4.80901 15 4.30829 16C3.70743 17 4.00786 18.2 5.00929 18.7L12.1195 22.8L5.51001 26C4.50858 26.5 4.10801 27.7 4.50858 28.7C4.80901 29.4 5.61015 29.8 6.31115 29.8C6.61158 29.8 6.91201 29.7 7.21244 29.6L16.3255 25.3L28.0422 32L16.4256 38.7L7.31258 34.4C6.31115 33.9 5.10944 34.4 4.60872 35.4C4.10801 36.4 4.60872 37.6 5.61015 38.1L12.2196 41.2L5.00929 45.3C4.00786 45.8 3.70743 47 4.30829 48C4.70886 48.6 5.30972 49 6.01072 49C6.31115 49 6.71173 48.9 7.01216 48.7L14.1223 44.6L13.5215 51.9C13.4213 53 14.2225 54 15.324 54.1C15.4242 54.1 15.4242 54.1 15.5243 54.1C16.5257 54.1 17.427 53.3 17.5272 52.3L18.3283 42.2L30.0451 35.5V48.9L21.7332 54.6C20.8319 55.2 20.6316 56.5 21.2325 57.4C21.8333 58.3 23.1352 58.5 24.0365 57.9L30.0451 53.7V62C30.0451 63.1 30.9463 64 32.0479 64C33.1495 64 34.0508 63.1 34.0508 62V53.8L40.0594 58C40.3598 58.2 40.7604 58.4 41.1609 58.4C41.7618 58.4 42.4628 58.1 42.7632 57.5C43.3641 56.6 43.1638 55.3 42.2625 54.7L34.0508 48.9V35.5L45.6674 42.2L46.4685 52.3C46.5687 53.3 47.4699 54.1 48.4714 54.1C48.5715 54.1 48.5715 54.1 48.6717 54.1C49.7732 54 50.5744 53 50.4742 51.9L49.8734 44.6L56.9835 48.7C57.284 48.9 57.6845 49 57.985 49C58.686 49 59.387 48.6 59.6874 48C60.2883 47 59.9878 45.8 59.0865 45.3Z" fill="#484848"/>
</svg>
