<svg width="64" height="64" viewBox="0 0 64 64" fill="none" xmlns="http://www.w3.org/2000/svg">
<g clip-path="url(#clip0_260:47)">
<path fill-rule="evenodd" clip-rule="evenodd" d="M62.7872 17.8828L59.326 6.5576C59.1224 6.04746 58.817 5.63934 58.308 5.33325C57.799 5.1292 57.29 5.02717 56.781 5.23122L27.0553 14.4138C26.5463 14.6179 26.1391 14.924 25.8337 15.4341C25.5283 15.9443 25.5283 16.4544 25.7319 16.9646L28.2769 25.1269L10.3601 16.6585C9.85112 16.4544 9.34212 16.3524 8.83312 16.5565C8.32412 16.7605 7.91692 17.1686 7.71332 17.5767L2.62332 28.3918C-5.19243 46.2966 6.92967 58.4196 7.10133 58.5913L7.10252 58.5925C7.40792 58.8985 7.81512 59.1026 8.32412 59.2046C8.32412 59.2046 8.83312 59.3067 9.64752 59.3067C13.9231 59.3067 27.0553 58.0823 34.3849 43.4921L36.1155 39.8191C43.4451 47.2672 52.5054 47.5733 52.9126 47.5733H53.0144C53.4216 47.5733 53.8288 47.4713 54.236 47.1652C54.2389 47.1623 54.2529 47.151 54.2773 47.1313C55.1074 46.4618 67.9296 36.1199 62.7872 17.8828ZM9.54572 55.1235C7.50972 52.8788 0.485519 43.4921 6.28812 30.1263L10.4619 21.2498L30.8219 30.8405L34.8939 32.7791L30.7201 41.6556C24.2049 54.7154 12.4979 55.2255 9.54572 55.1235ZM52.3018 43.3901C50.0622 43.084 43.2415 41.8597 37.9479 35.7379L39.3731 32.575C39.8821 31.5547 39.3731 30.3304 38.3551 29.8202L33.1633 27.3715C33.1633 27.3205 33.1379 27.2695 33.1124 27.2185C33.087 27.1675 33.0615 27.1165 33.0615 27.0655L30.1093 17.6788L55.8648 9.61848L58.7152 19.0052C62.889 33.1872 54.6432 41.4516 52.3018 43.3901ZM9.13855 31.6567C10.0547 32.2689 11.3781 32.0648 11.9889 31.1466C12.2943 30.6364 13.0069 30.4324 13.6177 30.7385C14.2285 31.0446 14.4321 31.6567 14.3303 32.2689C14.025 33.3912 14.6357 34.5135 15.7556 34.8196C15.9592 34.9217 16.1628 34.9217 16.2646 34.9217C17.1807 34.9217 17.9952 34.3095 18.1988 33.3912C18.9114 30.8405 17.6898 28.1877 15.3484 27.0654C13.0069 25.9431 10.1565 26.6573 8.62955 28.9019C8.01875 29.8202 8.22235 31.0445 9.13855 31.6567ZM26.9538 32.575C24.6124 31.4527 21.762 32.1669 20.235 34.4115C19.6242 35.3298 19.8278 36.6562 20.744 37.2683C21.6602 37.8805 22.9836 37.6765 23.5944 36.7582C23.8998 36.2481 24.6124 36.044 25.2232 36.3501C25.834 36.6562 26.0376 37.2683 25.9358 37.8805C25.6304 39.0028 26.2412 40.1252 27.361 40.4312C27.5646 40.5333 27.7682 40.5333 27.87 40.5333C28.7862 40.5333 29.6006 39.9211 29.8042 39.0028C30.6186 36.3501 29.397 33.6973 26.9538 32.575ZM19.624 43.2881C20.3366 42.4718 21.5582 42.2678 22.4744 42.982C23.3906 43.6962 23.4924 45.0225 22.7798 45.8388C21.151 47.8794 18.7078 49.0017 16.2646 49.0017C15.043 49.0017 13.8214 48.6956 12.7015 48.1854C9.13855 46.553 7.20435 42.6759 8.01875 38.9008C8.32415 37.7785 9.34215 37.0643 10.4619 37.2683C11.5817 37.5744 12.2943 38.5947 12.0907 39.717C11.6835 41.7576 12.5997 43.6962 14.4322 44.5124C16.2646 45.3286 18.4024 44.8185 19.624 43.2881ZM41.4091 18.6991C42.5289 18.495 43.5469 19.3113 43.7505 20.4336C44.0559 22.9843 42.5289 25.433 39.9839 26.4533C39.8948 26.4682 39.8078 26.4831 39.7227 26.4976C39.2246 26.5829 38.7898 26.6574 38.3551 26.6574C36.3191 26.6574 34.4867 25.535 33.5705 23.6985C33.0615 22.6782 33.4687 21.4539 34.4867 20.9437C35.5047 20.4336 36.7263 20.8417 37.2353 21.862C37.5407 22.3721 38.1515 22.6782 38.7623 22.4742C39.3731 22.2701 39.7803 21.6579 39.6785 21.0458C39.4749 19.9234 40.2893 18.9031 41.4091 18.6991ZM50.7744 22.6781C51.2091 22.6781 51.6438 22.6037 52.142 22.5184C52.2271 22.5038 52.3141 22.489 52.4032 22.4741C54.9482 21.6578 56.4752 19.2091 56.068 16.6584C55.8644 15.5361 54.8464 14.7199 53.7266 14.9239C52.6068 15.128 51.7924 16.1483 51.996 17.2706C52.0978 17.8828 51.6906 18.4949 51.0798 18.699C50.469 18.903 49.8582 18.597 49.5528 18.0868C49.0438 17.0665 47.8222 16.6584 46.8042 17.1686C45.7862 17.6787 45.379 18.903 45.888 19.9233C46.906 21.5558 48.7384 22.6781 50.7744 22.6781ZM41.5107 36.1461C41.3071 32.269 43.6485 28.6979 47.4151 27.5756C51.0799 26.4533 55.0501 27.9837 57.0861 31.4527C57.6969 32.371 57.2897 33.5953 56.3735 34.2075C55.4573 34.8197 54.2357 34.4116 53.6249 33.4933C52.6069 31.7588 50.5709 30.9426 48.6367 31.5548C46.7025 32.1669 45.4809 33.9014 45.5827 35.942C45.5827 37.0643 44.7683 37.9826 43.6485 38.0846H43.5467C42.5287 38.0846 41.6125 37.2684 41.5107 36.1461Z" fill="#484848"/>
</g>
<defs>
<clipPath id="clip0_260:47">
<rect width="64" height="64" fill="white"/>
</clipPath>
</defs>
</svg>
