<svg width="64" height="64" viewBox="0 0 64 64" fill="none" xmlns="http://www.w3.org/2000/svg">
<path fill-rule="evenodd" clip-rule="evenodd" d="M56.2482 12.1C56.2482 12 56.2233 11.925 56.1983 11.85C56.1734 11.775 56.1485 11.7 56.1485 11.6C54.1539 4.9 48.0704 0 40.7902 0H23.6368C16.3566 0 10.1734 4.9 8.27855 11.7C8.17882 11.9 8.17882 12 8.17882 12.2C7.87963 13.4 7.68018 14.7 7.68018 16V48.9C7.68018 50 8.57774 50.9 9.67476 50.9H16.3566L8.67747 60.8C7.97936 61.7 8.17882 62.9 9.07638 63.6C9.37557 63.9 9.87421 64 10.2731 64C10.8715 64 11.4699 63.7 11.8688 63.2L15.2596 58.8H49.1674L52.5582 63.2C52.9571 63.7 53.5555 64 54.1539 64C54.5528 64 55.0514 63.9 55.3506 63.6C56.2482 62.9 56.3479 61.7 55.7496 60.8L48.0704 51H54.7523C55.8493 51 56.7468 50.1 56.7468 49V16C56.7468 14.7 56.5474 13.4 56.2482 12.1ZM11.6693 16C11.6693 15.5 11.6693 14.9 11.7691 14.4H30.2189V27.4C24.0357 27.3 17.8525 26.5 11.6693 25.1V16ZM34.2081 14.4H52.5582C52.658 14.9 52.658 15.4 52.658 16V25.1C46.4748 26.5 40.2916 27.3 34.1084 27.4V14.4H34.2081ZM23.6368 4H40.7902C45.3777 4 49.3669 6.6 51.3615 10.4H13.0655C15.0601 6.6 19.0493 4 23.6368 4ZM18.3512 54.9L21.4428 51H43.084L46.0758 54.9H18.3512ZM11.6693 46.9V29.2C18.4509 30.7 25.3322 31.4 32.2135 31.4C39.0948 31.4 45.8764 30.7 52.7577 29.2V46.9H11.6693ZM44.2806 42.3C45.933 42.3 47.2725 40.9569 47.2725 39.3C47.2725 37.6431 45.933 36.3 44.2806 36.3C42.6283 36.3 41.2887 37.6431 41.2887 39.3C41.2887 40.9569 42.6283 42.3 44.2806 42.3ZM23.0388 39.3C23.0388 40.9569 21.6993 42.3 20.0469 42.3C18.3945 42.3 17.055 40.9569 17.055 39.3C17.055 37.6431 18.3945 36.3 20.0469 36.3C21.6993 36.3 23.0388 37.6431 23.0388 39.3Z" fill="#484848"/>
</svg>
