<svg width="64" height="64" viewBox="0 0 64 64" fill="none" xmlns="http://www.w3.org/2000/svg">
<path d="M51.9183 36.716C53.2187 34.6175 53.919 32.1193 53.919 29.6211C53.919 22.1265 47.8168 16.0309 40.3142 16.0309C35.4125 16.0309 30.8108 18.729 28.41 23.0259C27.2096 22.7261 25.9091 22.5262 24.6087 22.5262C16.2057 22.5262 9.40331 29.3213 9.40331 37.7153C9.40331 37.9152 9.40331 38.115 9.40331 38.3149C4.20148 38.8145 0 43.2113 0 48.6075C0 54.3034 4.70165 59 10.4037 59H43.4153C50.5178 59 56.2198 53.2042 56.2198 46.2092C56.2198 42.4119 54.6192 39.0144 51.9183 36.716ZM40.4142 20.028C45.7161 20.028 50.0176 24.3249 50.0176 29.6211C50.0176 31.3199 49.5174 33.0187 48.6171 34.5176C47.0165 33.8181 45.3159 33.4184 43.4153 33.4184C42.0148 33.4184 40.7143 33.6182 39.4139 34.018C38.4135 29.9209 35.7126 26.5234 32.2113 24.5248C34.012 21.8267 37.013 20.028 40.4142 20.028ZM43.4153 55.0029H10.4037C6.90243 55.0029 4.00141 52.105 4.00141 48.6075C4.00141 45.11 6.90243 42.2121 10.4037 42.2121C10.8038 42.2121 11.1039 42.2121 11.404 42.312C12.1043 42.4119 12.7045 42.2121 13.2046 41.7124C13.7048 41.2128 13.9049 40.5133 13.7048 39.9137C13.5047 39.1143 13.5047 38.4148 13.5047 37.6154C13.5047 31.4198 18.5065 26.4234 24.7087 26.4234C30.7108 26.4234 35.6125 31.0201 35.9126 37.0158C35.9126 37.7153 36.3128 38.3149 37.013 38.7146C37.6132 39.0144 38.4135 39.0144 39.0137 38.6147C40.4142 37.8152 41.9147 37.3156 43.5153 37.3156C48.417 37.3156 52.3184 41.3127 52.3184 46.1093C52.2184 51.1057 48.317 55.0029 43.4153 55.0029Z" fill="#484848"/>
<path d="M53.1187 18.3292C53.6189 18.3292 54.119 18.1294 54.5192 17.8296L57.4202 15.1315C58.2205 14.3321 58.2205 13.133 57.5202 12.3336C56.82 11.5341 55.5195 11.5341 54.7192 12.2336L51.7182 14.9317C50.9179 15.7311 50.9179 16.9302 51.6181 17.7297C52.0183 18.1294 52.5185 18.3292 53.1187 18.3292Z" fill="#484848"/>
<path d="M44.2155 13.7325C44.4156 13.8325 44.6157 13.8325 44.8158 13.8325C45.7161 13.8325 46.5164 13.2329 46.7164 12.4335L47.8168 8.63621C48.1169 7.537 47.5167 6.43779 46.5164 6.13801C45.416 5.83822 44.3156 6.43779 44.0155 7.43707L42.9151 11.2343C42.515 12.2336 43.1152 13.3328 44.2155 13.7325Z" fill="#484848"/>
<path d="M33.3117 12.4335C33.5118 13.3328 34.3121 13.9324 35.2124 13.9324C35.4125 13.9324 35.5125 13.9324 35.7126 13.8325C36.8129 13.5327 37.4132 12.5334 37.2131 11.4342L36.3128 7.537C36.0127 6.43779 35.0123 5.83822 33.9119 6.03808C32.8115 6.33786 32.2113 7.33715 32.4114 8.43636L33.3117 12.4335Z" fill="#484848"/>
<path d="M25.609 18.2293C26.0091 18.629 26.5093 18.8289 27.1095 18.8289C27.6097 18.8289 28.1099 18.629 28.51 18.3292C29.3103 17.5298 29.3103 16.3307 28.6101 15.5313L25.9091 12.6333C25.1088 11.8339 23.9084 11.8339 23.1081 12.5334C22.3078 13.3328 22.3078 14.532 23.0081 15.3314L25.609 18.2293Z" fill="#484848"/>
<path d="M62.622 33.2185L58.8207 32.1193C57.7203 31.8195 56.6199 32.4191 56.3198 33.4184C56.0197 34.5176 56.6199 35.6168 57.6203 35.9166L61.4216 37.0158C61.6217 37.1157 61.8217 37.1157 62.0218 37.1157C62.9221 37.1157 63.7224 36.5162 63.9225 35.7167C64.2226 34.7175 63.6224 33.5183 62.622 33.2185Z" fill="#484848"/>
<path d="M56.0197 25.0244C56.2198 25.9238 57.0201 26.5233 57.9204 26.5233C58.1204 26.5233 58.2205 26.5233 58.4205 26.4234L62.3219 25.5241C63.4223 25.2243 64.0225 24.225 63.8224 23.1258C63.5223 22.0266 62.522 21.427 61.4216 21.6269L57.5202 22.5262C56.4198 22.826 55.8196 23.9252 56.0197 25.0244Z" fill="#484848"/>
</svg>
