<svg width="64" height="64" viewBox="0 0 64 64" fill="none" xmlns="http://www.w3.org/2000/svg">
<path d="M63.9007 24.3672C63.784 24.0154 63.5716 23.7031 63.2872 23.465C63.0029 23.2269 62.6578 23.0725 62.2906 23.0191L42.5894 20.1931L33.7489 2.38845C33.5864 2.06171 33.3374 1.78566 33.0288 1.59025C32.7203 1.39485 32.3641 1.28756 31.9988 1.28003V1.28003C31.6256 1.28115 31.2602 1.38648 30.9439 1.58412C30.6275 1.78176 30.3729 2.06383 30.2087 2.39844L21.3882 20.253L1.707 23.1189C1.33862 23.1732 0.99273 23.3291 0.708269 23.569C0.423808 23.809 0.212074 24.1234 0.0969047 24.477C-0.0178999 24.8317 -0.0309737 25.2115 0.059163 25.5733C0.1493 25.935 0.339048 26.2644 0.606935 26.5241L14.8778 40.3744L11.5476 59.9565C11.4976 60.2457 11.512 60.5423 11.5899 60.8253C11.6678 61.1083 11.8072 61.3707 11.9981 61.5938C12.1891 61.8169 12.4269 61.9952 12.6948 62.1161C12.9626 62.237 13.2538 62.2974 13.5477 62.2932C13.8718 62.293 14.191 62.2141 14.4778 62.0635L32.0788 52.7867L49.6798 61.9936C50.0092 62.1661 50.3803 62.2434 50.7512 62.2169C51.1222 62.1905 51.4785 62.0613 51.78 61.8438C52.0885 61.6206 52.3267 61.3141 52.4667 60.9603C52.6066 60.6065 52.6425 60.2201 52.57 59.8466L49.1798 40.2745L63.4007 26.4142C63.6668 26.1535 63.8547 25.8236 63.943 25.4619C64.0314 25.1002 64.0167 24.721 63.9007 24.3672Z" fill="#484848"/>
</svg>
