<svg width="64" height="64" viewBox="0 0 64 64" fill="none" xmlns="http://www.w3.org/2000/svg">
<path fill-rule="evenodd" clip-rule="evenodd" d="M47.5789 36.5714L61.9865 50.9388C64.1023 52.9482 64.1023 56.3642 61.9865 58.4741L60.173 60.2826C59.1654 61.2873 57.7549 61.7896 56.4451 61.7896C55.1353 61.7896 53.7248 61.2873 52.7173 60.2826L38.3097 45.9152C37.9066 45.5133 37.7051 45.011 37.7051 44.5086C37.7051 44.2701 37.7682 44.0945 37.8445 43.8823C37.8646 43.8263 37.8856 43.7678 37.9067 43.7049L27.0254 32.854L23.3983 36.471C23.5998 36.9733 23.7005 37.4757 23.7005 38.0785C23.7005 39.0832 23.2975 40.0879 22.4915 40.8917L20.2749 43.102C19.5697 43.9058 18.5622 44.3077 17.4539 44.3077C16.4463 44.3077 15.4388 43.9058 14.6328 43.102L2.44174 30.9451C1.63572 30.1413 1.23271 29.1366 1.23271 28.0314C1.23271 27.0267 1.63572 26.022 2.44174 25.2182L4.65829 23.0078C5.76657 21.9027 7.58012 21.6013 9.09141 22.2041L23.3983 7.83673C23.1968 7.33438 23.096 6.83202 23.096 6.2292C23.096 5.22449 23.499 4.21978 24.305 3.41601L26.5216 1.20565C28.1336 -0.401884 30.6525 -0.401884 32.2645 1.20565L44.4556 13.2622C45.2616 13.9655 45.6646 14.9702 45.6646 16.0754C45.6646 17.0801 45.2616 18.0848 44.4556 18.8885L42.239 21.0989C41.433 21.9027 40.4255 22.3046 39.4179 22.3046C38.8134 22.3046 38.3097 22.2041 37.8059 22.0031L34.4811 25.3187L45.3623 36.1695C46.0676 35.8681 46.9744 35.9686 47.5789 36.5714ZM41.6345 16.1758L29.4434 4.01884L27.2269 6.2292L39.4179 18.3862L41.6345 16.1758ZM34.6826 19.3909L26.1186 10.8509L12.114 24.8163L20.678 33.3564L34.6826 19.3909ZM5.26281 28.0314L17.4539 40.1884L19.6704 37.978L7.47937 25.821L5.26281 28.0314ZM42.3398 38.8823L31.5592 28.1319L29.8464 29.8399L40.627 40.5903L42.3398 38.8823ZM57.3519 57.3689L59.1654 55.5604C59.6692 55.0581 59.6692 54.2543 59.1654 53.752L46.1684 40.7912L42.5413 44.4082L55.6391 57.3689C56.0421 57.8713 56.8481 57.8713 57.3519 57.3689ZM7.88245 54.2543H21.7863C25.9172 54.2543 29.242 57.4693 29.242 61.4882V61.9905C29.242 63.0957 28.3352 64 27.2269 64C26.1187 64 25.2119 63.0957 25.2119 61.9905V61.4882C25.2119 59.7802 23.7006 58.2731 21.7863 58.2731H7.88245C5.96815 58.2731 4.45686 59.6797 4.45686 61.4882V61.9905C4.45686 63.0957 3.55009 64 2.44181 64C1.33353 64 0.426758 63.0957 0.426758 61.9905V61.4882C0.426758 57.4693 3.75159 54.2543 7.88245 54.2543Z" fill="#484848"/>
</svg>
