<svg width="64" height="64" viewBox="0 0 64 64" fill="none" xmlns="http://www.w3.org/2000/svg">
<g clip-path="url(#clip0_3:50)">
<path d="M26.0475 30C26.0475 33.3 28.7485 36 32.0498 36C35.351 36 38.0521 33.3 38.0521 30C38.0521 26.7 35.351 24 32.0498 24C28.7485 24 26.0475 26.7 26.0475 30ZM34.0505 30C34.0505 31.1 33.1502 32 32.0498 32C30.9494 32 30.049 31.1 30.049 30C30.049 28.9 30.9494 28 32.0498 28C33.1502 28 34.0505 28.9 34.0505 30Z" fill="#484848"/>
<path d="M28.0483 45C29.1532 45 30.049 44.1046 30.049 43C30.049 41.8954 29.1532 41 28.0483 41C26.9433 41 26.0475 41.8954 26.0475 43C26.0475 44.1046 26.9433 45 28.0483 45Z" fill="#484848"/>
<path d="M36.0513 45C37.1563 45 38.0521 44.1046 38.0521 43C38.0521 41.8954 37.1563 41 36.0513 41C34.9463 41 34.0505 41.8954 34.0505 43C34.0505 44.1046 34.9463 45 36.0513 45Z" fill="#484848"/>
<path d="M51.8573 45C52.9623 45 53.8581 44.1046 53.8581 43C53.8581 41.8954 52.9623 41 51.8573 41C50.7523 41 49.8565 41.8954 49.8565 43C49.8565 44.1046 50.7523 45 51.8573 45Z" fill="#484848"/>
<path d="M51.8573 55.1C52.9623 55.1 53.8581 54.2046 53.8581 53.1C53.8581 51.9954 52.9623 51.1 51.8573 51.1C50.7523 51.1 49.8565 51.9954 49.8565 53.1C49.8565 54.2046 50.7523 55.1 51.8573 55.1Z" fill="#484848"/>
<path d="M12.2422 45C13.3472 45 14.243 44.1046 14.243 43C14.243 41.8954 13.3472 41 12.2422 41C11.1373 41 10.2415 41.8954 10.2415 43C10.2415 44.1046 11.1373 45 12.2422 45Z" fill="#484848"/>
<path d="M12.2422 55.1C13.3472 55.1 14.243 54.2046 14.243 53.1C14.243 51.9954 13.3472 51.1 12.2422 51.1C11.1373 51.1 10.2415 51.9954 10.2415 53.1C10.2415 54.2046 11.1373 55.1 12.2422 55.1Z" fill="#484848"/>
<path d="M63.3617 32.5L54.6584 24.7C54.2582 24.4 53.8581 24.2 53.3579 24.2H44.5545L34.0505 14.1V12.8H46.4553C47.2556 12.8 47.9558 12.3 48.2559 11.6C48.5561 10.9 48.456 10 47.8558 9.4L45.0547 6.4L47.8558 3.4C48.356 2.8 48.5561 2 48.2559 1.2C47.9558 0.5 47.2556 0 46.4553 0H32.0498C30.9494 0 30.049 0.9 30.049 2V14.1L19.545 24.1H10.8417C10.3415 24.1 9.84133 24.3 9.54121 24.6L0.637828 32.4C0.0375996 33 -0.162477 33.8 0.137638 34.6C0.437752 35.4 1.13802 35.9 2.03836 35.9V62C2.03836 63.1 2.9387 64 4.03912 64H60.0604C61.1609 64 62.0612 63.1 62.0612 62V35.9C62.8615 35.9 63.5618 35.4 63.8619 34.6C64.162 33.9 63.9619 33 63.3617 32.5ZM56.8592 31.9H45.755V28.1H52.6576L56.8592 31.9ZM38.0521 60V52C38.0521 50.9 37.1517 50 36.0513 50H28.0483C26.9478 50 26.0475 50.9 26.0475 52V60H22.4461V27L32.1498 17.7L41.8535 27V60H38.0521ZM40.9532 7.7L41.9535 8.7H34.0505V4H41.8535L40.8531 5C40.2529 5.8 40.2529 7 40.9532 7.7ZM11.642 28.1H18.3446V31.9H7.34038L11.642 28.1ZM6.03988 35.9H18.3446V60H6.03988V35.9ZM30.049 60V54H34.0505V60H30.049ZM45.755 60V35.9H58.0597V60H45.755Z" fill="#484848"/>
</g>
<defs>
<clipPath id="clip0_3:50">
<rect width="64" height="64" fill="white"/>
</clipPath>
</defs>
</svg>
