<svg width="64" height="64" viewBox="0 0 64 64" fill="none" xmlns="http://www.w3.org/2000/svg">
<path fill-rule="evenodd" clip-rule="evenodd" d="M4 32C4 16.561 16.561 4 32 4C47.439 4 60 16.561 60 32C60 47.439 47.439 60 32 60C16.561 60 4 47.439 4 32ZM0 32C0 49.645 14.355 64 32 64C49.645 64 64 49.645 64 32C64 14.355 49.645 0 32 0C14.355 0 0 14.355 0 32ZM22 30C23.656 30 25 28.657 25 27C25 25.344 23.656 24 22 24C20.343 24 19 25.344 19 27C19 28.657 20.343 30 22 30ZM44 27C44 28.657 42.656 30 41 30C39.343 30 38 28.657 38 27C38 25.344 39.343 24 41 24C42.656 24 44 25.344 44 27ZM22.3654 40.1134C22.7444 39.7764 23.2184 39.6074 23.6944 39.6074C24.1704 39.6074 24.6444 39.7764 25.0234 40.1134L28.1914 42.9304L31.3594 40.1134C32.1174 39.4394 33.2594 39.4374 34.0174 40.1124L37.1894 42.9324L40.3654 40.1124C41.1234 39.4384 42.2634 39.4384 43.0214 40.1124L47.5254 44.1124C48.3514 44.8454 48.4254 46.1094 47.6924 46.9354C46.9614 47.7604 45.6964 47.8364 44.8694 47.1024L41.6934 44.2824L38.5164 47.1024C37.7584 47.7764 36.6174 47.7764 35.8594 47.1024L32.6884 44.2844L29.5204 47.1014C28.7624 47.7754 27.6204 47.7754 26.8624 47.1014L23.6944 44.2844L20.5264 47.1014C19.7014 47.8364 18.4354 47.7604 17.7034 46.9364C16.9684 46.1114 17.0434 44.8464 17.8684 44.1134L22.3654 40.1134ZM15.3876 22.6807C14.5716 22.6807 13.8036 22.1757 13.5086 21.3647C13.1306 20.3267 13.6656 19.1787 14.7026 18.8007L23.9276 15.4427C24.9676 15.0617 26.1146 15.5987 26.4916 16.6367C26.8686 17.6747 26.3336 18.8227 25.2966 19.2007L16.0726 22.5587C15.8456 22.6417 15.6156 22.6807 15.3876 22.6807ZM46.9273 22.5587C47.1543 22.6417 47.3843 22.6807 47.6123 22.6807C48.4283 22.6807 49.1963 22.1757 49.4913 21.3647C49.8693 20.3267 49.3343 19.1787 48.2973 18.8007L39.0723 15.4427C38.0323 15.0617 36.8853 15.5987 36.5083 16.6367C36.1313 17.6747 36.6663 18.8227 37.7033 19.2007L46.9273 22.5587Z" fill="#484848"/>
</svg>
