<svg width="64" height="64" viewBox="0 0 64 64" fill="none" xmlns="http://www.w3.org/2000/svg">
<path fill-rule="evenodd" clip-rule="evenodd" d="M42.1009 42.155V58.898L58.8439 42.155H42.1009ZM4 6.137V57.862C4 59.041 4.959 60 6.138 60H38.101V40.155C38.101 39.05 38.997 38.155 40.101 38.155H60V6.137C60 4.959 59.041 4 57.862 4H6.138C4.959 4 4 4.959 4 6.137ZM6.138 0H57.862C61.247 0 64 2.752 64 6.137V40.113C64 41.728 63.345 43.31 62.203 44.453L44.454 62.202C43.311 63.344 41.729 64 40.114 64H6.138C2.753 64 0 61.247 0 57.862V6.137C0 2.752 2.753 0 6.138 0ZM13.9477 17.482H50.0517C51.1567 17.482 52.0517 16.586 52.0517 15.482C52.0517 14.378 51.1567 13.482 50.0517 13.482H13.9477C12.8437 13.482 11.9477 14.378 11.9477 15.482C11.9477 16.586 12.8437 17.482 13.9477 17.482ZM38.5131 26.8619C38.5131 25.7579 37.6171 24.8619 36.5131 24.8619H13.9481C12.8431 24.8619 11.9481 25.7579 11.9481 26.8619C11.9481 27.9659 12.8431 28.8619 13.9481 28.8619H36.5131C37.6171 28.8619 38.5131 27.9659 38.5131 26.8619Z" fill="#484848"/>
</svg>
