<svg width="64" height="64" viewBox="0 0 64 64" fill="none" xmlns="http://www.w3.org/2000/svg">
<path d="M50.9 22.7898H35C34.3 18.9803 30.9 15.9728 26.8 15.9728H26.1L28 14.2685C28.4 13.8675 28.7 13.3662 28.7 12.7647C28.7 12.1632 28.5 11.662 28 11.261L26.1 9.55672H41.2C42.3 9.55672 43.2 8.65446 43.2 7.5517C43.2 6.44895 42.3 5.54669 41.2 5.54669H10.3C9.2 5.54669 8.3 6.44895 8.3 7.5517C8.3 8.65446 9.2 9.55672 10.3 9.55672H20.2L23.8 12.7647L20.2 16.073C16.5 16.3738 13.4 19.1808 12.7 22.7898H2C0.9 22.7898 0 23.6921 0 24.7948V50.9602C0 52.063 0.9 52.9652 2 52.9652H5.4C6.1 56.3738 9.1 58.88 12.7 58.88C16.3 58.88 19.2 56.3738 20 52.9652C20.7 56.2735 23.7 58.88 27.3 58.88C30.9 58.88 33.9 56.3738 34.6 52.9652H44C44.7 56.3738 47.7 58.88 51.3 58.88C54.9 58.88 57.9 56.3738 58.6 52.9652H62C63.1 52.9652 64 52.063 64 50.9602V35.9226C64 28.7046 58.1 22.7898 50.9 22.7898ZM60 35.9226V38.6294H53.9L48.2 34.2184C48.1 34.1181 48 34.1181 48 34.1181V26.9001H50.9C55.9 26.7998 60 30.9101 60 35.9226ZM37 33.7171V26.7998H44V33.7171H37ZM26 33.7171V26.7998H33V33.7171H26ZM15 33.7171V26.7998H22V33.7171H15ZM20.8 19.9828H26.8C28.6 19.9828 30.2 21.0855 30.8 22.7898H16.8C17.4 21.1858 19 19.9828 20.8 19.9828ZM11 26.7998V33.7171H4V26.7998H11ZM12.7 54.87C11.4 54.87 10.2 54.068 9.6 52.9652H15.7C15.2 54.068 14 54.87 12.7 54.87ZM27.3 54.87C26 54.87 24.8 54.068 24.2 52.9652H30.3C29.8 54.068 28.6 54.87 27.3 54.87ZM51.3 54.87C50 54.87 48.8 54.068 48.2 52.9652H54.3C53.8 54.068 52.6 54.87 51.3 54.87ZM4 48.9552V37.7271H46.3L52 42.1382C52.4 42.4389 52.8 42.5392 53.2 42.5392H60V48.855H4V48.9552Z" fill="#484848"/>
</svg>
