<svg width="64" height="64" viewBox="0 0 64 64" fill="none" xmlns="http://www.w3.org/2000/svg">
<g clip-path="url(#clip0_247:269)">
<path fill-rule="evenodd" clip-rule="evenodd" d="M23.0805 19.3242C22.7053 18.9491 22.4946 18.4404 22.4946 17.91V6.83L3.40204 25.91C3.02726 26.2825 2.52029 26.4916 1.99185 26.4916C1.46341 26.4916 0.956438 26.2825 0.581663 25.91C0.209111 25.5353 0 25.0284 0 24.5C0 23.9716 0.209111 23.4647 0.581663 23.09L19.6642 4H8.58273C8.05223 4 7.54345 3.78929 7.16833 3.41421C6.79321 3.03914 6.58246 2.53043 6.58246 2C6.58246 1.46957 6.79321 0.960859 7.16833 0.585786C7.54345 0.210714 8.05223 0 8.58273 0H24.4949C25.0254 0 25.5341 0.210714 25.9093 0.585786C26.2844 0.960859 26.4951 1.46957 26.4951 2V17.91C26.4951 18.4404 26.2844 18.9491 25.9093 19.3242C25.5341 19.6993 25.0254 19.91 24.4949 19.91C23.9643 19.91 23.4556 19.6993 23.0805 19.3242ZM44.9275 8.79H61.9998C62.5303 8.79 63.039 9.00071 63.4142 9.37579C63.7893 9.75086 64 10.2596 64 10.79C64 11.3204 63.7893 11.8291 63.4142 12.2042C63.039 12.5793 62.5303 12.79 61.9998 12.79H46.9278V27.86C46.9278 28.3904 46.717 28.8991 46.3419 29.2742C45.9668 29.6493 45.458 29.86 44.9275 29.86H29.8555V44.93C29.8555 45.4604 29.6447 45.9691 29.2696 46.3442C28.8945 46.7193 28.3857 46.93 27.8552 46.93H12.7832V62C12.7832 62.5304 12.5725 63.0391 12.1973 63.4142C11.8222 63.7893 11.3134 64 10.7829 64C10.2524 64 9.74365 63.7893 9.36853 63.4142C8.99341 63.0391 8.78267 62.5304 8.78267 62V44.93C8.78267 44.3996 8.99341 43.8909 9.36853 43.5158C9.74365 43.1407 10.2524 42.93 10.7829 42.93H25.8549V27.86C25.8549 27.3296 26.0657 26.8209 26.4408 26.4458C26.8159 26.0707 27.3247 25.86 27.8552 25.86H42.9272V10.79C42.9272 10.2596 43.138 9.75086 43.5131 9.37579C43.8882 9.00071 44.397 8.79 44.9275 8.79Z" fill="#484848"/>
</g>
<defs>
<clipPath id="clip0_247:269">
<rect width="64" height="64" fill="white"/>
</clipPath>
</defs>
</svg>
