<svg width="64" height="64" viewBox="0 0 64 64" fill="none" xmlns="http://www.w3.org/2000/svg">
<g clip-path="url(#clip0_285:25)">
<path d="M62.4658 1.5207C60.5467 -0.400184 57.4156 -0.501284 55.1935 1.2174C41.8609 11.3273 27.0133 23.3581 17.6199 35.7933C14.9938 35.49 12.3677 35.8944 10.2466 37.3098C9.33753 37.9164 8.5295 38.6241 7.82247 39.534C5.90338 42.0615 5.09535 45.1955 4.38832 48.0263C4.18631 48.734 4.08531 49.4417 3.8833 50.0483C2.46924 55.0022 0.146139 61.1692 0.146139 61.2703C-0.156874 61.978 0.0451349 62.6857 0.449152 63.2923C0.853169 63.7978 1.35819 64 1.96422 64C2.06522 64 2.26723 64 2.36823 64C4.18631 63.5956 20.549 60.3604 24.7912 56.1143C27.0133 53.8901 28.3263 50.8571 28.3263 47.6219C28.3263 47.2175 28.3263 46.8131 28.2253 46.4087C39.1338 38.0175 50.2443 25.9867 62.8698 8.79984C64.4859 6.57566 64.3849 3.54268 62.4658 1.5207ZM21.7611 53.3846C19.64 55.5077 11.4586 57.9341 4.99435 59.3494C5.80238 57.1253 6.81242 53.9912 7.62046 51.2615C7.82247 50.5538 8.02448 49.8461 8.22648 49.1384C8.83251 46.6109 9.53954 43.9824 10.9536 42.1626C11.3576 41.6571 11.8626 41.1516 12.4687 40.8483C15.1958 39.1296 19.337 39.7362 21.8621 42.2637C24.8922 45.1955 24.8922 50.2505 21.7611 53.3846ZM24.5892 39.3318C23.6801 38.4219 22.7711 37.7142 21.6601 37.2087C22.6701 35.9955 23.6801 34.6812 24.7912 33.468C27.3163 34.8834 29.2354 36.8043 30.6494 39.2307C29.3364 40.3428 28.1243 41.3538 26.9123 42.3648C26.3063 41.2527 25.4982 40.2417 24.5892 39.3318ZM59.5367 6.47456C50.3453 19.0109 41.7599 28.9186 33.6796 36.3999C32.1645 33.8724 30.1444 31.8505 27.5183 30.334C36.2047 21.1339 47.3151 12.2372 57.6176 4.45258C58.1226 4.04818 59.0316 3.84598 59.6377 4.35148C60.1427 4.95807 60.0417 5.76687 59.5367 6.47456Z" fill="#484848"/>
</g>
<defs>
<clipPath id="clip0_285:25">
<rect width="64" height="64" fill="white"/>
</clipPath>
</defs>
</svg>
