<svg width="64" height="64" viewBox="0 0 64 64" fill="none" xmlns="http://www.w3.org/2000/svg">
<path fill-rule="evenodd" clip-rule="evenodd" d="M32.5424 27.1587C32.3 27.0472 32.0829 26.8877 31.9041 26.6899L19.6039 14.4004V53.9255C19.6039 54.4474 19.3964 54.948 19.0271 55.317C18.6577 55.6861 18.1567 55.8934 17.6343 55.8934C17.112 55.8934 16.611 55.6861 16.2416 55.317C15.8723 54.948 15.6647 54.4474 15.6647 53.9255V14.4102L3.35478 26.6997C2.98576 27.0662 2.48656 27.272 1.96622 27.272C1.44588 27.272 0.946684 27.0662 0.577656 26.6997C0.39453 26.517 0.249255 26.2999 0.150136 26.061C0.0510177 25.8221 0 25.5661 0 25.3074C0 25.0488 0.0510177 24.7928 0.150136 24.5539C0.249255 24.315 0.39453 24.0979 0.577656 23.9152L16.2458 8.26058C16.6135 7.89102 17.1128 7.68225 17.6343 7.68005C18.1559 7.68225 18.6552 7.89102 19.0229 8.26058L34.691 23.9152C34.8884 24.0945 35.0473 24.3121 35.158 24.5546C35.2687 24.7972 35.3289 25.0596 35.335 25.3262C35.3411 25.5927 35.2929 25.8576 35.1934 26.105C35.0939 26.3523 34.9452 26.5769 34.7562 26.765C34.5672 26.9532 34.3419 27.101 34.094 27.1996C33.8461 27.2981 33.5807 27.3453 33.314 27.3383C33.0473 27.3313 32.7848 27.2702 32.5424 27.1587ZM62.0387 36.3113C62.559 36.3113 63.0582 36.517 63.4272 36.8836C63.7941 37.2523 64 37.751 64 38.2709C64 38.7908 63.7941 39.2896 63.4272 39.6583L47.7591 55.3129C47.3898 55.6788 46.8907 55.884 46.3706 55.8835C45.849 55.8814 45.3497 55.6726 44.982 55.303L29.3139 39.6583C28.975 39.2833 28.7935 38.7926 28.8068 38.2876C28.8201 37.7826 29.0273 37.3021 29.3855 36.9455C29.7436 36.5889 30.2253 36.3836 30.7308 36.3721C31.2362 36.3606 31.7268 36.5437 32.1008 36.8836L44.401 49.173V9.64795C44.401 9.12603 44.6085 8.62549 44.9778 8.25644C45.3472 7.88739 45.8482 7.68005 46.3706 7.68005C46.8929 7.68005 47.3939 7.88739 47.7633 8.25644C48.1326 8.62549 48.3402 9.12603 48.3402 9.64795V49.173L60.6501 36.8836C61.0191 36.517 61.5183 36.3113 62.0387 36.3113Z" fill="#484848"/>
</svg>
