<svg width="64" height="64" viewBox="0 0 64 64" fill="none" xmlns="http://www.w3.org/2000/svg">
<path fill-rule="evenodd" clip-rule="evenodd" d="M52.6891 60C48.6581 60 45.3791 56.721 45.3791 52.689C45.3791 48.658 48.6581 45.379 52.6891 45.379C56.7201 45.379 60 48.658 60 52.689C60 56.721 56.7201 60 52.6891 60ZM11.31 39.311C7.279 39.311 4 36.031 4 32C4 27.969 7.279 24.689 11.31 24.689C15.341 24.689 18.62 27.969 18.62 32C18.62 36.031 15.341 39.311 11.31 39.311ZM52.6891 4C56.7201 4 60 7.279 60 11.311C60 15.342 56.7201 18.621 52.6891 18.621C48.6581 18.621 45.3791 15.342 45.3791 11.311C45.3791 7.279 48.6581 4 52.6891 4ZM52.689 41.379C48.904 41.379 45.555 43.255 43.501 46.119L22.09 35.415C22.433 34.336 22.62 33.19 22.62 32C22.62 30.811 22.433 29.664 22.091 28.586L43.501 17.881C45.555 20.745 48.903 22.621 52.689 22.621C58.926 22.621 64 17.547 64 11.311C64 5.074 58.926 0 52.689 0C46.453 0 41.379 5.074 41.379 11.311C41.379 12.334 41.528 13.322 41.784 14.266L20.215 25.051C18.143 22.402 14.926 20.689 11.31 20.689C5.073 20.689 0 25.764 0 32C0 38.236 5.073 43.311 11.31 43.311C14.926 43.311 18.143 41.599 20.214 38.949L41.784 49.733C41.528 50.678 41.379 51.665 41.379 52.689C41.379 58.926 46.453 64 52.689 64C58.926 64 64 58.926 64 52.689C64 46.453 58.926 41.379 52.689 41.379Z" fill="#484848"/>
</svg>
