<svg width="64" height="64" viewBox="0 0 64 64" fill="none" xmlns="http://www.w3.org/2000/svg">
<g clip-path="url(#clip0_934:14)">
<path d="M34.2052 49.0896C30.0059 49.0896 26.7065 52.2919 26.7065 56.3947C26.7065 58.3961 27.5063 60.2974 28.9061 61.7984C30.3058 63.1994 32.2055 63.9999 34.2052 63.9999C38.2045 63.9999 41.6039 60.5976 41.6039 56.5948C41.6039 54.5934 40.904 52.6921 39.5042 51.1911C38.1045 49.7901 36.2048 49.0896 34.2052 49.0896ZM34.2052 59.697C34.1052 59.697 34.1052 59.697 34.2052 59.697C33.3053 59.697 32.5055 59.2967 31.9056 58.6963C31.3057 58.0959 30.9057 57.1952 31.0057 56.3947C31.0057 54.6935 32.4055 53.2925 34.2052 53.2925C35.105 53.2925 35.9049 53.5928 36.5048 54.1932C37.1047 54.7936 37.4046 55.5941 37.4046 56.4948C37.3046 58.296 35.8049 59.697 34.2052 59.697Z" fill="#484848"/>
<path d="M64 27.875C63.9 25.1732 63.1002 22.6714 61.4005 20.3698C61.4005 20.3698 61.4005 20.3698 61.4005 20.2698C62.3003 15.2663 60.9005 11.2636 57.2012 8.46163C53.3019 5.45956 48.7027 4.95921 43.7035 6.96059C43.6035 6.96059 43.6035 7.06066 43.5036 7.06066C40.804 3.55824 37.0047 1.35673 31.8056 0.456105C25.8066 -0.644654 20.5075 0.255967 16.0083 3.0579C12.009 5.55963 9.60943 8.8619 9.00954 12.7646C3.41051 14.766 0.211064 18.6687 0.011099 23.7722C-0.188866 30.777 2.3107 35.1801 7.70976 37.1814C8.70959 43.1856 13.6087 47.6887 20.2076 48.7894C21.3074 48.9896 22.4072 49.0896 23.507 49.0896C27.8063 49.0896 31.8056 47.6887 35.105 44.8868C35.405 44.6866 35.6049 44.3864 35.9049 44.1863C36.8047 44.5865 38.0045 44.9868 39.5042 45.4872C39.7042 47.7888 40.6041 49.8902 42.3038 51.5914C44.1035 53.3926 46.503 54.4934 49.1026 54.4934C49.1026 54.4934 49.1026 54.4934 49.2026 54.4934C54.4017 54.4934 58.7009 50.1904 58.8009 44.9868C58.8009 43.9861 58.7009 43.0855 58.401 42.1849C61.9004 38.7825 64 33.7791 64 27.875ZM54.4017 44.8868C54.4017 47.7888 52.0021 50.1904 49.1026 50.1904C47.7028 50.1904 46.4031 49.59 45.3032 48.5893C44.7033 47.9889 44.3034 47.1883 44.0035 46.3878C43.9035 46.0876 43.8035 45.8874 43.8035 45.5872C43.8035 45.287 43.7035 44.9868 43.7035 44.6866C43.7035 44.3864 43.7035 44.0862 43.8035 43.786C43.8035 43.6859 43.8035 43.5859 43.9035 43.3857C43.9035 43.2856 44.0035 43.1856 44.0035 43.0855C44.1035 42.7853 44.2034 42.4851 44.4034 42.1849C45.3032 40.5838 47.0029 39.483 49.0026 39.483C50.4024 39.483 51.7021 39.9834 52.602 40.884C52.602 40.884 52.702 40.9841 52.8019 40.9841C53.0019 41.1842 53.1019 41.3843 53.2019 41.5845C53.3019 41.6845 53.3019 41.7846 53.4018 41.7846C54.1017 42.5852 54.4017 43.6859 54.4017 44.8868ZM55.9014 37.982C54.1017 36.1807 51.7021 35.1801 49.1026 35.1801C45.0033 35.1801 41.6039 37.6818 40.2041 41.1842C38.0045 40.4837 36.6048 39.7832 36.5048 39.7832C35.7049 39.383 34.8051 39.483 34.1052 40.0834L33.6053 40.4837C33.2053 40.7839 32.8054 41.1842 32.4055 41.5845C29.206 44.2863 25.3067 45.287 20.9075 44.5865C15.7084 43.786 12.209 40.1835 11.909 35.4803C11.8091 34.5796 11.2092 33.7791 10.3093 33.579C5.91008 32.3781 4.11039 29.5762 4.31035 23.9723C4.41034 19.2691 8.90956 17.2677 11.6091 16.5672C12.5089 16.3671 13.1088 15.5665 13.1088 14.6659C13.3088 11.4637 14.9085 8.96197 18.3079 6.86052C20.9075 5.25942 23.707 4.45887 26.9064 4.45887C28.2062 4.45887 29.606 4.55894 31.0057 4.85914C35.6049 5.75976 38.8044 7.76114 40.904 11.1635C41.5039 12.0641 42.7037 12.4644 43.6035 11.964C43.8035 11.864 44.0035 11.7639 44.2034 11.6638C44.5034 11.4637 44.8033 11.3636 45.1033 11.2636C48.7027 9.86259 51.8021 10.1628 54.5016 12.1642C56.9012 14.0655 57.8011 16.4671 57.1012 19.9696C56.9012 21.1704 57.4011 22.4713 57.9011 23.1718C59.0009 24.7729 59.6008 26.374 59.6008 28.1752C59.6008 32.4782 58.301 35.9806 56.0014 38.4823C56.1014 38.1821 56.0014 38.0821 55.9014 37.982Z" fill="#484848"/>
</g>
<defs>
<clipPath id="clip0_934:14">
<rect width="64" height="64" fill="white"/>
</clipPath>
</defs>
</svg>
