<svg width="64" height="64" viewBox="0 0 64 64" fill="none" xmlns="http://www.w3.org/2000/svg">
<path fill-rule="evenodd" clip-rule="evenodd" d="M59.9998 40.9341C59.9998 42.0336 59.1028 42.9277 57.9998 42.9277H5.99977C4.89677 42.9277 3.99977 42.0336 3.99977 40.9341V8.11396C3.99977 7.01551 4.89677 6.12039 5.99977 6.12039H57.9998C59.1028 6.12039 59.9998 7.01551 59.9998 8.11396V40.9341ZM58 2.1333H6C2.691 2.1333 0 4.81665 0 8.11401V40.9341C0 44.2325 2.691 46.9149 6 46.9149H30V57.8795H17C15.896 57.8795 15 58.7726 15 59.8731C15 60.9735 15.896 61.8666 17 61.8666H47C48.104 61.8666 49 60.9735 49 59.8731C49 58.7726 48.104 57.8795 47 57.8795H34V46.9149H58C61.309 46.9149 64 44.2325 64 40.9341V8.11401C64 4.81665 61.309 2.1333 58 2.1333Z" fill="#484848"/>
</svg>
