<svg width="64" height="64" viewBox="0 0 64 64" fill="none" xmlns="http://www.w3.org/2000/svg">
<path fill-rule="evenodd" clip-rule="evenodd" d="M4 32C4 16.561 16.561 4 32 4C47.439 4 60 16.561 60 32C60 47.439 47.439 60 32 60C16.561 60 4 47.439 4 32ZM0 32C0 49.645 14.355 64 32 64C49.645 64 64 49.645 64 32C64 14.355 49.645 0 32 0C14.355 0 0 14.355 0 32ZM12 20C12 24.411 15.589 28 20 28C24.411 28 28 24.411 28 20C28 18.896 27.104 18 26 18C24.896 18 24 18.896 24 20C24 22.206 22.206 24 20 24C17.794 24 16 22.206 16 20C16 18.896 15.104 18 14 18C12.896 18 12 18.896 12 20ZM44 28C39.589 28 36 24.411 36 20C36 18.896 36.896 18 38 18C39.104 18 40 18.896 40 20C40 22.206 41.794 24 44 24C46.206 24 48 22.206 48 20C48 18.896 48.896 18 50 18C51.104 18 52 18.896 52 20C52 24.411 48.411 28 44 28ZM24.555 42.9997C24.555 38.8947 27.895 35.5547 32 35.5547C36.105 35.5547 39.445 38.8947 39.445 42.9997C39.445 47.1057 36.105 50.4467 32 50.4467C27.895 50.4467 24.555 47.1057 24.555 42.9997ZM20.555 42.9997C20.555 49.3117 25.689 54.4467 32 54.4467C38.311 54.4467 43.445 49.3117 43.445 42.9997C43.445 36.6897 38.311 31.5547 32 31.5547C25.689 31.5547 20.555 36.6897 20.555 42.9997Z" fill="#484848"/>
</svg>
