<svg width="64" height="64" viewBox="0 0 64 64" fill="none" xmlns="http://www.w3.org/2000/svg">
<g clip-path="url(#clip0_838:10)">
<path fill-rule="evenodd" clip-rule="evenodd" d="M41.6424 6.2L59.2604 9.8C62.4637 10.5 64.5658 13.6 63.8651 16.9L55.1562 59.2C54.8559 60.8 53.8549 62.1 52.5536 63C51.5525 63.7 50.4514 64 49.2502 64C48.8498 64 48.4494 64 48.049 63.9L22.9234 58.7L15.2155 57.1C14.6149 57 14.2145 56.6 13.9142 56.2C13.714 55.9 13.6139 55.6 13.6139 55.2H2.00204C0.900918 55.2 0 54.3 0 53.2V2C0 0.9 0.900918 0 2.00204 0H35.6363C38.9397 0 41.6424 2.7 41.6424 6V6.2ZM51.8528 20.9L41.6424 18.8V24L50.8518 25.8L51.8528 20.9ZM37.6384 7.7V6C37.6384 4.9 36.7374 4 35.6363 4H11.9121V51.2H35.6363C36.7374 51.2 37.6384 50.3 37.6384 49.2V25.6V25.5V16.4V16.3V7.8V7.7ZM7.90806 4H4.00408V51.2H7.90806V4ZM51.3523 58.4L60.0612 16.1C60.2614 15 59.5607 13.9 58.3595 13.6L41.5423 10.1V14.6L54.4555 17.3C55.0561 17.4 55.4565 17.8 55.7568 18.2C56.0571 18.6 56.1572 19.2 56.0571 19.7L54.2553 28.5C54.0551 29.4 53.1542 30.1 52.2533 30.1H51.8528L41.5423 28V49.3C41.5423 52.6 38.8396 55.3 35.5362 55.3H25.8263L48.9499 60C49.4504 60.1 50.051 60 50.4514 59.7C50.9519 59.4 51.2522 58.9 51.3523 58.4ZM32.5333 21.4H17.1175C16.0164 21.4 15.1155 20.5 15.1155 19.4V10.4C15.1155 9.29999 16.0164 8.39999 17.1175 8.39999H32.5333C33.6344 8.39999 34.5353 9.29999 34.5353 10.4V19.4C34.5353 20.5 33.6344 21.4 32.5333 21.4ZM30.5312 12.4H19.1196V17.4H30.5312V12.4Z" fill="#484848"/>
</g>
<defs>
<clipPath id="clip0_838:10">
<rect width="64" height="64" fill="white"/>
</clipPath>
</defs>
</svg>
