<svg width="64" height="64" viewBox="0 0 64 64" fill="none" xmlns="http://www.w3.org/2000/svg">
<g clip-path="url(#clip0_228:49)">
<path d="M63.8361 8.55529C63.5359 7.75608 62.7355 7.35648 61.935 7.35648L56.4319 7.55628L56.632 2.06176C56.632 1.26256 56.2318 0.463354 55.4313 0.163653C54.6309 -0.136048 53.8304 -0.036148 53.2301 0.563254L44.9254 9.05479C44.5252 9.45439 44.3251 9.95389 44.3251 10.4534V16.9469L42.6241 18.6452C38.1216 14.7491 32.2182 12.4514 25.8146 12.4514C11.6066 12.4514 0 24.0398 0 38.2257C0 52.4116 11.6066 64 25.8146 64C40.0226 64 51.6292 52.4116 51.6292 38.2257C51.6292 31.8321 49.3279 25.938 45.4257 21.4424L47.1266 19.7441H53.7304C54.2307 19.7441 54.7309 19.5443 55.1312 19.1447L63.4359 10.7531C64.0362 10.1537 64.1363 9.35449 63.8361 8.55529ZM47.6269 38.2257C47.6269 50.2138 37.8214 60.004 25.8146 60.004C13.8078 60.004 4.00226 50.2138 4.00226 38.2257C4.00226 26.2377 13.8078 16.4474 25.8146 16.4474C31.1176 16.4474 36.0204 18.3455 39.7225 21.4424L34.3194 26.8371C32.0181 25.0389 29.0164 23.9399 25.8146 23.9399C17.9101 23.9399 11.6066 30.3336 11.6066 38.1258C11.6066 45.918 18.0102 52.4116 25.8146 52.4116C33.7191 52.4116 40.0226 46.0179 40.0226 38.2257C40.0226 35.0289 38.922 32.0319 37.121 29.7342L42.524 24.3395C45.7258 28.0359 47.6269 32.931 47.6269 38.2257ZM36.1204 38.2257C36.1204 43.8201 31.5178 48.4155 25.9146 48.4155C20.3115 48.4155 15.7089 43.8201 15.7089 38.2257C15.7089 32.6313 20.3115 28.0359 25.9146 28.0359C28.0158 28.0359 30.017 28.6353 31.6179 29.7342L24.0136 37.1268C23.2131 37.926 23.2131 39.1248 24.0136 39.924C24.4138 40.3236 24.9141 40.5234 25.4144 40.5234C25.9146 40.5234 26.4149 40.3236 26.8152 39.924L34.2193 32.5314C35.42 34.1298 36.1204 36.1278 36.1204 38.2257ZM52.8299 15.7481H48.2273V11.2526L52.3296 7.15668L52.2295 9.65419C52.2295 10.2536 52.4296 10.7531 52.8299 11.1527C53.2301 11.5523 53.7304 11.7521 54.3307 11.7521L56.9322 11.6522L52.8299 15.7481Z" fill="#484848"/>
</g>
<defs>
<clipPath id="clip0_228:49">
<rect width="64" height="64" fill="white"/>
</clipPath>
</defs>
</svg>
