<svg width="64" height="64" viewBox="0 0 64 64" fill="none" xmlns="http://www.w3.org/2000/svg">
<path d="M48.9916 59.7333H15.0084C13.909 59.7333 13.0094 58.8343 13.0094 57.7355V26.5695L7.01237 29.9658C6.51261 30.2654 5.91291 30.2655 5.31321 30.0657C4.71351 29.8659 4.3137 29.3664 4.1138 28.867L0.115781 17.2796C-0.184071 16.4805 0.115781 15.5815 0.815435 15.082L13.809 5.09289C14.1089 4.79322 14.6086 4.69333 15.0084 4.69333H25.1034C26.1029 4.69333 26.9025 5.39257 27.1024 6.39148C27.4023 8.78886 29.6012 10.6868 32 10.6868C34.3988 10.6868 36.5977 8.88876 36.9975 6.39148C37.0975 5.39257 37.997 4.69333 38.9965 4.69333H48.9916C49.3914 4.69333 49.8911 4.79322 50.191 5.09289L63.1846 15.082C63.8842 15.5815 64.1841 16.4805 63.8842 17.2796L59.8862 28.867C59.6863 29.4663 59.2865 29.8659 58.6868 30.0657C58.0871 30.2655 57.4874 30.2654 56.9876 29.9658L50.9906 26.5695V57.7355C50.9906 58.8343 50.091 59.7333 48.9916 59.7333ZM17.0074 55.7377H46.9926V23.1732C46.9926 22.4739 47.3924 21.7747 47.9921 21.475C48.5918 21.0755 49.3914 21.0755 49.9911 21.475L56.8877 25.2709L59.6863 17.2796L48.2919 8.58908H40.4958C39.2964 12.0853 35.8981 14.5825 32 14.5825C28.1019 14.5825 24.8036 12.0853 23.5042 8.58908H15.7081L4.41365 17.2796L7.21227 25.2709L14.1089 21.475C14.7086 21.1754 15.5082 21.1754 16.1079 21.475C16.7076 21.8746 17.1074 22.4739 17.1074 23.1732V55.7377H17.0074Z" fill="#484848"/>
</svg>
