<svg width="64" height="64" viewBox="0 0 64 64" fill="none" xmlns="http://www.w3.org/2000/svg">
<path fill-rule="evenodd" clip-rule="evenodd" d="M47.1524 60H16.8474L13.061 14.135H22.9528H41.047H50.9388L47.1524 60ZM24.9425 10.135H39.0574V4H24.9425V10.135ZM57.7436 10.135H53.1006H43.0368V2C43.0368 0.896 42.1464 0 41.0471 0H22.9528C21.8535 0 20.9631 0.896 20.9631 2V10.135H10.8992H6.25629C5.15798 10.135 4.2666 11.03 4.2666 12.135C4.2666 13.239 5.15798 14.135 6.25629 14.135H9.06773L13.0332 62.165C13.1187 63.202 13.9803 64 15.0159 64H48.984C50.0186 64 50.8811 63.202 50.9667 62.165L54.9321 14.135H57.7436C58.8419 14.135 59.7333 13.239 59.7333 12.135C59.7333 11.03 58.8419 10.135 57.7436 10.135ZM25.8249 20.9121C24.7266 20.9121 23.8352 21.8081 23.8352 22.9121V52.3071C23.8352 53.4111 24.7266 54.3071 25.8249 54.3071C26.9232 54.3071 27.8146 53.4111 27.8146 52.3071V22.9121C27.8146 21.8081 26.9232 20.9121 25.8249 20.9121ZM36.1852 22.9121C36.1852 21.8081 37.0765 20.9121 38.1749 20.9121C39.2732 20.9121 40.1646 21.8081 40.1646 22.9121V52.3071C40.1646 53.4111 39.2732 54.3071 38.1749 54.3071C37.0765 54.3071 36.1852 53.4111 36.1852 52.3071V22.9121Z" fill="#484848"/>
</svg>
