<svg width="64" height="64" viewBox="0 0 64 64" fill="none" xmlns="http://www.w3.org/2000/svg">
<path fill-rule="evenodd" clip-rule="evenodd" d="M31.2014 10.866L35.1941 15.4517C35.4935 15.8505 35.5933 16.2492 35.6931 16.648L38.1886 61.9065C38.2884 62.5047 38.0887 63.0031 37.6895 63.4019C37.2902 63.8006 36.6913 64 36.1922 64H12.2363C11.6374 64 11.0385 63.8006 10.7391 63.4019C10.4396 63.0031 10.24 62.405 10.24 61.9065L12.7354 16.648C12.7354 16.2492 12.935 15.7508 13.2345 15.4517L17.2271 10.866C17.2271 10.8044 17.2653 10.7809 17.3179 10.7484C17.3505 10.7283 17.3886 10.7047 17.4268 10.6667L18.3251 1.79439C18.4249 0.797508 19.3233 0 20.3214 0H28.1071C29.1053 0 30.0036 0.797508 30.1034 1.79439L31.0018 10.6667L31.2014 10.866ZM23.4157 46.3551H33.2976L32.0998 24.7227H24.5137L23.4157 46.3551ZM26.9093 10.1682L26.3104 3.98754H22.1181L21.5192 10.1682H26.9093ZM16.728 17.5452L14.3325 60.0125H34.0961L33.597 50.3427H21.3196C20.7207 50.3427 20.2216 50.1433 19.8224 49.7446C19.5229 49.3458 19.3233 48.7477 19.3233 48.2492L20.5211 22.6293C20.6209 21.5327 21.4194 20.7352 22.5174 20.7352H31.8003L31.6007 17.5452L28.9056 14.3551H19.4231L16.728 17.5452ZM53.76 8.97196C53.76 10.0685 52.8617 10.9657 51.7637 10.9657H47.2719V13.9564H51.7637C52.8617 13.9564 53.76 14.8536 53.76 15.9502C53.76 17.0467 52.8617 17.9439 51.7637 17.9439H47.2719V20.4361L51.065 27.0156C51.2646 27.3146 51.3644 27.7134 51.3644 28.0125V61.8069C51.3644 62.9034 50.4661 63.8006 49.3681 63.8006C48.2701 63.8006 47.3718 62.9034 47.3718 61.8069V28.5109L43.5787 21.9315C43.3791 21.6324 43.2793 21.2336 43.2793 20.9346V1.99377C43.2793 0.897196 44.1776 0 45.2756 0H51.7637C52.8617 0 53.76 0.897196 53.76 1.99377C53.76 3.09034 52.8617 3.98754 51.7637 3.98754H47.2719V6.97819H51.7637C52.8617 6.97819 53.76 7.87539 53.76 8.97196Z" fill="#484848"/>
</svg>
