<svg width="64" height="64" viewBox="0 0 64 64" fill="none" xmlns="http://www.w3.org/2000/svg">
<g clip-path="url(#clip0_933:0)">
<path d="M62 19.2044H57.3C54 19.2044 51.3 21.8042 51.1 25.1038C47.9 25.1038 44.7 25.0038 43.6 24.7039C43.2 24.2039 42.8 23.504 42.3 22.8041C40.6 20.2043 38.3 16.7047 34.5 13.505C31.4 10.9052 29.5 5.40577 29 2.60605C28.8 1.0062 27.4 -0.0936892 25.9 0.00630096C24.3 0.106291 20.3 0.806222 18 4.60585C16 7.90552 15.9 12.5051 17.7 18.3045C13.9 18.1045 8 18.2045 5.3 19.6044C1.9 21.5042 0 25.4038 0 30.4033C0 41.8022 5.1 64 17 64C26.9 64 31 62.1002 35 60.3004C36.1 59.8004 37 59.4005 38.1 58.9005C40.5 58.0006 47.1 57.8006 51.1 57.8006C51.1 61.2003 53.9 64 57.4 64H62C63.1 64 64 63.1001 64 62.0002V21.2042C64 20.1043 63.1 19.2044 62 19.2044ZM36.7 55.1009C35.5 55.6008 34.4 56.1008 33.3 56.6007C29.6 58.4006 26 60.0004 17 60.0004C9.2 60.0004 4 42.2021 4 30.4033C4 27.0036 5.2 24.3039 7.2 23.204C8.4 22.5041 11.5 22.3041 14.7 22.3041C16.7 22.3041 18.8 22.4041 20.4 22.5041C21.1 22.6041 21.8 22.3041 22.2 21.7042C22.6 21.1042 22.7 20.4043 22.5 19.8043C20.2 13.9049 19.8 9.40538 21.5 6.70564C22.6 5.00581 24.3 4.40587 25.4 4.1059C26.1 7.40557 28.2 13.205 32.1 16.5047C35.4 19.3044 37.6 22.5041 39.1 24.9038C39.8 25.9038 40.3 26.7037 40.9 27.4036C41.4 28.0035 42.3 29.2034 51.2 29.0034V53.701C47.4 53.801 39.9 53.901 36.7 55.1009ZM60 60.0004H57.3C56 60.0004 55 59.0005 55 57.7006V55.8008V27.0036V25.5038C55 24.2039 56 23.204 57.3 23.204H60V60.0004Z" fill="#484848"/>
</g>
<defs>
<clipPath id="clip0_933:0">
<rect width="64" height="64" fill="white"/>
</clipPath>
</defs>
</svg>
