<svg width="64" height="64" viewBox="0 0 64 64" fill="none" xmlns="http://www.w3.org/2000/svg">
<path d="M48.9896 46.5273L40.5451 14.4774L43.4605 2.4961C43.561 1.89704 43.4605 1.29797 43.0583 0.798752C42.6562 0.299532 42.053 0 41.4499 0H22.3491C21.7459 0 21.1427 0.299532 20.7406 0.798752C20.3385 1.29797 20.238 1.89704 20.3385 2.4961L23.2539 14.4774L15.0104 46.5273C14.8093 47.2262 15.0104 47.9251 15.513 48.4243L30.5926 63.4009C30.9947 63.8003 31.4974 64 32 64C32.5027 64 33.0053 63.8003 33.4074 63.4009L48.487 48.4243C48.9896 47.9251 49.1907 47.2262 48.9896 46.5273ZM39.0371 4.0936L37.0265 12.5803H27.074L25.0634 4.0936H39.0371ZM32 59.2075L19.1321 46.4275L26.9735 16.5741H36.926L44.7674 46.4275L32 59.2075Z" fill="#484848"/>
</svg>
