<svg width="64" height="64" viewBox="0 0 64 64" fill="none" xmlns="http://www.w3.org/2000/svg">
<g clip-path="url(#clip0_934:4)">
<path d="M2 44.8653H6.7C10 44.8653 12.7 42.2615 12.9 38.9567C16.1 38.9567 19.3 39.0568 20.4 39.3573C20.8 39.858 21.2 40.559 21.7 41.26C23.4 43.8638 25.7 47.3689 29.5 50.5736C32.6 53.1774 34.5 58.6854 35 61.4895C35.2 63.0918 36.6 64.0933 38.2 63.9931C39.8 63.893 43.8 63.192 46.1 59.3864C48.1 56.0816 48.2 51.4749 46.4 45.6665C50.2 45.8667 56.1 45.7666 58.8 44.3646C62.1 42.5619 64 38.6562 64 33.649C64 22.2324 58.9 0 47 0C37.1 0 33 1.90277 29 3.70539C27.9 4.20612 27 4.6067 25.9 5.10743C23.5 6.00874 16.9 6.20904 12.9 6.20904C12.9 2.80408 10.1 0 6.6 0H2C0.9 0 0 0.901312 0 2.00291V42.8624C0 43.964 0.9 44.8653 2 44.8653ZM27.3 8.91297C28.5 8.41224 29.6 7.91151 30.7 7.41078C34.4 5.60816 38 4.00583 47 4.00583C54.8 4.00583 60 21.8318 60 33.649C60 37.0539 58.8 39.7579 56.8 40.8595C55.6 41.5605 52.5 41.7608 49.3 41.7608C47.3 41.7608 45.2 41.6606 43.6 41.5605C42.9 41.4603 42.2 41.7608 41.8 42.3616C41.4 42.9625 41.3 43.6635 41.5 44.2644C43.8 50.173 44.2 54.6796 42.5 57.3835C41.4 59.086 39.7 59.6869 38.6 59.9873C37.9 56.6825 35.8 50.874 31.9 47.5692C28.6 44.7651 26.4 41.5605 24.9 39.157C24.2 38.1555 23.7 37.3544 23.1 36.6533C22.6 36.0525 21.7 34.8507 12.8 35.051V10.2149C16.6 10.2149 24.1 10.1147 27.3 8.91297ZM4 4.00583H6.7C8 4.00583 9 5.00729 9 6.30918V8.21195V37.0539V38.5561C9 39.858 8 40.8595 6.7 40.8595H4V4.00583Z" fill="#484848"/>
</g>
<defs>
<clipPath id="clip0_934:4">
<rect width="64" height="64" fill="white"/>
</clipPath>
</defs>
</svg>
