<svg width="64" height="64" viewBox="0 0 64 64" fill="none" xmlns="http://www.w3.org/2000/svg">
<path d="M40.8484 33.8154C44.2723 31.7609 46.9256 28.6339 48.3984 24.9175C49.8712 21.2011 50.0815 17.1022 48.9968 13.2541C47.9122 9.40598 45.5929 6.02284 42.3974 3.6274C39.2019 1.23196 35.308 -0.0424525 31.3173 0.00107929C27.3266 0.0446111 23.4613 1.40366 20.3186 3.86824C17.1759 6.33282 14.9307 9.76576 13.9299 13.6366C12.9292 17.5075 13.2285 21.6008 14.7817 25.2842C16.3349 28.9676 19.0556 32.036 22.5232 34.0153C17.065 35.8863 12.2701 39.3122 8.72632 43.873C5.18251 48.4338 3.04371 53.9315 2.57206 59.6922C2.52935 60.2427 2.60091 60.796 2.78222 61.3174C2.96354 61.8388 3.25068 62.317 3.62555 62.7217C4.00042 63.1264 4.4549 63.4489 4.96034 63.6689C5.46578 63.8889 6.01122 64.0016 6.5623 64H57.4378C57.9889 64.0016 58.5343 63.8889 59.0398 63.6689C59.5452 63.4489 59.9997 63.1264 60.3746 62.7217C60.7494 62.317 61.0366 61.8388 61.2179 61.3174C61.3992 60.796 61.4708 60.2427 61.4281 59.6922C60.947 53.8199 58.7333 48.2238 55.0686 43.6158C51.4039 39.0079 46.4539 35.5963 40.8484 33.8154ZM17.326 18.2333C17.324 15.4214 18.1545 12.6722 19.7125 10.3334C21.2704 7.99457 23.4857 6.17134 26.0782 5.09437C28.6706 4.0174 31.5236 3.7351 34.2762 4.28318C37.0288 4.83126 39.5573 6.1851 41.5418 8.17339C43.5262 10.1617 44.8774 12.6951 45.4245 15.453C45.9715 18.2109 45.6897 21.0695 44.6148 23.6669C43.54 26.2644 41.7202 28.484 39.386 30.045C37.0517 31.6059 34.3077 32.4381 31.5013 32.4361C27.7442 32.4282 24.1432 30.9293 21.4865 28.2674C18.8299 25.6056 17.3339 21.9977 17.326 18.2333ZM6.5623 60.002C7.06953 53.5911 9.96948 47.6072 14.684 43.2431C19.3986 38.8791 25.5815 36.4555 32.0001 36.4555C38.4187 36.4555 44.6015 38.8791 49.3161 43.2431C54.0306 47.6072 56.9306 53.5911 57.4378 60.002H6.5623Z" fill="#484848"/>
</svg>
