<svg width="64" height="64" viewBox="0 0 64 64" fill="none" xmlns="http://www.w3.org/2000/svg">
<path d="M62.7 19.2298C61.9 18.6312 60.8 18.5315 59.9 18.9305L49 23.2205V17.9328C49 14.6405 46.3 11.9468 43 11.9468H6C2.7 11.9468 0 14.6405 0 17.9328V46.0674C0 49.3597 2.7 52.0534 6 52.0534H43C46.3 52.0534 49 49.3597 49 46.0674V40.7797L59.9 45.1695C60.3 45.2692 60.6 45.369 61 45.369C61.6 45.369 62.2 45.1695 62.7 44.8702C63.5 44.2716 64 43.3736 64 42.376V21.724C64 20.7263 63.5 19.7287 62.7 19.2298ZM45 46.0674C45 47.1648 44.1 48.0627 43 48.0627H6C4.9 48.0627 4 47.1648 4 46.0674V17.9328C4 16.8354 4.9 15.9375 6 15.9375H43C44.1 15.9375 45 16.8354 45 17.9328V26.2136V37.8864V46.0674ZM60 40.8794L49 36.4897V27.6103L60 23.2205V40.8794Z" fill="#484848"/>
</svg>
