<svg width="64" height="64" viewBox="0 0 64 64" fill="none" xmlns="http://www.w3.org/2000/svg">
<path fill-rule="evenodd" clip-rule="evenodd" d="M48.9038 51.8163H57.9998C59.1028 51.8163 59.9998 50.9162 59.9998 49.8093V19.4933H3.99977V49.8093C3.99977 50.9162 4.89677 51.8163 5.99977 51.8163H31.3058L30.5588 31.8134C30.5298 31.0287 30.9588 30.3001 31.6568 29.9459C32.3548 29.5926 33.1958 29.6799 33.8058 30.1707L52.6658 45.3015C53.1968 45.729 53.4758 46.3974 53.4048 47.0757C53.3338 47.7561 52.9238 48.3532 52.3158 48.6603L48.3308 50.6763L48.9038 51.8163ZM40.5362 52.3752L43.8012 58.8699L47.1242 57.189L43.8592 50.6923C43.6202 50.2167 43.5792 49.6657 43.7452 49.161C43.9112 48.6552 44.2712 48.2367 44.7442 47.9959L47.7352 46.4836L34.7202 36.0401L35.3432 52.7555L37.8502 51.4861C38.1392 51.3396 38.4462 51.2713 38.7492 51.2713C39.4802 51.2713 40.1852 51.6748 40.5362 52.3752ZM57.9998 4.44074H5.99977C4.89677 4.44074 3.99977 5.34088 3.99977 6.44775V15.4793H59.9998V6.44775C59.9998 5.34088 59.1028 4.44074 57.9998 4.44074ZM6 0.426758H58C61.309 0.426758 64 3.12719 64 6.4478V49.8093C64 53.1299 61.309 55.8304 58 55.8304H50.921L51.596 57.1731C52.093 58.1625 51.697 59.3687 50.711 59.8685L43.816 63.3587C43.534 63.5012 43.226 63.5734 42.916 63.5734C42.705 63.5734 42.494 63.5403 42.29 63.4721C41.786 63.3055 41.369 62.9452 41.13 62.4696L37.865 55.9749L34.362 57.7471C33.754 58.0531 33.032 58.03 32.445 57.6838C31.858 57.3356 31.488 56.7134 31.463 56.0301L31.456 55.8304H6C2.691 55.8304 0 53.1299 0 49.8093V6.4478C0 3.12719 2.691 0.426758 6 0.426758ZM56.2487 9.95917C56.2487 11.068 55.3527 11.9662 54.2487 11.9662C53.1447 11.9662 52.2487 11.068 52.2487 9.95917C52.2487 8.8513 53.1447 7.95216 54.2487 7.95216C55.3527 7.95216 56.2487 8.8513 56.2487 9.95917ZM46.2492 11.9662C47.3532 11.9662 48.2492 11.068 48.2492 9.95917C48.2492 8.8513 47.3532 7.95216 46.2492 7.95216C45.1452 7.95216 44.2492 8.8513 44.2492 9.95917C44.2492 11.068 45.1452 11.9662 46.2492 11.9662ZM40.2496 9.95917C40.2496 11.068 39.3536 11.9662 38.2496 11.9662C37.1456 11.9662 36.2496 11.068 36.2496 9.95917C36.2496 8.8513 37.1456 7.95216 38.2496 7.95216C39.3536 7.95216 40.2496 8.8513 40.2496 9.95917Z" fill="#484848"/>
</svg>
