<svg width="64" height="64" viewBox="0 0 64 64" fill="none" xmlns="http://www.w3.org/2000/svg">
<path fill-rule="evenodd" clip-rule="evenodd" d="M59 24.4921V32.0832C61.8 32.0832 64 34.2806 64 37.0773V44.7683C64 47.565 61.8 49.7624 59 49.7624V57.3535C59 60.5497 56.3 63.1467 53 63.1467H6C2.7 63.1467 0 60.5497 0 57.3535V24.4921C0 21.2959 2.7 18.6989 6 18.6989H8.5L44.4 1.51911C44.9 1.21946 45.5 1.21946 46 1.41922C46.5 1.61899 46.9 2.01852 47.1 2.51793L54.5 18.8987C57.1 19.498 59 21.7953 59 24.4921ZM34.2 18.6989H50L47.1 12.5062L34.2 18.6989ZM45.6 8.91042L44.3 6.01382L17.8 18.6989H25L45.6 8.91042ZM53 59.1514C54.1 59.1514 55 58.3523 55 57.3535V49.7624H44.2C41.4 49.7624 39.2 47.565 39.2 44.7683V37.0773C39.2 34.2806 41.4 32.0832 44.2 32.0832H55V24.4921C55 23.4933 54.1 22.6942 53 22.6942H25.5H9.1H9H6C4.9 22.6942 4 23.4933 4 24.4921V57.3535C4 58.3523 4.9 59.1514 6 59.1514H53ZM59 45.7671C59.6 45.7671 60 45.3676 60 44.7683V37.0773C60 36.478 59.6 36.0785 59 36.0785H44.2C43.6 36.0785 43.2 36.478 43.2 37.0773V44.7683C43.2 45.3676 43.6 45.7671 44.2 45.7671H59ZM50.2 40.9729C50.2 42.0761 49.3046 42.9705 48.2 42.9705C47.0954 42.9705 46.2 42.0761 46.2 40.9729C46.2 39.8696 47.0954 38.9752 48.2 38.9752C49.3046 38.9752 50.2 39.8696 50.2 40.9729Z" fill="#484848"/>
</svg>
