<svg width="64" height="64" viewBox="0 0 64 64" fill="none" xmlns="http://www.w3.org/2000/svg">
<g clip-path="url(#clip0_944:36)">
<path d="M47.4996 35.9438L44.6996 33.1482L62.7996 15.0764C64.3996 13.4789 64.3996 10.9828 62.7996 9.38534L54.5996 1.19813C52.9996 -0.399376 50.4996 -0.399376 48.8996 1.19813L30.8996 19.3697L28.0996 16.5741C28.8996 12.0811 27.3996 7.4883 24.1996 4.19345C19.8996 0.099844 13.4996 -1.09828 8.19956 1.39782C7.59956 1.69735 7.14951 2.19657 6.99951 2.89548C6.89951 3.49454 7.15 4.19345 7.59956 4.59282L13.5996 10.5835L10.4996 13.6786L4.49956 7.68799C4 7.18877 3.39956 6.98908 2.79956 7.08892C2.09956 7.28861 1.59956 7.68799 1.29956 8.28705C-1.20044 13.5788 -0.000435829 19.9688 4.09956 24.1622C7.59956 27.6568 12.5996 29.0546 17.3996 27.9563L19.7996 30.3526L6.79956 43.3323C6.59956 43.532 6.39956 43.8315 6.29956 44.0312L0.0995641 61.3042C-0.100436 62.0031 -0.000435948 62.9017 0.599564 63.4009C0.999564 63.8003 1.49956 64 1.99956 64C2.19956 64 2.49956 64 2.69956 63.9002L19.8996 57.61C20.1996 57.5101 20.3996 57.3105 20.5996 57.1108L33.5996 44.131L35.9996 46.5273C34.8996 51.3198 36.1996 56.312 39.7996 59.8066C42.4996 62.5023 46.0996 63.9002 49.7996 63.9002C51.7996 63.9002 53.7996 63.5008 55.6996 62.6022C56.2996 62.3027 56.6996 61.8034 56.7996 61.1045C56.8996 60.5055 56.6996 59.8066 56.1996 59.3073L50.1996 53.3167L53.2996 50.2215L59.2996 56.2122C59.7996 56.7114 60.3996 56.9111 61.0996 56.8112C61.6996 56.7114 62.2996 56.312 62.5996 55.7129C65.0996 50.3214 63.9996 43.9314 59.7996 39.8378C56.5996 36.6427 51.9996 35.2449 47.4996 35.9438ZM51.7996 4.0936L59.9996 12.2808L54.3996 17.8721L46.1996 9.68487L51.7996 4.0936ZM19.3996 24.2621C18.7996 23.663 17.9996 23.5632 17.2996 23.7629C13.6996 25.0608 9.69956 24.0624 6.99956 21.3666C4.69956 19.0702 3.69956 15.975 4.09956 12.8799L9.09956 17.8721C9.89956 18.6708 11.0996 18.6708 11.8996 17.8721L17.7996 11.9813C18.5996 11.1825 18.5996 9.9844 17.7996 9.18565L12.7996 4.19345C15.8996 3.79407 18.9996 4.79251 21.2996 7.08892C23.7996 9.58502 24.7996 13.1794 23.9996 16.5741C23.7996 17.273 23.8996 18.0718 24.4996 18.571L28.0996 22.1654L22.6996 27.5569L19.3996 24.2621ZM8.39956 57.5101L6.39956 55.5133L8.99956 48.3245L15.4996 54.8144L8.39956 57.5101ZM19.1996 52.9173L10.9996 44.7301L43.2996 12.4805L51.4996 20.6677L19.1996 52.9173ZM59.8996 51.22L54.8996 46.2278C54.0996 45.429 52.8996 45.429 52.0996 46.2278L46.1996 52.1186C45.3996 52.9173 45.3996 54.1154 46.1996 54.9142L51.1996 59.9064C48.0996 60.3058 44.9996 59.3073 42.6996 57.0109C39.9996 54.3151 38.9996 50.3214 40.2996 46.6271C40.4996 46.1279 40.3996 45.5289 40.1996 45.0296C40.0996 44.83 39.9996 44.7301 39.7996 44.5304L36.5996 41.3354L41.9996 35.9438L45.5996 39.5382C46.0996 40.0374 46.7996 40.2371 47.4996 40.0374C50.9996 39.1388 54.6996 40.1373 57.1996 42.6334C59.2996 45.0296 60.2996 48.1248 59.8996 51.22Z" fill="#484848"/>
</g>
<defs>
<clipPath id="clip0_944:36">
<rect width="64" height="64" fill="white"/>
</clipPath>
</defs>
</svg>
