<svg width="64" height="64" viewBox="0 0 64 64" fill="none" xmlns="http://www.w3.org/2000/svg">
<g clip-path="url(#clip0_1500:52)">
<path d="M62.8019 40.6243C62.103 40.3218 61.3043 40.3218 60.7053 40.826L53.5168 46.2707L36.8434 44.9599L48.3251 32.0539C48.7244 31.6505 48.8243 31.1464 48.8243 30.6422C48.8243 30.1381 48.5247 29.634 48.1254 29.2306L30.0543 12.6947C29.8546 9.66986 28.4568 6.94748 26.2604 5.03174C23.964 2.91433 21.0687 1.90605 17.9736 2.00687C11.6837 2.41019 6.79149 7.85494 7.09101 14.2072L8.08941 33.0621L0.501548 41.5318C-0.197335 42.3384 -0.197335 43.6492 0.701228 44.355L19.5711 61.4959C19.9704 61.7983 20.3698 62 20.869 62H20.9688C21.468 62 21.9672 61.6975 22.3666 61.2942L24.9624 58.3702L53.6166 56.1519L60.8051 61.5967C61.2045 61.8992 61.6038 62 62.0032 62C62.3027 62 62.6022 61.8992 62.9018 61.7983C63.6006 61.4959 64 60.7901 64 59.9834V42.4392C63.9002 41.7334 63.5008 41.0276 62.8019 40.6243ZM11.0846 14.0055C10.8849 9.87152 14.0798 6.24168 18.1733 6.04003C20.1701 5.9392 22.0671 6.645 23.5647 7.95577C24.9624 9.26655 25.861 10.9806 25.9608 12.8964L11.8833 28.8273L11.0846 14.0055ZM20.6693 57.1602L4.79468 42.7417L28.1573 16.5262L44.0319 30.9447L20.6693 57.1602ZM33.4489 48.7914L52.119 50.203V52.3204L28.7564 54.1354L33.4489 48.7914ZM59.9065 56.0511L56.1126 53.1271V49.2956L59.9065 46.3715V56.0511Z" fill="#484848"/>
</g>
<defs>
<clipPath id="clip0_1500:52">
<rect width="64" height="64" fill="white"/>
</clipPath>
</defs>
</svg>
