<svg width="64" height="64" viewBox="0 0 64 64" fill="none" xmlns="http://www.w3.org/2000/svg">
<path fill-rule="evenodd" clip-rule="evenodd" d="M59.6415 58.8813C59.2025 59.5923 58.4725 59.9993 57.6385 59.9993H6.36213C5.52814 59.9993 4.79815 59.5923 4.35915 58.8813C3.91916 58.1703 3.88116 57.3333 4.25516 56.5853L29.8929 5.30394C30.3009 4.48695 31.0889 3.99995 31.9998 3.99995C32.9118 3.99995 33.6998 4.48695 34.1068 5.30394L59.7455 56.5853C60.1195 57.3333 60.0815 58.1703 59.6415 58.8813ZM63.3235 54.7964L37.6848 3.51496C36.6008 1.34698 34.4228 0 31.9999 0C29.5779 0 27.3989 1.34698 26.3149 3.51496L0.677228 54.7964C-0.31576 56.7824 -0.211762 59.0963 0.956225 60.9853C2.12321 62.8723 4.14419 63.9993 6.36216 63.9993H57.6386C59.8566 63.9993 61.8775 62.8723 63.0445 60.9853C64.2115 59.0963 64.3155 56.7824 63.3235 54.7964ZM32.0003 45.026C33.1043 45.026 34.0003 44.13 34.0003 43.026V20.9733C34.0003 19.8693 33.1043 18.9733 32.0003 18.9733C30.8963 18.9733 30.0003 19.8693 30.0003 20.9733V43.026C30.0003 44.13 30.8963 45.026 32.0003 45.026ZM32.0103 49.2095H32.0203C33.1243 49.2095 34.0203 50.1055 34.0203 51.2095C34.0203 52.3135 33.1243 53.2095 32.0203 53.2095C30.9163 53.2095 30.0153 52.3135 30.0153 51.2095C30.0153 50.1055 30.9053 49.2095 32.0103 49.2095Z" fill="#484848"/>
</svg>
