<svg width="64" height="64" viewBox="0 0 64 64" fill="none" xmlns="http://www.w3.org/2000/svg">
<path fill-rule="evenodd" clip-rule="evenodd" d="M5 0H35C36.1 0 37 0.9 37 2V21C37 29.7 30.4 36.9 22 37.9V60H30C31.1 60 32 60.9 32 62C32 63.1 31.1 64 30 64H10C8.9 64 8 63.1 8 62C8 60.9 8.9 60 10 60H18V37.9C9.6 36.9 3 29.7 3 21V2C3 0.9 3.9 0 5 0ZM33 11.8V4H7V11.8H33ZM7 21C7 28.2 12.8 34 20 34C27.2 34 33 28.2 33 21V15.8H7V21ZM58 2C58 0.9 58.9 0 60 0C61.1 0 62 0.9 62 2V13.9C62 18.4 58.8 22.1 54.6 23.1V38H56.6C57.7 38 58.6 38.9 58.6 40V58C58.6 61.3 55.9 64 52.6 64C49.3 64 46.6 61.3 46.6 58V40C46.6 38.9 47.5 38 48.6 38H50.6V23.1C46.3 22.3 43 18.4 43 13.8V2C43 0.9 43.9 0 45 0C46.1 0 47 0.9 47 2V11.8H50.6V2C50.6 0.9 51.5 0 52.6 0C53.7 0 54.6 0.9 54.6 2V11.8H58V2ZM52.6 60C53.7 60 54.6 59.1 54.6 58V42H50.6V58C50.6 59.1 51.5 60 52.6 60ZM47.4 15.8C48.2 17.8 50.2 19.3 52.5 19.3C54.8 19.3 56.8 17.9 57.6 15.8H47.4Z" fill="#484848"/>
</svg>
