<svg width="64" height="64" viewBox="0 0 64 64" fill="none" xmlns="http://www.w3.org/2000/svg">
<path fill-rule="evenodd" clip-rule="evenodd" d="M59 25.4422V33.0143C61.8 33.0143 64 35.3058 64 37.9959V45.6676C64 48.4573 61.8 50.6492 59 50.6492V58.2213C59 61.4096 56.3 64 53 64H6C2.7 64 0 61.4096 0 58.2213V25.4422C0 22.254 2.7 19.6635 6 19.6635H10.4L37.2 0.434465C37.6 0.0359354 38.2 -0.0636971 38.7 0.0359354C39.2 0.135568 39.7 0.434465 40 0.832995L46.4 9.60066L47.9 9.10249C49 8.8036 50.1 9.30176 50.4 10.3977L53.3 19.6635C56.4 19.7632 59 22.3536 59 25.4422ZM27 19.6635H49L47.1 13.4863L27 19.6635ZM42.3 10.8959L37.9 4.8183L20.1 17.6709L42.3 10.8959ZM53 60.0147C54.1 60.0147 55 59.2176 55 58.2213V50.6492H44.2C41.4 50.6492 39.2 48.4573 39.2 45.6676V37.9959C39.2 35.2062 41.4 33.0143 44.2 33.0143H55V25.4422C55 24.4459 54.1 23.6488 53 23.6488H13.7H6C4.9 23.6488 4 24.4459 4 25.4422V58.2213C4 59.2176 4.9 60.0147 6 60.0147H53ZM59 46.7636C59.6 46.7636 60 46.365 60 45.7673V38.0956C60 37.4978 59.6 37.0992 59 37.0992H44.2C43.6 37.0992 43.2 37.4978 43.2 38.0956V45.7673C43.2 46.365 43.6 46.7636 44.2 46.7636H59ZM50.2 41.8817C50.2 42.9822 49.3046 43.8744 48.2 43.8744C47.0954 43.8744 46.2 42.9822 46.2 41.8817C46.2 40.7812 47.0954 39.8891 48.2 39.8891C49.3046 39.8891 50.2 40.7812 50.2 41.8817Z" fill="#484848"/>
</svg>
