<svg width="64" height="64" viewBox="0 0 64 64" fill="none" xmlns="http://www.w3.org/2000/svg">
<path d="M33.3879 0.6C33.0905 0.2 32.4957 0 32 0C31.5043 0 30.9095 0.2 30.6121 0.6C29.7198 1.6 9 23.9 9 40.8C9 53.6 19.3103 64 32 64C44.6897 64 55 53.6 55 40.8C55 23 34.2802 1.5 33.3879 0.6ZM32 60C21.4914 60 12.9655 51.4 12.9655 40.8C12.9655 27.9 27.4397 10.3 32 5C36.6595 10.2 51.0345 27.2 51.0345 40.8C51.0345 51.4 42.5086 60 32 60Z" fill="#484848"/>
<path d="M44.3922 37.6C43.3017 37.6 42.4095 38.5 42.4095 39.6C42.4095 45.9 37.2543 51.1 31.0086 51.1C29.9181 51.1 29.0259 52 29.0259 53.1C29.0259 54.2 29.9181 55.1 31.0086 55.1C39.5345 55.1 46.375 48.1 46.375 39.6C46.375 38.5 45.4828 37.6 44.3922 37.6Z" fill="#484848"/>
</svg>
