<svg width="64" height="64" viewBox="0 0 64 64" fill="none" xmlns="http://www.w3.org/2000/svg">
<path d="M56.2823 48.2247C59.6939 43.4321 61.5 37.8409 61.5 31.9501C61.5 26.1591 59.6939 20.468 56.2823 15.6755L57.2857 14.3775C58.7908 12.4805 59.3929 10.1841 59.0918 7.78783C58.7908 5.39158 57.5867 3.29485 55.6803 1.79719C54.1752 0.698908 52.1684 0 50.1616 0C47.352 0 44.7432 1.19813 43.0374 3.3947L41.8333 4.9922C38.6225 3.89392 35.3112 3.3947 32 3.3947C28.5884 3.3947 25.2772 3.99376 22.1667 4.9922L20.9626 3.3947C19.1565 1.19813 16.5476 0 13.7381 0C11.7313 0 9.82483 0.698908 8.21939 1.89704C6.31293 3.3947 5.10884 5.49142 4.80782 7.88768C4.5068 10.2839 5.20918 12.5803 6.61395 14.4774L7.61735 15.7754C4.30612 20.468 2.5 26.1591 2.5 31.9501C2.5 37.741 4.30612 43.4321 7.71769 48.2247L6.71429 49.5226C5.20918 51.4197 4.60714 53.7161 4.90816 56.1123C5.20918 58.5086 6.41327 60.6053 8.31973 62.103C9.92517 63.3011 11.8316 64 13.8384 64C16.648 64 19.2568 62.8019 20.9626 60.6053L22.1667 59.0078C25.3776 60.1061 28.6888 60.6053 32 60.6053C35.4116 60.6053 38.7228 60.0062 41.8333 59.0078L43.0374 60.6053C44.7432 62.8019 47.352 64 50.1616 64C52.1684 64 54.0748 63.3011 55.6803 62.103C57.5867 60.6053 58.7908 58.5086 59.0918 56.1123C59.3929 53.7161 58.6905 51.4197 57.2857 49.5226L56.2823 48.2247ZM51.6667 48.8237L54.0748 51.9189C55.7806 54.1154 55.3793 57.2106 53.1718 58.8081C52.2687 59.507 51.165 59.8066 50.0612 59.8066C48.5561 59.8066 47.1514 59.1076 46.148 57.9095L43.6395 54.7145C43.6395 54.7145 43.2381 54.3151 43.0374 54.2153C42.9371 54.2153 42.9371 54.2153 42.8367 54.2153C42.6361 54.2153 42.335 54.3151 42.1344 54.415C39.0238 55.713 35.5119 56.5117 31.8997 56.5117C28.2874 56.5117 24.7755 55.8128 21.665 54.415C21.4643 54.3151 21.1633 54.2153 20.9626 54.2153C20.8622 54.2153 20.8622 54.2153 20.7619 54.2153C20.5612 54.3151 20.1599 54.7145 20.1599 54.7145L17.6514 57.9095C16.648 59.1076 15.2432 59.8066 13.7381 59.8066C12.6344 59.8066 11.5306 59.507 10.6276 58.8081C8.52041 57.2106 8.11905 54.1154 9.82483 51.9189L12.233 48.8237C12.233 48.8237 12.534 48.4243 12.4337 48.025C12.4337 47.9251 12.3333 47.6256 12.1327 47.4259C8.62075 43.2325 6.51361 37.8409 6.51361 31.9501C6.51361 26.0593 8.62075 20.6677 12.233 16.4743C12.4337 16.1747 12.534 15.975 12.534 15.8752C12.6344 15.4758 12.3333 15.0764 12.3333 15.0764L9.82483 11.9813C8.11905 9.78471 8.52041 6.68955 10.7279 4.9922C11.631 4.29329 12.7347 3.99376 13.8384 3.99376C15.3435 3.99376 16.7483 4.69267 17.7517 5.8908L20.2602 9.0858C20.2602 9.0858 20.6616 9.48518 20.8622 9.58502C20.9626 9.58502 20.9626 9.58502 21.0629 9.58502C21.2636 9.58502 21.5646 9.48518 21.7653 9.38533C24.8759 8.08736 28.3878 7.28861 32 7.28861C35.6122 7.28861 39.1241 7.98752 42.2347 9.38533C42.4354 9.48518 42.7364 9.58502 42.9371 9.58502C43.0374 9.58502 43.0374 9.58502 43.1378 9.58502C43.3384 9.48518 43.7398 9.0858 43.7398 9.0858L46.2483 5.8908C47.2517 4.69267 48.6565 3.99376 50.1616 3.99376C51.2653 3.99376 52.369 4.29329 53.2721 4.9922C55.4796 6.68955 55.881 9.78471 54.1752 11.8814L51.6667 15.0764C51.6667 15.0764 51.3656 15.4758 51.466 15.8752C51.466 15.975 51.5663 16.2746 51.767 16.4743C55.2789 20.6677 57.4864 26.0593 57.4864 31.9501C57.4864 37.8409 55.3793 43.2325 51.767 47.4259C51.5663 47.7254 51.466 47.9251 51.466 48.025C51.3656 48.5242 51.6667 48.8237 51.6667 48.8237Z" fill="#484848"/>
<path d="M28.1871 40.5367C29.2908 41.1357 30.5952 41.5351 32 41.5351C33.4048 41.5351 34.7092 41.2356 35.8129 40.5367C38.3214 39.1388 40.0272 36.5429 40.0272 33.5476H23.9728C23.9728 36.5429 25.6786 39.1388 28.1871 40.5367Z" fill="#484848"/>
<path d="M32 13.7785C22.3673 13.7785 14.5408 21.9657 14.5408 31.9501C14.5408 41.9345 22.3673 50.1217 32 50.1217C41.6327 50.1217 49.4592 41.9345 49.4592 31.9501C49.4592 21.9657 41.6327 13.7785 32 13.7785ZM32 46.1279C24.5748 46.1279 18.5544 39.7379 18.5544 31.9501C18.5544 24.1622 24.5748 17.7722 32 17.7722C39.4252 17.7722 45.4456 24.1622 45.4456 31.9501C45.4456 39.7379 39.4252 46.1279 32 46.1279Z" fill="#484848"/>
</svg>
